G04 #@! TF.GenerationSoftware,KiCad,Pcbnew,(5.1.0)-1*
G04 #@! TF.CreationDate,2019-04-30T23:12:19+02:00*
G04 #@! TF.ProjectId,ArcJoy,4172634a-6f79-42e6-9b69-6361645f7063,1*
G04 #@! TF.SameCoordinates,Original*
G04 #@! TF.FileFunction,Soldermask,Bot*
G04 #@! TF.FilePolarity,Negative*
%FSLAX46Y46*%
G04 Gerber Fmt 4.6, Leading zero omitted, Abs format (unit mm)*
G04 Created by KiCad (PCBNEW (5.1.0)-1) date 2019-04-30 23:12:19*
%MOMM*%
%LPD*%
G04 APERTURE LIST*
%ADD10C,0.100000*%
G04 APERTURE END LIST*
D10*
G36*
X155150443Y-105855519D02*
G01*
X155216627Y-105862037D01*
X155386466Y-105913557D01*
X155542991Y-105997222D01*
X155578729Y-106026552D01*
X155680186Y-106109814D01*
X155756599Y-106202925D01*
X155792778Y-106247009D01*
X155876443Y-106403534D01*
X155927963Y-106573373D01*
X155945359Y-106750000D01*
X155927963Y-106926627D01*
X155876443Y-107096466D01*
X155792778Y-107252991D01*
X155763448Y-107288729D01*
X155680186Y-107390186D01*
X155578729Y-107473448D01*
X155542991Y-107502778D01*
X155386466Y-107586443D01*
X155216627Y-107637963D01*
X155150442Y-107644482D01*
X155084260Y-107651000D01*
X154995740Y-107651000D01*
X154929558Y-107644482D01*
X154863373Y-107637963D01*
X154693534Y-107586443D01*
X154537009Y-107502778D01*
X154501271Y-107473448D01*
X154399814Y-107390186D01*
X154316552Y-107288729D01*
X154287222Y-107252991D01*
X154203557Y-107096466D01*
X154152037Y-106926627D01*
X154134641Y-106750000D01*
X154152037Y-106573373D01*
X154203557Y-106403534D01*
X154287222Y-106247009D01*
X154323401Y-106202925D01*
X154399814Y-106109814D01*
X154501271Y-106026552D01*
X154537009Y-105997222D01*
X154693534Y-105913557D01*
X154863373Y-105862037D01*
X154929557Y-105855519D01*
X154995740Y-105849000D01*
X155084260Y-105849000D01*
X155150443Y-105855519D01*
X155150443Y-105855519D01*
G37*
G36*
X153401000Y-107651000D02*
G01*
X151599000Y-107651000D01*
X151599000Y-105849000D01*
X153401000Y-105849000D01*
X153401000Y-107651000D01*
X153401000Y-107651000D01*
G37*
G36*
X102610443Y-105855519D02*
G01*
X102676627Y-105862037D01*
X102846466Y-105913557D01*
X103002991Y-105997222D01*
X103038729Y-106026552D01*
X103140186Y-106109814D01*
X103216599Y-106202925D01*
X103252778Y-106247009D01*
X103336443Y-106403534D01*
X103387963Y-106573373D01*
X103405359Y-106750000D01*
X103387963Y-106926627D01*
X103336443Y-107096466D01*
X103252778Y-107252991D01*
X103223448Y-107288729D01*
X103140186Y-107390186D01*
X103038729Y-107473448D01*
X103002991Y-107502778D01*
X102846466Y-107586443D01*
X102676627Y-107637963D01*
X102610442Y-107644482D01*
X102544260Y-107651000D01*
X102455740Y-107651000D01*
X102389558Y-107644482D01*
X102323373Y-107637963D01*
X102153534Y-107586443D01*
X101997009Y-107502778D01*
X101961271Y-107473448D01*
X101859814Y-107390186D01*
X101776552Y-107288729D01*
X101747222Y-107252991D01*
X101663557Y-107096466D01*
X101612037Y-106926627D01*
X101594641Y-106750000D01*
X101612037Y-106573373D01*
X101663557Y-106403534D01*
X101747222Y-106247009D01*
X101783401Y-106202925D01*
X101859814Y-106109814D01*
X101961271Y-106026552D01*
X101997009Y-105997222D01*
X102153534Y-105913557D01*
X102323373Y-105862037D01*
X102389557Y-105855519D01*
X102455740Y-105849000D01*
X102544260Y-105849000D01*
X102610443Y-105855519D01*
X102610443Y-105855519D01*
G37*
G36*
X100861000Y-107651000D02*
G01*
X99059000Y-107651000D01*
X99059000Y-105849000D01*
X100861000Y-105849000D01*
X100861000Y-107651000D01*
X100861000Y-107651000D01*
G37*
G36*
X122614903Y-103797075D02*
G01*
X122842571Y-103891378D01*
X123047466Y-104028285D01*
X123221715Y-104202534D01*
X123358622Y-104407429D01*
X123452925Y-104635097D01*
X123501000Y-104876787D01*
X123501000Y-105123213D01*
X123452925Y-105364903D01*
X123358622Y-105592571D01*
X123221715Y-105797466D01*
X123047466Y-105971715D01*
X122842571Y-106108622D01*
X122842570Y-106108623D01*
X122842569Y-106108623D01*
X122614903Y-106202925D01*
X122373214Y-106251000D01*
X122126786Y-106251000D01*
X121885097Y-106202925D01*
X121657431Y-106108623D01*
X121657430Y-106108623D01*
X121657429Y-106108622D01*
X121452534Y-105971715D01*
X121278285Y-105797466D01*
X121141378Y-105592571D01*
X121047075Y-105364903D01*
X120999000Y-105123213D01*
X120999000Y-104876787D01*
X121047075Y-104635097D01*
X121141378Y-104407429D01*
X121278285Y-104202534D01*
X121452534Y-104028285D01*
X121657429Y-103891378D01*
X121885097Y-103797075D01*
X122126786Y-103749000D01*
X122373214Y-103749000D01*
X122614903Y-103797075D01*
X122614903Y-103797075D01*
G37*
G36*
X147114903Y-103797075D02*
G01*
X147342571Y-103891378D01*
X147547466Y-104028285D01*
X147721715Y-104202534D01*
X147858622Y-104407429D01*
X147952925Y-104635097D01*
X148001000Y-104876787D01*
X148001000Y-105123213D01*
X147952925Y-105364903D01*
X147858622Y-105592571D01*
X147721715Y-105797466D01*
X147547466Y-105971715D01*
X147342571Y-106108622D01*
X147342570Y-106108623D01*
X147342569Y-106108623D01*
X147114903Y-106202925D01*
X146873214Y-106251000D01*
X146626786Y-106251000D01*
X146385097Y-106202925D01*
X146157431Y-106108623D01*
X146157430Y-106108623D01*
X146157429Y-106108622D01*
X145952534Y-105971715D01*
X145778285Y-105797466D01*
X145641378Y-105592571D01*
X145547075Y-105364903D01*
X145499000Y-105123213D01*
X145499000Y-104876787D01*
X145547075Y-104635097D01*
X145641378Y-104407429D01*
X145778285Y-104202534D01*
X145952534Y-104028285D01*
X146157429Y-103891378D01*
X146385097Y-103797075D01*
X146626786Y-103749000D01*
X146873214Y-103749000D01*
X147114903Y-103797075D01*
X147114903Y-103797075D01*
G37*
G36*
X143614903Y-103797075D02*
G01*
X143842571Y-103891378D01*
X144047466Y-104028285D01*
X144221715Y-104202534D01*
X144358622Y-104407429D01*
X144452925Y-104635097D01*
X144501000Y-104876787D01*
X144501000Y-105123213D01*
X144452925Y-105364903D01*
X144358622Y-105592571D01*
X144221715Y-105797466D01*
X144047466Y-105971715D01*
X143842571Y-106108622D01*
X143842570Y-106108623D01*
X143842569Y-106108623D01*
X143614903Y-106202925D01*
X143373214Y-106251000D01*
X143126786Y-106251000D01*
X142885097Y-106202925D01*
X142657431Y-106108623D01*
X142657430Y-106108623D01*
X142657429Y-106108622D01*
X142452534Y-105971715D01*
X142278285Y-105797466D01*
X142141378Y-105592571D01*
X142047075Y-105364903D01*
X141999000Y-105123213D01*
X141999000Y-104876787D01*
X142047075Y-104635097D01*
X142141378Y-104407429D01*
X142278285Y-104202534D01*
X142452534Y-104028285D01*
X142657429Y-103891378D01*
X142885097Y-103797075D01*
X143126786Y-103749000D01*
X143373214Y-103749000D01*
X143614903Y-103797075D01*
X143614903Y-103797075D01*
G37*
G36*
X140114903Y-103797075D02*
G01*
X140342571Y-103891378D01*
X140547466Y-104028285D01*
X140721715Y-104202534D01*
X140858622Y-104407429D01*
X140952925Y-104635097D01*
X141001000Y-104876787D01*
X141001000Y-105123213D01*
X140952925Y-105364903D01*
X140858622Y-105592571D01*
X140721715Y-105797466D01*
X140547466Y-105971715D01*
X140342571Y-106108622D01*
X140342570Y-106108623D01*
X140342569Y-106108623D01*
X140114903Y-106202925D01*
X139873214Y-106251000D01*
X139626786Y-106251000D01*
X139385097Y-106202925D01*
X139157431Y-106108623D01*
X139157430Y-106108623D01*
X139157429Y-106108622D01*
X138952534Y-105971715D01*
X138778285Y-105797466D01*
X138641378Y-105592571D01*
X138547075Y-105364903D01*
X138499000Y-105123213D01*
X138499000Y-104876787D01*
X138547075Y-104635097D01*
X138641378Y-104407429D01*
X138778285Y-104202534D01*
X138952534Y-104028285D01*
X139157429Y-103891378D01*
X139385097Y-103797075D01*
X139626786Y-103749000D01*
X139873214Y-103749000D01*
X140114903Y-103797075D01*
X140114903Y-103797075D01*
G37*
G36*
X136614903Y-103797075D02*
G01*
X136842571Y-103891378D01*
X137047466Y-104028285D01*
X137221715Y-104202534D01*
X137358622Y-104407429D01*
X137452925Y-104635097D01*
X137501000Y-104876787D01*
X137501000Y-105123213D01*
X137452925Y-105364903D01*
X137358622Y-105592571D01*
X137221715Y-105797466D01*
X137047466Y-105971715D01*
X136842571Y-106108622D01*
X136842570Y-106108623D01*
X136842569Y-106108623D01*
X136614903Y-106202925D01*
X136373214Y-106251000D01*
X136126786Y-106251000D01*
X135885097Y-106202925D01*
X135657431Y-106108623D01*
X135657430Y-106108623D01*
X135657429Y-106108622D01*
X135452534Y-105971715D01*
X135278285Y-105797466D01*
X135141378Y-105592571D01*
X135047075Y-105364903D01*
X134999000Y-105123213D01*
X134999000Y-104876787D01*
X135047075Y-104635097D01*
X135141378Y-104407429D01*
X135278285Y-104202534D01*
X135452534Y-104028285D01*
X135657429Y-103891378D01*
X135885097Y-103797075D01*
X136126786Y-103749000D01*
X136373214Y-103749000D01*
X136614903Y-103797075D01*
X136614903Y-103797075D01*
G37*
G36*
X133114903Y-103797075D02*
G01*
X133342571Y-103891378D01*
X133547466Y-104028285D01*
X133721715Y-104202534D01*
X133858622Y-104407429D01*
X133952925Y-104635097D01*
X134001000Y-104876787D01*
X134001000Y-105123213D01*
X133952925Y-105364903D01*
X133858622Y-105592571D01*
X133721715Y-105797466D01*
X133547466Y-105971715D01*
X133342571Y-106108622D01*
X133342570Y-106108623D01*
X133342569Y-106108623D01*
X133114903Y-106202925D01*
X132873214Y-106251000D01*
X132626786Y-106251000D01*
X132385097Y-106202925D01*
X132157431Y-106108623D01*
X132157430Y-106108623D01*
X132157429Y-106108622D01*
X131952534Y-105971715D01*
X131778285Y-105797466D01*
X131641378Y-105592571D01*
X131547075Y-105364903D01*
X131499000Y-105123213D01*
X131499000Y-104876787D01*
X131547075Y-104635097D01*
X131641378Y-104407429D01*
X131778285Y-104202534D01*
X131952534Y-104028285D01*
X132157429Y-103891378D01*
X132385097Y-103797075D01*
X132626786Y-103749000D01*
X132873214Y-103749000D01*
X133114903Y-103797075D01*
X133114903Y-103797075D01*
G37*
G36*
X129614903Y-103797075D02*
G01*
X129842571Y-103891378D01*
X130047466Y-104028285D01*
X130221715Y-104202534D01*
X130358622Y-104407429D01*
X130452925Y-104635097D01*
X130501000Y-104876787D01*
X130501000Y-105123213D01*
X130452925Y-105364903D01*
X130358622Y-105592571D01*
X130221715Y-105797466D01*
X130047466Y-105971715D01*
X129842571Y-106108622D01*
X129842570Y-106108623D01*
X129842569Y-106108623D01*
X129614903Y-106202925D01*
X129373214Y-106251000D01*
X129126786Y-106251000D01*
X128885097Y-106202925D01*
X128657431Y-106108623D01*
X128657430Y-106108623D01*
X128657429Y-106108622D01*
X128452534Y-105971715D01*
X128278285Y-105797466D01*
X128141378Y-105592571D01*
X128047075Y-105364903D01*
X127999000Y-105123213D01*
X127999000Y-104876787D01*
X128047075Y-104635097D01*
X128141378Y-104407429D01*
X128278285Y-104202534D01*
X128452534Y-104028285D01*
X128657429Y-103891378D01*
X128885097Y-103797075D01*
X129126786Y-103749000D01*
X129373214Y-103749000D01*
X129614903Y-103797075D01*
X129614903Y-103797075D01*
G37*
G36*
X119114903Y-103797075D02*
G01*
X119342571Y-103891378D01*
X119547466Y-104028285D01*
X119721715Y-104202534D01*
X119858622Y-104407429D01*
X119952925Y-104635097D01*
X120001000Y-104876787D01*
X120001000Y-105123213D01*
X119952925Y-105364903D01*
X119858622Y-105592571D01*
X119721715Y-105797466D01*
X119547466Y-105971715D01*
X119342571Y-106108622D01*
X119342570Y-106108623D01*
X119342569Y-106108623D01*
X119114903Y-106202925D01*
X118873214Y-106251000D01*
X118626786Y-106251000D01*
X118385097Y-106202925D01*
X118157431Y-106108623D01*
X118157430Y-106108623D01*
X118157429Y-106108622D01*
X117952534Y-105971715D01*
X117778285Y-105797466D01*
X117641378Y-105592571D01*
X117547075Y-105364903D01*
X117499000Y-105123213D01*
X117499000Y-104876787D01*
X117547075Y-104635097D01*
X117641378Y-104407429D01*
X117778285Y-104202534D01*
X117952534Y-104028285D01*
X118157429Y-103891378D01*
X118385097Y-103797075D01*
X118626786Y-103749000D01*
X118873214Y-103749000D01*
X119114903Y-103797075D01*
X119114903Y-103797075D01*
G37*
G36*
X115614903Y-103797075D02*
G01*
X115842571Y-103891378D01*
X116047466Y-104028285D01*
X116221715Y-104202534D01*
X116358622Y-104407429D01*
X116452925Y-104635097D01*
X116501000Y-104876787D01*
X116501000Y-105123213D01*
X116452925Y-105364903D01*
X116358622Y-105592571D01*
X116221715Y-105797466D01*
X116047466Y-105971715D01*
X115842571Y-106108622D01*
X115842570Y-106108623D01*
X115842569Y-106108623D01*
X115614903Y-106202925D01*
X115373214Y-106251000D01*
X115126786Y-106251000D01*
X114885097Y-106202925D01*
X114657431Y-106108623D01*
X114657430Y-106108623D01*
X114657429Y-106108622D01*
X114452534Y-105971715D01*
X114278285Y-105797466D01*
X114141378Y-105592571D01*
X114047075Y-105364903D01*
X113999000Y-105123213D01*
X113999000Y-104876787D01*
X114047075Y-104635097D01*
X114141378Y-104407429D01*
X114278285Y-104202534D01*
X114452534Y-104028285D01*
X114657429Y-103891378D01*
X114885097Y-103797075D01*
X115126786Y-103749000D01*
X115373214Y-103749000D01*
X115614903Y-103797075D01*
X115614903Y-103797075D01*
G37*
G36*
X112114903Y-103797075D02*
G01*
X112342571Y-103891378D01*
X112547466Y-104028285D01*
X112721715Y-104202534D01*
X112858622Y-104407429D01*
X112952925Y-104635097D01*
X113001000Y-104876787D01*
X113001000Y-105123213D01*
X112952925Y-105364903D01*
X112858622Y-105592571D01*
X112721715Y-105797466D01*
X112547466Y-105971715D01*
X112342571Y-106108622D01*
X112342570Y-106108623D01*
X112342569Y-106108623D01*
X112114903Y-106202925D01*
X111873214Y-106251000D01*
X111626786Y-106251000D01*
X111385097Y-106202925D01*
X111157431Y-106108623D01*
X111157430Y-106108623D01*
X111157429Y-106108622D01*
X110952534Y-105971715D01*
X110778285Y-105797466D01*
X110641378Y-105592571D01*
X110547075Y-105364903D01*
X110499000Y-105123213D01*
X110499000Y-104876787D01*
X110547075Y-104635097D01*
X110641378Y-104407429D01*
X110778285Y-104202534D01*
X110952534Y-104028285D01*
X111157429Y-103891378D01*
X111385097Y-103797075D01*
X111626786Y-103749000D01*
X111873214Y-103749000D01*
X112114903Y-103797075D01*
X112114903Y-103797075D01*
G37*
G36*
X108614903Y-103797075D02*
G01*
X108842571Y-103891378D01*
X109047466Y-104028285D01*
X109221715Y-104202534D01*
X109358622Y-104407429D01*
X109452925Y-104635097D01*
X109501000Y-104876787D01*
X109501000Y-105123213D01*
X109452925Y-105364903D01*
X109358622Y-105592571D01*
X109221715Y-105797466D01*
X109047466Y-105971715D01*
X108842571Y-106108622D01*
X108842570Y-106108623D01*
X108842569Y-106108623D01*
X108614903Y-106202925D01*
X108373214Y-106251000D01*
X108126786Y-106251000D01*
X107885097Y-106202925D01*
X107657431Y-106108623D01*
X107657430Y-106108623D01*
X107657429Y-106108622D01*
X107452534Y-105971715D01*
X107278285Y-105797466D01*
X107141378Y-105592571D01*
X107047075Y-105364903D01*
X106999000Y-105123213D01*
X106999000Y-104876787D01*
X107047075Y-104635097D01*
X107141378Y-104407429D01*
X107278285Y-104202534D01*
X107452534Y-104028285D01*
X107657429Y-103891378D01*
X107885097Y-103797075D01*
X108126786Y-103749000D01*
X108373214Y-103749000D01*
X108614903Y-103797075D01*
X108614903Y-103797075D01*
G37*
G36*
X126114903Y-103797075D02*
G01*
X126342571Y-103891378D01*
X126547466Y-104028285D01*
X126721715Y-104202534D01*
X126858622Y-104407429D01*
X126952925Y-104635097D01*
X127001000Y-104876787D01*
X127001000Y-105123213D01*
X126952925Y-105364903D01*
X126858622Y-105592571D01*
X126721715Y-105797466D01*
X126547466Y-105971715D01*
X126342571Y-106108622D01*
X126342570Y-106108623D01*
X126342569Y-106108623D01*
X126114903Y-106202925D01*
X125873214Y-106251000D01*
X125626786Y-106251000D01*
X125385097Y-106202925D01*
X125157431Y-106108623D01*
X125157430Y-106108623D01*
X125157429Y-106108622D01*
X124952534Y-105971715D01*
X124778285Y-105797466D01*
X124641378Y-105592571D01*
X124547075Y-105364903D01*
X124499000Y-105123213D01*
X124499000Y-104876787D01*
X124547075Y-104635097D01*
X124641378Y-104407429D01*
X124778285Y-104202534D01*
X124952534Y-104028285D01*
X125157429Y-103891378D01*
X125385097Y-103797075D01*
X125626786Y-103749000D01*
X125873214Y-103749000D01*
X126114903Y-103797075D01*
X126114903Y-103797075D01*
G37*
G36*
X88817021Y-99306640D02*
G01*
X89326769Y-99517785D01*
X89326771Y-99517786D01*
X89785534Y-99824321D01*
X90175679Y-100214466D01*
X90482214Y-100673229D01*
X90482215Y-100673231D01*
X90693360Y-101182979D01*
X90801000Y-101724124D01*
X90801000Y-102275876D01*
X90693360Y-102817021D01*
X90482215Y-103326769D01*
X90482214Y-103326771D01*
X90175679Y-103785534D01*
X89785534Y-104175679D01*
X89326771Y-104482214D01*
X89326770Y-104482215D01*
X89326769Y-104482215D01*
X88817021Y-104693360D01*
X88275876Y-104801000D01*
X87724124Y-104801000D01*
X87182979Y-104693360D01*
X86673231Y-104482215D01*
X86673230Y-104482215D01*
X86673229Y-104482214D01*
X86214466Y-104175679D01*
X85824321Y-103785534D01*
X85517786Y-103326771D01*
X85517785Y-103326769D01*
X85306640Y-102817021D01*
X85199000Y-102275876D01*
X85199000Y-101724124D01*
X85306640Y-101182979D01*
X85517785Y-100673231D01*
X85517786Y-100673229D01*
X85824321Y-100214466D01*
X86214466Y-99824321D01*
X86673229Y-99517786D01*
X86673231Y-99517785D01*
X87182979Y-99306640D01*
X87724124Y-99199000D01*
X88275876Y-99199000D01*
X88817021Y-99306640D01*
X88817021Y-99306640D01*
G37*
G36*
X89614903Y-87047075D02*
G01*
X89842571Y-87141378D01*
X90047466Y-87278285D01*
X90221715Y-87452534D01*
X90358622Y-87657429D01*
X90452925Y-87885097D01*
X90501000Y-88126787D01*
X90501000Y-88373213D01*
X90452925Y-88614903D01*
X90358622Y-88842571D01*
X90221715Y-89047466D01*
X90047466Y-89221715D01*
X89842571Y-89358622D01*
X89842570Y-89358623D01*
X89842569Y-89358623D01*
X89614903Y-89452925D01*
X89373214Y-89501000D01*
X89126786Y-89501000D01*
X88885097Y-89452925D01*
X88657431Y-89358623D01*
X88657430Y-89358623D01*
X88657429Y-89358622D01*
X88452534Y-89221715D01*
X88278285Y-89047466D01*
X88141378Y-88842571D01*
X88047075Y-88614903D01*
X87999000Y-88373213D01*
X87999000Y-88126787D01*
X88047075Y-87885097D01*
X88141378Y-87657429D01*
X88278285Y-87452534D01*
X88452534Y-87278285D01*
X88657429Y-87141378D01*
X88885097Y-87047075D01*
X89126786Y-86999000D01*
X89373214Y-86999000D01*
X89614903Y-87047075D01*
X89614903Y-87047075D01*
G37*
G36*
X86114903Y-87047075D02*
G01*
X86342571Y-87141378D01*
X86547466Y-87278285D01*
X86721715Y-87452534D01*
X86858622Y-87657429D01*
X86952925Y-87885097D01*
X87001000Y-88126787D01*
X87001000Y-88373213D01*
X86952925Y-88614903D01*
X86858622Y-88842571D01*
X86721715Y-89047466D01*
X86547466Y-89221715D01*
X86342571Y-89358622D01*
X86342570Y-89358623D01*
X86342569Y-89358623D01*
X86114903Y-89452925D01*
X85873214Y-89501000D01*
X85626786Y-89501000D01*
X85385097Y-89452925D01*
X85157431Y-89358623D01*
X85157430Y-89358623D01*
X85157429Y-89358622D01*
X84952534Y-89221715D01*
X84778285Y-89047466D01*
X84641378Y-88842571D01*
X84547075Y-88614903D01*
X84499000Y-88373213D01*
X84499000Y-88126787D01*
X84547075Y-87885097D01*
X84641378Y-87657429D01*
X84778285Y-87452534D01*
X84952534Y-87278285D01*
X85157429Y-87141378D01*
X85385097Y-87047075D01*
X85626786Y-86999000D01*
X85873214Y-86999000D01*
X86114903Y-87047075D01*
X86114903Y-87047075D01*
G37*
G36*
X170277395Y-79085546D02*
G01*
X170450466Y-79157234D01*
X170450467Y-79157235D01*
X170606227Y-79261310D01*
X170738690Y-79393773D01*
X170738691Y-79393775D01*
X170842766Y-79549534D01*
X170914454Y-79722605D01*
X170951000Y-79906333D01*
X170951000Y-80093667D01*
X170914454Y-80277395D01*
X170842766Y-80450466D01*
X170842765Y-80450467D01*
X170738690Y-80606227D01*
X170606227Y-80738690D01*
X170527818Y-80791081D01*
X170450466Y-80842766D01*
X170277395Y-80914454D01*
X170093667Y-80951000D01*
X169906333Y-80951000D01*
X169722605Y-80914454D01*
X169549534Y-80842766D01*
X169472182Y-80791081D01*
X169393773Y-80738690D01*
X169261310Y-80606227D01*
X169157235Y-80450467D01*
X169157234Y-80450466D01*
X169085546Y-80277395D01*
X169049000Y-80093667D01*
X169049000Y-79906333D01*
X169085546Y-79722605D01*
X169157234Y-79549534D01*
X169261309Y-79393775D01*
X169261310Y-79393773D01*
X169393773Y-79261310D01*
X169549533Y-79157235D01*
X169549534Y-79157234D01*
X169722605Y-79085546D01*
X169906333Y-79049000D01*
X170093667Y-79049000D01*
X170277395Y-79085546D01*
X170277395Y-79085546D01*
G37*
G36*
X168411000Y-80951000D02*
G01*
X166509000Y-80951000D01*
X166509000Y-79049000D01*
X168411000Y-79049000D01*
X168411000Y-80951000D01*
X168411000Y-80951000D01*
G37*
G36*
X172817395Y-79085546D02*
G01*
X172990466Y-79157234D01*
X172990467Y-79157235D01*
X173146227Y-79261310D01*
X173278690Y-79393773D01*
X173278691Y-79393775D01*
X173382766Y-79549534D01*
X173454454Y-79722605D01*
X173491000Y-79906333D01*
X173491000Y-80093667D01*
X173454454Y-80277395D01*
X173382766Y-80450466D01*
X173382765Y-80450467D01*
X173278690Y-80606227D01*
X173146227Y-80738690D01*
X173067818Y-80791081D01*
X172990466Y-80842766D01*
X172817395Y-80914454D01*
X172633667Y-80951000D01*
X172446333Y-80951000D01*
X172262605Y-80914454D01*
X172089534Y-80842766D01*
X172012182Y-80791081D01*
X171933773Y-80738690D01*
X171801310Y-80606227D01*
X171697235Y-80450467D01*
X171697234Y-80450466D01*
X171625546Y-80277395D01*
X171589000Y-80093667D01*
X171589000Y-79906333D01*
X171625546Y-79722605D01*
X171697234Y-79549534D01*
X171801309Y-79393775D01*
X171801310Y-79393773D01*
X171933773Y-79261310D01*
X172089533Y-79157235D01*
X172089534Y-79157234D01*
X172262605Y-79085546D01*
X172446333Y-79049000D01*
X172633667Y-79049000D01*
X172817395Y-79085546D01*
X172817395Y-79085546D01*
G37*
G36*
X169980442Y-69355518D02*
G01*
X170046627Y-69362037D01*
X170216466Y-69413557D01*
X170372991Y-69497222D01*
X170408729Y-69526552D01*
X170510186Y-69609814D01*
X170593448Y-69711271D01*
X170622778Y-69747009D01*
X170706443Y-69903534D01*
X170757963Y-70073373D01*
X170775359Y-70250000D01*
X170757963Y-70426627D01*
X170706443Y-70596466D01*
X170622778Y-70752991D01*
X170593448Y-70788729D01*
X170510186Y-70890186D01*
X170408729Y-70973448D01*
X170372991Y-71002778D01*
X170216466Y-71086443D01*
X170046627Y-71137963D01*
X169980442Y-71144482D01*
X169914260Y-71151000D01*
X169825740Y-71151000D01*
X169759558Y-71144482D01*
X169693373Y-71137963D01*
X169523534Y-71086443D01*
X169367009Y-71002778D01*
X169331271Y-70973448D01*
X169229814Y-70890186D01*
X169146552Y-70788729D01*
X169117222Y-70752991D01*
X169033557Y-70596466D01*
X168982037Y-70426627D01*
X168964641Y-70250000D01*
X168982037Y-70073373D01*
X169033557Y-69903534D01*
X169117222Y-69747009D01*
X169146552Y-69711271D01*
X169229814Y-69609814D01*
X169331271Y-69526552D01*
X169367009Y-69497222D01*
X169523534Y-69413557D01*
X169693373Y-69362037D01*
X169759558Y-69355518D01*
X169825740Y-69349000D01*
X169914260Y-69349000D01*
X169980442Y-69355518D01*
X169980442Y-69355518D01*
G37*
G36*
X160611000Y-71151000D02*
G01*
X158809000Y-71151000D01*
X158809000Y-69349000D01*
X160611000Y-69349000D01*
X160611000Y-71151000D01*
X160611000Y-71151000D01*
G37*
G36*
X172520442Y-69355518D02*
G01*
X172586627Y-69362037D01*
X172756466Y-69413557D01*
X172912991Y-69497222D01*
X172948729Y-69526552D01*
X173050186Y-69609814D01*
X173133448Y-69711271D01*
X173162778Y-69747009D01*
X173246443Y-69903534D01*
X173297963Y-70073373D01*
X173315359Y-70250000D01*
X173297963Y-70426627D01*
X173246443Y-70596466D01*
X173162778Y-70752991D01*
X173133448Y-70788729D01*
X173050186Y-70890186D01*
X172948729Y-70973448D01*
X172912991Y-71002778D01*
X172756466Y-71086443D01*
X172586627Y-71137963D01*
X172520442Y-71144482D01*
X172454260Y-71151000D01*
X172365740Y-71151000D01*
X172299558Y-71144482D01*
X172233373Y-71137963D01*
X172063534Y-71086443D01*
X171907009Y-71002778D01*
X171871271Y-70973448D01*
X171769814Y-70890186D01*
X171686552Y-70788729D01*
X171657222Y-70752991D01*
X171573557Y-70596466D01*
X171522037Y-70426627D01*
X171504641Y-70250000D01*
X171522037Y-70073373D01*
X171573557Y-69903534D01*
X171657222Y-69747009D01*
X171686552Y-69711271D01*
X171769814Y-69609814D01*
X171871271Y-69526552D01*
X171907009Y-69497222D01*
X172063534Y-69413557D01*
X172233373Y-69362037D01*
X172299558Y-69355518D01*
X172365740Y-69349000D01*
X172454260Y-69349000D01*
X172520442Y-69355518D01*
X172520442Y-69355518D01*
G37*
G36*
X167440442Y-69355518D02*
G01*
X167506627Y-69362037D01*
X167676466Y-69413557D01*
X167832991Y-69497222D01*
X167868729Y-69526552D01*
X167970186Y-69609814D01*
X168053448Y-69711271D01*
X168082778Y-69747009D01*
X168166443Y-69903534D01*
X168217963Y-70073373D01*
X168235359Y-70250000D01*
X168217963Y-70426627D01*
X168166443Y-70596466D01*
X168082778Y-70752991D01*
X168053448Y-70788729D01*
X167970186Y-70890186D01*
X167868729Y-70973448D01*
X167832991Y-71002778D01*
X167676466Y-71086443D01*
X167506627Y-71137963D01*
X167440442Y-71144482D01*
X167374260Y-71151000D01*
X167285740Y-71151000D01*
X167219558Y-71144482D01*
X167153373Y-71137963D01*
X166983534Y-71086443D01*
X166827009Y-71002778D01*
X166791271Y-70973448D01*
X166689814Y-70890186D01*
X166606552Y-70788729D01*
X166577222Y-70752991D01*
X166493557Y-70596466D01*
X166442037Y-70426627D01*
X166424641Y-70250000D01*
X166442037Y-70073373D01*
X166493557Y-69903534D01*
X166577222Y-69747009D01*
X166606552Y-69711271D01*
X166689814Y-69609814D01*
X166791271Y-69526552D01*
X166827009Y-69497222D01*
X166983534Y-69413557D01*
X167153373Y-69362037D01*
X167219558Y-69355518D01*
X167285740Y-69349000D01*
X167374260Y-69349000D01*
X167440442Y-69355518D01*
X167440442Y-69355518D01*
G37*
G36*
X164900442Y-69355518D02*
G01*
X164966627Y-69362037D01*
X165136466Y-69413557D01*
X165292991Y-69497222D01*
X165328729Y-69526552D01*
X165430186Y-69609814D01*
X165513448Y-69711271D01*
X165542778Y-69747009D01*
X165626443Y-69903534D01*
X165677963Y-70073373D01*
X165695359Y-70250000D01*
X165677963Y-70426627D01*
X165626443Y-70596466D01*
X165542778Y-70752991D01*
X165513448Y-70788729D01*
X165430186Y-70890186D01*
X165328729Y-70973448D01*
X165292991Y-71002778D01*
X165136466Y-71086443D01*
X164966627Y-71137963D01*
X164900442Y-71144482D01*
X164834260Y-71151000D01*
X164745740Y-71151000D01*
X164679558Y-71144482D01*
X164613373Y-71137963D01*
X164443534Y-71086443D01*
X164287009Y-71002778D01*
X164251271Y-70973448D01*
X164149814Y-70890186D01*
X164066552Y-70788729D01*
X164037222Y-70752991D01*
X163953557Y-70596466D01*
X163902037Y-70426627D01*
X163884641Y-70250000D01*
X163902037Y-70073373D01*
X163953557Y-69903534D01*
X164037222Y-69747009D01*
X164066552Y-69711271D01*
X164149814Y-69609814D01*
X164251271Y-69526552D01*
X164287009Y-69497222D01*
X164443534Y-69413557D01*
X164613373Y-69362037D01*
X164679558Y-69355518D01*
X164745740Y-69349000D01*
X164834260Y-69349000D01*
X164900442Y-69355518D01*
X164900442Y-69355518D01*
G37*
G36*
X162360442Y-69355518D02*
G01*
X162426627Y-69362037D01*
X162596466Y-69413557D01*
X162752991Y-69497222D01*
X162788729Y-69526552D01*
X162890186Y-69609814D01*
X162973448Y-69711271D01*
X163002778Y-69747009D01*
X163086443Y-69903534D01*
X163137963Y-70073373D01*
X163155359Y-70250000D01*
X163137963Y-70426627D01*
X163086443Y-70596466D01*
X163002778Y-70752991D01*
X162973448Y-70788729D01*
X162890186Y-70890186D01*
X162788729Y-70973448D01*
X162752991Y-71002778D01*
X162596466Y-71086443D01*
X162426627Y-71137963D01*
X162360442Y-71144482D01*
X162294260Y-71151000D01*
X162205740Y-71151000D01*
X162139558Y-71144482D01*
X162073373Y-71137963D01*
X161903534Y-71086443D01*
X161747009Y-71002778D01*
X161711271Y-70973448D01*
X161609814Y-70890186D01*
X161526552Y-70788729D01*
X161497222Y-70752991D01*
X161413557Y-70596466D01*
X161362037Y-70426627D01*
X161344641Y-70250000D01*
X161362037Y-70073373D01*
X161413557Y-69903534D01*
X161497222Y-69747009D01*
X161526552Y-69711271D01*
X161609814Y-69609814D01*
X161711271Y-69526552D01*
X161747009Y-69497222D01*
X161903534Y-69413557D01*
X162073373Y-69362037D01*
X162139558Y-69355518D01*
X162205740Y-69349000D01*
X162294260Y-69349000D01*
X162360442Y-69355518D01*
X162360442Y-69355518D01*
G37*
G36*
X167817021Y-55306640D02*
G01*
X168276611Y-55497009D01*
X168326771Y-55517786D01*
X168785534Y-55824321D01*
X169175679Y-56214466D01*
X169460135Y-56640186D01*
X169482215Y-56673231D01*
X169693360Y-57182979D01*
X169801000Y-57724124D01*
X169801000Y-58275876D01*
X169693360Y-58817021D01*
X169482215Y-59326769D01*
X169482214Y-59326771D01*
X169175679Y-59785534D01*
X168785534Y-60175679D01*
X168326771Y-60482214D01*
X168326770Y-60482215D01*
X168326769Y-60482215D01*
X167817021Y-60693360D01*
X167275876Y-60801000D01*
X166724124Y-60801000D01*
X166182979Y-60693360D01*
X165673231Y-60482215D01*
X165673230Y-60482215D01*
X165673229Y-60482214D01*
X165214466Y-60175679D01*
X164824321Y-59785534D01*
X164517786Y-59326771D01*
X164517785Y-59326769D01*
X164306640Y-58817021D01*
X164199000Y-58275876D01*
X164199000Y-57724124D01*
X164306640Y-57182979D01*
X164517785Y-56673231D01*
X164539865Y-56640186D01*
X164824321Y-56214466D01*
X165214466Y-55824321D01*
X165673229Y-55517786D01*
X165723389Y-55497009D01*
X166182979Y-55306640D01*
X166724124Y-55199000D01*
X167275876Y-55199000D01*
X167817021Y-55306640D01*
X167817021Y-55306640D01*
G37*
G36*
X155150442Y-55105518D02*
G01*
X155216627Y-55112037D01*
X155386466Y-55163557D01*
X155542991Y-55247222D01*
X155578729Y-55276552D01*
X155680186Y-55359814D01*
X155763448Y-55461271D01*
X155792778Y-55497009D01*
X155876443Y-55653534D01*
X155927963Y-55823373D01*
X155945359Y-56000000D01*
X155927963Y-56176627D01*
X155876443Y-56346466D01*
X155792778Y-56502991D01*
X155763448Y-56538729D01*
X155680186Y-56640186D01*
X155578729Y-56723448D01*
X155542991Y-56752778D01*
X155386466Y-56836443D01*
X155216627Y-56887963D01*
X155150443Y-56894481D01*
X155084260Y-56901000D01*
X154995740Y-56901000D01*
X154929557Y-56894481D01*
X154863373Y-56887963D01*
X154693534Y-56836443D01*
X154537009Y-56752778D01*
X154501271Y-56723448D01*
X154399814Y-56640186D01*
X154316552Y-56538729D01*
X154287222Y-56502991D01*
X154203557Y-56346466D01*
X154152037Y-56176627D01*
X154134641Y-56000000D01*
X154152037Y-55823373D01*
X154203557Y-55653534D01*
X154287222Y-55497009D01*
X154316552Y-55461271D01*
X154399814Y-55359814D01*
X154501271Y-55276552D01*
X154537009Y-55247222D01*
X154693534Y-55163557D01*
X154863373Y-55112037D01*
X154929558Y-55105518D01*
X154995740Y-55099000D01*
X155084260Y-55099000D01*
X155150442Y-55105518D01*
X155150442Y-55105518D01*
G37*
G36*
X153401000Y-56901000D02*
G01*
X151599000Y-56901000D01*
X151599000Y-55099000D01*
X153401000Y-55099000D01*
X153401000Y-56901000D01*
X153401000Y-56901000D01*
G37*
G36*
X102610442Y-55105518D02*
G01*
X102676627Y-55112037D01*
X102846466Y-55163557D01*
X103002991Y-55247222D01*
X103038729Y-55276552D01*
X103140186Y-55359814D01*
X103223448Y-55461271D01*
X103252778Y-55497009D01*
X103336443Y-55653534D01*
X103387963Y-55823373D01*
X103405359Y-56000000D01*
X103387963Y-56176627D01*
X103336443Y-56346466D01*
X103252778Y-56502991D01*
X103223448Y-56538729D01*
X103140186Y-56640186D01*
X103038729Y-56723448D01*
X103002991Y-56752778D01*
X102846466Y-56836443D01*
X102676627Y-56887963D01*
X102610443Y-56894481D01*
X102544260Y-56901000D01*
X102455740Y-56901000D01*
X102389557Y-56894481D01*
X102323373Y-56887963D01*
X102153534Y-56836443D01*
X101997009Y-56752778D01*
X101961271Y-56723448D01*
X101859814Y-56640186D01*
X101776552Y-56538729D01*
X101747222Y-56502991D01*
X101663557Y-56346466D01*
X101612037Y-56176627D01*
X101594641Y-56000000D01*
X101612037Y-55823373D01*
X101663557Y-55653534D01*
X101747222Y-55497009D01*
X101776552Y-55461271D01*
X101859814Y-55359814D01*
X101961271Y-55276552D01*
X101997009Y-55247222D01*
X102153534Y-55163557D01*
X102323373Y-55112037D01*
X102389558Y-55105518D01*
X102455740Y-55099000D01*
X102544260Y-55099000D01*
X102610442Y-55105518D01*
X102610442Y-55105518D01*
G37*
G36*
X100861000Y-56901000D02*
G01*
X99059000Y-56901000D01*
X99059000Y-55099000D01*
X100861000Y-55099000D01*
X100861000Y-56901000D01*
X100861000Y-56901000D01*
G37*
M02*
