M48
; DRILL file {KiCad (5.1.0)-1} date 30/04/2019 23:12:21
; FORMAT={-:-/ absolute / inch / decimal}
; #@! TF.CreationDate,2019-04-30T23:12:21+02:00
; #@! TF.GenerationSoftware,Kicad,Pcbnew,(5.1.0)-1
; #@! TF.FileFunction,Plated,1,2,PTH
FMAT,2
INCH
T1C0.0157
T2C0.0354
T3C0.0394
T4C0.0472
%
G90
G05
T1
X3.4449Y-2.9035
X3.4843Y-2.5098
X3.4843Y-2.5689
X3.4843Y-2.7854
X3.4843Y-2.8445
X3.6811Y-2.6339
X3.6811Y-2.7339
X3.6811Y-2.8339
X3.6811Y-2.9339
X3.6811Y-3.0339
X3.6811Y-3.1339
X4.1831Y-3.7776
X4.1831Y-3.8406
X4.2303Y-3.9665
X4.2933Y-3.9665
X4.3917Y-2.4311
X4.5059Y-3.9665
X4.5281Y-2.5675
X4.5689Y-3.9665
X4.7815Y-3.9665
X4.8228Y-2.0693
X4.8228Y-2.1126
X4.8228Y-2.1559
X4.8228Y-2.3291
X4.8228Y-2.3724
X4.8445Y-3.9665
X4.9311Y-2.5394
X4.9606Y-2.0909
X4.9606Y-2.1343
X4.9661Y-2.4705
X4.9673Y-2.3394
X5.0322Y-2.6403
X5.0571Y-3.9665
X5.1201Y-3.9665
X5.2362Y-2.6476
X5.2854Y-2.0693
X5.2854Y-2.4158
X5.3248Y-2.3524
X5.3327Y-3.9665
X5.3839Y-2.3524
X5.3839Y-2.6378
X5.3957Y-3.9665
X5.4232Y-2.3524
X5.4823Y-2.3524
X5.5512Y-2.3524
X5.6083Y-3.9665
X5.6102Y-2.3524
X5.6713Y-3.9665
X5.7756Y-2.4606
X5.8839Y-3.9665
X5.9469Y-3.9665
X5.9665Y-2.4606
X6.2697Y-2.626
T2
X6.5929Y-3.1496
X6.6929Y-3.1496
X6.7929Y-3.1496
T3
X6.0039Y-2.2047
X6.1039Y-2.2047
X6.0039Y-4.2028
X6.1039Y-4.2028
X6.2878Y-2.7657
X6.3878Y-2.7657
X6.4878Y-2.7657
X6.5878Y-2.7657
X6.6878Y-2.7657
X6.7878Y-2.7657
X3.9354Y-2.2047
X4.0354Y-2.2047
X3.9354Y-4.2028
X4.0354Y-4.2028
T4
X5.0886Y-4.1339
X5.2264Y-4.1339
X5.3642Y-4.1339
X5.502Y-4.1339
X4.813Y-4.1339
X4.9508Y-4.1339
X4.2618Y-4.1339
X4.3996Y-4.1339
X3.376Y-3.4744
X3.5138Y-3.4744
X5.6398Y-4.1339
X5.7776Y-4.1339
X4.5374Y-4.1339
X4.6752Y-4.1339
T0
M30
