G04 #@! TF.GenerationSoftware,KiCad,Pcbnew,(5.1.0)-1*
G04 #@! TF.CreationDate,2019-04-30T23:12:19+02:00*
G04 #@! TF.ProjectId,ArcJoy,4172634a-6f79-42e6-9b69-6361645f7063,1*
G04 #@! TF.SameCoordinates,Original*
G04 #@! TF.FileFunction,Soldermask,Top*
G04 #@! TF.FilePolarity,Negative*
%FSLAX46Y46*%
G04 Gerber Fmt 4.6, Leading zero omitted, Abs format (unit mm)*
G04 Created by KiCad (PCBNEW (5.1.0)-1) date 2019-04-30 23:12:19*
%MOMM*%
%LPD*%
G04 APERTURE LIST*
%ADD10C,0.100000*%
G04 APERTURE END LIST*
D10*
G36*
X153401000Y-107651000D02*
G01*
X151599000Y-107651000D01*
X151599000Y-105849000D01*
X153401000Y-105849000D01*
X153401000Y-107651000D01*
X153401000Y-107651000D01*
G37*
G36*
X155150443Y-105855519D02*
G01*
X155216627Y-105862037D01*
X155386466Y-105913557D01*
X155542991Y-105997222D01*
X155578729Y-106026552D01*
X155680186Y-106109814D01*
X155756599Y-106202925D01*
X155792778Y-106247009D01*
X155876443Y-106403534D01*
X155927963Y-106573373D01*
X155945359Y-106750000D01*
X155927963Y-106926627D01*
X155876443Y-107096466D01*
X155792778Y-107252991D01*
X155763448Y-107288729D01*
X155680186Y-107390186D01*
X155578729Y-107473448D01*
X155542991Y-107502778D01*
X155386466Y-107586443D01*
X155216627Y-107637963D01*
X155150442Y-107644482D01*
X155084260Y-107651000D01*
X154995740Y-107651000D01*
X154929558Y-107644482D01*
X154863373Y-107637963D01*
X154693534Y-107586443D01*
X154537009Y-107502778D01*
X154501271Y-107473448D01*
X154399814Y-107390186D01*
X154316552Y-107288729D01*
X154287222Y-107252991D01*
X154203557Y-107096466D01*
X154152037Y-106926627D01*
X154134641Y-106750000D01*
X154152037Y-106573373D01*
X154203557Y-106403534D01*
X154287222Y-106247009D01*
X154323401Y-106202925D01*
X154399814Y-106109814D01*
X154501271Y-106026552D01*
X154537009Y-105997222D01*
X154693534Y-105913557D01*
X154863373Y-105862037D01*
X154929557Y-105855519D01*
X154995740Y-105849000D01*
X155084260Y-105849000D01*
X155150443Y-105855519D01*
X155150443Y-105855519D01*
G37*
G36*
X102610443Y-105855519D02*
G01*
X102676627Y-105862037D01*
X102846466Y-105913557D01*
X103002991Y-105997222D01*
X103038729Y-106026552D01*
X103140186Y-106109814D01*
X103216599Y-106202925D01*
X103252778Y-106247009D01*
X103336443Y-106403534D01*
X103387963Y-106573373D01*
X103405359Y-106750000D01*
X103387963Y-106926627D01*
X103336443Y-107096466D01*
X103252778Y-107252991D01*
X103223448Y-107288729D01*
X103140186Y-107390186D01*
X103038729Y-107473448D01*
X103002991Y-107502778D01*
X102846466Y-107586443D01*
X102676627Y-107637963D01*
X102610442Y-107644482D01*
X102544260Y-107651000D01*
X102455740Y-107651000D01*
X102389558Y-107644482D01*
X102323373Y-107637963D01*
X102153534Y-107586443D01*
X101997009Y-107502778D01*
X101961271Y-107473448D01*
X101859814Y-107390186D01*
X101776552Y-107288729D01*
X101747222Y-107252991D01*
X101663557Y-107096466D01*
X101612037Y-106926627D01*
X101594641Y-106750000D01*
X101612037Y-106573373D01*
X101663557Y-106403534D01*
X101747222Y-106247009D01*
X101783401Y-106202925D01*
X101859814Y-106109814D01*
X101961271Y-106026552D01*
X101997009Y-105997222D01*
X102153534Y-105913557D01*
X102323373Y-105862037D01*
X102389557Y-105855519D01*
X102455740Y-105849000D01*
X102544260Y-105849000D01*
X102610443Y-105855519D01*
X102610443Y-105855519D01*
G37*
G36*
X100861000Y-107651000D02*
G01*
X99059000Y-107651000D01*
X99059000Y-105849000D01*
X100861000Y-105849000D01*
X100861000Y-107651000D01*
X100861000Y-107651000D01*
G37*
G36*
X115614903Y-103797075D02*
G01*
X115842571Y-103891378D01*
X116047466Y-104028285D01*
X116221715Y-104202534D01*
X116358622Y-104407429D01*
X116452925Y-104635097D01*
X116501000Y-104876787D01*
X116501000Y-105123213D01*
X116452925Y-105364903D01*
X116358622Y-105592571D01*
X116221715Y-105797466D01*
X116047466Y-105971715D01*
X115842571Y-106108622D01*
X115842570Y-106108623D01*
X115842569Y-106108623D01*
X115614903Y-106202925D01*
X115373214Y-106251000D01*
X115126786Y-106251000D01*
X114885097Y-106202925D01*
X114657431Y-106108623D01*
X114657430Y-106108623D01*
X114657429Y-106108622D01*
X114452534Y-105971715D01*
X114278285Y-105797466D01*
X114141378Y-105592571D01*
X114047075Y-105364903D01*
X113999000Y-105123213D01*
X113999000Y-104876787D01*
X114047075Y-104635097D01*
X114141378Y-104407429D01*
X114278285Y-104202534D01*
X114452534Y-104028285D01*
X114657429Y-103891378D01*
X114885097Y-103797075D01*
X115126786Y-103749000D01*
X115373214Y-103749000D01*
X115614903Y-103797075D01*
X115614903Y-103797075D01*
G37*
G36*
X126114903Y-103797075D02*
G01*
X126342571Y-103891378D01*
X126547466Y-104028285D01*
X126721715Y-104202534D01*
X126858622Y-104407429D01*
X126952925Y-104635097D01*
X127001000Y-104876787D01*
X127001000Y-105123213D01*
X126952925Y-105364903D01*
X126858622Y-105592571D01*
X126721715Y-105797466D01*
X126547466Y-105971715D01*
X126342571Y-106108622D01*
X126342570Y-106108623D01*
X126342569Y-106108623D01*
X126114903Y-106202925D01*
X125873214Y-106251000D01*
X125626786Y-106251000D01*
X125385097Y-106202925D01*
X125157431Y-106108623D01*
X125157430Y-106108623D01*
X125157429Y-106108622D01*
X124952534Y-105971715D01*
X124778285Y-105797466D01*
X124641378Y-105592571D01*
X124547075Y-105364903D01*
X124499000Y-105123213D01*
X124499000Y-104876787D01*
X124547075Y-104635097D01*
X124641378Y-104407429D01*
X124778285Y-104202534D01*
X124952534Y-104028285D01*
X125157429Y-103891378D01*
X125385097Y-103797075D01*
X125626786Y-103749000D01*
X125873214Y-103749000D01*
X126114903Y-103797075D01*
X126114903Y-103797075D01*
G37*
G36*
X122614903Y-103797075D02*
G01*
X122842571Y-103891378D01*
X123047466Y-104028285D01*
X123221715Y-104202534D01*
X123358622Y-104407429D01*
X123452925Y-104635097D01*
X123501000Y-104876787D01*
X123501000Y-105123213D01*
X123452925Y-105364903D01*
X123358622Y-105592571D01*
X123221715Y-105797466D01*
X123047466Y-105971715D01*
X122842571Y-106108622D01*
X122842570Y-106108623D01*
X122842569Y-106108623D01*
X122614903Y-106202925D01*
X122373214Y-106251000D01*
X122126786Y-106251000D01*
X121885097Y-106202925D01*
X121657431Y-106108623D01*
X121657430Y-106108623D01*
X121657429Y-106108622D01*
X121452534Y-105971715D01*
X121278285Y-105797466D01*
X121141378Y-105592571D01*
X121047075Y-105364903D01*
X120999000Y-105123213D01*
X120999000Y-104876787D01*
X121047075Y-104635097D01*
X121141378Y-104407429D01*
X121278285Y-104202534D01*
X121452534Y-104028285D01*
X121657429Y-103891378D01*
X121885097Y-103797075D01*
X122126786Y-103749000D01*
X122373214Y-103749000D01*
X122614903Y-103797075D01*
X122614903Y-103797075D01*
G37*
G36*
X147114903Y-103797075D02*
G01*
X147342571Y-103891378D01*
X147547466Y-104028285D01*
X147721715Y-104202534D01*
X147858622Y-104407429D01*
X147952925Y-104635097D01*
X148001000Y-104876787D01*
X148001000Y-105123213D01*
X147952925Y-105364903D01*
X147858622Y-105592571D01*
X147721715Y-105797466D01*
X147547466Y-105971715D01*
X147342571Y-106108622D01*
X147342570Y-106108623D01*
X147342569Y-106108623D01*
X147114903Y-106202925D01*
X146873214Y-106251000D01*
X146626786Y-106251000D01*
X146385097Y-106202925D01*
X146157431Y-106108623D01*
X146157430Y-106108623D01*
X146157429Y-106108622D01*
X145952534Y-105971715D01*
X145778285Y-105797466D01*
X145641378Y-105592571D01*
X145547075Y-105364903D01*
X145499000Y-105123213D01*
X145499000Y-104876787D01*
X145547075Y-104635097D01*
X145641378Y-104407429D01*
X145778285Y-104202534D01*
X145952534Y-104028285D01*
X146157429Y-103891378D01*
X146385097Y-103797075D01*
X146626786Y-103749000D01*
X146873214Y-103749000D01*
X147114903Y-103797075D01*
X147114903Y-103797075D01*
G37*
G36*
X143614903Y-103797075D02*
G01*
X143842571Y-103891378D01*
X144047466Y-104028285D01*
X144221715Y-104202534D01*
X144358622Y-104407429D01*
X144452925Y-104635097D01*
X144501000Y-104876787D01*
X144501000Y-105123213D01*
X144452925Y-105364903D01*
X144358622Y-105592571D01*
X144221715Y-105797466D01*
X144047466Y-105971715D01*
X143842571Y-106108622D01*
X143842570Y-106108623D01*
X143842569Y-106108623D01*
X143614903Y-106202925D01*
X143373214Y-106251000D01*
X143126786Y-106251000D01*
X142885097Y-106202925D01*
X142657431Y-106108623D01*
X142657430Y-106108623D01*
X142657429Y-106108622D01*
X142452534Y-105971715D01*
X142278285Y-105797466D01*
X142141378Y-105592571D01*
X142047075Y-105364903D01*
X141999000Y-105123213D01*
X141999000Y-104876787D01*
X142047075Y-104635097D01*
X142141378Y-104407429D01*
X142278285Y-104202534D01*
X142452534Y-104028285D01*
X142657429Y-103891378D01*
X142885097Y-103797075D01*
X143126786Y-103749000D01*
X143373214Y-103749000D01*
X143614903Y-103797075D01*
X143614903Y-103797075D01*
G37*
G36*
X140114903Y-103797075D02*
G01*
X140342571Y-103891378D01*
X140547466Y-104028285D01*
X140721715Y-104202534D01*
X140858622Y-104407429D01*
X140952925Y-104635097D01*
X141001000Y-104876787D01*
X141001000Y-105123213D01*
X140952925Y-105364903D01*
X140858622Y-105592571D01*
X140721715Y-105797466D01*
X140547466Y-105971715D01*
X140342571Y-106108622D01*
X140342570Y-106108623D01*
X140342569Y-106108623D01*
X140114903Y-106202925D01*
X139873214Y-106251000D01*
X139626786Y-106251000D01*
X139385097Y-106202925D01*
X139157431Y-106108623D01*
X139157430Y-106108623D01*
X139157429Y-106108622D01*
X138952534Y-105971715D01*
X138778285Y-105797466D01*
X138641378Y-105592571D01*
X138547075Y-105364903D01*
X138499000Y-105123213D01*
X138499000Y-104876787D01*
X138547075Y-104635097D01*
X138641378Y-104407429D01*
X138778285Y-104202534D01*
X138952534Y-104028285D01*
X139157429Y-103891378D01*
X139385097Y-103797075D01*
X139626786Y-103749000D01*
X139873214Y-103749000D01*
X140114903Y-103797075D01*
X140114903Y-103797075D01*
G37*
G36*
X133114903Y-103797075D02*
G01*
X133342571Y-103891378D01*
X133547466Y-104028285D01*
X133721715Y-104202534D01*
X133858622Y-104407429D01*
X133952925Y-104635097D01*
X134001000Y-104876787D01*
X134001000Y-105123213D01*
X133952925Y-105364903D01*
X133858622Y-105592571D01*
X133721715Y-105797466D01*
X133547466Y-105971715D01*
X133342571Y-106108622D01*
X133342570Y-106108623D01*
X133342569Y-106108623D01*
X133114903Y-106202925D01*
X132873214Y-106251000D01*
X132626786Y-106251000D01*
X132385097Y-106202925D01*
X132157431Y-106108623D01*
X132157430Y-106108623D01*
X132157429Y-106108622D01*
X131952534Y-105971715D01*
X131778285Y-105797466D01*
X131641378Y-105592571D01*
X131547075Y-105364903D01*
X131499000Y-105123213D01*
X131499000Y-104876787D01*
X131547075Y-104635097D01*
X131641378Y-104407429D01*
X131778285Y-104202534D01*
X131952534Y-104028285D01*
X132157429Y-103891378D01*
X132385097Y-103797075D01*
X132626786Y-103749000D01*
X132873214Y-103749000D01*
X133114903Y-103797075D01*
X133114903Y-103797075D01*
G37*
G36*
X108614903Y-103797075D02*
G01*
X108842571Y-103891378D01*
X109047466Y-104028285D01*
X109221715Y-104202534D01*
X109358622Y-104407429D01*
X109452925Y-104635097D01*
X109501000Y-104876787D01*
X109501000Y-105123213D01*
X109452925Y-105364903D01*
X109358622Y-105592571D01*
X109221715Y-105797466D01*
X109047466Y-105971715D01*
X108842571Y-106108622D01*
X108842570Y-106108623D01*
X108842569Y-106108623D01*
X108614903Y-106202925D01*
X108373214Y-106251000D01*
X108126786Y-106251000D01*
X107885097Y-106202925D01*
X107657431Y-106108623D01*
X107657430Y-106108623D01*
X107657429Y-106108622D01*
X107452534Y-105971715D01*
X107278285Y-105797466D01*
X107141378Y-105592571D01*
X107047075Y-105364903D01*
X106999000Y-105123213D01*
X106999000Y-104876787D01*
X107047075Y-104635097D01*
X107141378Y-104407429D01*
X107278285Y-104202534D01*
X107452534Y-104028285D01*
X107657429Y-103891378D01*
X107885097Y-103797075D01*
X108126786Y-103749000D01*
X108373214Y-103749000D01*
X108614903Y-103797075D01*
X108614903Y-103797075D01*
G37*
G36*
X112114903Y-103797075D02*
G01*
X112342571Y-103891378D01*
X112547466Y-104028285D01*
X112721715Y-104202534D01*
X112858622Y-104407429D01*
X112952925Y-104635097D01*
X113001000Y-104876787D01*
X113001000Y-105123213D01*
X112952925Y-105364903D01*
X112858622Y-105592571D01*
X112721715Y-105797466D01*
X112547466Y-105971715D01*
X112342571Y-106108622D01*
X112342570Y-106108623D01*
X112342569Y-106108623D01*
X112114903Y-106202925D01*
X111873214Y-106251000D01*
X111626786Y-106251000D01*
X111385097Y-106202925D01*
X111157431Y-106108623D01*
X111157430Y-106108623D01*
X111157429Y-106108622D01*
X110952534Y-105971715D01*
X110778285Y-105797466D01*
X110641378Y-105592571D01*
X110547075Y-105364903D01*
X110499000Y-105123213D01*
X110499000Y-104876787D01*
X110547075Y-104635097D01*
X110641378Y-104407429D01*
X110778285Y-104202534D01*
X110952534Y-104028285D01*
X111157429Y-103891378D01*
X111385097Y-103797075D01*
X111626786Y-103749000D01*
X111873214Y-103749000D01*
X112114903Y-103797075D01*
X112114903Y-103797075D01*
G37*
G36*
X129614903Y-103797075D02*
G01*
X129842571Y-103891378D01*
X130047466Y-104028285D01*
X130221715Y-104202534D01*
X130358622Y-104407429D01*
X130452925Y-104635097D01*
X130501000Y-104876787D01*
X130501000Y-105123213D01*
X130452925Y-105364903D01*
X130358622Y-105592571D01*
X130221715Y-105797466D01*
X130047466Y-105971715D01*
X129842571Y-106108622D01*
X129842570Y-106108623D01*
X129842569Y-106108623D01*
X129614903Y-106202925D01*
X129373214Y-106251000D01*
X129126786Y-106251000D01*
X128885097Y-106202925D01*
X128657431Y-106108623D01*
X128657430Y-106108623D01*
X128657429Y-106108622D01*
X128452534Y-105971715D01*
X128278285Y-105797466D01*
X128141378Y-105592571D01*
X128047075Y-105364903D01*
X127999000Y-105123213D01*
X127999000Y-104876787D01*
X128047075Y-104635097D01*
X128141378Y-104407429D01*
X128278285Y-104202534D01*
X128452534Y-104028285D01*
X128657429Y-103891378D01*
X128885097Y-103797075D01*
X129126786Y-103749000D01*
X129373214Y-103749000D01*
X129614903Y-103797075D01*
X129614903Y-103797075D01*
G37*
G36*
X119114903Y-103797075D02*
G01*
X119342571Y-103891378D01*
X119547466Y-104028285D01*
X119721715Y-104202534D01*
X119858622Y-104407429D01*
X119952925Y-104635097D01*
X120001000Y-104876787D01*
X120001000Y-105123213D01*
X119952925Y-105364903D01*
X119858622Y-105592571D01*
X119721715Y-105797466D01*
X119547466Y-105971715D01*
X119342571Y-106108622D01*
X119342570Y-106108623D01*
X119342569Y-106108623D01*
X119114903Y-106202925D01*
X118873214Y-106251000D01*
X118626786Y-106251000D01*
X118385097Y-106202925D01*
X118157431Y-106108623D01*
X118157430Y-106108623D01*
X118157429Y-106108622D01*
X117952534Y-105971715D01*
X117778285Y-105797466D01*
X117641378Y-105592571D01*
X117547075Y-105364903D01*
X117499000Y-105123213D01*
X117499000Y-104876787D01*
X117547075Y-104635097D01*
X117641378Y-104407429D01*
X117778285Y-104202534D01*
X117952534Y-104028285D01*
X118157429Y-103891378D01*
X118385097Y-103797075D01*
X118626786Y-103749000D01*
X118873214Y-103749000D01*
X119114903Y-103797075D01*
X119114903Y-103797075D01*
G37*
G36*
X136614903Y-103797075D02*
G01*
X136842571Y-103891378D01*
X137047466Y-104028285D01*
X137221715Y-104202534D01*
X137358622Y-104407429D01*
X137452925Y-104635097D01*
X137501000Y-104876787D01*
X137501000Y-105123213D01*
X137452925Y-105364903D01*
X137358622Y-105592571D01*
X137221715Y-105797466D01*
X137047466Y-105971715D01*
X136842571Y-106108622D01*
X136842570Y-106108623D01*
X136842569Y-106108623D01*
X136614903Y-106202925D01*
X136373214Y-106251000D01*
X136126786Y-106251000D01*
X135885097Y-106202925D01*
X135657431Y-106108623D01*
X135657430Y-106108623D01*
X135657429Y-106108622D01*
X135452534Y-105971715D01*
X135278285Y-105797466D01*
X135141378Y-105592571D01*
X135047075Y-105364903D01*
X134999000Y-105123213D01*
X134999000Y-104876787D01*
X135047075Y-104635097D01*
X135141378Y-104407429D01*
X135278285Y-104202534D01*
X135452534Y-104028285D01*
X135657429Y-103891378D01*
X135885097Y-103797075D01*
X136126786Y-103749000D01*
X136373214Y-103749000D01*
X136614903Y-103797075D01*
X136614903Y-103797075D01*
G37*
G36*
X88817021Y-99306640D02*
G01*
X89326769Y-99517785D01*
X89326771Y-99517786D01*
X89785534Y-99824321D01*
X90175679Y-100214466D01*
X90482214Y-100673229D01*
X90482215Y-100673231D01*
X90693360Y-101182979D01*
X90801000Y-101724124D01*
X90801000Y-102275876D01*
X90693360Y-102817021D01*
X90482215Y-103326769D01*
X90482214Y-103326771D01*
X90175679Y-103785534D01*
X89785534Y-104175679D01*
X89326771Y-104482214D01*
X89326770Y-104482215D01*
X89326769Y-104482215D01*
X88817021Y-104693360D01*
X88275876Y-104801000D01*
X87724124Y-104801000D01*
X87182979Y-104693360D01*
X86673231Y-104482215D01*
X86673230Y-104482215D01*
X86673229Y-104482214D01*
X86214466Y-104175679D01*
X85824321Y-103785534D01*
X85517786Y-103326771D01*
X85517785Y-103326769D01*
X85306640Y-102817021D01*
X85199000Y-102275876D01*
X85199000Y-101724124D01*
X85306640Y-101182979D01*
X85517785Y-100673231D01*
X85517786Y-100673229D01*
X85824321Y-100214466D01*
X86214466Y-99824321D01*
X86673229Y-99517786D01*
X86673231Y-99517785D01*
X87182979Y-99306640D01*
X87724124Y-99199000D01*
X88275876Y-99199000D01*
X88817021Y-99306640D01*
X88817021Y-99306640D01*
G37*
G36*
X101768604Y-97578347D02*
G01*
X101805144Y-97589432D01*
X101838821Y-97607433D01*
X101868341Y-97631659D01*
X101892567Y-97661179D01*
X101910568Y-97694856D01*
X101921653Y-97731396D01*
X101926000Y-97775538D01*
X101926000Y-99224462D01*
X101921653Y-99268604D01*
X101910568Y-99305144D01*
X101892567Y-99338821D01*
X101868341Y-99368341D01*
X101838821Y-99392567D01*
X101805144Y-99410568D01*
X101768604Y-99421653D01*
X101724462Y-99426000D01*
X100775538Y-99426000D01*
X100731396Y-99421653D01*
X100694856Y-99410568D01*
X100661179Y-99392567D01*
X100631659Y-99368341D01*
X100607433Y-99338821D01*
X100589432Y-99305144D01*
X100578347Y-99268604D01*
X100574000Y-99224462D01*
X100574000Y-97775538D01*
X100578347Y-97731396D01*
X100589432Y-97694856D01*
X100607433Y-97661179D01*
X100631659Y-97631659D01*
X100661179Y-97607433D01*
X100694856Y-97589432D01*
X100731396Y-97578347D01*
X100775538Y-97574000D01*
X101724462Y-97574000D01*
X101768604Y-97578347D01*
X101768604Y-97578347D01*
G37*
G36*
X132568604Y-97578347D02*
G01*
X132605144Y-97589432D01*
X132638821Y-97607433D01*
X132668341Y-97631659D01*
X132692567Y-97661179D01*
X132710568Y-97694856D01*
X132721653Y-97731396D01*
X132726000Y-97775538D01*
X132726000Y-99224462D01*
X132721653Y-99268604D01*
X132710568Y-99305144D01*
X132692567Y-99338821D01*
X132668341Y-99368341D01*
X132638821Y-99392567D01*
X132605144Y-99410568D01*
X132568604Y-99421653D01*
X132524462Y-99426000D01*
X131575538Y-99426000D01*
X131531396Y-99421653D01*
X131494856Y-99410568D01*
X131461179Y-99392567D01*
X131431659Y-99368341D01*
X131407433Y-99338821D01*
X131389432Y-99305144D01*
X131378347Y-99268604D01*
X131374000Y-99224462D01*
X131374000Y-97775538D01*
X131378347Y-97731396D01*
X131389432Y-97694856D01*
X131407433Y-97661179D01*
X131431659Y-97631659D01*
X131461179Y-97607433D01*
X131494856Y-97589432D01*
X131531396Y-97578347D01*
X131575538Y-97574000D01*
X132524462Y-97574000D01*
X132568604Y-97578347D01*
X132568604Y-97578347D01*
G37*
G36*
X129768604Y-97578347D02*
G01*
X129805144Y-97589432D01*
X129838821Y-97607433D01*
X129868341Y-97631659D01*
X129892567Y-97661179D01*
X129910568Y-97694856D01*
X129921653Y-97731396D01*
X129926000Y-97775538D01*
X129926000Y-99224462D01*
X129921653Y-99268604D01*
X129910568Y-99305144D01*
X129892567Y-99338821D01*
X129868341Y-99368341D01*
X129838821Y-99392567D01*
X129805144Y-99410568D01*
X129768604Y-99421653D01*
X129724462Y-99426000D01*
X128775538Y-99426000D01*
X128731396Y-99421653D01*
X128694856Y-99410568D01*
X128661179Y-99392567D01*
X128631659Y-99368341D01*
X128607433Y-99338821D01*
X128589432Y-99305144D01*
X128578347Y-99268604D01*
X128574000Y-99224462D01*
X128574000Y-97775538D01*
X128578347Y-97731396D01*
X128589432Y-97694856D01*
X128607433Y-97661179D01*
X128631659Y-97631659D01*
X128661179Y-97607433D01*
X128694856Y-97589432D01*
X128731396Y-97578347D01*
X128775538Y-97574000D01*
X129724462Y-97574000D01*
X129768604Y-97578347D01*
X129768604Y-97578347D01*
G37*
G36*
X111568604Y-97578347D02*
G01*
X111605144Y-97589432D01*
X111638821Y-97607433D01*
X111668341Y-97631659D01*
X111692567Y-97661179D01*
X111710568Y-97694856D01*
X111721653Y-97731396D01*
X111726000Y-97775538D01*
X111726000Y-99224462D01*
X111721653Y-99268604D01*
X111710568Y-99305144D01*
X111692567Y-99338821D01*
X111668341Y-99368341D01*
X111638821Y-99392567D01*
X111605144Y-99410568D01*
X111568604Y-99421653D01*
X111524462Y-99426000D01*
X110575538Y-99426000D01*
X110531396Y-99421653D01*
X110494856Y-99410568D01*
X110461179Y-99392567D01*
X110431659Y-99368341D01*
X110407433Y-99338821D01*
X110389432Y-99305144D01*
X110378347Y-99268604D01*
X110374000Y-99224462D01*
X110374000Y-97775538D01*
X110378347Y-97731396D01*
X110389432Y-97694856D01*
X110407433Y-97661179D01*
X110431659Y-97631659D01*
X110461179Y-97607433D01*
X110494856Y-97589432D01*
X110531396Y-97578347D01*
X110575538Y-97574000D01*
X111524462Y-97574000D01*
X111568604Y-97578347D01*
X111568604Y-97578347D01*
G37*
G36*
X108768604Y-97578347D02*
G01*
X108805144Y-97589432D01*
X108838821Y-97607433D01*
X108868341Y-97631659D01*
X108892567Y-97661179D01*
X108910568Y-97694856D01*
X108921653Y-97731396D01*
X108926000Y-97775538D01*
X108926000Y-99224462D01*
X108921653Y-99268604D01*
X108910568Y-99305144D01*
X108892567Y-99338821D01*
X108868341Y-99368341D01*
X108838821Y-99392567D01*
X108805144Y-99410568D01*
X108768604Y-99421653D01*
X108724462Y-99426000D01*
X107775538Y-99426000D01*
X107731396Y-99421653D01*
X107694856Y-99410568D01*
X107661179Y-99392567D01*
X107631659Y-99368341D01*
X107607433Y-99338821D01*
X107589432Y-99305144D01*
X107578347Y-99268604D01*
X107574000Y-99224462D01*
X107574000Y-97775538D01*
X107578347Y-97731396D01*
X107589432Y-97694856D01*
X107607433Y-97661179D01*
X107631659Y-97631659D01*
X107661179Y-97607433D01*
X107694856Y-97589432D01*
X107731396Y-97578347D01*
X107775538Y-97574000D01*
X108724462Y-97574000D01*
X108768604Y-97578347D01*
X108768604Y-97578347D01*
G37*
G36*
X118568604Y-97578347D02*
G01*
X118605144Y-97589432D01*
X118638821Y-97607433D01*
X118668341Y-97631659D01*
X118692567Y-97661179D01*
X118710568Y-97694856D01*
X118721653Y-97731396D01*
X118726000Y-97775538D01*
X118726000Y-99224462D01*
X118721653Y-99268604D01*
X118710568Y-99305144D01*
X118692567Y-99338821D01*
X118668341Y-99368341D01*
X118638821Y-99392567D01*
X118605144Y-99410568D01*
X118568604Y-99421653D01*
X118524462Y-99426000D01*
X117575538Y-99426000D01*
X117531396Y-99421653D01*
X117494856Y-99410568D01*
X117461179Y-99392567D01*
X117431659Y-99368341D01*
X117407433Y-99338821D01*
X117389432Y-99305144D01*
X117378347Y-99268604D01*
X117374000Y-99224462D01*
X117374000Y-97775538D01*
X117378347Y-97731396D01*
X117389432Y-97694856D01*
X117407433Y-97661179D01*
X117431659Y-97631659D01*
X117461179Y-97607433D01*
X117494856Y-97589432D01*
X117531396Y-97578347D01*
X117575538Y-97574000D01*
X118524462Y-97574000D01*
X118568604Y-97578347D01*
X118568604Y-97578347D01*
G37*
G36*
X115768604Y-97578347D02*
G01*
X115805144Y-97589432D01*
X115838821Y-97607433D01*
X115868341Y-97631659D01*
X115892567Y-97661179D01*
X115910568Y-97694856D01*
X115921653Y-97731396D01*
X115926000Y-97775538D01*
X115926000Y-99224462D01*
X115921653Y-99268604D01*
X115910568Y-99305144D01*
X115892567Y-99338821D01*
X115868341Y-99368341D01*
X115838821Y-99392567D01*
X115805144Y-99410568D01*
X115768604Y-99421653D01*
X115724462Y-99426000D01*
X114775538Y-99426000D01*
X114731396Y-99421653D01*
X114694856Y-99410568D01*
X114661179Y-99392567D01*
X114631659Y-99368341D01*
X114607433Y-99338821D01*
X114589432Y-99305144D01*
X114578347Y-99268604D01*
X114574000Y-99224462D01*
X114574000Y-97775538D01*
X114578347Y-97731396D01*
X114589432Y-97694856D01*
X114607433Y-97661179D01*
X114631659Y-97631659D01*
X114661179Y-97607433D01*
X114694856Y-97589432D01*
X114731396Y-97578347D01*
X114775538Y-97574000D01*
X115724462Y-97574000D01*
X115768604Y-97578347D01*
X115768604Y-97578347D01*
G37*
G36*
X125568604Y-97578347D02*
G01*
X125605144Y-97589432D01*
X125638821Y-97607433D01*
X125668341Y-97631659D01*
X125692567Y-97661179D01*
X125710568Y-97694856D01*
X125721653Y-97731396D01*
X125726000Y-97775538D01*
X125726000Y-99224462D01*
X125721653Y-99268604D01*
X125710568Y-99305144D01*
X125692567Y-99338821D01*
X125668341Y-99368341D01*
X125638821Y-99392567D01*
X125605144Y-99410568D01*
X125568604Y-99421653D01*
X125524462Y-99426000D01*
X124575538Y-99426000D01*
X124531396Y-99421653D01*
X124494856Y-99410568D01*
X124461179Y-99392567D01*
X124431659Y-99368341D01*
X124407433Y-99338821D01*
X124389432Y-99305144D01*
X124378347Y-99268604D01*
X124374000Y-99224462D01*
X124374000Y-97775538D01*
X124378347Y-97731396D01*
X124389432Y-97694856D01*
X124407433Y-97661179D01*
X124431659Y-97631659D01*
X124461179Y-97607433D01*
X124494856Y-97589432D01*
X124531396Y-97578347D01*
X124575538Y-97574000D01*
X125524462Y-97574000D01*
X125568604Y-97578347D01*
X125568604Y-97578347D01*
G37*
G36*
X122768604Y-97578347D02*
G01*
X122805144Y-97589432D01*
X122838821Y-97607433D01*
X122868341Y-97631659D01*
X122892567Y-97661179D01*
X122910568Y-97694856D01*
X122921653Y-97731396D01*
X122926000Y-97775538D01*
X122926000Y-99224462D01*
X122921653Y-99268604D01*
X122910568Y-99305144D01*
X122892567Y-99338821D01*
X122868341Y-99368341D01*
X122838821Y-99392567D01*
X122805144Y-99410568D01*
X122768604Y-99421653D01*
X122724462Y-99426000D01*
X121775538Y-99426000D01*
X121731396Y-99421653D01*
X121694856Y-99410568D01*
X121661179Y-99392567D01*
X121631659Y-99368341D01*
X121607433Y-99338821D01*
X121589432Y-99305144D01*
X121578347Y-99268604D01*
X121574000Y-99224462D01*
X121574000Y-97775538D01*
X121578347Y-97731396D01*
X121589432Y-97694856D01*
X121607433Y-97661179D01*
X121631659Y-97631659D01*
X121661179Y-97607433D01*
X121694856Y-97589432D01*
X121731396Y-97578347D01*
X121775538Y-97574000D01*
X122724462Y-97574000D01*
X122768604Y-97578347D01*
X122768604Y-97578347D01*
G37*
G36*
X104568604Y-97578347D02*
G01*
X104605144Y-97589432D01*
X104638821Y-97607433D01*
X104668341Y-97631659D01*
X104692567Y-97661179D01*
X104710568Y-97694856D01*
X104721653Y-97731396D01*
X104726000Y-97775538D01*
X104726000Y-99224462D01*
X104721653Y-99268604D01*
X104710568Y-99305144D01*
X104692567Y-99338821D01*
X104668341Y-99368341D01*
X104638821Y-99392567D01*
X104605144Y-99410568D01*
X104568604Y-99421653D01*
X104524462Y-99426000D01*
X103575538Y-99426000D01*
X103531396Y-99421653D01*
X103494856Y-99410568D01*
X103461179Y-99392567D01*
X103431659Y-99368341D01*
X103407433Y-99338821D01*
X103389432Y-99305144D01*
X103378347Y-99268604D01*
X103374000Y-99224462D01*
X103374000Y-97775538D01*
X103378347Y-97731396D01*
X103389432Y-97694856D01*
X103407433Y-97661179D01*
X103431659Y-97631659D01*
X103461179Y-97607433D01*
X103494856Y-97589432D01*
X103531396Y-97578347D01*
X103575538Y-97574000D01*
X104524462Y-97574000D01*
X104568604Y-97578347D01*
X104568604Y-97578347D01*
G37*
G36*
X146568604Y-97578347D02*
G01*
X146605144Y-97589432D01*
X146638821Y-97607433D01*
X146668341Y-97631659D01*
X146692567Y-97661179D01*
X146710568Y-97694856D01*
X146721653Y-97731396D01*
X146726000Y-97775538D01*
X146726000Y-99224462D01*
X146721653Y-99268604D01*
X146710568Y-99305144D01*
X146692567Y-99338821D01*
X146668341Y-99368341D01*
X146638821Y-99392567D01*
X146605144Y-99410568D01*
X146568604Y-99421653D01*
X146524462Y-99426000D01*
X145575538Y-99426000D01*
X145531396Y-99421653D01*
X145494856Y-99410568D01*
X145461179Y-99392567D01*
X145431659Y-99368341D01*
X145407433Y-99338821D01*
X145389432Y-99305144D01*
X145378347Y-99268604D01*
X145374000Y-99224462D01*
X145374000Y-97775538D01*
X145378347Y-97731396D01*
X145389432Y-97694856D01*
X145407433Y-97661179D01*
X145431659Y-97631659D01*
X145461179Y-97607433D01*
X145494856Y-97589432D01*
X145531396Y-97578347D01*
X145575538Y-97574000D01*
X146524462Y-97574000D01*
X146568604Y-97578347D01*
X146568604Y-97578347D01*
G37*
G36*
X136768604Y-97578347D02*
G01*
X136805144Y-97589432D01*
X136838821Y-97607433D01*
X136868341Y-97631659D01*
X136892567Y-97661179D01*
X136910568Y-97694856D01*
X136921653Y-97731396D01*
X136926000Y-97775538D01*
X136926000Y-99224462D01*
X136921653Y-99268604D01*
X136910568Y-99305144D01*
X136892567Y-99338821D01*
X136868341Y-99368341D01*
X136838821Y-99392567D01*
X136805144Y-99410568D01*
X136768604Y-99421653D01*
X136724462Y-99426000D01*
X135775538Y-99426000D01*
X135731396Y-99421653D01*
X135694856Y-99410568D01*
X135661179Y-99392567D01*
X135631659Y-99368341D01*
X135607433Y-99338821D01*
X135589432Y-99305144D01*
X135578347Y-99268604D01*
X135574000Y-99224462D01*
X135574000Y-97775538D01*
X135578347Y-97731396D01*
X135589432Y-97694856D01*
X135607433Y-97661179D01*
X135631659Y-97631659D01*
X135661179Y-97607433D01*
X135694856Y-97589432D01*
X135731396Y-97578347D01*
X135775538Y-97574000D01*
X136724462Y-97574000D01*
X136768604Y-97578347D01*
X136768604Y-97578347D01*
G37*
G36*
X153568604Y-97578347D02*
G01*
X153605144Y-97589432D01*
X153638821Y-97607433D01*
X153668341Y-97631659D01*
X153692567Y-97661179D01*
X153710568Y-97694856D01*
X153721653Y-97731396D01*
X153726000Y-97775538D01*
X153726000Y-99224462D01*
X153721653Y-99268604D01*
X153710568Y-99305144D01*
X153692567Y-99338821D01*
X153668341Y-99368341D01*
X153638821Y-99392567D01*
X153605144Y-99410568D01*
X153568604Y-99421653D01*
X153524462Y-99426000D01*
X152575538Y-99426000D01*
X152531396Y-99421653D01*
X152494856Y-99410568D01*
X152461179Y-99392567D01*
X152431659Y-99368341D01*
X152407433Y-99338821D01*
X152389432Y-99305144D01*
X152378347Y-99268604D01*
X152374000Y-99224462D01*
X152374000Y-97775538D01*
X152378347Y-97731396D01*
X152389432Y-97694856D01*
X152407433Y-97661179D01*
X152431659Y-97631659D01*
X152461179Y-97607433D01*
X152494856Y-97589432D01*
X152531396Y-97578347D01*
X152575538Y-97574000D01*
X153524462Y-97574000D01*
X153568604Y-97578347D01*
X153568604Y-97578347D01*
G37*
G36*
X150768604Y-97578347D02*
G01*
X150805144Y-97589432D01*
X150838821Y-97607433D01*
X150868341Y-97631659D01*
X150892567Y-97661179D01*
X150910568Y-97694856D01*
X150921653Y-97731396D01*
X150926000Y-97775538D01*
X150926000Y-99224462D01*
X150921653Y-99268604D01*
X150910568Y-99305144D01*
X150892567Y-99338821D01*
X150868341Y-99368341D01*
X150838821Y-99392567D01*
X150805144Y-99410568D01*
X150768604Y-99421653D01*
X150724462Y-99426000D01*
X149775538Y-99426000D01*
X149731396Y-99421653D01*
X149694856Y-99410568D01*
X149661179Y-99392567D01*
X149631659Y-99368341D01*
X149607433Y-99338821D01*
X149589432Y-99305144D01*
X149578347Y-99268604D01*
X149574000Y-99224462D01*
X149574000Y-97775538D01*
X149578347Y-97731396D01*
X149589432Y-97694856D01*
X149607433Y-97661179D01*
X149631659Y-97631659D01*
X149661179Y-97607433D01*
X149694856Y-97589432D01*
X149731396Y-97578347D01*
X149775538Y-97574000D01*
X150724462Y-97574000D01*
X150768604Y-97578347D01*
X150768604Y-97578347D01*
G37*
G36*
X143768604Y-97578347D02*
G01*
X143805144Y-97589432D01*
X143838821Y-97607433D01*
X143868341Y-97631659D01*
X143892567Y-97661179D01*
X143910568Y-97694856D01*
X143921653Y-97731396D01*
X143926000Y-97775538D01*
X143926000Y-99224462D01*
X143921653Y-99268604D01*
X143910568Y-99305144D01*
X143892567Y-99338821D01*
X143868341Y-99368341D01*
X143838821Y-99392567D01*
X143805144Y-99410568D01*
X143768604Y-99421653D01*
X143724462Y-99426000D01*
X142775538Y-99426000D01*
X142731396Y-99421653D01*
X142694856Y-99410568D01*
X142661179Y-99392567D01*
X142631659Y-99368341D01*
X142607433Y-99338821D01*
X142589432Y-99305144D01*
X142578347Y-99268604D01*
X142574000Y-99224462D01*
X142574000Y-97775538D01*
X142578347Y-97731396D01*
X142589432Y-97694856D01*
X142607433Y-97661179D01*
X142631659Y-97631659D01*
X142661179Y-97607433D01*
X142694856Y-97589432D01*
X142731396Y-97578347D01*
X142775538Y-97574000D01*
X143724462Y-97574000D01*
X143768604Y-97578347D01*
X143768604Y-97578347D01*
G37*
G36*
X139568604Y-97578347D02*
G01*
X139605144Y-97589432D01*
X139638821Y-97607433D01*
X139668341Y-97631659D01*
X139692567Y-97661179D01*
X139710568Y-97694856D01*
X139721653Y-97731396D01*
X139726000Y-97775538D01*
X139726000Y-99224462D01*
X139721653Y-99268604D01*
X139710568Y-99305144D01*
X139692567Y-99338821D01*
X139668341Y-99368341D01*
X139638821Y-99392567D01*
X139605144Y-99410568D01*
X139568604Y-99421653D01*
X139524462Y-99426000D01*
X138575538Y-99426000D01*
X138531396Y-99421653D01*
X138494856Y-99410568D01*
X138461179Y-99392567D01*
X138431659Y-99368341D01*
X138407433Y-99338821D01*
X138389432Y-99305144D01*
X138378347Y-99268604D01*
X138374000Y-99224462D01*
X138374000Y-97775538D01*
X138378347Y-97731396D01*
X138389432Y-97694856D01*
X138407433Y-97661179D01*
X138431659Y-97631659D01*
X138461179Y-97607433D01*
X138494856Y-97589432D01*
X138531396Y-97578347D01*
X138575538Y-97574000D01*
X139524462Y-97574000D01*
X139568604Y-97578347D01*
X139568604Y-97578347D01*
G37*
G36*
X89614903Y-87047075D02*
G01*
X89842571Y-87141378D01*
X90047466Y-87278285D01*
X90221715Y-87452534D01*
X90358622Y-87657429D01*
X90452925Y-87885097D01*
X90501000Y-88126787D01*
X90501000Y-88373213D01*
X90452925Y-88614903D01*
X90358622Y-88842571D01*
X90221715Y-89047466D01*
X90047466Y-89221715D01*
X89842571Y-89358622D01*
X89842570Y-89358623D01*
X89842569Y-89358623D01*
X89614903Y-89452925D01*
X89373214Y-89501000D01*
X89126786Y-89501000D01*
X88885097Y-89452925D01*
X88657431Y-89358623D01*
X88657430Y-89358623D01*
X88657429Y-89358622D01*
X88452534Y-89221715D01*
X88278285Y-89047466D01*
X88141378Y-88842571D01*
X88047075Y-88614903D01*
X87999000Y-88373213D01*
X87999000Y-88126787D01*
X88047075Y-87885097D01*
X88141378Y-87657429D01*
X88278285Y-87452534D01*
X88452534Y-87278285D01*
X88657429Y-87141378D01*
X88885097Y-87047075D01*
X89126786Y-86999000D01*
X89373214Y-86999000D01*
X89614903Y-87047075D01*
X89614903Y-87047075D01*
G37*
G36*
X86114903Y-87047075D02*
G01*
X86342571Y-87141378D01*
X86547466Y-87278285D01*
X86721715Y-87452534D01*
X86858622Y-87657429D01*
X86952925Y-87885097D01*
X87001000Y-88126787D01*
X87001000Y-88373213D01*
X86952925Y-88614903D01*
X86858622Y-88842571D01*
X86721715Y-89047466D01*
X86547466Y-89221715D01*
X86342571Y-89358622D01*
X86342570Y-89358623D01*
X86342569Y-89358623D01*
X86114903Y-89452925D01*
X85873214Y-89501000D01*
X85626786Y-89501000D01*
X85385097Y-89452925D01*
X85157431Y-89358623D01*
X85157430Y-89358623D01*
X85157429Y-89358622D01*
X84952534Y-89221715D01*
X84778285Y-89047466D01*
X84641378Y-88842571D01*
X84547075Y-88614903D01*
X84499000Y-88373213D01*
X84499000Y-88126787D01*
X84547075Y-87885097D01*
X84641378Y-87657429D01*
X84778285Y-87452534D01*
X84952534Y-87278285D01*
X85157429Y-87141378D01*
X85385097Y-87047075D01*
X85626786Y-86999000D01*
X85873214Y-86999000D01*
X86114903Y-87047075D01*
X86114903Y-87047075D01*
G37*
G36*
X86626264Y-81905552D02*
G01*
X86684326Y-81923165D01*
X86737838Y-81951768D01*
X86784741Y-81990259D01*
X86823232Y-82037162D01*
X86851835Y-82090674D01*
X86869448Y-82148736D01*
X86876000Y-82215260D01*
X86876000Y-83684740D01*
X86869448Y-83751264D01*
X86851835Y-83809326D01*
X86823232Y-83862838D01*
X86784741Y-83909741D01*
X86737838Y-83948232D01*
X86684326Y-83976835D01*
X86626264Y-83994448D01*
X86559740Y-84001000D01*
X83940260Y-84001000D01*
X83873736Y-83994448D01*
X83815674Y-83976835D01*
X83762162Y-83948232D01*
X83715259Y-83909741D01*
X83676768Y-83862838D01*
X83648165Y-83809326D01*
X83630552Y-83751264D01*
X83624000Y-83684740D01*
X83624000Y-82215260D01*
X83630552Y-82148736D01*
X83648165Y-82090674D01*
X83676768Y-82037162D01*
X83715259Y-81990259D01*
X83762162Y-81951768D01*
X83815674Y-81923165D01*
X83873736Y-81905552D01*
X83940260Y-81899000D01*
X86559740Y-81899000D01*
X86626264Y-81905552D01*
X86626264Y-81905552D01*
G37*
G36*
X170277395Y-79085546D02*
G01*
X170450466Y-79157234D01*
X170506771Y-79194856D01*
X170606227Y-79261310D01*
X170738690Y-79393773D01*
X170738691Y-79393775D01*
X170842766Y-79549534D01*
X170914454Y-79722605D01*
X170951000Y-79906333D01*
X170951000Y-80093667D01*
X170914454Y-80277395D01*
X170842766Y-80450466D01*
X170842765Y-80450467D01*
X170738690Y-80606227D01*
X170606227Y-80738690D01*
X170575714Y-80759078D01*
X170450466Y-80842766D01*
X170277395Y-80914454D01*
X170093667Y-80951000D01*
X169906333Y-80951000D01*
X169722605Y-80914454D01*
X169549534Y-80842766D01*
X169424286Y-80759078D01*
X169393773Y-80738690D01*
X169261310Y-80606227D01*
X169157235Y-80450467D01*
X169157234Y-80450466D01*
X169085546Y-80277395D01*
X169049000Y-80093667D01*
X169049000Y-79906333D01*
X169085546Y-79722605D01*
X169157234Y-79549534D01*
X169261309Y-79393775D01*
X169261310Y-79393773D01*
X169393773Y-79261310D01*
X169493229Y-79194856D01*
X169549534Y-79157234D01*
X169722605Y-79085546D01*
X169906333Y-79049000D01*
X170093667Y-79049000D01*
X170277395Y-79085546D01*
X170277395Y-79085546D01*
G37*
G36*
X172817395Y-79085546D02*
G01*
X172990466Y-79157234D01*
X173046771Y-79194856D01*
X173146227Y-79261310D01*
X173278690Y-79393773D01*
X173278691Y-79393775D01*
X173382766Y-79549534D01*
X173454454Y-79722605D01*
X173491000Y-79906333D01*
X173491000Y-80093667D01*
X173454454Y-80277395D01*
X173382766Y-80450466D01*
X173382765Y-80450467D01*
X173278690Y-80606227D01*
X173146227Y-80738690D01*
X173115714Y-80759078D01*
X172990466Y-80842766D01*
X172817395Y-80914454D01*
X172633667Y-80951000D01*
X172446333Y-80951000D01*
X172262605Y-80914454D01*
X172089534Y-80842766D01*
X171964286Y-80759078D01*
X171933773Y-80738690D01*
X171801310Y-80606227D01*
X171697235Y-80450467D01*
X171697234Y-80450466D01*
X171625546Y-80277395D01*
X171589000Y-80093667D01*
X171589000Y-79906333D01*
X171625546Y-79722605D01*
X171697234Y-79549534D01*
X171801309Y-79393775D01*
X171801310Y-79393773D01*
X171933773Y-79261310D01*
X172033229Y-79194856D01*
X172089534Y-79157234D01*
X172262605Y-79085546D01*
X172446333Y-79049000D01*
X172633667Y-79049000D01*
X172817395Y-79085546D01*
X172817395Y-79085546D01*
G37*
G36*
X168411000Y-80951000D02*
G01*
X166509000Y-80951000D01*
X166509000Y-79049000D01*
X168411000Y-79049000D01*
X168411000Y-80951000D01*
X168411000Y-80951000D01*
G37*
G36*
X163918604Y-79078347D02*
G01*
X163955144Y-79089432D01*
X163988821Y-79107433D01*
X164018341Y-79131659D01*
X164042567Y-79161179D01*
X164060568Y-79194856D01*
X164071653Y-79231396D01*
X164076000Y-79275538D01*
X164076000Y-80724462D01*
X164071653Y-80768604D01*
X164060568Y-80805144D01*
X164042567Y-80838821D01*
X164018341Y-80868341D01*
X163988821Y-80892567D01*
X163955144Y-80910568D01*
X163918604Y-80921653D01*
X163874462Y-80926000D01*
X162925538Y-80926000D01*
X162881396Y-80921653D01*
X162844856Y-80910568D01*
X162811179Y-80892567D01*
X162781659Y-80868341D01*
X162757433Y-80838821D01*
X162739432Y-80805144D01*
X162728347Y-80768604D01*
X162724000Y-80724462D01*
X162724000Y-79275538D01*
X162728347Y-79231396D01*
X162739432Y-79194856D01*
X162757433Y-79161179D01*
X162781659Y-79131659D01*
X162811179Y-79107433D01*
X162844856Y-79089432D01*
X162881396Y-79078347D01*
X162925538Y-79074000D01*
X163874462Y-79074000D01*
X163918604Y-79078347D01*
X163918604Y-79078347D01*
G37*
G36*
X161118604Y-79078347D02*
G01*
X161155144Y-79089432D01*
X161188821Y-79107433D01*
X161218341Y-79131659D01*
X161242567Y-79161179D01*
X161260568Y-79194856D01*
X161271653Y-79231396D01*
X161276000Y-79275538D01*
X161276000Y-80724462D01*
X161271653Y-80768604D01*
X161260568Y-80805144D01*
X161242567Y-80838821D01*
X161218341Y-80868341D01*
X161188821Y-80892567D01*
X161155144Y-80910568D01*
X161118604Y-80921653D01*
X161074462Y-80926000D01*
X160125538Y-80926000D01*
X160081396Y-80921653D01*
X160044856Y-80910568D01*
X160011179Y-80892567D01*
X159981659Y-80868341D01*
X159957433Y-80838821D01*
X159939432Y-80805144D01*
X159928347Y-80768604D01*
X159924000Y-80724462D01*
X159924000Y-79275538D01*
X159928347Y-79231396D01*
X159939432Y-79194856D01*
X159957433Y-79161179D01*
X159981659Y-79131659D01*
X160011179Y-79107433D01*
X160044856Y-79089432D01*
X160081396Y-79078347D01*
X160125538Y-79074000D01*
X161074462Y-79074000D01*
X161118604Y-79078347D01*
X161118604Y-79078347D01*
G37*
G36*
X105251000Y-80201000D02*
G01*
X103649000Y-80201000D01*
X103649000Y-78999000D01*
X105251000Y-78999000D01*
X105251000Y-80201000D01*
X105251000Y-80201000D01*
G37*
G36*
X96351000Y-80201000D02*
G01*
X94749000Y-80201000D01*
X94749000Y-78999000D01*
X96351000Y-78999000D01*
X96351000Y-80201000D01*
X96351000Y-80201000D01*
G37*
G36*
X86626264Y-77005552D02*
G01*
X86684326Y-77023165D01*
X86737838Y-77051768D01*
X86784741Y-77090259D01*
X86823232Y-77137162D01*
X86851835Y-77190674D01*
X86869448Y-77248736D01*
X86876000Y-77315260D01*
X86876000Y-78784740D01*
X86869448Y-78851264D01*
X86851835Y-78909326D01*
X86823232Y-78962838D01*
X86784741Y-79009741D01*
X86737838Y-79048232D01*
X86684326Y-79076835D01*
X86626264Y-79094448D01*
X86559740Y-79101000D01*
X83940260Y-79101000D01*
X83873736Y-79094448D01*
X83815674Y-79076835D01*
X83762162Y-79048232D01*
X83715259Y-79009741D01*
X83676768Y-78962838D01*
X83648165Y-78909326D01*
X83630552Y-78851264D01*
X83624000Y-78784740D01*
X83624000Y-77315260D01*
X83630552Y-77248736D01*
X83648165Y-77190674D01*
X83676768Y-77137162D01*
X83715259Y-77090259D01*
X83762162Y-77051768D01*
X83815674Y-77023165D01*
X83873736Y-77005552D01*
X83940260Y-76999000D01*
X86559740Y-76999000D01*
X86626264Y-77005552D01*
X86626264Y-77005552D01*
G37*
G36*
X163918604Y-76578347D02*
G01*
X163955144Y-76589432D01*
X163988821Y-76607433D01*
X164018341Y-76631659D01*
X164042567Y-76661179D01*
X164060568Y-76694856D01*
X164071653Y-76731396D01*
X164076000Y-76775538D01*
X164076000Y-78224462D01*
X164071653Y-78268604D01*
X164060568Y-78305144D01*
X164042567Y-78338821D01*
X164018341Y-78368341D01*
X163988821Y-78392567D01*
X163955144Y-78410568D01*
X163918604Y-78421653D01*
X163874462Y-78426000D01*
X162925538Y-78426000D01*
X162881396Y-78421653D01*
X162844856Y-78410568D01*
X162811179Y-78392567D01*
X162781659Y-78368341D01*
X162757433Y-78338821D01*
X162739432Y-78305144D01*
X162728347Y-78268604D01*
X162724000Y-78224462D01*
X162724000Y-76775538D01*
X162728347Y-76731396D01*
X162739432Y-76694856D01*
X162757433Y-76661179D01*
X162781659Y-76631659D01*
X162811179Y-76607433D01*
X162844856Y-76589432D01*
X162881396Y-76578347D01*
X162925538Y-76574000D01*
X163874462Y-76574000D01*
X163918604Y-76578347D01*
X163918604Y-76578347D01*
G37*
G36*
X161118604Y-76578347D02*
G01*
X161155144Y-76589432D01*
X161188821Y-76607433D01*
X161218341Y-76631659D01*
X161242567Y-76661179D01*
X161260568Y-76694856D01*
X161271653Y-76731396D01*
X161276000Y-76775538D01*
X161276000Y-78224462D01*
X161271653Y-78268604D01*
X161260568Y-78305144D01*
X161242567Y-78338821D01*
X161218341Y-78368341D01*
X161188821Y-78392567D01*
X161155144Y-78410568D01*
X161118604Y-78421653D01*
X161074462Y-78426000D01*
X160125538Y-78426000D01*
X160081396Y-78421653D01*
X160044856Y-78410568D01*
X160011179Y-78392567D01*
X159981659Y-78368341D01*
X159957433Y-78338821D01*
X159939432Y-78305144D01*
X159928347Y-78268604D01*
X159924000Y-78224462D01*
X159924000Y-76775538D01*
X159928347Y-76731396D01*
X159939432Y-76694856D01*
X159957433Y-76661179D01*
X159981659Y-76631659D01*
X160011179Y-76607433D01*
X160044856Y-76589432D01*
X160081396Y-76578347D01*
X160125538Y-76574000D01*
X161074462Y-76574000D01*
X161118604Y-76578347D01*
X161118604Y-76578347D01*
G37*
G36*
X96351000Y-77661000D02*
G01*
X94749000Y-77661000D01*
X94749000Y-76459000D01*
X96351000Y-76459000D01*
X96351000Y-77661000D01*
X96351000Y-77661000D01*
G37*
G36*
X105251000Y-77661000D02*
G01*
X103649000Y-77661000D01*
X103649000Y-76459000D01*
X105251000Y-76459000D01*
X105251000Y-77661000D01*
X105251000Y-77661000D01*
G37*
G36*
X85651000Y-76251000D02*
G01*
X84749000Y-76251000D01*
X84749000Y-75249000D01*
X85651000Y-75249000D01*
X85651000Y-76251000D01*
X85651000Y-76251000D01*
G37*
G36*
X105251000Y-75121000D02*
G01*
X103649000Y-75121000D01*
X103649000Y-73919000D01*
X105251000Y-73919000D01*
X105251000Y-75121000D01*
X105251000Y-75121000D01*
G37*
G36*
X96351000Y-75121000D02*
G01*
X94749000Y-75121000D01*
X94749000Y-73919000D01*
X96351000Y-73919000D01*
X96351000Y-75121000D01*
X96351000Y-75121000D01*
G37*
G36*
X86601000Y-74251000D02*
G01*
X85699000Y-74251000D01*
X85699000Y-73249000D01*
X86601000Y-73249000D01*
X86601000Y-74251000D01*
X86601000Y-74251000D01*
G37*
G36*
X84701000Y-74251000D02*
G01*
X83799000Y-74251000D01*
X83799000Y-73249000D01*
X84701000Y-73249000D01*
X84701000Y-74251000D01*
X84701000Y-74251000D01*
G37*
G36*
X96351000Y-72581000D02*
G01*
X94749000Y-72581000D01*
X94749000Y-71379000D01*
X96351000Y-71379000D01*
X96351000Y-72581000D01*
X96351000Y-72581000D01*
G37*
G36*
X105251000Y-72581000D02*
G01*
X103649000Y-72581000D01*
X103649000Y-71379000D01*
X105251000Y-71379000D01*
X105251000Y-72581000D01*
X105251000Y-72581000D01*
G37*
G36*
X84868604Y-70578347D02*
G01*
X84905144Y-70589432D01*
X84938821Y-70607433D01*
X84968341Y-70631659D01*
X84992567Y-70661179D01*
X85010568Y-70694856D01*
X85021653Y-70731396D01*
X85026000Y-70775538D01*
X85026000Y-72224462D01*
X85021653Y-72268604D01*
X85010568Y-72305144D01*
X84992567Y-72338821D01*
X84968341Y-72368341D01*
X84938821Y-72392567D01*
X84905144Y-72410568D01*
X84868604Y-72421653D01*
X84824462Y-72426000D01*
X83875538Y-72426000D01*
X83831396Y-72421653D01*
X83794856Y-72410568D01*
X83761179Y-72392567D01*
X83731659Y-72368341D01*
X83707433Y-72338821D01*
X83689432Y-72305144D01*
X83678347Y-72268604D01*
X83674000Y-72224462D01*
X83674000Y-70775538D01*
X83678347Y-70731396D01*
X83689432Y-70694856D01*
X83707433Y-70661179D01*
X83731659Y-70631659D01*
X83761179Y-70607433D01*
X83794856Y-70589432D01*
X83831396Y-70578347D01*
X83875538Y-70574000D01*
X84824462Y-70574000D01*
X84868604Y-70578347D01*
X84868604Y-70578347D01*
G37*
G36*
X87668604Y-70578347D02*
G01*
X87705144Y-70589432D01*
X87738821Y-70607433D01*
X87768341Y-70631659D01*
X87792567Y-70661179D01*
X87810568Y-70694856D01*
X87821653Y-70731396D01*
X87826000Y-70775538D01*
X87826000Y-72224462D01*
X87821653Y-72268604D01*
X87810568Y-72305144D01*
X87792567Y-72338821D01*
X87768341Y-72368341D01*
X87738821Y-72392567D01*
X87705144Y-72410568D01*
X87668604Y-72421653D01*
X87624462Y-72426000D01*
X86675538Y-72426000D01*
X86631396Y-72421653D01*
X86594856Y-72410568D01*
X86561179Y-72392567D01*
X86531659Y-72368341D01*
X86507433Y-72338821D01*
X86489432Y-72305144D01*
X86478347Y-72268604D01*
X86474000Y-72224462D01*
X86474000Y-70775538D01*
X86478347Y-70731396D01*
X86489432Y-70694856D01*
X86507433Y-70661179D01*
X86531659Y-70631659D01*
X86561179Y-70607433D01*
X86594856Y-70589432D01*
X86631396Y-70578347D01*
X86675538Y-70574000D01*
X87624462Y-70574000D01*
X87668604Y-70578347D01*
X87668604Y-70578347D01*
G37*
G36*
X160611000Y-71151000D02*
G01*
X158809000Y-71151000D01*
X158809000Y-69349000D01*
X160611000Y-69349000D01*
X160611000Y-71151000D01*
X160611000Y-71151000D01*
G37*
G36*
X172520442Y-69355518D02*
G01*
X172586627Y-69362037D01*
X172756466Y-69413557D01*
X172912991Y-69497222D01*
X172948729Y-69526552D01*
X173050186Y-69609814D01*
X173133448Y-69711271D01*
X173162778Y-69747009D01*
X173246443Y-69903534D01*
X173297963Y-70073373D01*
X173315359Y-70250000D01*
X173297963Y-70426627D01*
X173246443Y-70596466D01*
X173162778Y-70752991D01*
X173144274Y-70775538D01*
X173050186Y-70890186D01*
X172948729Y-70973448D01*
X172912991Y-71002778D01*
X172756466Y-71086443D01*
X172586627Y-71137963D01*
X172520442Y-71144482D01*
X172454260Y-71151000D01*
X172365740Y-71151000D01*
X172299558Y-71144482D01*
X172233373Y-71137963D01*
X172063534Y-71086443D01*
X171907009Y-71002778D01*
X171871271Y-70973448D01*
X171769814Y-70890186D01*
X171675726Y-70775538D01*
X171657222Y-70752991D01*
X171573557Y-70596466D01*
X171522037Y-70426627D01*
X171504641Y-70250000D01*
X171522037Y-70073373D01*
X171573557Y-69903534D01*
X171657222Y-69747009D01*
X171686552Y-69711271D01*
X171769814Y-69609814D01*
X171871271Y-69526552D01*
X171907009Y-69497222D01*
X172063534Y-69413557D01*
X172233373Y-69362037D01*
X172299558Y-69355518D01*
X172365740Y-69349000D01*
X172454260Y-69349000D01*
X172520442Y-69355518D01*
X172520442Y-69355518D01*
G37*
G36*
X169980442Y-69355518D02*
G01*
X170046627Y-69362037D01*
X170216466Y-69413557D01*
X170372991Y-69497222D01*
X170408729Y-69526552D01*
X170510186Y-69609814D01*
X170593448Y-69711271D01*
X170622778Y-69747009D01*
X170706443Y-69903534D01*
X170757963Y-70073373D01*
X170775359Y-70250000D01*
X170757963Y-70426627D01*
X170706443Y-70596466D01*
X170622778Y-70752991D01*
X170604274Y-70775538D01*
X170510186Y-70890186D01*
X170408729Y-70973448D01*
X170372991Y-71002778D01*
X170216466Y-71086443D01*
X170046627Y-71137963D01*
X169980442Y-71144482D01*
X169914260Y-71151000D01*
X169825740Y-71151000D01*
X169759558Y-71144482D01*
X169693373Y-71137963D01*
X169523534Y-71086443D01*
X169367009Y-71002778D01*
X169331271Y-70973448D01*
X169229814Y-70890186D01*
X169135726Y-70775538D01*
X169117222Y-70752991D01*
X169033557Y-70596466D01*
X168982037Y-70426627D01*
X168964641Y-70250000D01*
X168982037Y-70073373D01*
X169033557Y-69903534D01*
X169117222Y-69747009D01*
X169146552Y-69711271D01*
X169229814Y-69609814D01*
X169331271Y-69526552D01*
X169367009Y-69497222D01*
X169523534Y-69413557D01*
X169693373Y-69362037D01*
X169759558Y-69355518D01*
X169825740Y-69349000D01*
X169914260Y-69349000D01*
X169980442Y-69355518D01*
X169980442Y-69355518D01*
G37*
G36*
X167440442Y-69355518D02*
G01*
X167506627Y-69362037D01*
X167676466Y-69413557D01*
X167832991Y-69497222D01*
X167868729Y-69526552D01*
X167970186Y-69609814D01*
X168053448Y-69711271D01*
X168082778Y-69747009D01*
X168166443Y-69903534D01*
X168217963Y-70073373D01*
X168235359Y-70250000D01*
X168217963Y-70426627D01*
X168166443Y-70596466D01*
X168082778Y-70752991D01*
X168064274Y-70775538D01*
X167970186Y-70890186D01*
X167868729Y-70973448D01*
X167832991Y-71002778D01*
X167676466Y-71086443D01*
X167506627Y-71137963D01*
X167440442Y-71144482D01*
X167374260Y-71151000D01*
X167285740Y-71151000D01*
X167219558Y-71144482D01*
X167153373Y-71137963D01*
X166983534Y-71086443D01*
X166827009Y-71002778D01*
X166791271Y-70973448D01*
X166689814Y-70890186D01*
X166595726Y-70775538D01*
X166577222Y-70752991D01*
X166493557Y-70596466D01*
X166442037Y-70426627D01*
X166424641Y-70250000D01*
X166442037Y-70073373D01*
X166493557Y-69903534D01*
X166577222Y-69747009D01*
X166606552Y-69711271D01*
X166689814Y-69609814D01*
X166791271Y-69526552D01*
X166827009Y-69497222D01*
X166983534Y-69413557D01*
X167153373Y-69362037D01*
X167219558Y-69355518D01*
X167285740Y-69349000D01*
X167374260Y-69349000D01*
X167440442Y-69355518D01*
X167440442Y-69355518D01*
G37*
G36*
X164900442Y-69355518D02*
G01*
X164966627Y-69362037D01*
X165136466Y-69413557D01*
X165292991Y-69497222D01*
X165328729Y-69526552D01*
X165430186Y-69609814D01*
X165513448Y-69711271D01*
X165542778Y-69747009D01*
X165626443Y-69903534D01*
X165677963Y-70073373D01*
X165695359Y-70250000D01*
X165677963Y-70426627D01*
X165626443Y-70596466D01*
X165542778Y-70752991D01*
X165524274Y-70775538D01*
X165430186Y-70890186D01*
X165328729Y-70973448D01*
X165292991Y-71002778D01*
X165136466Y-71086443D01*
X164966627Y-71137963D01*
X164900442Y-71144482D01*
X164834260Y-71151000D01*
X164745740Y-71151000D01*
X164679558Y-71144482D01*
X164613373Y-71137963D01*
X164443534Y-71086443D01*
X164287009Y-71002778D01*
X164251271Y-70973448D01*
X164149814Y-70890186D01*
X164055726Y-70775538D01*
X164037222Y-70752991D01*
X163953557Y-70596466D01*
X163902037Y-70426627D01*
X163884641Y-70250000D01*
X163902037Y-70073373D01*
X163953557Y-69903534D01*
X164037222Y-69747009D01*
X164066552Y-69711271D01*
X164149814Y-69609814D01*
X164251271Y-69526552D01*
X164287009Y-69497222D01*
X164443534Y-69413557D01*
X164613373Y-69362037D01*
X164679558Y-69355518D01*
X164745740Y-69349000D01*
X164834260Y-69349000D01*
X164900442Y-69355518D01*
X164900442Y-69355518D01*
G37*
G36*
X162360442Y-69355518D02*
G01*
X162426627Y-69362037D01*
X162596466Y-69413557D01*
X162752991Y-69497222D01*
X162788729Y-69526552D01*
X162890186Y-69609814D01*
X162973448Y-69711271D01*
X163002778Y-69747009D01*
X163086443Y-69903534D01*
X163137963Y-70073373D01*
X163155359Y-70250000D01*
X163137963Y-70426627D01*
X163086443Y-70596466D01*
X163002778Y-70752991D01*
X162984274Y-70775538D01*
X162890186Y-70890186D01*
X162788729Y-70973448D01*
X162752991Y-71002778D01*
X162596466Y-71086443D01*
X162426627Y-71137963D01*
X162360442Y-71144482D01*
X162294260Y-71151000D01*
X162205740Y-71151000D01*
X162139558Y-71144482D01*
X162073373Y-71137963D01*
X161903534Y-71086443D01*
X161747009Y-71002778D01*
X161711271Y-70973448D01*
X161609814Y-70890186D01*
X161515726Y-70775538D01*
X161497222Y-70752991D01*
X161413557Y-70596466D01*
X161362037Y-70426627D01*
X161344641Y-70250000D01*
X161362037Y-70073373D01*
X161413557Y-69903534D01*
X161497222Y-69747009D01*
X161526552Y-69711271D01*
X161609814Y-69609814D01*
X161711271Y-69526552D01*
X161747009Y-69497222D01*
X161903534Y-69413557D01*
X162073373Y-69362037D01*
X162139558Y-69355518D01*
X162205740Y-69349000D01*
X162294260Y-69349000D01*
X162360442Y-69355518D01*
X162360442Y-69355518D01*
G37*
G36*
X96351000Y-70041000D02*
G01*
X94749000Y-70041000D01*
X94749000Y-68839000D01*
X96351000Y-68839000D01*
X96351000Y-70041000D01*
X96351000Y-70041000D01*
G37*
G36*
X105251000Y-70041000D02*
G01*
X103649000Y-70041000D01*
X103649000Y-68839000D01*
X105251000Y-68839000D01*
X105251000Y-70041000D01*
X105251000Y-70041000D01*
G37*
G36*
X87576000Y-69681000D02*
G01*
X84924000Y-69681000D01*
X84924000Y-68519000D01*
X87576000Y-68519000D01*
X87576000Y-69681000D01*
X87576000Y-69681000D01*
G37*
G36*
X96351000Y-67501000D02*
G01*
X94749000Y-67501000D01*
X94749000Y-66299000D01*
X96351000Y-66299000D01*
X96351000Y-67501000D01*
X96351000Y-67501000D01*
G37*
G36*
X105251000Y-67501000D02*
G01*
X103649000Y-67501000D01*
X103649000Y-66299000D01*
X105251000Y-66299000D01*
X105251000Y-67501000D01*
X105251000Y-67501000D01*
G37*
G36*
X87576000Y-67481000D02*
G01*
X86824000Y-67481000D01*
X86824000Y-66319000D01*
X87576000Y-66319000D01*
X87576000Y-67481000D01*
X87576000Y-67481000D01*
G37*
G36*
X85676000Y-67481000D02*
G01*
X84924000Y-67481000D01*
X84924000Y-66319000D01*
X85676000Y-66319000D01*
X85676000Y-67481000D01*
X85676000Y-67481000D01*
G37*
G36*
X142841132Y-65127810D02*
G01*
X142872423Y-65137302D01*
X142901263Y-65152717D01*
X142926539Y-65173461D01*
X142947283Y-65198737D01*
X142962698Y-65227577D01*
X142972190Y-65258868D01*
X142976000Y-65297551D01*
X142976000Y-67127449D01*
X142972190Y-67166132D01*
X142962698Y-67197423D01*
X142947283Y-67226263D01*
X142926539Y-67251539D01*
X142901263Y-67272283D01*
X142872423Y-67287698D01*
X142841132Y-67297190D01*
X142802449Y-67301000D01*
X140697551Y-67301000D01*
X140658868Y-67297190D01*
X140627577Y-67287698D01*
X140598737Y-67272283D01*
X140573461Y-67251539D01*
X140552717Y-67226263D01*
X140537302Y-67197423D01*
X140527810Y-67166132D01*
X140524000Y-67127449D01*
X140524000Y-65297551D01*
X140527810Y-65258868D01*
X140537302Y-65227577D01*
X140552717Y-65198737D01*
X140573461Y-65173461D01*
X140598737Y-65152717D01*
X140627577Y-65137302D01*
X140658868Y-65127810D01*
X140697551Y-65124000D01*
X142802449Y-65124000D01*
X142841132Y-65127810D01*
X142841132Y-65127810D01*
G37*
G36*
X84868604Y-63578347D02*
G01*
X84905144Y-63589432D01*
X84938821Y-63607433D01*
X84968341Y-63631659D01*
X84992567Y-63661179D01*
X85010568Y-63694856D01*
X85021653Y-63731396D01*
X85026000Y-63775538D01*
X85026000Y-65224462D01*
X85021653Y-65268604D01*
X85010568Y-65305144D01*
X84992567Y-65338821D01*
X84968341Y-65368341D01*
X84938821Y-65392567D01*
X84905144Y-65410568D01*
X84868604Y-65421653D01*
X84824462Y-65426000D01*
X83875538Y-65426000D01*
X83831396Y-65421653D01*
X83794856Y-65410568D01*
X83761179Y-65392567D01*
X83731659Y-65368341D01*
X83707433Y-65338821D01*
X83689432Y-65305144D01*
X83678347Y-65268604D01*
X83674000Y-65224462D01*
X83674000Y-63775538D01*
X83678347Y-63731396D01*
X83689432Y-63694856D01*
X83707433Y-63661179D01*
X83731659Y-63631659D01*
X83761179Y-63607433D01*
X83794856Y-63589432D01*
X83831396Y-63578347D01*
X83875538Y-63574000D01*
X84824462Y-63574000D01*
X84868604Y-63578347D01*
X84868604Y-63578347D01*
G37*
G36*
X87668604Y-63578347D02*
G01*
X87705144Y-63589432D01*
X87738821Y-63607433D01*
X87768341Y-63631659D01*
X87792567Y-63661179D01*
X87810568Y-63694856D01*
X87821653Y-63731396D01*
X87826000Y-63775538D01*
X87826000Y-65224462D01*
X87821653Y-65268604D01*
X87810568Y-65305144D01*
X87792567Y-65338821D01*
X87768341Y-65368341D01*
X87738821Y-65392567D01*
X87705144Y-65410568D01*
X87668604Y-65421653D01*
X87624462Y-65426000D01*
X86675538Y-65426000D01*
X86631396Y-65421653D01*
X86594856Y-65410568D01*
X86561179Y-65392567D01*
X86531659Y-65368341D01*
X86507433Y-65338821D01*
X86489432Y-65305144D01*
X86478347Y-65268604D01*
X86474000Y-65224462D01*
X86474000Y-63775538D01*
X86478347Y-63731396D01*
X86489432Y-63694856D01*
X86507433Y-63661179D01*
X86531659Y-63631659D01*
X86561179Y-63607433D01*
X86594856Y-63589432D01*
X86631396Y-63578347D01*
X86675538Y-63574000D01*
X87624462Y-63574000D01*
X87668604Y-63578347D01*
X87668604Y-63578347D01*
G37*
G36*
X136768604Y-62978347D02*
G01*
X136805144Y-62989432D01*
X136838821Y-63007433D01*
X136868341Y-63031659D01*
X136892567Y-63061179D01*
X136910568Y-63094856D01*
X136921653Y-63131396D01*
X136926000Y-63175538D01*
X136926000Y-64124462D01*
X136921653Y-64168604D01*
X136910568Y-64205144D01*
X136892567Y-64238821D01*
X136868341Y-64268341D01*
X136838821Y-64292567D01*
X136805144Y-64310568D01*
X136768604Y-64321653D01*
X136724462Y-64326000D01*
X135275538Y-64326000D01*
X135231396Y-64321653D01*
X135194856Y-64310568D01*
X135161179Y-64292567D01*
X135131659Y-64268341D01*
X135107433Y-64238821D01*
X135089432Y-64205144D01*
X135078347Y-64168604D01*
X135074000Y-64124462D01*
X135074000Y-63175538D01*
X135078347Y-63131396D01*
X135089432Y-63094856D01*
X135107433Y-63061179D01*
X135131659Y-63031659D01*
X135161179Y-63007433D01*
X135194856Y-62989432D01*
X135231396Y-62978347D01*
X135275538Y-62974000D01*
X136724462Y-62974000D01*
X136768604Y-62978347D01*
X136768604Y-62978347D01*
G37*
G36*
X139268604Y-62978347D02*
G01*
X139305144Y-62989432D01*
X139338821Y-63007433D01*
X139368341Y-63031659D01*
X139392567Y-63061179D01*
X139410568Y-63094856D01*
X139421653Y-63131396D01*
X139426000Y-63175538D01*
X139426000Y-64124462D01*
X139421653Y-64168604D01*
X139410568Y-64205144D01*
X139392567Y-64238821D01*
X139368341Y-64268341D01*
X139338821Y-64292567D01*
X139305144Y-64310568D01*
X139268604Y-64321653D01*
X139224462Y-64326000D01*
X137775538Y-64326000D01*
X137731396Y-64321653D01*
X137694856Y-64310568D01*
X137661179Y-64292567D01*
X137631659Y-64268341D01*
X137607433Y-64238821D01*
X137589432Y-64205144D01*
X137578347Y-64168604D01*
X137574000Y-64124462D01*
X137574000Y-63175538D01*
X137578347Y-63131396D01*
X137589432Y-63094856D01*
X137607433Y-63061179D01*
X137631659Y-63031659D01*
X137661179Y-63007433D01*
X137694856Y-62989432D01*
X137731396Y-62978347D01*
X137775538Y-62974000D01*
X139224462Y-62974000D01*
X139268604Y-62978347D01*
X139268604Y-62978347D01*
G37*
G36*
X142841132Y-60202810D02*
G01*
X142872423Y-60212302D01*
X142901263Y-60227717D01*
X142926539Y-60248461D01*
X142947283Y-60273737D01*
X142962698Y-60302577D01*
X142972190Y-60333868D01*
X142976000Y-60372551D01*
X142976000Y-62202449D01*
X142972190Y-62241132D01*
X142962698Y-62272423D01*
X142947283Y-62301263D01*
X142926539Y-62326539D01*
X142901263Y-62347283D01*
X142872423Y-62362698D01*
X142841132Y-62372190D01*
X142802449Y-62376000D01*
X140697551Y-62376000D01*
X140658868Y-62372190D01*
X140627577Y-62362698D01*
X140598737Y-62347283D01*
X140573461Y-62326539D01*
X140552717Y-62301263D01*
X140537302Y-62272423D01*
X140527810Y-62241132D01*
X140524000Y-62202449D01*
X140524000Y-60372551D01*
X140527810Y-60333868D01*
X140537302Y-60302577D01*
X140552717Y-60273737D01*
X140573461Y-60248461D01*
X140598737Y-60227717D01*
X140627577Y-60212302D01*
X140658868Y-60202810D01*
X140697551Y-60199000D01*
X142802449Y-60199000D01*
X142841132Y-60202810D01*
X142841132Y-60202810D01*
G37*
G36*
X125288550Y-61612850D02*
G01*
X124787770Y-61612850D01*
X124787770Y-61112070D01*
X125288550Y-61112070D01*
X125288550Y-61612850D01*
X125288550Y-61612850D01*
G37*
G36*
X124188730Y-61612850D02*
G01*
X123687950Y-61612850D01*
X123687950Y-61112070D01*
X124188730Y-61112070D01*
X124188730Y-61612850D01*
X124188730Y-61612850D01*
G37*
G36*
X126388370Y-61612850D02*
G01*
X125887590Y-61612850D01*
X125887590Y-61112070D01*
X126388370Y-61112070D01*
X126388370Y-61612850D01*
X126388370Y-61612850D01*
G37*
G36*
X127488190Y-61612850D02*
G01*
X126987410Y-61612850D01*
X126987410Y-61112070D01*
X127488190Y-61112070D01*
X127488190Y-61612850D01*
X127488190Y-61612850D01*
G37*
G36*
X128588010Y-61612850D02*
G01*
X128087230Y-61612850D01*
X128087230Y-61112070D01*
X128588010Y-61112070D01*
X128588010Y-61612850D01*
X128588010Y-61612850D01*
G37*
G36*
X129690370Y-61612850D02*
G01*
X129189590Y-61612850D01*
X129189590Y-61112070D01*
X129690370Y-61112070D01*
X129690370Y-61612850D01*
X129690370Y-61612850D01*
G37*
G36*
X130790190Y-61612850D02*
G01*
X130289410Y-61612850D01*
X130289410Y-61112070D01*
X130790190Y-61112070D01*
X130790190Y-61612850D01*
X130790190Y-61612850D01*
G37*
G36*
X131890010Y-61612850D02*
G01*
X131389230Y-61612850D01*
X131389230Y-61112070D01*
X131890010Y-61112070D01*
X131890010Y-61612850D01*
X131890010Y-61612850D01*
G37*
G36*
X132989830Y-61612850D02*
G01*
X132489050Y-61612850D01*
X132489050Y-61112070D01*
X132989830Y-61112070D01*
X132989830Y-61612850D01*
X132989830Y-61612850D01*
G37*
G36*
X139268604Y-60178347D02*
G01*
X139305144Y-60189432D01*
X139338821Y-60207433D01*
X139368341Y-60231659D01*
X139392567Y-60261179D01*
X139410568Y-60294856D01*
X139421653Y-60331396D01*
X139426000Y-60375538D01*
X139426000Y-61324462D01*
X139421653Y-61368604D01*
X139410568Y-61405144D01*
X139392567Y-61438821D01*
X139368341Y-61468341D01*
X139338821Y-61492567D01*
X139305144Y-61510568D01*
X139268604Y-61521653D01*
X139224462Y-61526000D01*
X137775538Y-61526000D01*
X137731396Y-61521653D01*
X137694856Y-61510568D01*
X137661179Y-61492567D01*
X137631659Y-61468341D01*
X137607433Y-61438821D01*
X137589432Y-61405144D01*
X137578347Y-61368604D01*
X137574000Y-61324462D01*
X137574000Y-60375538D01*
X137578347Y-60331396D01*
X137589432Y-60294856D01*
X137607433Y-60261179D01*
X137631659Y-60231659D01*
X137661179Y-60207433D01*
X137694856Y-60189432D01*
X137731396Y-60178347D01*
X137775538Y-60174000D01*
X139224462Y-60174000D01*
X139268604Y-60178347D01*
X139268604Y-60178347D01*
G37*
G36*
X136768604Y-60178347D02*
G01*
X136805144Y-60189432D01*
X136838821Y-60207433D01*
X136868341Y-60231659D01*
X136892567Y-60261179D01*
X136910568Y-60294856D01*
X136921653Y-60331396D01*
X136926000Y-60375538D01*
X136926000Y-61324462D01*
X136921653Y-61368604D01*
X136910568Y-61405144D01*
X136892567Y-61438821D01*
X136868341Y-61468341D01*
X136838821Y-61492567D01*
X136805144Y-61510568D01*
X136768604Y-61521653D01*
X136724462Y-61526000D01*
X135275538Y-61526000D01*
X135231396Y-61521653D01*
X135194856Y-61510568D01*
X135161179Y-61492567D01*
X135131659Y-61468341D01*
X135107433Y-61438821D01*
X135089432Y-61405144D01*
X135078347Y-61368604D01*
X135074000Y-61324462D01*
X135074000Y-60375538D01*
X135078347Y-60331396D01*
X135089432Y-60294856D01*
X135107433Y-60261179D01*
X135131659Y-60231659D01*
X135161179Y-60207433D01*
X135194856Y-60189432D01*
X135231396Y-60178347D01*
X135275538Y-60174000D01*
X136724462Y-60174000D01*
X136768604Y-60178347D01*
X136768604Y-60178347D01*
G37*
G36*
X167817021Y-55306640D02*
G01*
X168276611Y-55497009D01*
X168326771Y-55517786D01*
X168785534Y-55824321D01*
X169175679Y-56214466D01*
X169482214Y-56673229D01*
X169482215Y-56673231D01*
X169693360Y-57182979D01*
X169801000Y-57724124D01*
X169801000Y-58275876D01*
X169693360Y-58817021D01*
X169482215Y-59326769D01*
X169482214Y-59326771D01*
X169175679Y-59785534D01*
X168785534Y-60175679D01*
X168326771Y-60482214D01*
X168326770Y-60482215D01*
X168326769Y-60482215D01*
X167817021Y-60693360D01*
X167275876Y-60801000D01*
X166724124Y-60801000D01*
X166182979Y-60693360D01*
X165673231Y-60482215D01*
X165673230Y-60482215D01*
X165673229Y-60482214D01*
X165214466Y-60175679D01*
X164824321Y-59785534D01*
X164517786Y-59326771D01*
X164517785Y-59326769D01*
X164306640Y-58817021D01*
X164199000Y-58275876D01*
X164199000Y-57724124D01*
X164306640Y-57182979D01*
X164517785Y-56673231D01*
X164517786Y-56673229D01*
X164824321Y-56214466D01*
X165214466Y-55824321D01*
X165673229Y-55517786D01*
X165723389Y-55497009D01*
X166182979Y-55306640D01*
X166724124Y-55199000D01*
X167275876Y-55199000D01*
X167817021Y-55306640D01*
X167817021Y-55306640D01*
G37*
G36*
X126939550Y-60711150D02*
G01*
X126438770Y-60711150D01*
X126438770Y-60210370D01*
X126939550Y-60210370D01*
X126939550Y-60711150D01*
X126939550Y-60711150D01*
G37*
G36*
X128039370Y-60711150D02*
G01*
X127538590Y-60711150D01*
X127538590Y-60210370D01*
X128039370Y-60210370D01*
X128039370Y-60711150D01*
X128039370Y-60711150D01*
G37*
G36*
X129139190Y-60711150D02*
G01*
X128638410Y-60711150D01*
X128638410Y-60210370D01*
X129139190Y-60210370D01*
X129139190Y-60711150D01*
X129139190Y-60711150D01*
G37*
G36*
X130239010Y-60711150D02*
G01*
X129738230Y-60711150D01*
X129738230Y-60210370D01*
X130239010Y-60210370D01*
X130239010Y-60711150D01*
X130239010Y-60711150D01*
G37*
G36*
X131338830Y-60711150D02*
G01*
X130838050Y-60711150D01*
X130838050Y-60210370D01*
X131338830Y-60210370D01*
X131338830Y-60711150D01*
X131338830Y-60711150D01*
G37*
G36*
X125839730Y-60700990D02*
G01*
X125338950Y-60700990D01*
X125338950Y-60200210D01*
X125839730Y-60200210D01*
X125839730Y-60700990D01*
X125839730Y-60700990D01*
G37*
G36*
X132989830Y-60510490D02*
G01*
X132489050Y-60510490D01*
X132489050Y-60009710D01*
X132989830Y-60009710D01*
X132989830Y-60510490D01*
X132989830Y-60510490D01*
G37*
G36*
X124188730Y-60510490D02*
G01*
X123687950Y-60510490D01*
X123687950Y-60009710D01*
X124188730Y-60009710D01*
X124188730Y-60510490D01*
X124188730Y-60510490D01*
G37*
G36*
X103318604Y-58328347D02*
G01*
X103355144Y-58339432D01*
X103388821Y-58357433D01*
X103418341Y-58381659D01*
X103442567Y-58411179D01*
X103460568Y-58444856D01*
X103471653Y-58481396D01*
X103476000Y-58525538D01*
X103476000Y-59974462D01*
X103471653Y-60018604D01*
X103460568Y-60055144D01*
X103442567Y-60088821D01*
X103418341Y-60118341D01*
X103388821Y-60142567D01*
X103355144Y-60160568D01*
X103318604Y-60171653D01*
X103274462Y-60176000D01*
X102325538Y-60176000D01*
X102281396Y-60171653D01*
X102244856Y-60160568D01*
X102211179Y-60142567D01*
X102181659Y-60118341D01*
X102157433Y-60088821D01*
X102139432Y-60055144D01*
X102128347Y-60018604D01*
X102124000Y-59974462D01*
X102124000Y-58525538D01*
X102128347Y-58481396D01*
X102139432Y-58444856D01*
X102157433Y-58411179D01*
X102181659Y-58381659D01*
X102211179Y-58357433D01*
X102244856Y-58339432D01*
X102281396Y-58328347D01*
X102325538Y-58324000D01*
X103274462Y-58324000D01*
X103318604Y-58328347D01*
X103318604Y-58328347D01*
G37*
G36*
X100518604Y-58328347D02*
G01*
X100555144Y-58339432D01*
X100588821Y-58357433D01*
X100618341Y-58381659D01*
X100642567Y-58411179D01*
X100660568Y-58444856D01*
X100671653Y-58481396D01*
X100676000Y-58525538D01*
X100676000Y-59974462D01*
X100671653Y-60018604D01*
X100660568Y-60055144D01*
X100642567Y-60088821D01*
X100618341Y-60118341D01*
X100588821Y-60142567D01*
X100555144Y-60160568D01*
X100518604Y-60171653D01*
X100474462Y-60176000D01*
X99525538Y-60176000D01*
X99481396Y-60171653D01*
X99444856Y-60160568D01*
X99411179Y-60142567D01*
X99381659Y-60118341D01*
X99357433Y-60088821D01*
X99339432Y-60055144D01*
X99328347Y-60018604D01*
X99324000Y-59974462D01*
X99324000Y-58525538D01*
X99328347Y-58481396D01*
X99339432Y-58444856D01*
X99357433Y-58411179D01*
X99381659Y-58381659D01*
X99411179Y-58357433D01*
X99444856Y-58339432D01*
X99481396Y-58328347D01*
X99525538Y-58324000D01*
X100474462Y-58324000D01*
X100518604Y-58328347D01*
X100518604Y-58328347D01*
G37*
G36*
X155818604Y-58328347D02*
G01*
X155855144Y-58339432D01*
X155888821Y-58357433D01*
X155918341Y-58381659D01*
X155942567Y-58411179D01*
X155960568Y-58444856D01*
X155971653Y-58481396D01*
X155976000Y-58525538D01*
X155976000Y-59974462D01*
X155971653Y-60018604D01*
X155960568Y-60055144D01*
X155942567Y-60088821D01*
X155918341Y-60118341D01*
X155888821Y-60142567D01*
X155855144Y-60160568D01*
X155818604Y-60171653D01*
X155774462Y-60176000D01*
X154825538Y-60176000D01*
X154781396Y-60171653D01*
X154744856Y-60160568D01*
X154711179Y-60142567D01*
X154681659Y-60118341D01*
X154657433Y-60088821D01*
X154639432Y-60055144D01*
X154628347Y-60018604D01*
X154624000Y-59974462D01*
X154624000Y-58525538D01*
X154628347Y-58481396D01*
X154639432Y-58444856D01*
X154657433Y-58411179D01*
X154681659Y-58381659D01*
X154711179Y-58357433D01*
X154744856Y-58339432D01*
X154781396Y-58328347D01*
X154825538Y-58324000D01*
X155774462Y-58324000D01*
X155818604Y-58328347D01*
X155818604Y-58328347D01*
G37*
G36*
X153018604Y-58328347D02*
G01*
X153055144Y-58339432D01*
X153088821Y-58357433D01*
X153118341Y-58381659D01*
X153142567Y-58411179D01*
X153160568Y-58444856D01*
X153171653Y-58481396D01*
X153176000Y-58525538D01*
X153176000Y-59974462D01*
X153171653Y-60018604D01*
X153160568Y-60055144D01*
X153142567Y-60088821D01*
X153118341Y-60118341D01*
X153088821Y-60142567D01*
X153055144Y-60160568D01*
X153018604Y-60171653D01*
X152974462Y-60176000D01*
X152025538Y-60176000D01*
X151981396Y-60171653D01*
X151944856Y-60160568D01*
X151911179Y-60142567D01*
X151881659Y-60118341D01*
X151857433Y-60088821D01*
X151839432Y-60055144D01*
X151828347Y-60018604D01*
X151824000Y-59974462D01*
X151824000Y-58525538D01*
X151828347Y-58481396D01*
X151839432Y-58444856D01*
X151857433Y-58411179D01*
X151881659Y-58381659D01*
X151911179Y-58357433D01*
X151944856Y-58339432D01*
X151981396Y-58328347D01*
X152025538Y-58324000D01*
X152974462Y-58324000D01*
X153018604Y-58328347D01*
X153018604Y-58328347D01*
G37*
G36*
X132088130Y-59961850D02*
G01*
X131587350Y-59961850D01*
X131587350Y-59461070D01*
X132088130Y-59461070D01*
X132088130Y-59961850D01*
X132088130Y-59961850D01*
G37*
G36*
X125087890Y-59961850D02*
G01*
X124587110Y-59961850D01*
X124587110Y-59461070D01*
X125087890Y-59461070D01*
X125087890Y-59961850D01*
X125087890Y-59961850D01*
G37*
G36*
X132989830Y-59410670D02*
G01*
X132489050Y-59410670D01*
X132489050Y-58909890D01*
X132989830Y-58909890D01*
X132989830Y-59410670D01*
X132989830Y-59410670D01*
G37*
G36*
X124188730Y-59410670D02*
G01*
X123687950Y-59410670D01*
X123687950Y-58909890D01*
X124188730Y-58909890D01*
X124188730Y-59410670D01*
X124188730Y-59410670D01*
G37*
G36*
X132088130Y-58950930D02*
G01*
X131587350Y-58950930D01*
X131587350Y-58450150D01*
X132088130Y-58450150D01*
X132088130Y-58950930D01*
X132088130Y-58950930D01*
G37*
G36*
X125087890Y-58862030D02*
G01*
X124587110Y-58862030D01*
X124587110Y-58361250D01*
X125087890Y-58361250D01*
X125087890Y-58862030D01*
X125087890Y-58862030D01*
G37*
G36*
X132989830Y-58310850D02*
G01*
X132489050Y-58310850D01*
X132489050Y-57810070D01*
X132989830Y-57810070D01*
X132989830Y-58310850D01*
X132989830Y-58310850D01*
G37*
G36*
X124188730Y-58310850D02*
G01*
X123687950Y-58310850D01*
X123687950Y-57810070D01*
X124188730Y-57810070D01*
X124188730Y-58310850D01*
X124188730Y-58310850D01*
G37*
G36*
X125087890Y-57762210D02*
G01*
X124587110Y-57762210D01*
X124587110Y-57261430D01*
X125087890Y-57261430D01*
X125087890Y-57762210D01*
X125087890Y-57762210D01*
G37*
G36*
X132088130Y-57762210D02*
G01*
X131587350Y-57762210D01*
X131587350Y-57261430D01*
X132088130Y-57261430D01*
X132088130Y-57762210D01*
X132088130Y-57762210D01*
G37*
G36*
X132989830Y-57211030D02*
G01*
X132489050Y-57211030D01*
X132489050Y-56710250D01*
X132989830Y-56710250D01*
X132989830Y-57211030D01*
X132989830Y-57211030D01*
G37*
G36*
X124188730Y-57211030D02*
G01*
X123687950Y-57211030D01*
X123687950Y-56710250D01*
X124188730Y-56710250D01*
X124188730Y-57211030D01*
X124188730Y-57211030D01*
G37*
G36*
X102610442Y-55105518D02*
G01*
X102676627Y-55112037D01*
X102846466Y-55163557D01*
X103002991Y-55247222D01*
X103038729Y-55276552D01*
X103140186Y-55359814D01*
X103223448Y-55461271D01*
X103252778Y-55497009D01*
X103336443Y-55653534D01*
X103387963Y-55823373D01*
X103405359Y-56000000D01*
X103387963Y-56176627D01*
X103336443Y-56346466D01*
X103252778Y-56502991D01*
X103223448Y-56538729D01*
X103140186Y-56640186D01*
X103038729Y-56723448D01*
X103002991Y-56752778D01*
X102846466Y-56836443D01*
X102676627Y-56887963D01*
X102610443Y-56894481D01*
X102544260Y-56901000D01*
X102455740Y-56901000D01*
X102389557Y-56894481D01*
X102323373Y-56887963D01*
X102153534Y-56836443D01*
X101997009Y-56752778D01*
X101961271Y-56723448D01*
X101859814Y-56640186D01*
X101776552Y-56538729D01*
X101747222Y-56502991D01*
X101663557Y-56346466D01*
X101612037Y-56176627D01*
X101594641Y-56000000D01*
X101612037Y-55823373D01*
X101663557Y-55653534D01*
X101747222Y-55497009D01*
X101776552Y-55461271D01*
X101859814Y-55359814D01*
X101961271Y-55276552D01*
X101997009Y-55247222D01*
X102153534Y-55163557D01*
X102323373Y-55112037D01*
X102389558Y-55105518D01*
X102455740Y-55099000D01*
X102544260Y-55099000D01*
X102610442Y-55105518D01*
X102610442Y-55105518D01*
G37*
G36*
X155150442Y-55105518D02*
G01*
X155216627Y-55112037D01*
X155386466Y-55163557D01*
X155542991Y-55247222D01*
X155578729Y-55276552D01*
X155680186Y-55359814D01*
X155763448Y-55461271D01*
X155792778Y-55497009D01*
X155876443Y-55653534D01*
X155927963Y-55823373D01*
X155945359Y-56000000D01*
X155927963Y-56176627D01*
X155876443Y-56346466D01*
X155792778Y-56502991D01*
X155763448Y-56538729D01*
X155680186Y-56640186D01*
X155578729Y-56723448D01*
X155542991Y-56752778D01*
X155386466Y-56836443D01*
X155216627Y-56887963D01*
X155150443Y-56894481D01*
X155084260Y-56901000D01*
X154995740Y-56901000D01*
X154929557Y-56894481D01*
X154863373Y-56887963D01*
X154693534Y-56836443D01*
X154537009Y-56752778D01*
X154501271Y-56723448D01*
X154399814Y-56640186D01*
X154316552Y-56538729D01*
X154287222Y-56502991D01*
X154203557Y-56346466D01*
X154152037Y-56176627D01*
X154134641Y-56000000D01*
X154152037Y-55823373D01*
X154203557Y-55653534D01*
X154287222Y-55497009D01*
X154316552Y-55461271D01*
X154399814Y-55359814D01*
X154501271Y-55276552D01*
X154537009Y-55247222D01*
X154693534Y-55163557D01*
X154863373Y-55112037D01*
X154929558Y-55105518D01*
X154995740Y-55099000D01*
X155084260Y-55099000D01*
X155150442Y-55105518D01*
X155150442Y-55105518D01*
G37*
G36*
X153401000Y-56901000D02*
G01*
X151599000Y-56901000D01*
X151599000Y-55099000D01*
X153401000Y-55099000D01*
X153401000Y-56901000D01*
X153401000Y-56901000D01*
G37*
G36*
X100861000Y-56901000D02*
G01*
X99059000Y-56901000D01*
X99059000Y-55099000D01*
X100861000Y-55099000D01*
X100861000Y-56901000D01*
X100861000Y-56901000D01*
G37*
G36*
X125087890Y-56662390D02*
G01*
X124587110Y-56662390D01*
X124587110Y-56161610D01*
X125087890Y-56161610D01*
X125087890Y-56662390D01*
X125087890Y-56662390D01*
G37*
G36*
X132088130Y-56662390D02*
G01*
X131587350Y-56662390D01*
X131587350Y-56161610D01*
X132088130Y-56161610D01*
X132088130Y-56662390D01*
X132088130Y-56662390D01*
G37*
G36*
X132989830Y-56111210D02*
G01*
X132489050Y-56111210D01*
X132489050Y-55610430D01*
X132989830Y-55610430D01*
X132989830Y-56111210D01*
X132989830Y-56111210D01*
G37*
G36*
X124188730Y-56111210D02*
G01*
X123687950Y-56111210D01*
X123687950Y-55610430D01*
X124188730Y-55610430D01*
X124188730Y-56111210D01*
X124188730Y-56111210D01*
G37*
G36*
X127239270Y-55562570D02*
G01*
X126738490Y-55562570D01*
X126738490Y-55061790D01*
X127239270Y-55061790D01*
X127239270Y-55562570D01*
X127239270Y-55562570D01*
G37*
G36*
X132088130Y-55562570D02*
G01*
X131587350Y-55562570D01*
X131587350Y-55061790D01*
X132088130Y-55061790D01*
X132088130Y-55562570D01*
X132088130Y-55562570D01*
G37*
G36*
X129939290Y-55562570D02*
G01*
X129438510Y-55562570D01*
X129438510Y-55061790D01*
X129939290Y-55061790D01*
X129939290Y-55562570D01*
X129939290Y-55562570D01*
G37*
G36*
X125087890Y-55562570D02*
G01*
X124587110Y-55562570D01*
X124587110Y-55061790D01*
X125087890Y-55061790D01*
X125087890Y-55562570D01*
X125087890Y-55562570D01*
G37*
G36*
X132989830Y-55011390D02*
G01*
X132489050Y-55011390D01*
X132489050Y-54510610D01*
X132989830Y-54510610D01*
X132989830Y-55011390D01*
X132989830Y-55011390D01*
G37*
G36*
X124188730Y-55011390D02*
G01*
X123687950Y-55011390D01*
X123687950Y-54510610D01*
X124188730Y-54510610D01*
X124188730Y-55011390D01*
X124188730Y-55011390D01*
G37*
G36*
X125087890Y-54462750D02*
G01*
X124587110Y-54462750D01*
X124587110Y-53961970D01*
X125087890Y-53961970D01*
X125087890Y-54462750D01*
X125087890Y-54462750D01*
G37*
G36*
X132088130Y-54462750D02*
G01*
X131587350Y-54462750D01*
X131587350Y-53961970D01*
X132088130Y-53961970D01*
X132088130Y-54462750D01*
X132088130Y-54462750D01*
G37*
G36*
X124188730Y-53911570D02*
G01*
X123687950Y-53911570D01*
X123687950Y-53410790D01*
X124188730Y-53410790D01*
X124188730Y-53911570D01*
X124188730Y-53911570D01*
G37*
G36*
X132989830Y-53911570D02*
G01*
X132489050Y-53911570D01*
X132489050Y-53410790D01*
X132989830Y-53410790D01*
X132989830Y-53911570D01*
X132989830Y-53911570D01*
G37*
G36*
X125087890Y-53360390D02*
G01*
X124587110Y-53360390D01*
X124587110Y-52859610D01*
X125087890Y-52859610D01*
X125087890Y-53360390D01*
X125087890Y-53360390D01*
G37*
G36*
X132088130Y-53360390D02*
G01*
X131587350Y-53360390D01*
X131587350Y-52859610D01*
X132088130Y-52859610D01*
X132088130Y-53360390D01*
X132088130Y-53360390D01*
G37*
G36*
X124188730Y-52811750D02*
G01*
X123687950Y-52811750D01*
X123687950Y-52310970D01*
X124188730Y-52310970D01*
X124188730Y-52811750D01*
X124188730Y-52811750D01*
G37*
G36*
X132989830Y-52811750D02*
G01*
X132489050Y-52811750D01*
X132489050Y-52310970D01*
X132989830Y-52310970D01*
X132989830Y-52811750D01*
X132989830Y-52811750D01*
G37*
M02*
