G04 #@! TF.GenerationSoftware,KiCad,Pcbnew,(5.1.0)-1*
G04 #@! TF.CreationDate,2019-04-30T23:12:18+02:00*
G04 #@! TF.ProjectId,ArcJoy,4172634a-6f79-42e6-9b69-6361645f7063,1*
G04 #@! TF.SameCoordinates,Original*
G04 #@! TF.FileFunction,Legend,Top*
G04 #@! TF.FilePolarity,Positive*
%FSLAX46Y46*%
G04 Gerber Fmt 4.6, Leading zero omitted, Abs format (unit mm)*
G04 Created by KiCad (PCBNEW (5.1.0)-1) date 2019-04-30 23:12:18*
%MOMM*%
%LPD*%
G04 APERTURE LIST*
%ADD10C,0.200000*%
%ADD11C,0.500000*%
%ADD12C,0.010000*%
%ADD13C,0.120000*%
%ADD14C,0.254000*%
%ADD15C,0.007620*%
%ADD16C,0.150000*%
G04 APERTURE END LIST*
D10*
X150571428Y-91071428D02*
X151047619Y-92404761D01*
X151523809Y-91071428D01*
X153333333Y-92404761D02*
X152190476Y-92404761D01*
X152761904Y-92404761D02*
X152761904Y-90404761D01*
X152571428Y-90690476D01*
X152380952Y-90880952D01*
X152190476Y-90976190D01*
D11*
X151297619Y-87583333D02*
X153678571Y-87583333D01*
X150821428Y-89011904D02*
X152488095Y-84011904D01*
X154154761Y-89011904D01*
X155821428Y-89011904D02*
X155821428Y-85678571D01*
X155821428Y-86630952D02*
X156059523Y-86154761D01*
X156297619Y-85916666D01*
X156773809Y-85678571D01*
X157250000Y-85678571D01*
X161059523Y-88773809D02*
X160583333Y-89011904D01*
X159630952Y-89011904D01*
X159154761Y-88773809D01*
X158916666Y-88535714D01*
X158678571Y-88059523D01*
X158678571Y-86630952D01*
X158916666Y-86154761D01*
X159154761Y-85916666D01*
X159630952Y-85678571D01*
X160583333Y-85678571D01*
X161059523Y-85916666D01*
X164630952Y-84011904D02*
X164630952Y-87583333D01*
X164392857Y-88297619D01*
X163916666Y-88773809D01*
X163202380Y-89011904D01*
X162726190Y-89011904D01*
X167726190Y-89011904D02*
X167250000Y-88773809D01*
X167011904Y-88535714D01*
X166773809Y-88059523D01*
X166773809Y-86630952D01*
X167011904Y-86154761D01*
X167250000Y-85916666D01*
X167726190Y-85678571D01*
X168440476Y-85678571D01*
X168916666Y-85916666D01*
X169154761Y-86154761D01*
X169392857Y-86630952D01*
X169392857Y-88059523D01*
X169154761Y-88535714D01*
X168916666Y-88773809D01*
X168440476Y-89011904D01*
X167726190Y-89011904D01*
X171059523Y-85678571D02*
X172250000Y-89011904D01*
X173440476Y-85678571D02*
X172250000Y-89011904D01*
X171773809Y-90202380D01*
X171535714Y-90440476D01*
X171059523Y-90678571D01*
D12*
G36*
X170590127Y-94101323D02*
G01*
X170690554Y-94131778D01*
X170778492Y-94174991D01*
X170841541Y-94224790D01*
X170867304Y-94275001D01*
X170867393Y-94277886D01*
X170846881Y-94298473D01*
X170792373Y-94337153D01*
X170714399Y-94387573D01*
X170623493Y-94443375D01*
X170530185Y-94498205D01*
X170445008Y-94545707D01*
X170378494Y-94579526D01*
X170346342Y-94592317D01*
X170318627Y-94576600D01*
X170280380Y-94528530D01*
X170262964Y-94499959D01*
X170215063Y-94377512D01*
X170213903Y-94319753D01*
X170266965Y-94319753D01*
X170280932Y-94384254D01*
X170308561Y-94447006D01*
X170342420Y-94488930D01*
X170361211Y-94496200D01*
X170395718Y-94484494D01*
X170460924Y-94453598D01*
X170543603Y-94409838D01*
X170555491Y-94403229D01*
X170721737Y-94310259D01*
X170628051Y-94262196D01*
X170540100Y-94231828D01*
X170519761Y-94229500D01*
X170715000Y-94229500D01*
X170727700Y-94242200D01*
X170740400Y-94229500D01*
X170727700Y-94216800D01*
X170715000Y-94229500D01*
X170519761Y-94229500D01*
X170443774Y-94220803D01*
X170355300Y-94228647D01*
X170290906Y-94254881D01*
X170274094Y-94272581D01*
X170266965Y-94319753D01*
X170213903Y-94319753D01*
X170212895Y-94269653D01*
X170243143Y-94204100D01*
X170664200Y-94204100D01*
X170676900Y-94216800D01*
X170689600Y-94204100D01*
X170676900Y-94191400D01*
X170664200Y-94204100D01*
X170243143Y-94204100D01*
X170253261Y-94182173D01*
X170332962Y-94120862D01*
X170448798Y-94091508D01*
X170489610Y-94089800D01*
X170590127Y-94101323D01*
X170590127Y-94101323D01*
G37*
X170590127Y-94101323D02*
X170690554Y-94131778D01*
X170778492Y-94174991D01*
X170841541Y-94224790D01*
X170867304Y-94275001D01*
X170867393Y-94277886D01*
X170846881Y-94298473D01*
X170792373Y-94337153D01*
X170714399Y-94387573D01*
X170623493Y-94443375D01*
X170530185Y-94498205D01*
X170445008Y-94545707D01*
X170378494Y-94579526D01*
X170346342Y-94592317D01*
X170318627Y-94576600D01*
X170280380Y-94528530D01*
X170262964Y-94499959D01*
X170215063Y-94377512D01*
X170213903Y-94319753D01*
X170266965Y-94319753D01*
X170280932Y-94384254D01*
X170308561Y-94447006D01*
X170342420Y-94488930D01*
X170361211Y-94496200D01*
X170395718Y-94484494D01*
X170460924Y-94453598D01*
X170543603Y-94409838D01*
X170555491Y-94403229D01*
X170721737Y-94310259D01*
X170628051Y-94262196D01*
X170540100Y-94231828D01*
X170519761Y-94229500D01*
X170715000Y-94229500D01*
X170727700Y-94242200D01*
X170740400Y-94229500D01*
X170727700Y-94216800D01*
X170715000Y-94229500D01*
X170519761Y-94229500D01*
X170443774Y-94220803D01*
X170355300Y-94228647D01*
X170290906Y-94254881D01*
X170274094Y-94272581D01*
X170266965Y-94319753D01*
X170213903Y-94319753D01*
X170212895Y-94269653D01*
X170243143Y-94204100D01*
X170664200Y-94204100D01*
X170676900Y-94216800D01*
X170689600Y-94204100D01*
X170676900Y-94191400D01*
X170664200Y-94204100D01*
X170243143Y-94204100D01*
X170253261Y-94182173D01*
X170332962Y-94120862D01*
X170448798Y-94091508D01*
X170489610Y-94089800D01*
X170590127Y-94101323D01*
G36*
X169190845Y-95456759D02*
G01*
X169246244Y-95509635D01*
X169300353Y-95580523D01*
X169341985Y-95655317D01*
X169358071Y-95704278D01*
X169354514Y-95810289D01*
X169311991Y-95915117D01*
X169239207Y-96000027D01*
X169211578Y-96019548D01*
X169107736Y-96060421D01*
X168992986Y-96070862D01*
X168886403Y-96050931D01*
X168826125Y-96018356D01*
X168776012Y-95961739D01*
X168759468Y-95886793D01*
X168759200Y-95871625D01*
X168759216Y-95871438D01*
X168810000Y-95871438D01*
X168831600Y-95921681D01*
X168884772Y-95971975D01*
X168952071Y-96009025D01*
X169005186Y-96020200D01*
X169072339Y-96008403D01*
X169139919Y-95982245D01*
X169205010Y-95937826D01*
X169250955Y-95890552D01*
X169272395Y-95850891D01*
X169270050Y-95811670D01*
X169242058Y-95752438D01*
X169237627Y-95744357D01*
X169192199Y-95671344D01*
X169145665Y-95610087D01*
X169138111Y-95601887D01*
X169112312Y-95578145D01*
X169088648Y-95572366D01*
X169057011Y-95589275D01*
X169007292Y-95633598D01*
X168949781Y-95689919D01*
X168882847Y-95761364D01*
X168833390Y-95824337D01*
X168810571Y-95866940D01*
X168810000Y-95871438D01*
X168759216Y-95871438D01*
X168763454Y-95822591D01*
X168780845Y-95777344D01*
X168818315Y-95725199D01*
X168882807Y-95655470D01*
X168931287Y-95606768D01*
X169010188Y-95532627D01*
X169079767Y-95474734D01*
X169129898Y-95441167D01*
X169145338Y-95436000D01*
X169190845Y-95456759D01*
X169190845Y-95456759D01*
G37*
X169190845Y-95456759D02*
X169246244Y-95509635D01*
X169300353Y-95580523D01*
X169341985Y-95655317D01*
X169358071Y-95704278D01*
X169354514Y-95810289D01*
X169311991Y-95915117D01*
X169239207Y-96000027D01*
X169211578Y-96019548D01*
X169107736Y-96060421D01*
X168992986Y-96070862D01*
X168886403Y-96050931D01*
X168826125Y-96018356D01*
X168776012Y-95961739D01*
X168759468Y-95886793D01*
X168759200Y-95871625D01*
X168759216Y-95871438D01*
X168810000Y-95871438D01*
X168831600Y-95921681D01*
X168884772Y-95971975D01*
X168952071Y-96009025D01*
X169005186Y-96020200D01*
X169072339Y-96008403D01*
X169139919Y-95982245D01*
X169205010Y-95937826D01*
X169250955Y-95890552D01*
X169272395Y-95850891D01*
X169270050Y-95811670D01*
X169242058Y-95752438D01*
X169237627Y-95744357D01*
X169192199Y-95671344D01*
X169145665Y-95610087D01*
X169138111Y-95601887D01*
X169112312Y-95578145D01*
X169088648Y-95572366D01*
X169057011Y-95589275D01*
X169007292Y-95633598D01*
X168949781Y-95689919D01*
X168882847Y-95761364D01*
X168833390Y-95824337D01*
X168810571Y-95866940D01*
X168810000Y-95871438D01*
X168759216Y-95871438D01*
X168763454Y-95822591D01*
X168780845Y-95777344D01*
X168818315Y-95725199D01*
X168882807Y-95655470D01*
X168931287Y-95606768D01*
X169010188Y-95532627D01*
X169079767Y-95474734D01*
X169129898Y-95441167D01*
X169145338Y-95436000D01*
X169190845Y-95456759D01*
G36*
X167750377Y-95715482D02*
G01*
X167867834Y-95755634D01*
X167983532Y-95829059D01*
X168107920Y-95941264D01*
X168144789Y-95979389D01*
X168261598Y-96122539D01*
X168331977Y-96255046D01*
X168355540Y-96375255D01*
X168331905Y-96481509D01*
X168278553Y-96555553D01*
X168228893Y-96598713D01*
X168178441Y-96620804D01*
X168107401Y-96628342D01*
X168056303Y-96628677D01*
X167923316Y-96615326D01*
X167819400Y-96580441D01*
X167693175Y-96496540D01*
X167567233Y-96384039D01*
X167459843Y-96260519D01*
X167411792Y-96188218D01*
X167351695Y-96049774D01*
X167343411Y-95979894D01*
X167398692Y-95979894D01*
X167432037Y-96077511D01*
X167495228Y-96185696D01*
X167581894Y-96295889D01*
X167685663Y-96399530D01*
X167800162Y-96488057D01*
X167868675Y-96528946D01*
X167978695Y-96568095D01*
X168088399Y-96574730D01*
X168180589Y-96548295D01*
X168194748Y-96539459D01*
X168242094Y-96478812D01*
X168244707Y-96395228D01*
X168202660Y-96289710D01*
X168172688Y-96240578D01*
X168089117Y-96134500D01*
X168175000Y-96134500D01*
X168187700Y-96147200D01*
X168200400Y-96134500D01*
X168187700Y-96121800D01*
X168175000Y-96134500D01*
X168089117Y-96134500D01*
X168058854Y-96096088D01*
X167928429Y-95976256D01*
X167790248Y-95886868D01*
X167759845Y-95875080D01*
X167925094Y-95875080D01*
X167931274Y-95889275D01*
X167956849Y-95916543D01*
X167971552Y-95910949D01*
X167971800Y-95907399D01*
X167953758Y-95885915D01*
X167942475Y-95878074D01*
X167925094Y-95875080D01*
X167759845Y-95875080D01*
X167653143Y-95833710D01*
X167612488Y-95829700D01*
X167844800Y-95829700D01*
X167857500Y-95842400D01*
X167870200Y-95829700D01*
X167857500Y-95817000D01*
X167844800Y-95829700D01*
X167612488Y-95829700D01*
X167533568Y-95821916D01*
X167462130Y-95832280D01*
X167423501Y-95856891D01*
X167401565Y-95901406D01*
X167398692Y-95979894D01*
X167343411Y-95979894D01*
X167336926Y-95925194D01*
X167367598Y-95817913D01*
X167377063Y-95804300D01*
X167794000Y-95804300D01*
X167806700Y-95817000D01*
X167819400Y-95804300D01*
X167806700Y-95791600D01*
X167794000Y-95804300D01*
X167377063Y-95804300D01*
X167398156Y-95773966D01*
X167437519Y-95734400D01*
X167480004Y-95712994D01*
X167542472Y-95704379D01*
X167620713Y-95703094D01*
X167750377Y-95715482D01*
X167750377Y-95715482D01*
G37*
X167750377Y-95715482D02*
X167867834Y-95755634D01*
X167983532Y-95829059D01*
X168107920Y-95941264D01*
X168144789Y-95979389D01*
X168261598Y-96122539D01*
X168331977Y-96255046D01*
X168355540Y-96375255D01*
X168331905Y-96481509D01*
X168278553Y-96555553D01*
X168228893Y-96598713D01*
X168178441Y-96620804D01*
X168107401Y-96628342D01*
X168056303Y-96628677D01*
X167923316Y-96615326D01*
X167819400Y-96580441D01*
X167693175Y-96496540D01*
X167567233Y-96384039D01*
X167459843Y-96260519D01*
X167411792Y-96188218D01*
X167351695Y-96049774D01*
X167343411Y-95979894D01*
X167398692Y-95979894D01*
X167432037Y-96077511D01*
X167495228Y-96185696D01*
X167581894Y-96295889D01*
X167685663Y-96399530D01*
X167800162Y-96488057D01*
X167868675Y-96528946D01*
X167978695Y-96568095D01*
X168088399Y-96574730D01*
X168180589Y-96548295D01*
X168194748Y-96539459D01*
X168242094Y-96478812D01*
X168244707Y-96395228D01*
X168202660Y-96289710D01*
X168172688Y-96240578D01*
X168089117Y-96134500D01*
X168175000Y-96134500D01*
X168187700Y-96147200D01*
X168200400Y-96134500D01*
X168187700Y-96121800D01*
X168175000Y-96134500D01*
X168089117Y-96134500D01*
X168058854Y-96096088D01*
X167928429Y-95976256D01*
X167790248Y-95886868D01*
X167759845Y-95875080D01*
X167925094Y-95875080D01*
X167931274Y-95889275D01*
X167956849Y-95916543D01*
X167971552Y-95910949D01*
X167971800Y-95907399D01*
X167953758Y-95885915D01*
X167942475Y-95878074D01*
X167925094Y-95875080D01*
X167759845Y-95875080D01*
X167653143Y-95833710D01*
X167612488Y-95829700D01*
X167844800Y-95829700D01*
X167857500Y-95842400D01*
X167870200Y-95829700D01*
X167857500Y-95817000D01*
X167844800Y-95829700D01*
X167612488Y-95829700D01*
X167533568Y-95821916D01*
X167462130Y-95832280D01*
X167423501Y-95856891D01*
X167401565Y-95901406D01*
X167398692Y-95979894D01*
X167343411Y-95979894D01*
X167336926Y-95925194D01*
X167367598Y-95817913D01*
X167377063Y-95804300D01*
X167794000Y-95804300D01*
X167806700Y-95817000D01*
X167819400Y-95804300D01*
X167806700Y-95791600D01*
X167794000Y-95804300D01*
X167377063Y-95804300D01*
X167398156Y-95773966D01*
X167437519Y-95734400D01*
X167480004Y-95712994D01*
X167542472Y-95704379D01*
X167620713Y-95703094D01*
X167750377Y-95715482D01*
G36*
X165165138Y-97805688D02*
G01*
X165210968Y-97855547D01*
X165240239Y-97895688D01*
X165302617Y-98021994D01*
X165318699Y-98148396D01*
X165292468Y-98267740D01*
X165227906Y-98372867D01*
X165128996Y-98456620D01*
X164999722Y-98511843D01*
X164887172Y-98530111D01*
X164794770Y-98533240D01*
X164734764Y-98525400D01*
X164689240Y-98502637D01*
X164661594Y-98480321D01*
X164609020Y-98413524D01*
X164577321Y-98336088D01*
X164577138Y-98335151D01*
X164575503Y-98322770D01*
X164644400Y-98322770D01*
X164667077Y-98391471D01*
X164726887Y-98443597D01*
X164811495Y-98474138D01*
X164908566Y-98478080D01*
X164982824Y-98460301D01*
X165040051Y-98428992D01*
X165110378Y-98378227D01*
X165136878Y-98356070D01*
X165206435Y-98274725D01*
X165229055Y-98190026D01*
X165204975Y-98095733D01*
X165150202Y-98006403D01*
X165100552Y-97945894D01*
X165058960Y-97907267D01*
X165042849Y-97899800D01*
X165006381Y-97918070D01*
X164947710Y-97966287D01*
X164876154Y-98034560D01*
X164801033Y-98112997D01*
X164731663Y-98191705D01*
X164677363Y-98260795D01*
X164647450Y-98310373D01*
X164644400Y-98322770D01*
X164575503Y-98322770D01*
X164572367Y-98299024D01*
X164577143Y-98266291D01*
X164596826Y-98229353D01*
X164636777Y-98180614D01*
X164702355Y-98112478D01*
X164798921Y-98017348D01*
X164806787Y-98009668D01*
X164919417Y-97902195D01*
X165004447Y-97829933D01*
X165068997Y-97791009D01*
X165120187Y-97783552D01*
X165165138Y-97805688D01*
X165165138Y-97805688D01*
G37*
X165165138Y-97805688D02*
X165210968Y-97855547D01*
X165240239Y-97895688D01*
X165302617Y-98021994D01*
X165318699Y-98148396D01*
X165292468Y-98267740D01*
X165227906Y-98372867D01*
X165128996Y-98456620D01*
X164999722Y-98511843D01*
X164887172Y-98530111D01*
X164794770Y-98533240D01*
X164734764Y-98525400D01*
X164689240Y-98502637D01*
X164661594Y-98480321D01*
X164609020Y-98413524D01*
X164577321Y-98336088D01*
X164577138Y-98335151D01*
X164575503Y-98322770D01*
X164644400Y-98322770D01*
X164667077Y-98391471D01*
X164726887Y-98443597D01*
X164811495Y-98474138D01*
X164908566Y-98478080D01*
X164982824Y-98460301D01*
X165040051Y-98428992D01*
X165110378Y-98378227D01*
X165136878Y-98356070D01*
X165206435Y-98274725D01*
X165229055Y-98190026D01*
X165204975Y-98095733D01*
X165150202Y-98006403D01*
X165100552Y-97945894D01*
X165058960Y-97907267D01*
X165042849Y-97899800D01*
X165006381Y-97918070D01*
X164947710Y-97966287D01*
X164876154Y-98034560D01*
X164801033Y-98112997D01*
X164731663Y-98191705D01*
X164677363Y-98260795D01*
X164647450Y-98310373D01*
X164644400Y-98322770D01*
X164575503Y-98322770D01*
X164572367Y-98299024D01*
X164577143Y-98266291D01*
X164596826Y-98229353D01*
X164636777Y-98180614D01*
X164702355Y-98112478D01*
X164798921Y-98017348D01*
X164806787Y-98009668D01*
X164919417Y-97902195D01*
X165004447Y-97829933D01*
X165068997Y-97791009D01*
X165120187Y-97783552D01*
X165165138Y-97805688D01*
G36*
X172001933Y-99940266D02*
G01*
X172004973Y-99970410D01*
X172001933Y-99974133D01*
X171986833Y-99970646D01*
X171985000Y-99957200D01*
X171994293Y-99936292D01*
X172001933Y-99940266D01*
X172001933Y-99940266D01*
G37*
X172001933Y-99940266D02*
X172004973Y-99970410D01*
X172001933Y-99974133D01*
X171986833Y-99970646D01*
X171985000Y-99957200D01*
X171994293Y-99936292D01*
X172001933Y-99940266D01*
G36*
X171883400Y-100071500D02*
G01*
X171870700Y-100084200D01*
X171858000Y-100071500D01*
X171870700Y-100058800D01*
X171883400Y-100071500D01*
X171883400Y-100071500D01*
G37*
X171883400Y-100071500D02*
X171870700Y-100084200D01*
X171858000Y-100071500D01*
X171870700Y-100058800D01*
X171883400Y-100071500D01*
G36*
X171756400Y-100173100D02*
G01*
X171743700Y-100185800D01*
X171731000Y-100173100D01*
X171743700Y-100160400D01*
X171756400Y-100173100D01*
X171756400Y-100173100D01*
G37*
X171756400Y-100173100D02*
X171743700Y-100185800D01*
X171731000Y-100173100D01*
X171743700Y-100160400D01*
X171756400Y-100173100D01*
G36*
X171629400Y-100274700D02*
G01*
X171616700Y-100287400D01*
X171604000Y-100274700D01*
X171616700Y-100262000D01*
X171629400Y-100274700D01*
X171629400Y-100274700D01*
G37*
X171629400Y-100274700D02*
X171616700Y-100287400D01*
X171604000Y-100274700D01*
X171616700Y-100262000D01*
X171629400Y-100274700D01*
G36*
X171502400Y-100376300D02*
G01*
X171489700Y-100389000D01*
X171477000Y-100376300D01*
X171489700Y-100363600D01*
X171502400Y-100376300D01*
X171502400Y-100376300D01*
G37*
X171502400Y-100376300D02*
X171489700Y-100389000D01*
X171477000Y-100376300D01*
X171489700Y-100363600D01*
X171502400Y-100376300D01*
G36*
X170531759Y-93931988D02*
G01*
X170635197Y-93958619D01*
X170719750Y-93995635D01*
X170816440Y-94049619D01*
X170915750Y-94115837D01*
X171008027Y-94186466D01*
X171083614Y-94253680D01*
X171132854Y-94309653D01*
X171146800Y-94341728D01*
X171123936Y-94374862D01*
X171056761Y-94427064D01*
X170947400Y-94496800D01*
X170866115Y-94544313D01*
X170761157Y-94606742D01*
X170675609Y-94662552D01*
X170617517Y-94706125D01*
X170594927Y-94731839D01*
X170595040Y-94733646D01*
X170627553Y-94771091D01*
X170692139Y-94812375D01*
X170771592Y-94849012D01*
X170848703Y-94872514D01*
X170885254Y-94876782D01*
X170967163Y-94867140D01*
X171033311Y-94846808D01*
X171080272Y-94815749D01*
X171088116Y-94772751D01*
X171083767Y-94751558D01*
X171059448Y-94644741D01*
X171054949Y-94575658D01*
X171075755Y-94533306D01*
X171127351Y-94506685D01*
X171215223Y-94484791D01*
X171216958Y-94484419D01*
X171268567Y-94476935D01*
X171301080Y-94489766D01*
X171329373Y-94533247D01*
X171349750Y-94576664D01*
X171394965Y-94712584D01*
X171396082Y-94830576D01*
X171351236Y-94936545D01*
X171258559Y-95036399D01*
X171187456Y-95090210D01*
X171107737Y-95142619D01*
X171047862Y-95170813D01*
X170986898Y-95180875D01*
X170903911Y-95178886D01*
X170886058Y-95177784D01*
X170772980Y-95162318D01*
X170666434Y-95134007D01*
X170621447Y-95115622D01*
X170575926Y-95093100D01*
X170740400Y-95093100D01*
X170753100Y-95105800D01*
X170765800Y-95093100D01*
X170753100Y-95080400D01*
X170740400Y-95093100D01*
X170575926Y-95093100D01*
X170516333Y-95063616D01*
X170539466Y-95124461D01*
X170559683Y-95225779D01*
X170552555Y-95334400D01*
X170522256Y-95435707D01*
X170472958Y-95515085D01*
X170416404Y-95555475D01*
X170367109Y-95582289D01*
X170306206Y-95626021D01*
X170300301Y-95630822D01*
X170206582Y-95676926D01*
X170083985Y-95689795D01*
X169942043Y-95669444D01*
X169823268Y-95630203D01*
X169758293Y-95601100D01*
X169927600Y-95601100D01*
X169940300Y-95613800D01*
X169953000Y-95601100D01*
X169940300Y-95588400D01*
X169927600Y-95601100D01*
X169758293Y-95601100D01*
X169719930Y-95583917D01*
X169705616Y-95575700D01*
X169851400Y-95575700D01*
X169864100Y-95588400D01*
X169876800Y-95575700D01*
X169864100Y-95563000D01*
X169851400Y-95575700D01*
X169705616Y-95575700D01*
X169661368Y-95550300D01*
X169800600Y-95550300D01*
X169813300Y-95563000D01*
X169826000Y-95550300D01*
X169813300Y-95537600D01*
X169800600Y-95550300D01*
X169661368Y-95550300D01*
X169633174Y-95534116D01*
X169621009Y-95524900D01*
X169749800Y-95524900D01*
X169762500Y-95537600D01*
X169775200Y-95524900D01*
X169762500Y-95512200D01*
X169749800Y-95524900D01*
X169621009Y-95524900D01*
X169587478Y-95499500D01*
X169699000Y-95499500D01*
X169711700Y-95512200D01*
X169724400Y-95499500D01*
X169711700Y-95486800D01*
X169699000Y-95499500D01*
X169587478Y-95499500D01*
X169550480Y-95471474D01*
X169492876Y-95417880D01*
X169601494Y-95417880D01*
X169607674Y-95432075D01*
X169633249Y-95459343D01*
X169647952Y-95453749D01*
X169648200Y-95450199D01*
X169630158Y-95428715D01*
X169618875Y-95420874D01*
X169601494Y-95417880D01*
X169492876Y-95417880D01*
X169459325Y-95386666D01*
X169363726Y-95287946D01*
X169247593Y-95153875D01*
X169221045Y-95113080D01*
X169296694Y-95113080D01*
X169302874Y-95127275D01*
X169328449Y-95154543D01*
X169343152Y-95148949D01*
X169343400Y-95145399D01*
X169325358Y-95123915D01*
X169314075Y-95116074D01*
X169296694Y-95113080D01*
X169221045Y-95113080D01*
X169174982Y-95042300D01*
X169241800Y-95042300D01*
X169254500Y-95055000D01*
X169267200Y-95042300D01*
X169254500Y-95029600D01*
X169241800Y-95042300D01*
X169174982Y-95042300D01*
X169171299Y-95036642D01*
X169131065Y-94927044D01*
X169123112Y-94815877D01*
X169134995Y-94730922D01*
X169145214Y-94691505D01*
X169213137Y-94691505D01*
X169215410Y-94797822D01*
X169217607Y-94806333D01*
X169246044Y-94874493D01*
X169295493Y-94962502D01*
X169352112Y-95046860D01*
X169500998Y-95223766D01*
X169659417Y-95365853D01*
X169822307Y-95470623D01*
X169984609Y-95535576D01*
X170141260Y-95558215D01*
X170287202Y-95536041D01*
X170318976Y-95524233D01*
X170398958Y-95471958D01*
X170465699Y-95395425D01*
X170505812Y-95312114D01*
X170511705Y-95272569D01*
X170501012Y-95220806D01*
X170473909Y-95147235D01*
X170458734Y-95113819D01*
X170429559Y-95063466D01*
X170672666Y-95063466D01*
X170676153Y-95078566D01*
X170689600Y-95080400D01*
X170710507Y-95071106D01*
X170706533Y-95063466D01*
X170676389Y-95060426D01*
X170672666Y-95063466D01*
X170429559Y-95063466D01*
X170417408Y-95042495D01*
X170417169Y-95042300D01*
X170613400Y-95042300D01*
X170626100Y-95055000D01*
X170638800Y-95042300D01*
X170626100Y-95029600D01*
X170613400Y-95042300D01*
X170417169Y-95042300D01*
X170377175Y-95009805D01*
X170343781Y-95004200D01*
X170303251Y-95007131D01*
X170295909Y-95025318D01*
X170317403Y-95072853D01*
X170320647Y-95079138D01*
X170356268Y-95185038D01*
X170344145Y-95277739D01*
X170285153Y-95361753D01*
X170192301Y-95420708D01*
X170077841Y-95438926D01*
X169948556Y-95417793D01*
X169811230Y-95358696D01*
X169672648Y-95263024D01*
X169632902Y-95228370D01*
X169511439Y-95100818D01*
X169425382Y-94975603D01*
X169376447Y-94857980D01*
X169366353Y-94753203D01*
X169389725Y-94686700D01*
X169775200Y-94686700D01*
X169787900Y-94699400D01*
X169800600Y-94686700D01*
X169787900Y-94674000D01*
X169775200Y-94686700D01*
X169389725Y-94686700D01*
X169396815Y-94666528D01*
X169401718Y-94661300D01*
X169724400Y-94661300D01*
X169737100Y-94674000D01*
X169749800Y-94661300D01*
X169737100Y-94648600D01*
X169724400Y-94661300D01*
X169401718Y-94661300D01*
X169435725Y-94625043D01*
X169521568Y-94585260D01*
X169630420Y-94572687D01*
X169741925Y-94588073D01*
X169802607Y-94611538D01*
X169872645Y-94635896D01*
X169916351Y-94625984D01*
X169927600Y-94595132D01*
X169905228Y-94567196D01*
X169847406Y-94533020D01*
X169768071Y-94498257D01*
X169681161Y-94468555D01*
X169600614Y-94449567D01*
X169558903Y-94445648D01*
X169433941Y-94464657D01*
X169329756Y-94517151D01*
X169253704Y-94595358D01*
X169213137Y-94691505D01*
X169145214Y-94691505D01*
X169158144Y-94641637D01*
X169185465Y-94565384D01*
X169201200Y-94534549D01*
X169276310Y-94463290D01*
X169385075Y-94416575D01*
X169515937Y-94395789D01*
X169657337Y-94402318D01*
X169797717Y-94437544D01*
X169845474Y-94457376D01*
X169920975Y-94497854D01*
X169975990Y-94537222D01*
X169994504Y-94559412D01*
X169989307Y-94599086D01*
X169962320Y-94659798D01*
X169923591Y-94724820D01*
X169883167Y-94777424D01*
X169851097Y-94800881D01*
X169849397Y-94801000D01*
X169816256Y-94789100D01*
X169758948Y-94759464D01*
X169740192Y-94748659D01*
X169654142Y-94712903D01*
X169566140Y-94700146D01*
X169489591Y-94709476D01*
X169437902Y-94739982D01*
X169424065Y-94770152D01*
X169435350Y-94843366D01*
X169481182Y-94935245D01*
X169553647Y-95036566D01*
X169644830Y-95138106D01*
X169746816Y-95230642D01*
X169851692Y-95304951D01*
X169909009Y-95335289D01*
X170029671Y-95376569D01*
X170126487Y-95377809D01*
X170206849Y-95339029D01*
X170210536Y-95336067D01*
X170270500Y-95286935D01*
X170212331Y-95175700D01*
X170174379Y-95080941D01*
X170176434Y-95015016D01*
X170201286Y-94991500D01*
X170537200Y-94991500D01*
X170549900Y-95004200D01*
X170562600Y-94991500D01*
X170549900Y-94978800D01*
X170537200Y-94991500D01*
X170201286Y-94991500D01*
X170219279Y-94974475D01*
X170261007Y-94961648D01*
X170312833Y-94949758D01*
X170334000Y-94941924D01*
X170328638Y-94935280D01*
X170465094Y-94935280D01*
X170471274Y-94949475D01*
X170496849Y-94976743D01*
X170511552Y-94971149D01*
X170511800Y-94967599D01*
X170493758Y-94946115D01*
X170482475Y-94938274D01*
X170465094Y-94935280D01*
X170328638Y-94935280D01*
X170318127Y-94922259D01*
X170276504Y-94875612D01*
X170218125Y-94812062D01*
X170217835Y-94811749D01*
X170157027Y-94737500D01*
X170245100Y-94737500D01*
X170293486Y-94794650D01*
X170338521Y-94842644D01*
X170358136Y-94849573D01*
X170359400Y-94843036D01*
X170342270Y-94822293D01*
X170302250Y-94785886D01*
X170245100Y-94737500D01*
X170157027Y-94737500D01*
X170122537Y-94695387D01*
X170068677Y-94610500D01*
X170130800Y-94610500D01*
X170143500Y-94623200D01*
X170156200Y-94610500D01*
X170143500Y-94597800D01*
X170130800Y-94610500D01*
X170068677Y-94610500D01*
X170046443Y-94575459D01*
X169996188Y-94464076D01*
X169978400Y-94374654D01*
X169985717Y-94307680D01*
X170001163Y-94234013D01*
X170065480Y-94234013D01*
X170066684Y-94281590D01*
X170085850Y-94340565D01*
X170126176Y-94427152D01*
X170128365Y-94431603D01*
X170210806Y-94563185D01*
X170326339Y-94700005D01*
X170460955Y-94828276D01*
X170600645Y-94934208D01*
X170692757Y-94987111D01*
X170845011Y-95039854D01*
X170995049Y-95053290D01*
X171130791Y-95026889D01*
X171172596Y-95008187D01*
X171245341Y-94952947D01*
X171305434Y-94880227D01*
X171310290Y-94871865D01*
X171338578Y-94815449D01*
X171346510Y-94771939D01*
X171334540Y-94719130D01*
X171314540Y-94664678D01*
X171278195Y-94587380D01*
X171241649Y-94551849D01*
X171218072Y-94547000D01*
X171185167Y-94553116D01*
X171175835Y-94580877D01*
X171183825Y-94639107D01*
X171187415Y-94754819D01*
X171149532Y-94841329D01*
X171070484Y-94898335D01*
X170950580Y-94925533D01*
X170890592Y-94928000D01*
X170790855Y-94916121D01*
X170688601Y-94884678D01*
X170596045Y-94839954D01*
X170525401Y-94788237D01*
X170488883Y-94735812D01*
X170486400Y-94719981D01*
X170507442Y-94693521D01*
X170565213Y-94648718D01*
X170651672Y-94591244D01*
X170758782Y-94526771D01*
X170766531Y-94522322D01*
X170873308Y-94460337D01*
X170963158Y-94406537D01*
X171027305Y-94366296D01*
X171056975Y-94344987D01*
X171057782Y-94343990D01*
X171046444Y-94317875D01*
X171001401Y-94272791D01*
X170932351Y-94216163D01*
X170848993Y-94155416D01*
X170761028Y-94097974D01*
X170678154Y-94051261D01*
X170670191Y-94047305D01*
X170526108Y-93995690D01*
X170388570Y-93981201D01*
X170265600Y-94002015D01*
X170165219Y-94056310D01*
X170095451Y-94142262D01*
X170079037Y-94181617D01*
X170065480Y-94234013D01*
X170001163Y-94234013D01*
X170004324Y-94218938D01*
X170016951Y-94172402D01*
X170067530Y-94059610D01*
X170144604Y-93983152D01*
X170253931Y-93939403D01*
X170401270Y-93924735D01*
X170410200Y-93924700D01*
X170531759Y-93931988D01*
X170531759Y-93931988D01*
G37*
X170531759Y-93931988D02*
X170635197Y-93958619D01*
X170719750Y-93995635D01*
X170816440Y-94049619D01*
X170915750Y-94115837D01*
X171008027Y-94186466D01*
X171083614Y-94253680D01*
X171132854Y-94309653D01*
X171146800Y-94341728D01*
X171123936Y-94374862D01*
X171056761Y-94427064D01*
X170947400Y-94496800D01*
X170866115Y-94544313D01*
X170761157Y-94606742D01*
X170675609Y-94662552D01*
X170617517Y-94706125D01*
X170594927Y-94731839D01*
X170595040Y-94733646D01*
X170627553Y-94771091D01*
X170692139Y-94812375D01*
X170771592Y-94849012D01*
X170848703Y-94872514D01*
X170885254Y-94876782D01*
X170967163Y-94867140D01*
X171033311Y-94846808D01*
X171080272Y-94815749D01*
X171088116Y-94772751D01*
X171083767Y-94751558D01*
X171059448Y-94644741D01*
X171054949Y-94575658D01*
X171075755Y-94533306D01*
X171127351Y-94506685D01*
X171215223Y-94484791D01*
X171216958Y-94484419D01*
X171268567Y-94476935D01*
X171301080Y-94489766D01*
X171329373Y-94533247D01*
X171349750Y-94576664D01*
X171394965Y-94712584D01*
X171396082Y-94830576D01*
X171351236Y-94936545D01*
X171258559Y-95036399D01*
X171187456Y-95090210D01*
X171107737Y-95142619D01*
X171047862Y-95170813D01*
X170986898Y-95180875D01*
X170903911Y-95178886D01*
X170886058Y-95177784D01*
X170772980Y-95162318D01*
X170666434Y-95134007D01*
X170621447Y-95115622D01*
X170575926Y-95093100D01*
X170740400Y-95093100D01*
X170753100Y-95105800D01*
X170765800Y-95093100D01*
X170753100Y-95080400D01*
X170740400Y-95093100D01*
X170575926Y-95093100D01*
X170516333Y-95063616D01*
X170539466Y-95124461D01*
X170559683Y-95225779D01*
X170552555Y-95334400D01*
X170522256Y-95435707D01*
X170472958Y-95515085D01*
X170416404Y-95555475D01*
X170367109Y-95582289D01*
X170306206Y-95626021D01*
X170300301Y-95630822D01*
X170206582Y-95676926D01*
X170083985Y-95689795D01*
X169942043Y-95669444D01*
X169823268Y-95630203D01*
X169758293Y-95601100D01*
X169927600Y-95601100D01*
X169940300Y-95613800D01*
X169953000Y-95601100D01*
X169940300Y-95588400D01*
X169927600Y-95601100D01*
X169758293Y-95601100D01*
X169719930Y-95583917D01*
X169705616Y-95575700D01*
X169851400Y-95575700D01*
X169864100Y-95588400D01*
X169876800Y-95575700D01*
X169864100Y-95563000D01*
X169851400Y-95575700D01*
X169705616Y-95575700D01*
X169661368Y-95550300D01*
X169800600Y-95550300D01*
X169813300Y-95563000D01*
X169826000Y-95550300D01*
X169813300Y-95537600D01*
X169800600Y-95550300D01*
X169661368Y-95550300D01*
X169633174Y-95534116D01*
X169621009Y-95524900D01*
X169749800Y-95524900D01*
X169762500Y-95537600D01*
X169775200Y-95524900D01*
X169762500Y-95512200D01*
X169749800Y-95524900D01*
X169621009Y-95524900D01*
X169587478Y-95499500D01*
X169699000Y-95499500D01*
X169711700Y-95512200D01*
X169724400Y-95499500D01*
X169711700Y-95486800D01*
X169699000Y-95499500D01*
X169587478Y-95499500D01*
X169550480Y-95471474D01*
X169492876Y-95417880D01*
X169601494Y-95417880D01*
X169607674Y-95432075D01*
X169633249Y-95459343D01*
X169647952Y-95453749D01*
X169648200Y-95450199D01*
X169630158Y-95428715D01*
X169618875Y-95420874D01*
X169601494Y-95417880D01*
X169492876Y-95417880D01*
X169459325Y-95386666D01*
X169363726Y-95287946D01*
X169247593Y-95153875D01*
X169221045Y-95113080D01*
X169296694Y-95113080D01*
X169302874Y-95127275D01*
X169328449Y-95154543D01*
X169343152Y-95148949D01*
X169343400Y-95145399D01*
X169325358Y-95123915D01*
X169314075Y-95116074D01*
X169296694Y-95113080D01*
X169221045Y-95113080D01*
X169174982Y-95042300D01*
X169241800Y-95042300D01*
X169254500Y-95055000D01*
X169267200Y-95042300D01*
X169254500Y-95029600D01*
X169241800Y-95042300D01*
X169174982Y-95042300D01*
X169171299Y-95036642D01*
X169131065Y-94927044D01*
X169123112Y-94815877D01*
X169134995Y-94730922D01*
X169145214Y-94691505D01*
X169213137Y-94691505D01*
X169215410Y-94797822D01*
X169217607Y-94806333D01*
X169246044Y-94874493D01*
X169295493Y-94962502D01*
X169352112Y-95046860D01*
X169500998Y-95223766D01*
X169659417Y-95365853D01*
X169822307Y-95470623D01*
X169984609Y-95535576D01*
X170141260Y-95558215D01*
X170287202Y-95536041D01*
X170318976Y-95524233D01*
X170398958Y-95471958D01*
X170465699Y-95395425D01*
X170505812Y-95312114D01*
X170511705Y-95272569D01*
X170501012Y-95220806D01*
X170473909Y-95147235D01*
X170458734Y-95113819D01*
X170429559Y-95063466D01*
X170672666Y-95063466D01*
X170676153Y-95078566D01*
X170689600Y-95080400D01*
X170710507Y-95071106D01*
X170706533Y-95063466D01*
X170676389Y-95060426D01*
X170672666Y-95063466D01*
X170429559Y-95063466D01*
X170417408Y-95042495D01*
X170417169Y-95042300D01*
X170613400Y-95042300D01*
X170626100Y-95055000D01*
X170638800Y-95042300D01*
X170626100Y-95029600D01*
X170613400Y-95042300D01*
X170417169Y-95042300D01*
X170377175Y-95009805D01*
X170343781Y-95004200D01*
X170303251Y-95007131D01*
X170295909Y-95025318D01*
X170317403Y-95072853D01*
X170320647Y-95079138D01*
X170356268Y-95185038D01*
X170344145Y-95277739D01*
X170285153Y-95361753D01*
X170192301Y-95420708D01*
X170077841Y-95438926D01*
X169948556Y-95417793D01*
X169811230Y-95358696D01*
X169672648Y-95263024D01*
X169632902Y-95228370D01*
X169511439Y-95100818D01*
X169425382Y-94975603D01*
X169376447Y-94857980D01*
X169366353Y-94753203D01*
X169389725Y-94686700D01*
X169775200Y-94686700D01*
X169787900Y-94699400D01*
X169800600Y-94686700D01*
X169787900Y-94674000D01*
X169775200Y-94686700D01*
X169389725Y-94686700D01*
X169396815Y-94666528D01*
X169401718Y-94661300D01*
X169724400Y-94661300D01*
X169737100Y-94674000D01*
X169749800Y-94661300D01*
X169737100Y-94648600D01*
X169724400Y-94661300D01*
X169401718Y-94661300D01*
X169435725Y-94625043D01*
X169521568Y-94585260D01*
X169630420Y-94572687D01*
X169741925Y-94588073D01*
X169802607Y-94611538D01*
X169872645Y-94635896D01*
X169916351Y-94625984D01*
X169927600Y-94595132D01*
X169905228Y-94567196D01*
X169847406Y-94533020D01*
X169768071Y-94498257D01*
X169681161Y-94468555D01*
X169600614Y-94449567D01*
X169558903Y-94445648D01*
X169433941Y-94464657D01*
X169329756Y-94517151D01*
X169253704Y-94595358D01*
X169213137Y-94691505D01*
X169145214Y-94691505D01*
X169158144Y-94641637D01*
X169185465Y-94565384D01*
X169201200Y-94534549D01*
X169276310Y-94463290D01*
X169385075Y-94416575D01*
X169515937Y-94395789D01*
X169657337Y-94402318D01*
X169797717Y-94437544D01*
X169845474Y-94457376D01*
X169920975Y-94497854D01*
X169975990Y-94537222D01*
X169994504Y-94559412D01*
X169989307Y-94599086D01*
X169962320Y-94659798D01*
X169923591Y-94724820D01*
X169883167Y-94777424D01*
X169851097Y-94800881D01*
X169849397Y-94801000D01*
X169816256Y-94789100D01*
X169758948Y-94759464D01*
X169740192Y-94748659D01*
X169654142Y-94712903D01*
X169566140Y-94700146D01*
X169489591Y-94709476D01*
X169437902Y-94739982D01*
X169424065Y-94770152D01*
X169435350Y-94843366D01*
X169481182Y-94935245D01*
X169553647Y-95036566D01*
X169644830Y-95138106D01*
X169746816Y-95230642D01*
X169851692Y-95304951D01*
X169909009Y-95335289D01*
X170029671Y-95376569D01*
X170126487Y-95377809D01*
X170206849Y-95339029D01*
X170210536Y-95336067D01*
X170270500Y-95286935D01*
X170212331Y-95175700D01*
X170174379Y-95080941D01*
X170176434Y-95015016D01*
X170201286Y-94991500D01*
X170537200Y-94991500D01*
X170549900Y-95004200D01*
X170562600Y-94991500D01*
X170549900Y-94978800D01*
X170537200Y-94991500D01*
X170201286Y-94991500D01*
X170219279Y-94974475D01*
X170261007Y-94961648D01*
X170312833Y-94949758D01*
X170334000Y-94941924D01*
X170328638Y-94935280D01*
X170465094Y-94935280D01*
X170471274Y-94949475D01*
X170496849Y-94976743D01*
X170511552Y-94971149D01*
X170511800Y-94967599D01*
X170493758Y-94946115D01*
X170482475Y-94938274D01*
X170465094Y-94935280D01*
X170328638Y-94935280D01*
X170318127Y-94922259D01*
X170276504Y-94875612D01*
X170218125Y-94812062D01*
X170217835Y-94811749D01*
X170157027Y-94737500D01*
X170245100Y-94737500D01*
X170293486Y-94794650D01*
X170338521Y-94842644D01*
X170358136Y-94849573D01*
X170359400Y-94843036D01*
X170342270Y-94822293D01*
X170302250Y-94785886D01*
X170245100Y-94737500D01*
X170157027Y-94737500D01*
X170122537Y-94695387D01*
X170068677Y-94610500D01*
X170130800Y-94610500D01*
X170143500Y-94623200D01*
X170156200Y-94610500D01*
X170143500Y-94597800D01*
X170130800Y-94610500D01*
X170068677Y-94610500D01*
X170046443Y-94575459D01*
X169996188Y-94464076D01*
X169978400Y-94374654D01*
X169985717Y-94307680D01*
X170001163Y-94234013D01*
X170065480Y-94234013D01*
X170066684Y-94281590D01*
X170085850Y-94340565D01*
X170126176Y-94427152D01*
X170128365Y-94431603D01*
X170210806Y-94563185D01*
X170326339Y-94700005D01*
X170460955Y-94828276D01*
X170600645Y-94934208D01*
X170692757Y-94987111D01*
X170845011Y-95039854D01*
X170995049Y-95053290D01*
X171130791Y-95026889D01*
X171172596Y-95008187D01*
X171245341Y-94952947D01*
X171305434Y-94880227D01*
X171310290Y-94871865D01*
X171338578Y-94815449D01*
X171346510Y-94771939D01*
X171334540Y-94719130D01*
X171314540Y-94664678D01*
X171278195Y-94587380D01*
X171241649Y-94551849D01*
X171218072Y-94547000D01*
X171185167Y-94553116D01*
X171175835Y-94580877D01*
X171183825Y-94639107D01*
X171187415Y-94754819D01*
X171149532Y-94841329D01*
X171070484Y-94898335D01*
X170950580Y-94925533D01*
X170890592Y-94928000D01*
X170790855Y-94916121D01*
X170688601Y-94884678D01*
X170596045Y-94839954D01*
X170525401Y-94788237D01*
X170488883Y-94735812D01*
X170486400Y-94719981D01*
X170507442Y-94693521D01*
X170565213Y-94648718D01*
X170651672Y-94591244D01*
X170758782Y-94526771D01*
X170766531Y-94522322D01*
X170873308Y-94460337D01*
X170963158Y-94406537D01*
X171027305Y-94366296D01*
X171056975Y-94344987D01*
X171057782Y-94343990D01*
X171046444Y-94317875D01*
X171001401Y-94272791D01*
X170932351Y-94216163D01*
X170848993Y-94155416D01*
X170761028Y-94097974D01*
X170678154Y-94051261D01*
X170670191Y-94047305D01*
X170526108Y-93995690D01*
X170388570Y-93981201D01*
X170265600Y-94002015D01*
X170165219Y-94056310D01*
X170095451Y-94142262D01*
X170079037Y-94181617D01*
X170065480Y-94234013D01*
X170001163Y-94234013D01*
X170004324Y-94218938D01*
X170016951Y-94172402D01*
X170067530Y-94059610D01*
X170144604Y-93983152D01*
X170253931Y-93939403D01*
X170401270Y-93924735D01*
X170410200Y-93924700D01*
X170531759Y-93931988D01*
G36*
X168775653Y-94899862D02*
G01*
X168886200Y-94938613D01*
X168930927Y-94970812D01*
X169003839Y-95033353D01*
X169098020Y-95119855D01*
X169206553Y-95223937D01*
X169322522Y-95339218D01*
X169343400Y-95360409D01*
X169458674Y-95476487D01*
X169566188Y-95582331D01*
X169659379Y-95671667D01*
X169731687Y-95738228D01*
X169776550Y-95775740D01*
X169781550Y-95779142D01*
X169824423Y-95819166D01*
X169849333Y-95866124D01*
X169851090Y-95904420D01*
X169827948Y-95918600D01*
X169795222Y-95933684D01*
X169742414Y-95971286D01*
X169725087Y-95985418D01*
X169662663Y-96028691D01*
X169614811Y-96036109D01*
X169595466Y-96029832D01*
X169563679Y-96024692D01*
X169524385Y-96040635D01*
X169468580Y-96083160D01*
X169389437Y-96155696D01*
X169309764Y-96227467D01*
X169236402Y-96286534D01*
X169182320Y-96322643D01*
X169172557Y-96327183D01*
X169047684Y-96349175D01*
X168906052Y-96330348D01*
X168796262Y-96290281D01*
X168670848Y-96210700D01*
X168784600Y-96210700D01*
X168797300Y-96223400D01*
X168810000Y-96210700D01*
X168797300Y-96198000D01*
X168784600Y-96210700D01*
X168670848Y-96210700D01*
X168655274Y-96200818D01*
X168641731Y-96185300D01*
X168733800Y-96185300D01*
X168746500Y-96198000D01*
X168759200Y-96185300D01*
X168746500Y-96172600D01*
X168733800Y-96185300D01*
X168641731Y-96185300D01*
X168553066Y-96083710D01*
X168505352Y-95982561D01*
X168493362Y-95871686D01*
X168527990Y-95750522D01*
X168609927Y-95617483D01*
X168718001Y-95493135D01*
X168872060Y-95334371D01*
X168815630Y-95277941D01*
X168759266Y-95240080D01*
X168890294Y-95240080D01*
X168896474Y-95254275D01*
X168922049Y-95281543D01*
X168936752Y-95275949D01*
X168937000Y-95272399D01*
X168918958Y-95250915D01*
X168907675Y-95243074D01*
X168890294Y-95240080D01*
X168759266Y-95240080D01*
X168755451Y-95237518D01*
X168671152Y-95220806D01*
X168638550Y-95219500D01*
X168542715Y-95220734D01*
X168483760Y-95231273D01*
X168448014Y-95255431D01*
X168427711Y-95286008D01*
X168417312Y-95342675D01*
X168439875Y-95422813D01*
X168441529Y-95426810D01*
X168468078Y-95516047D01*
X168456015Y-95576556D01*
X168401217Y-95616910D01*
X168340732Y-95636391D01*
X168256661Y-95656333D01*
X168207581Y-95660548D01*
X168179273Y-95645921D01*
X168157517Y-95609335D01*
X168150671Y-95594750D01*
X168100992Y-95440367D01*
X168100839Y-95297208D01*
X168102699Y-95292232D01*
X168178674Y-95292232D01*
X168196475Y-95372446D01*
X168224633Y-95433712D01*
X168262011Y-95495812D01*
X168297132Y-95520251D01*
X168335828Y-95519233D01*
X168375882Y-95506761D01*
X168385593Y-95480060D01*
X168371663Y-95423635D01*
X168357157Y-95315706D01*
X168388432Y-95228312D01*
X168467330Y-95156497D01*
X168471956Y-95153598D01*
X168590553Y-95104826D01*
X168717886Y-95092904D01*
X168837531Y-95117778D01*
X168905250Y-95155026D01*
X168958721Y-95207339D01*
X168986553Y-95258722D01*
X168987800Y-95268764D01*
X168969841Y-95310356D01*
X168920071Y-95377820D01*
X168844647Y-95463280D01*
X168797908Y-95511638D01*
X168694587Y-95620278D01*
X168627867Y-95705745D01*
X168595109Y-95777125D01*
X168593677Y-95843507D01*
X168620929Y-95913978D01*
X168661948Y-95979900D01*
X168768421Y-96100132D01*
X168892493Y-96180339D01*
X169026439Y-96217645D01*
X169162540Y-96209171D01*
X169223565Y-96189182D01*
X169291749Y-96147968D01*
X169364934Y-96084616D01*
X169431244Y-96012040D01*
X169469452Y-95956700D01*
X169597400Y-95956700D01*
X169610100Y-95969400D01*
X169622800Y-95956700D01*
X169610100Y-95944000D01*
X169597400Y-95956700D01*
X169469452Y-95956700D01*
X169478803Y-95943157D01*
X169495800Y-95893126D01*
X169513585Y-95852624D01*
X169559190Y-95845219D01*
X169620990Y-95871999D01*
X169632658Y-95880323D01*
X169687044Y-95902992D01*
X169730066Y-95890167D01*
X169757990Y-95871051D01*
X169754748Y-95850756D01*
X169715624Y-95817534D01*
X169694807Y-95802291D01*
X169650467Y-95764799D01*
X169578242Y-95697569D01*
X169485346Y-95607589D01*
X169378995Y-95501846D01*
X169267200Y-95388149D01*
X169154648Y-95274747D01*
X169047967Y-95171619D01*
X168954394Y-95085431D01*
X168881167Y-95022848D01*
X168835524Y-94990536D01*
X168835416Y-94990481D01*
X168704590Y-94951394D01*
X168565755Y-94957511D01*
X168428380Y-95006339D01*
X168301935Y-95095384D01*
X168255145Y-95143287D01*
X168197616Y-95221696D01*
X168178674Y-95292232D01*
X168102699Y-95292232D01*
X168150238Y-95165075D01*
X168221112Y-95071723D01*
X168338698Y-94979001D01*
X168479323Y-94917648D01*
X168629478Y-94890367D01*
X168775653Y-94899862D01*
X168775653Y-94899862D01*
G37*
X168775653Y-94899862D02*
X168886200Y-94938613D01*
X168930927Y-94970812D01*
X169003839Y-95033353D01*
X169098020Y-95119855D01*
X169206553Y-95223937D01*
X169322522Y-95339218D01*
X169343400Y-95360409D01*
X169458674Y-95476487D01*
X169566188Y-95582331D01*
X169659379Y-95671667D01*
X169731687Y-95738228D01*
X169776550Y-95775740D01*
X169781550Y-95779142D01*
X169824423Y-95819166D01*
X169849333Y-95866124D01*
X169851090Y-95904420D01*
X169827948Y-95918600D01*
X169795222Y-95933684D01*
X169742414Y-95971286D01*
X169725087Y-95985418D01*
X169662663Y-96028691D01*
X169614811Y-96036109D01*
X169595466Y-96029832D01*
X169563679Y-96024692D01*
X169524385Y-96040635D01*
X169468580Y-96083160D01*
X169389437Y-96155696D01*
X169309764Y-96227467D01*
X169236402Y-96286534D01*
X169182320Y-96322643D01*
X169172557Y-96327183D01*
X169047684Y-96349175D01*
X168906052Y-96330348D01*
X168796262Y-96290281D01*
X168670848Y-96210700D01*
X168784600Y-96210700D01*
X168797300Y-96223400D01*
X168810000Y-96210700D01*
X168797300Y-96198000D01*
X168784600Y-96210700D01*
X168670848Y-96210700D01*
X168655274Y-96200818D01*
X168641731Y-96185300D01*
X168733800Y-96185300D01*
X168746500Y-96198000D01*
X168759200Y-96185300D01*
X168746500Y-96172600D01*
X168733800Y-96185300D01*
X168641731Y-96185300D01*
X168553066Y-96083710D01*
X168505352Y-95982561D01*
X168493362Y-95871686D01*
X168527990Y-95750522D01*
X168609927Y-95617483D01*
X168718001Y-95493135D01*
X168872060Y-95334371D01*
X168815630Y-95277941D01*
X168759266Y-95240080D01*
X168890294Y-95240080D01*
X168896474Y-95254275D01*
X168922049Y-95281543D01*
X168936752Y-95275949D01*
X168937000Y-95272399D01*
X168918958Y-95250915D01*
X168907675Y-95243074D01*
X168890294Y-95240080D01*
X168759266Y-95240080D01*
X168755451Y-95237518D01*
X168671152Y-95220806D01*
X168638550Y-95219500D01*
X168542715Y-95220734D01*
X168483760Y-95231273D01*
X168448014Y-95255431D01*
X168427711Y-95286008D01*
X168417312Y-95342675D01*
X168439875Y-95422813D01*
X168441529Y-95426810D01*
X168468078Y-95516047D01*
X168456015Y-95576556D01*
X168401217Y-95616910D01*
X168340732Y-95636391D01*
X168256661Y-95656333D01*
X168207581Y-95660548D01*
X168179273Y-95645921D01*
X168157517Y-95609335D01*
X168150671Y-95594750D01*
X168100992Y-95440367D01*
X168100839Y-95297208D01*
X168102699Y-95292232D01*
X168178674Y-95292232D01*
X168196475Y-95372446D01*
X168224633Y-95433712D01*
X168262011Y-95495812D01*
X168297132Y-95520251D01*
X168335828Y-95519233D01*
X168375882Y-95506761D01*
X168385593Y-95480060D01*
X168371663Y-95423635D01*
X168357157Y-95315706D01*
X168388432Y-95228312D01*
X168467330Y-95156497D01*
X168471956Y-95153598D01*
X168590553Y-95104826D01*
X168717886Y-95092904D01*
X168837531Y-95117778D01*
X168905250Y-95155026D01*
X168958721Y-95207339D01*
X168986553Y-95258722D01*
X168987800Y-95268764D01*
X168969841Y-95310356D01*
X168920071Y-95377820D01*
X168844647Y-95463280D01*
X168797908Y-95511638D01*
X168694587Y-95620278D01*
X168627867Y-95705745D01*
X168595109Y-95777125D01*
X168593677Y-95843507D01*
X168620929Y-95913978D01*
X168661948Y-95979900D01*
X168768421Y-96100132D01*
X168892493Y-96180339D01*
X169026439Y-96217645D01*
X169162540Y-96209171D01*
X169223565Y-96189182D01*
X169291749Y-96147968D01*
X169364934Y-96084616D01*
X169431244Y-96012040D01*
X169469452Y-95956700D01*
X169597400Y-95956700D01*
X169610100Y-95969400D01*
X169622800Y-95956700D01*
X169610100Y-95944000D01*
X169597400Y-95956700D01*
X169469452Y-95956700D01*
X169478803Y-95943157D01*
X169495800Y-95893126D01*
X169513585Y-95852624D01*
X169559190Y-95845219D01*
X169620990Y-95871999D01*
X169632658Y-95880323D01*
X169687044Y-95902992D01*
X169730066Y-95890167D01*
X169757990Y-95871051D01*
X169754748Y-95850756D01*
X169715624Y-95817534D01*
X169694807Y-95802291D01*
X169650467Y-95764799D01*
X169578242Y-95697569D01*
X169485346Y-95607589D01*
X169378995Y-95501846D01*
X169267200Y-95388149D01*
X169154648Y-95274747D01*
X169047967Y-95171619D01*
X168954394Y-95085431D01*
X168881167Y-95022848D01*
X168835524Y-94990536D01*
X168835416Y-94990481D01*
X168704590Y-94951394D01*
X168565755Y-94957511D01*
X168428380Y-95006339D01*
X168301935Y-95095384D01*
X168255145Y-95143287D01*
X168197616Y-95221696D01*
X168178674Y-95292232D01*
X168102699Y-95292232D01*
X168150238Y-95165075D01*
X168221112Y-95071723D01*
X168338698Y-94979001D01*
X168479323Y-94917648D01*
X168629478Y-94890367D01*
X168775653Y-94899862D01*
G36*
X167723558Y-95518926D02*
G01*
X167881884Y-95574021D01*
X167908890Y-95586795D01*
X168074102Y-95686739D01*
X168227996Y-95814662D01*
X168362826Y-95961246D01*
X168470849Y-96117174D01*
X168544320Y-96273130D01*
X168572124Y-96384749D01*
X168570132Y-96489448D01*
X168541926Y-96597216D01*
X168494231Y-96690949D01*
X168433777Y-96753544D01*
X168425039Y-96758658D01*
X168366120Y-96800666D01*
X168333419Y-96835446D01*
X168286553Y-96869715D01*
X168219119Y-96888565D01*
X168136900Y-96896500D01*
X168346450Y-97115103D01*
X168428056Y-97202083D01*
X168494811Y-97276751D01*
X168539772Y-97331094D01*
X168556000Y-97356977D01*
X168535711Y-97382768D01*
X168485312Y-97417885D01*
X168468590Y-97427320D01*
X168408615Y-97466290D01*
X168371150Y-97502962D01*
X168367787Y-97509296D01*
X168336322Y-97540979D01*
X168321198Y-97544200D01*
X168296753Y-97526239D01*
X168241959Y-97475147D01*
X168160936Y-97395107D01*
X168057892Y-97290392D01*
X168151263Y-97290392D01*
X168157571Y-97303546D01*
X168171760Y-97321950D01*
X168208834Y-97361438D01*
X168225382Y-97361267D01*
X168225800Y-97356810D01*
X168208442Y-97335607D01*
X168181350Y-97312360D01*
X168151263Y-97290392D01*
X168057892Y-97290392D01*
X168057804Y-97290303D01*
X167936683Y-97164921D01*
X167801694Y-97023143D01*
X167694735Y-96909392D01*
X167795663Y-96909392D01*
X167801971Y-96922546D01*
X167816160Y-96940950D01*
X167853234Y-96980438D01*
X167869782Y-96980267D01*
X167870200Y-96975810D01*
X167852842Y-96954607D01*
X167825750Y-96931360D01*
X167795663Y-96909392D01*
X167694735Y-96909392D01*
X167666351Y-96879206D01*
X167473518Y-96672942D01*
X167314777Y-96502992D01*
X167414663Y-96502992D01*
X167420971Y-96516146D01*
X167435160Y-96534550D01*
X167472234Y-96574038D01*
X167488782Y-96573867D01*
X167489200Y-96569410D01*
X167471842Y-96548207D01*
X167444750Y-96524960D01*
X167414663Y-96502992D01*
X167314777Y-96502992D01*
X167312511Y-96500566D01*
X167180526Y-96358803D01*
X167074754Y-96244378D01*
X166992391Y-96154013D01*
X166970260Y-96129080D01*
X167061494Y-96129080D01*
X167067674Y-96143275D01*
X167093249Y-96170543D01*
X167107952Y-96164949D01*
X167108200Y-96161399D01*
X167090158Y-96139915D01*
X167078875Y-96132074D01*
X167061494Y-96129080D01*
X166970260Y-96129080D01*
X166930630Y-96084435D01*
X166886665Y-96032366D01*
X166857690Y-95994531D01*
X166840898Y-95967653D01*
X166833484Y-95948459D01*
X166832641Y-95933670D01*
X166835563Y-95920012D01*
X166837732Y-95911902D01*
X166847881Y-95895394D01*
X166961076Y-95895394D01*
X166979497Y-95918029D01*
X167028949Y-95973662D01*
X167105712Y-96058239D01*
X167206063Y-96167706D01*
X167326281Y-96298009D01*
X167462646Y-96445094D01*
X167611434Y-96604906D01*
X167667000Y-96664428D01*
X167845714Y-96855211D01*
X167993232Y-97011377D01*
X168112567Y-97135866D01*
X168206727Y-97231618D01*
X168278725Y-97301574D01*
X168331571Y-97348673D01*
X168368276Y-97375855D01*
X168391851Y-97386062D01*
X168403600Y-97383750D01*
X168440244Y-97356932D01*
X168451052Y-97349417D01*
X168438083Y-97329835D01*
X168396098Y-97279981D01*
X168330951Y-97206527D01*
X168248496Y-97116144D01*
X168209752Y-97074355D01*
X168092674Y-96946057D01*
X168010905Y-96850096D01*
X167962707Y-96784057D01*
X167946342Y-96745519D01*
X167960070Y-96732066D01*
X167963587Y-96732020D01*
X167999373Y-96737705D01*
X168064603Y-96751264D01*
X168094040Y-96757906D01*
X168224697Y-96764848D01*
X168341064Y-96726267D01*
X168434479Y-96646401D01*
X168481529Y-96568306D01*
X168516841Y-96454233D01*
X168515005Y-96383166D01*
X168459255Y-96235100D01*
X168364635Y-96079220D01*
X168238883Y-95927917D01*
X168216166Y-95904737D01*
X168044100Y-95753755D01*
X167873397Y-95643683D01*
X167708273Y-95576378D01*
X167552944Y-95553698D01*
X167448201Y-95566379D01*
X167326989Y-95612816D01*
X167249791Y-95681726D01*
X167213555Y-95776463D01*
X167209800Y-95828487D01*
X167202907Y-95908395D01*
X167180026Y-95940949D01*
X167137856Y-95927987D01*
X167094735Y-95892481D01*
X167047549Y-95864643D01*
X166998546Y-95857101D01*
X166964863Y-95869482D01*
X166961076Y-95895394D01*
X166847881Y-95895394D01*
X166871633Y-95856761D01*
X166933102Y-95810016D01*
X167004169Y-95780942D01*
X167066860Y-95778816D01*
X167082541Y-95785544D01*
X167113652Y-95798220D01*
X167135542Y-95781533D01*
X167157926Y-95726402D01*
X167163277Y-95710087D01*
X167219103Y-95613834D01*
X167310659Y-95545332D01*
X167430330Y-95505841D01*
X167570501Y-95496619D01*
X167723558Y-95518926D01*
X167723558Y-95518926D01*
G37*
X167723558Y-95518926D02*
X167881884Y-95574021D01*
X167908890Y-95586795D01*
X168074102Y-95686739D01*
X168227996Y-95814662D01*
X168362826Y-95961246D01*
X168470849Y-96117174D01*
X168544320Y-96273130D01*
X168572124Y-96384749D01*
X168570132Y-96489448D01*
X168541926Y-96597216D01*
X168494231Y-96690949D01*
X168433777Y-96753544D01*
X168425039Y-96758658D01*
X168366120Y-96800666D01*
X168333419Y-96835446D01*
X168286553Y-96869715D01*
X168219119Y-96888565D01*
X168136900Y-96896500D01*
X168346450Y-97115103D01*
X168428056Y-97202083D01*
X168494811Y-97276751D01*
X168539772Y-97331094D01*
X168556000Y-97356977D01*
X168535711Y-97382768D01*
X168485312Y-97417885D01*
X168468590Y-97427320D01*
X168408615Y-97466290D01*
X168371150Y-97502962D01*
X168367787Y-97509296D01*
X168336322Y-97540979D01*
X168321198Y-97544200D01*
X168296753Y-97526239D01*
X168241959Y-97475147D01*
X168160936Y-97395107D01*
X168057892Y-97290392D01*
X168151263Y-97290392D01*
X168157571Y-97303546D01*
X168171760Y-97321950D01*
X168208834Y-97361438D01*
X168225382Y-97361267D01*
X168225800Y-97356810D01*
X168208442Y-97335607D01*
X168181350Y-97312360D01*
X168151263Y-97290392D01*
X168057892Y-97290392D01*
X168057804Y-97290303D01*
X167936683Y-97164921D01*
X167801694Y-97023143D01*
X167694735Y-96909392D01*
X167795663Y-96909392D01*
X167801971Y-96922546D01*
X167816160Y-96940950D01*
X167853234Y-96980438D01*
X167869782Y-96980267D01*
X167870200Y-96975810D01*
X167852842Y-96954607D01*
X167825750Y-96931360D01*
X167795663Y-96909392D01*
X167694735Y-96909392D01*
X167666351Y-96879206D01*
X167473518Y-96672942D01*
X167314777Y-96502992D01*
X167414663Y-96502992D01*
X167420971Y-96516146D01*
X167435160Y-96534550D01*
X167472234Y-96574038D01*
X167488782Y-96573867D01*
X167489200Y-96569410D01*
X167471842Y-96548207D01*
X167444750Y-96524960D01*
X167414663Y-96502992D01*
X167314777Y-96502992D01*
X167312511Y-96500566D01*
X167180526Y-96358803D01*
X167074754Y-96244378D01*
X166992391Y-96154013D01*
X166970260Y-96129080D01*
X167061494Y-96129080D01*
X167067674Y-96143275D01*
X167093249Y-96170543D01*
X167107952Y-96164949D01*
X167108200Y-96161399D01*
X167090158Y-96139915D01*
X167078875Y-96132074D01*
X167061494Y-96129080D01*
X166970260Y-96129080D01*
X166930630Y-96084435D01*
X166886665Y-96032366D01*
X166857690Y-95994531D01*
X166840898Y-95967653D01*
X166833484Y-95948459D01*
X166832641Y-95933670D01*
X166835563Y-95920012D01*
X166837732Y-95911902D01*
X166847881Y-95895394D01*
X166961076Y-95895394D01*
X166979497Y-95918029D01*
X167028949Y-95973662D01*
X167105712Y-96058239D01*
X167206063Y-96167706D01*
X167326281Y-96298009D01*
X167462646Y-96445094D01*
X167611434Y-96604906D01*
X167667000Y-96664428D01*
X167845714Y-96855211D01*
X167993232Y-97011377D01*
X168112567Y-97135866D01*
X168206727Y-97231618D01*
X168278725Y-97301574D01*
X168331571Y-97348673D01*
X168368276Y-97375855D01*
X168391851Y-97386062D01*
X168403600Y-97383750D01*
X168440244Y-97356932D01*
X168451052Y-97349417D01*
X168438083Y-97329835D01*
X168396098Y-97279981D01*
X168330951Y-97206527D01*
X168248496Y-97116144D01*
X168209752Y-97074355D01*
X168092674Y-96946057D01*
X168010905Y-96850096D01*
X167962707Y-96784057D01*
X167946342Y-96745519D01*
X167960070Y-96732066D01*
X167963587Y-96732020D01*
X167999373Y-96737705D01*
X168064603Y-96751264D01*
X168094040Y-96757906D01*
X168224697Y-96764848D01*
X168341064Y-96726267D01*
X168434479Y-96646401D01*
X168481529Y-96568306D01*
X168516841Y-96454233D01*
X168515005Y-96383166D01*
X168459255Y-96235100D01*
X168364635Y-96079220D01*
X168238883Y-95927917D01*
X168216166Y-95904737D01*
X168044100Y-95753755D01*
X167873397Y-95643683D01*
X167708273Y-95576378D01*
X167552944Y-95553698D01*
X167448201Y-95566379D01*
X167326989Y-95612816D01*
X167249791Y-95681726D01*
X167213555Y-95776463D01*
X167209800Y-95828487D01*
X167202907Y-95908395D01*
X167180026Y-95940949D01*
X167137856Y-95927987D01*
X167094735Y-95892481D01*
X167047549Y-95864643D01*
X166998546Y-95857101D01*
X166964863Y-95869482D01*
X166961076Y-95895394D01*
X166847881Y-95895394D01*
X166871633Y-95856761D01*
X166933102Y-95810016D01*
X167004169Y-95780942D01*
X167066860Y-95778816D01*
X167082541Y-95785544D01*
X167113652Y-95798220D01*
X167135542Y-95781533D01*
X167157926Y-95726402D01*
X167163277Y-95710087D01*
X167219103Y-95613834D01*
X167310659Y-95545332D01*
X167430330Y-95505841D01*
X167570501Y-95496619D01*
X167723558Y-95518926D01*
G36*
X166127499Y-95782803D02*
G01*
X166209131Y-95794226D01*
X166287322Y-95820867D01*
X166384942Y-95867987D01*
X166498517Y-95931178D01*
X166566964Y-95982587D01*
X166593352Y-96026481D01*
X166580752Y-96067130D01*
X166549400Y-96096681D01*
X166487714Y-96145151D01*
X166441450Y-96183990D01*
X166405218Y-96211867D01*
X166371176Y-96219535D01*
X166324835Y-96205178D01*
X166251704Y-96166983D01*
X166236062Y-96158267D01*
X166168540Y-96123796D01*
X166119467Y-96109100D01*
X166295400Y-96109100D01*
X166308100Y-96121800D01*
X166320800Y-96109100D01*
X166308100Y-96096400D01*
X166295400Y-96109100D01*
X166119467Y-96109100D01*
X166110578Y-96106438D01*
X166042454Y-96103025D01*
X165944447Y-96110387D01*
X165940548Y-96110770D01*
X165839665Y-96123571D01*
X165772583Y-96141882D01*
X165722310Y-96172058D01*
X165685584Y-96206125D01*
X165623793Y-96292026D01*
X165611391Y-96375878D01*
X165648565Y-96462090D01*
X165698893Y-96520973D01*
X165750499Y-96569688D01*
X165793172Y-96595094D01*
X165845550Y-96602937D01*
X165926272Y-96598965D01*
X165946543Y-96597333D01*
X166036418Y-96586305D01*
X166158487Y-96566339D01*
X166295567Y-96540442D01*
X166409700Y-96516314D01*
X166613301Y-96477872D01*
X166781433Y-96463881D01*
X166923933Y-96475821D01*
X167050641Y-96515174D01*
X167171397Y-96583420D01*
X167249883Y-96642766D01*
X167362588Y-96761864D01*
X167440707Y-96900719D01*
X167481636Y-97049105D01*
X167482769Y-97196797D01*
X167441502Y-97333569D01*
X167430936Y-97353498D01*
X167372965Y-97428026D01*
X167282273Y-97513284D01*
X167172214Y-97598613D01*
X167056145Y-97673354D01*
X166981229Y-97712401D01*
X166862540Y-97747842D01*
X166718310Y-97762296D01*
X166569753Y-97754641D01*
X166485900Y-97738591D01*
X166326780Y-97683900D01*
X166524000Y-97683900D01*
X166536700Y-97696600D01*
X166549400Y-97683900D01*
X166536700Y-97671200D01*
X166524000Y-97683900D01*
X166326780Y-97683900D01*
X166316626Y-97680410D01*
X166272136Y-97654266D01*
X166430866Y-97654266D01*
X166434353Y-97669366D01*
X166447800Y-97671200D01*
X166468707Y-97661906D01*
X166464733Y-97654266D01*
X166434589Y-97651226D01*
X166430866Y-97654266D01*
X166272136Y-97654266D01*
X166236116Y-97633100D01*
X166371600Y-97633100D01*
X166384300Y-97645800D01*
X166397000Y-97633100D01*
X166384300Y-97620400D01*
X166371600Y-97633100D01*
X166236116Y-97633100D01*
X166192891Y-97607700D01*
X166320800Y-97607700D01*
X166333500Y-97620400D01*
X166346200Y-97607700D01*
X166333500Y-97595000D01*
X166320800Y-97607700D01*
X166192891Y-97607700D01*
X166173916Y-97596550D01*
X166156270Y-97582300D01*
X166270000Y-97582300D01*
X166282700Y-97595000D01*
X166295400Y-97582300D01*
X166282700Y-97569600D01*
X166270000Y-97582300D01*
X166156270Y-97582300D01*
X166105242Y-97541093D01*
X166096412Y-97531500D01*
X166193800Y-97531500D01*
X166206500Y-97544200D01*
X166219200Y-97531500D01*
X166206500Y-97518800D01*
X166193800Y-97531500D01*
X166096412Y-97531500D01*
X166039012Y-97469144D01*
X166020214Y-97407394D01*
X166048241Y-97349530D01*
X166083627Y-97316891D01*
X166161402Y-97266183D01*
X166231043Y-97250936D01*
X166307957Y-97271219D01*
X166393502Y-97318271D01*
X166553075Y-97391325D01*
X166713786Y-97413915D01*
X166873296Y-97386258D01*
X167029268Y-97308571D01*
X167103655Y-97252340D01*
X167157557Y-97199408D01*
X167176184Y-97154848D01*
X167171785Y-97114972D01*
X167117652Y-96993669D01*
X167027142Y-96901553D01*
X166909811Y-96846110D01*
X166812002Y-96833094D01*
X166743165Y-96839102D01*
X166640753Y-96855399D01*
X166520295Y-96879273D01*
X166431002Y-96899656D01*
X166196596Y-96947604D01*
X165998495Y-96967505D01*
X165830092Y-96958497D01*
X165684775Y-96919718D01*
X165641681Y-96896500D01*
X165787400Y-96896500D01*
X165800100Y-96909200D01*
X165812800Y-96896500D01*
X165800100Y-96883800D01*
X165787400Y-96896500D01*
X165641681Y-96896500D01*
X165594537Y-96871100D01*
X165736600Y-96871100D01*
X165749300Y-96883800D01*
X165762000Y-96871100D01*
X165749300Y-96858400D01*
X165736600Y-96871100D01*
X165594537Y-96871100D01*
X165555938Y-96850304D01*
X165488031Y-96794900D01*
X165584200Y-96794900D01*
X165596900Y-96807600D01*
X165609600Y-96794900D01*
X165596900Y-96782200D01*
X165584200Y-96794900D01*
X165488031Y-96794900D01*
X165461324Y-96773111D01*
X165352901Y-96642598D01*
X165293682Y-96500344D01*
X165283001Y-96343951D01*
X165283227Y-96342718D01*
X165363703Y-96342718D01*
X165402114Y-96456545D01*
X165473656Y-96570127D01*
X165571141Y-96674349D01*
X165687378Y-96760098D01*
X165815179Y-96818258D01*
X165826137Y-96821577D01*
X165897650Y-96839710D01*
X165965802Y-96849106D01*
X166040363Y-96848936D01*
X166131105Y-96838371D01*
X166227882Y-96820300D01*
X167032000Y-96820300D01*
X167044700Y-96833000D01*
X167057400Y-96820300D01*
X167044700Y-96807600D01*
X167032000Y-96820300D01*
X166227882Y-96820300D01*
X166247799Y-96816581D01*
X166345441Y-96794900D01*
X166981200Y-96794900D01*
X166993900Y-96807600D01*
X167006600Y-96794900D01*
X166993900Y-96782200D01*
X166981200Y-96794900D01*
X166345441Y-96794900D01*
X166400215Y-96782738D01*
X166466641Y-96767225D01*
X166665044Y-96726758D01*
X166824837Y-96709512D01*
X166953026Y-96716352D01*
X167056620Y-96748146D01*
X167142624Y-96805759D01*
X167191935Y-96856895D01*
X167238838Y-96927515D01*
X167258331Y-97005979D01*
X167260600Y-97061600D01*
X167244028Y-97173900D01*
X167190821Y-97267324D01*
X167095738Y-97348754D01*
X167001016Y-97402525D01*
X166830198Y-97460299D01*
X166652043Y-97469956D01*
X166475043Y-97431652D01*
X166383241Y-97391243D01*
X166289451Y-97349849D01*
X166213356Y-97331141D01*
X166163199Y-97335697D01*
X166147221Y-97364092D01*
X166149509Y-97374905D01*
X166179379Y-97411740D01*
X166242618Y-97460801D01*
X166326079Y-97513903D01*
X166416614Y-97562856D01*
X166501074Y-97599474D01*
X166520702Y-97606052D01*
X166679775Y-97639494D01*
X166831137Y-97634618D01*
X166948673Y-97607463D01*
X167101080Y-97545555D01*
X167233700Y-97459691D01*
X167339027Y-97357289D01*
X167409554Y-97245771D01*
X167437777Y-97132557D01*
X167437982Y-97123737D01*
X167420204Y-97027911D01*
X167372063Y-96916554D01*
X167302683Y-96806095D01*
X167221188Y-96712962D01*
X167199083Y-96693566D01*
X167089329Y-96613699D01*
X166981351Y-96559794D01*
X166865730Y-96530683D01*
X166733044Y-96525197D01*
X166573871Y-96542168D01*
X166378791Y-96580427D01*
X166346371Y-96587809D01*
X166136890Y-96630688D01*
X165968697Y-96652346D01*
X165836934Y-96652805D01*
X165736743Y-96632086D01*
X165664044Y-96590868D01*
X165593453Y-96507485D01*
X165550732Y-96407935D01*
X165543296Y-96310991D01*
X165546653Y-96293736D01*
X165594653Y-96198740D01*
X165682837Y-96112582D01*
X165731072Y-96083700D01*
X166244600Y-96083700D01*
X166257300Y-96096400D01*
X166270000Y-96083700D01*
X166257300Y-96071000D01*
X166244600Y-96083700D01*
X165731072Y-96083700D01*
X165773492Y-96058300D01*
X165914400Y-96058300D01*
X165927100Y-96071000D01*
X165939800Y-96058300D01*
X165927100Y-96045600D01*
X165914400Y-96058300D01*
X165773492Y-96058300D01*
X165800630Y-96042051D01*
X165937457Y-95993941D01*
X166039561Y-95977183D01*
X166139851Y-95974742D01*
X166221375Y-95991649D01*
X166305925Y-96029460D01*
X166386313Y-96066469D01*
X166439781Y-96077831D01*
X166481274Y-96066676D01*
X166481952Y-96066315D01*
X166517531Y-96043671D01*
X166511330Y-96023345D01*
X166484127Y-96001262D01*
X166354849Y-95923162D01*
X166205647Y-95865923D01*
X166058862Y-95837415D01*
X166014032Y-95835661D01*
X165871805Y-95854039D01*
X165728606Y-95902118D01*
X165595211Y-95973214D01*
X165482397Y-96060644D01*
X165400938Y-96157726D01*
X165365613Y-96237760D01*
X165363703Y-96342718D01*
X165283227Y-96342718D01*
X165306631Y-96215252D01*
X165367595Y-96086526D01*
X165469976Y-95974182D01*
X165605700Y-95883141D01*
X165766695Y-95818326D01*
X165944887Y-95784657D01*
X166018929Y-95781015D01*
X166127499Y-95782803D01*
X166127499Y-95782803D01*
G37*
X166127499Y-95782803D02*
X166209131Y-95794226D01*
X166287322Y-95820867D01*
X166384942Y-95867987D01*
X166498517Y-95931178D01*
X166566964Y-95982587D01*
X166593352Y-96026481D01*
X166580752Y-96067130D01*
X166549400Y-96096681D01*
X166487714Y-96145151D01*
X166441450Y-96183990D01*
X166405218Y-96211867D01*
X166371176Y-96219535D01*
X166324835Y-96205178D01*
X166251704Y-96166983D01*
X166236062Y-96158267D01*
X166168540Y-96123796D01*
X166119467Y-96109100D01*
X166295400Y-96109100D01*
X166308100Y-96121800D01*
X166320800Y-96109100D01*
X166308100Y-96096400D01*
X166295400Y-96109100D01*
X166119467Y-96109100D01*
X166110578Y-96106438D01*
X166042454Y-96103025D01*
X165944447Y-96110387D01*
X165940548Y-96110770D01*
X165839665Y-96123571D01*
X165772583Y-96141882D01*
X165722310Y-96172058D01*
X165685584Y-96206125D01*
X165623793Y-96292026D01*
X165611391Y-96375878D01*
X165648565Y-96462090D01*
X165698893Y-96520973D01*
X165750499Y-96569688D01*
X165793172Y-96595094D01*
X165845550Y-96602937D01*
X165926272Y-96598965D01*
X165946543Y-96597333D01*
X166036418Y-96586305D01*
X166158487Y-96566339D01*
X166295567Y-96540442D01*
X166409700Y-96516314D01*
X166613301Y-96477872D01*
X166781433Y-96463881D01*
X166923933Y-96475821D01*
X167050641Y-96515174D01*
X167171397Y-96583420D01*
X167249883Y-96642766D01*
X167362588Y-96761864D01*
X167440707Y-96900719D01*
X167481636Y-97049105D01*
X167482769Y-97196797D01*
X167441502Y-97333569D01*
X167430936Y-97353498D01*
X167372965Y-97428026D01*
X167282273Y-97513284D01*
X167172214Y-97598613D01*
X167056145Y-97673354D01*
X166981229Y-97712401D01*
X166862540Y-97747842D01*
X166718310Y-97762296D01*
X166569753Y-97754641D01*
X166485900Y-97738591D01*
X166326780Y-97683900D01*
X166524000Y-97683900D01*
X166536700Y-97696600D01*
X166549400Y-97683900D01*
X166536700Y-97671200D01*
X166524000Y-97683900D01*
X166326780Y-97683900D01*
X166316626Y-97680410D01*
X166272136Y-97654266D01*
X166430866Y-97654266D01*
X166434353Y-97669366D01*
X166447800Y-97671200D01*
X166468707Y-97661906D01*
X166464733Y-97654266D01*
X166434589Y-97651226D01*
X166430866Y-97654266D01*
X166272136Y-97654266D01*
X166236116Y-97633100D01*
X166371600Y-97633100D01*
X166384300Y-97645800D01*
X166397000Y-97633100D01*
X166384300Y-97620400D01*
X166371600Y-97633100D01*
X166236116Y-97633100D01*
X166192891Y-97607700D01*
X166320800Y-97607700D01*
X166333500Y-97620400D01*
X166346200Y-97607700D01*
X166333500Y-97595000D01*
X166320800Y-97607700D01*
X166192891Y-97607700D01*
X166173916Y-97596550D01*
X166156270Y-97582300D01*
X166270000Y-97582300D01*
X166282700Y-97595000D01*
X166295400Y-97582300D01*
X166282700Y-97569600D01*
X166270000Y-97582300D01*
X166156270Y-97582300D01*
X166105242Y-97541093D01*
X166096412Y-97531500D01*
X166193800Y-97531500D01*
X166206500Y-97544200D01*
X166219200Y-97531500D01*
X166206500Y-97518800D01*
X166193800Y-97531500D01*
X166096412Y-97531500D01*
X166039012Y-97469144D01*
X166020214Y-97407394D01*
X166048241Y-97349530D01*
X166083627Y-97316891D01*
X166161402Y-97266183D01*
X166231043Y-97250936D01*
X166307957Y-97271219D01*
X166393502Y-97318271D01*
X166553075Y-97391325D01*
X166713786Y-97413915D01*
X166873296Y-97386258D01*
X167029268Y-97308571D01*
X167103655Y-97252340D01*
X167157557Y-97199408D01*
X167176184Y-97154848D01*
X167171785Y-97114972D01*
X167117652Y-96993669D01*
X167027142Y-96901553D01*
X166909811Y-96846110D01*
X166812002Y-96833094D01*
X166743165Y-96839102D01*
X166640753Y-96855399D01*
X166520295Y-96879273D01*
X166431002Y-96899656D01*
X166196596Y-96947604D01*
X165998495Y-96967505D01*
X165830092Y-96958497D01*
X165684775Y-96919718D01*
X165641681Y-96896500D01*
X165787400Y-96896500D01*
X165800100Y-96909200D01*
X165812800Y-96896500D01*
X165800100Y-96883800D01*
X165787400Y-96896500D01*
X165641681Y-96896500D01*
X165594537Y-96871100D01*
X165736600Y-96871100D01*
X165749300Y-96883800D01*
X165762000Y-96871100D01*
X165749300Y-96858400D01*
X165736600Y-96871100D01*
X165594537Y-96871100D01*
X165555938Y-96850304D01*
X165488031Y-96794900D01*
X165584200Y-96794900D01*
X165596900Y-96807600D01*
X165609600Y-96794900D01*
X165596900Y-96782200D01*
X165584200Y-96794900D01*
X165488031Y-96794900D01*
X165461324Y-96773111D01*
X165352901Y-96642598D01*
X165293682Y-96500344D01*
X165283001Y-96343951D01*
X165283227Y-96342718D01*
X165363703Y-96342718D01*
X165402114Y-96456545D01*
X165473656Y-96570127D01*
X165571141Y-96674349D01*
X165687378Y-96760098D01*
X165815179Y-96818258D01*
X165826137Y-96821577D01*
X165897650Y-96839710D01*
X165965802Y-96849106D01*
X166040363Y-96848936D01*
X166131105Y-96838371D01*
X166227882Y-96820300D01*
X167032000Y-96820300D01*
X167044700Y-96833000D01*
X167057400Y-96820300D01*
X167044700Y-96807600D01*
X167032000Y-96820300D01*
X166227882Y-96820300D01*
X166247799Y-96816581D01*
X166345441Y-96794900D01*
X166981200Y-96794900D01*
X166993900Y-96807600D01*
X167006600Y-96794900D01*
X166993900Y-96782200D01*
X166981200Y-96794900D01*
X166345441Y-96794900D01*
X166400215Y-96782738D01*
X166466641Y-96767225D01*
X166665044Y-96726758D01*
X166824837Y-96709512D01*
X166953026Y-96716352D01*
X167056620Y-96748146D01*
X167142624Y-96805759D01*
X167191935Y-96856895D01*
X167238838Y-96927515D01*
X167258331Y-97005979D01*
X167260600Y-97061600D01*
X167244028Y-97173900D01*
X167190821Y-97267324D01*
X167095738Y-97348754D01*
X167001016Y-97402525D01*
X166830198Y-97460299D01*
X166652043Y-97469956D01*
X166475043Y-97431652D01*
X166383241Y-97391243D01*
X166289451Y-97349849D01*
X166213356Y-97331141D01*
X166163199Y-97335697D01*
X166147221Y-97364092D01*
X166149509Y-97374905D01*
X166179379Y-97411740D01*
X166242618Y-97460801D01*
X166326079Y-97513903D01*
X166416614Y-97562856D01*
X166501074Y-97599474D01*
X166520702Y-97606052D01*
X166679775Y-97639494D01*
X166831137Y-97634618D01*
X166948673Y-97607463D01*
X167101080Y-97545555D01*
X167233700Y-97459691D01*
X167339027Y-97357289D01*
X167409554Y-97245771D01*
X167437777Y-97132557D01*
X167437982Y-97123737D01*
X167420204Y-97027911D01*
X167372063Y-96916554D01*
X167302683Y-96806095D01*
X167221188Y-96712962D01*
X167199083Y-96693566D01*
X167089329Y-96613699D01*
X166981351Y-96559794D01*
X166865730Y-96530683D01*
X166733044Y-96525197D01*
X166573871Y-96542168D01*
X166378791Y-96580427D01*
X166346371Y-96587809D01*
X166136890Y-96630688D01*
X165968697Y-96652346D01*
X165836934Y-96652805D01*
X165736743Y-96632086D01*
X165664044Y-96590868D01*
X165593453Y-96507485D01*
X165550732Y-96407935D01*
X165543296Y-96310991D01*
X165546653Y-96293736D01*
X165594653Y-96198740D01*
X165682837Y-96112582D01*
X165731072Y-96083700D01*
X166244600Y-96083700D01*
X166257300Y-96096400D01*
X166270000Y-96083700D01*
X166257300Y-96071000D01*
X166244600Y-96083700D01*
X165731072Y-96083700D01*
X165773492Y-96058300D01*
X165914400Y-96058300D01*
X165927100Y-96071000D01*
X165939800Y-96058300D01*
X165927100Y-96045600D01*
X165914400Y-96058300D01*
X165773492Y-96058300D01*
X165800630Y-96042051D01*
X165937457Y-95993941D01*
X166039561Y-95977183D01*
X166139851Y-95974742D01*
X166221375Y-95991649D01*
X166305925Y-96029460D01*
X166386313Y-96066469D01*
X166439781Y-96077831D01*
X166481274Y-96066676D01*
X166481952Y-96066315D01*
X166517531Y-96043671D01*
X166511330Y-96023345D01*
X166484127Y-96001262D01*
X166354849Y-95923162D01*
X166205647Y-95865923D01*
X166058862Y-95837415D01*
X166014032Y-95835661D01*
X165871805Y-95854039D01*
X165728606Y-95902118D01*
X165595211Y-95973214D01*
X165482397Y-96060644D01*
X165400938Y-96157726D01*
X165365613Y-96237760D01*
X165363703Y-96342718D01*
X165283227Y-96342718D01*
X165306631Y-96215252D01*
X165367595Y-96086526D01*
X165469976Y-95974182D01*
X165605700Y-95883141D01*
X165766695Y-95818326D01*
X165944887Y-95784657D01*
X166018929Y-95781015D01*
X166127499Y-95782803D01*
G36*
X164856784Y-96394010D02*
G01*
X164910431Y-96445478D01*
X164989107Y-96525456D01*
X165088470Y-96629195D01*
X165204180Y-96751949D01*
X165331897Y-96888970D01*
X165467281Y-97035511D01*
X165605991Y-97186823D01*
X165743686Y-97338160D01*
X165876027Y-97484774D01*
X165998672Y-97621918D01*
X166107281Y-97744843D01*
X166197514Y-97848803D01*
X166265031Y-97929050D01*
X166305491Y-97980837D01*
X166315423Y-97997788D01*
X166299106Y-98040418D01*
X166243563Y-98086045D01*
X166239223Y-98088612D01*
X166178898Y-98129165D01*
X166138760Y-98166035D01*
X166135387Y-98170863D01*
X166099768Y-98201162D01*
X166084587Y-98204415D01*
X166061276Y-98186161D01*
X166007879Y-98134203D01*
X165928269Y-98052617D01*
X165915787Y-98039500D01*
X165990600Y-98039500D01*
X166003300Y-98052200D01*
X166016000Y-98039500D01*
X166003300Y-98026800D01*
X165990600Y-98039500D01*
X165915787Y-98039500D01*
X165826320Y-97945482D01*
X165705902Y-97816874D01*
X165570890Y-97670873D01*
X165425155Y-97511554D01*
X165393700Y-97476951D01*
X165206842Y-97271184D01*
X165051273Y-97099701D01*
X164924197Y-96959117D01*
X164822818Y-96846046D01*
X164744341Y-96757105D01*
X164685968Y-96688908D01*
X164644904Y-96638072D01*
X164618353Y-96601210D01*
X164603519Y-96574940D01*
X164597606Y-96555876D01*
X164597819Y-96540633D01*
X164601360Y-96525828D01*
X164602965Y-96519740D01*
X164622063Y-96492006D01*
X164730440Y-96492006D01*
X164731175Y-96505718D01*
X164741787Y-96527615D01*
X164765021Y-96561012D01*
X164803627Y-96609228D01*
X164860351Y-96675580D01*
X164937939Y-96763384D01*
X165039140Y-96875958D01*
X165166700Y-97016618D01*
X165323367Y-97188683D01*
X165482600Y-97363345D01*
X165649149Y-97545745D01*
X165785103Y-97693756D01*
X165893896Y-97810706D01*
X165978960Y-97899926D01*
X166043727Y-97964745D01*
X166091631Y-98008493D01*
X166126105Y-98034498D01*
X166150581Y-98046092D01*
X166168492Y-98046603D01*
X166181100Y-98040823D01*
X166220395Y-98010216D01*
X166231900Y-97993930D01*
X166215280Y-97970645D01*
X166168377Y-97915211D01*
X166095619Y-97832436D01*
X166001440Y-97727131D01*
X165890270Y-97604104D01*
X165766539Y-97468167D01*
X165634680Y-97324129D01*
X165499122Y-97176799D01*
X165364298Y-97030987D01*
X165234639Y-96891503D01*
X165114574Y-96763158D01*
X165008537Y-96650759D01*
X164920957Y-96559119D01*
X164856265Y-96493045D01*
X164818894Y-96457349D01*
X164811725Y-96452388D01*
X164767235Y-96465328D01*
X164747611Y-96475866D01*
X164736835Y-96483161D01*
X164730440Y-96492006D01*
X164622063Y-96492006D01*
X164634843Y-96473447D01*
X164696829Y-96426087D01*
X164769920Y-96389579D01*
X164832505Y-96375800D01*
X164856784Y-96394010D01*
X164856784Y-96394010D01*
G37*
X164856784Y-96394010D02*
X164910431Y-96445478D01*
X164989107Y-96525456D01*
X165088470Y-96629195D01*
X165204180Y-96751949D01*
X165331897Y-96888970D01*
X165467281Y-97035511D01*
X165605991Y-97186823D01*
X165743686Y-97338160D01*
X165876027Y-97484774D01*
X165998672Y-97621918D01*
X166107281Y-97744843D01*
X166197514Y-97848803D01*
X166265031Y-97929050D01*
X166305491Y-97980837D01*
X166315423Y-97997788D01*
X166299106Y-98040418D01*
X166243563Y-98086045D01*
X166239223Y-98088612D01*
X166178898Y-98129165D01*
X166138760Y-98166035D01*
X166135387Y-98170863D01*
X166099768Y-98201162D01*
X166084587Y-98204415D01*
X166061276Y-98186161D01*
X166007879Y-98134203D01*
X165928269Y-98052617D01*
X165915787Y-98039500D01*
X165990600Y-98039500D01*
X166003300Y-98052200D01*
X166016000Y-98039500D01*
X166003300Y-98026800D01*
X165990600Y-98039500D01*
X165915787Y-98039500D01*
X165826320Y-97945482D01*
X165705902Y-97816874D01*
X165570890Y-97670873D01*
X165425155Y-97511554D01*
X165393700Y-97476951D01*
X165206842Y-97271184D01*
X165051273Y-97099701D01*
X164924197Y-96959117D01*
X164822818Y-96846046D01*
X164744341Y-96757105D01*
X164685968Y-96688908D01*
X164644904Y-96638072D01*
X164618353Y-96601210D01*
X164603519Y-96574940D01*
X164597606Y-96555876D01*
X164597819Y-96540633D01*
X164601360Y-96525828D01*
X164602965Y-96519740D01*
X164622063Y-96492006D01*
X164730440Y-96492006D01*
X164731175Y-96505718D01*
X164741787Y-96527615D01*
X164765021Y-96561012D01*
X164803627Y-96609228D01*
X164860351Y-96675580D01*
X164937939Y-96763384D01*
X165039140Y-96875958D01*
X165166700Y-97016618D01*
X165323367Y-97188683D01*
X165482600Y-97363345D01*
X165649149Y-97545745D01*
X165785103Y-97693756D01*
X165893896Y-97810706D01*
X165978960Y-97899926D01*
X166043727Y-97964745D01*
X166091631Y-98008493D01*
X166126105Y-98034498D01*
X166150581Y-98046092D01*
X166168492Y-98046603D01*
X166181100Y-98040823D01*
X166220395Y-98010216D01*
X166231900Y-97993930D01*
X166215280Y-97970645D01*
X166168377Y-97915211D01*
X166095619Y-97832436D01*
X166001440Y-97727131D01*
X165890270Y-97604104D01*
X165766539Y-97468167D01*
X165634680Y-97324129D01*
X165499122Y-97176799D01*
X165364298Y-97030987D01*
X165234639Y-96891503D01*
X165114574Y-96763158D01*
X165008537Y-96650759D01*
X164920957Y-96559119D01*
X164856265Y-96493045D01*
X164818894Y-96457349D01*
X164811725Y-96452388D01*
X164767235Y-96465328D01*
X164747611Y-96475866D01*
X164736835Y-96483161D01*
X164730440Y-96492006D01*
X164622063Y-96492006D01*
X164634843Y-96473447D01*
X164696829Y-96426087D01*
X164769920Y-96389579D01*
X164832505Y-96375800D01*
X164856784Y-96394010D01*
G36*
X164720289Y-97151340D02*
G01*
X164800730Y-97179236D01*
X164885317Y-97228537D01*
X164979960Y-97303133D01*
X165090569Y-97406912D01*
X165223053Y-97543764D01*
X165328791Y-97657848D01*
X165443226Y-97781250D01*
X165552784Y-97896752D01*
X165650486Y-97997197D01*
X165729353Y-98075427D01*
X165782407Y-98124287D01*
X165788403Y-98129195D01*
X165860272Y-98197988D01*
X165884222Y-98255889D01*
X165860524Y-98308085D01*
X165800100Y-98353634D01*
X165744118Y-98392562D01*
X165713284Y-98425466D01*
X165711200Y-98432343D01*
X165691779Y-98455212D01*
X165644280Y-98454545D01*
X165584850Y-98431801D01*
X165564451Y-98419059D01*
X165523952Y-98398287D01*
X165508000Y-98404410D01*
X165488156Y-98449405D01*
X165435018Y-98513522D01*
X165358179Y-98588655D01*
X165267230Y-98666697D01*
X165171762Y-98739539D01*
X165081368Y-98799075D01*
X165005639Y-98837197D01*
X164989619Y-98842577D01*
X164909912Y-98859707D01*
X164833446Y-98859828D01*
X164739083Y-98842071D01*
X164694026Y-98830426D01*
X164565716Y-98776100D01*
X164746000Y-98776100D01*
X164758700Y-98788800D01*
X164771400Y-98776100D01*
X164758700Y-98763400D01*
X164746000Y-98776100D01*
X164565716Y-98776100D01*
X164557914Y-98772797D01*
X164528991Y-98750700D01*
X164644400Y-98750700D01*
X164657100Y-98763400D01*
X164669800Y-98750700D01*
X164657100Y-98738000D01*
X164644400Y-98750700D01*
X164528991Y-98750700D01*
X164495743Y-98725300D01*
X164593600Y-98725300D01*
X164606300Y-98738000D01*
X164619000Y-98725300D01*
X164606300Y-98712600D01*
X164593600Y-98725300D01*
X164495743Y-98725300D01*
X164441068Y-98683531D01*
X164352051Y-98572439D01*
X164299431Y-98449335D01*
X164288800Y-98366205D01*
X164299098Y-98257921D01*
X164333509Y-98157424D01*
X164397302Y-98055828D01*
X164495746Y-97944246D01*
X164596049Y-97848150D01*
X164692438Y-97758604D01*
X164755244Y-97695666D01*
X164789506Y-97652951D01*
X164800268Y-97624070D01*
X164792569Y-97602636D01*
X164791193Y-97600914D01*
X164741468Y-97561032D01*
X164671994Y-97526343D01*
X164603993Y-97505702D01*
X164563269Y-97505794D01*
X164517157Y-97516140D01*
X164446861Y-97526143D01*
X164434302Y-97527500D01*
X164325187Y-97556765D01*
X164255176Y-97615190D01*
X164227376Y-97697957D01*
X164244897Y-97800246D01*
X164249993Y-97813126D01*
X164276580Y-97902859D01*
X164264791Y-97964264D01*
X164211127Y-98005947D01*
X164164721Y-98022923D01*
X164058596Y-98049311D01*
X163987062Y-98050315D01*
X163939105Y-98022929D01*
X163903710Y-97964147D01*
X163897857Y-97950085D01*
X163863211Y-97829262D01*
X163863862Y-97713832D01*
X163877881Y-97660926D01*
X163945780Y-97660926D01*
X163950834Y-97732030D01*
X163961974Y-97774047D01*
X163997183Y-97863219D01*
X164039919Y-97908171D01*
X164097838Y-97915484D01*
X164121171Y-97910864D01*
X164159343Y-97897793D01*
X164176686Y-97874176D01*
X164178168Y-97825576D01*
X164171823Y-97763721D01*
X164166201Y-97677348D01*
X164177042Y-97619044D01*
X164208443Y-97567602D01*
X164210121Y-97565467D01*
X164305744Y-97481610D01*
X164307711Y-97480700D01*
X164746000Y-97480700D01*
X164758700Y-97493400D01*
X164771400Y-97480700D01*
X164758700Y-97468000D01*
X164746000Y-97480700D01*
X164307711Y-97480700D01*
X164434085Y-97422263D01*
X164580514Y-97393534D01*
X164626135Y-97391800D01*
X164716801Y-97395944D01*
X164779756Y-97413507D01*
X164837768Y-97452181D01*
X164859416Y-97470631D01*
X164912674Y-97526078D01*
X164943779Y-97575354D01*
X164947238Y-97591281D01*
X164928410Y-97622915D01*
X164878223Y-97680164D01*
X164803829Y-97755511D01*
X164712379Y-97841442D01*
X164689924Y-97861700D01*
X164555097Y-97987591D01*
X164459672Y-98091687D01*
X164401130Y-98180882D01*
X164376954Y-98262075D01*
X164384624Y-98342163D01*
X164421623Y-98428043D01*
X164460356Y-98490460D01*
X164568819Y-98609945D01*
X164701023Y-98688429D01*
X164848161Y-98723913D01*
X165001424Y-98714399D01*
X165152003Y-98657889D01*
X165165167Y-98650403D01*
X165257436Y-98584886D01*
X165346326Y-98502443D01*
X165419705Y-98416157D01*
X165447281Y-98369700D01*
X165609600Y-98369700D01*
X165622300Y-98382400D01*
X165635000Y-98369700D01*
X165622300Y-98357000D01*
X165609600Y-98369700D01*
X165447281Y-98369700D01*
X165465438Y-98339113D01*
X165472008Y-98319540D01*
X165472426Y-98318900D01*
X165533400Y-98318900D01*
X165546100Y-98331600D01*
X165558800Y-98318900D01*
X165546100Y-98306200D01*
X165533400Y-98318900D01*
X165472426Y-98318900D01*
X165505140Y-98268872D01*
X165562299Y-98256557D01*
X165632279Y-98284350D01*
X165643882Y-98292609D01*
X165695302Y-98314889D01*
X165751832Y-98300424D01*
X165798209Y-98273862D01*
X165806563Y-98246703D01*
X165775051Y-98209199D01*
X165727378Y-98170875D01*
X165684442Y-98132527D01*
X165614109Y-98063257D01*
X165523003Y-97969873D01*
X165417742Y-97859183D01*
X165304950Y-97737996D01*
X165280466Y-97711348D01*
X165121078Y-97540975D01*
X164987192Y-97407873D01*
X164872982Y-97309322D01*
X164772623Y-97242600D01*
X164680291Y-97204987D01*
X164590161Y-97193764D01*
X164496408Y-97206208D01*
X164393206Y-97239601D01*
X164328459Y-97266726D01*
X164209638Y-97333314D01*
X164099566Y-97419894D01*
X164012216Y-97513995D01*
X163966680Y-97589596D01*
X163945780Y-97660926D01*
X163877881Y-97660926D01*
X163896188Y-97591843D01*
X163967881Y-97459890D01*
X164079815Y-97342198D01*
X164221972Y-97245645D01*
X164384332Y-97177109D01*
X164548206Y-97144211D01*
X164638085Y-97140961D01*
X164720289Y-97151340D01*
X164720289Y-97151340D01*
G37*
X164720289Y-97151340D02*
X164800730Y-97179236D01*
X164885317Y-97228537D01*
X164979960Y-97303133D01*
X165090569Y-97406912D01*
X165223053Y-97543764D01*
X165328791Y-97657848D01*
X165443226Y-97781250D01*
X165552784Y-97896752D01*
X165650486Y-97997197D01*
X165729353Y-98075427D01*
X165782407Y-98124287D01*
X165788403Y-98129195D01*
X165860272Y-98197988D01*
X165884222Y-98255889D01*
X165860524Y-98308085D01*
X165800100Y-98353634D01*
X165744118Y-98392562D01*
X165713284Y-98425466D01*
X165711200Y-98432343D01*
X165691779Y-98455212D01*
X165644280Y-98454545D01*
X165584850Y-98431801D01*
X165564451Y-98419059D01*
X165523952Y-98398287D01*
X165508000Y-98404410D01*
X165488156Y-98449405D01*
X165435018Y-98513522D01*
X165358179Y-98588655D01*
X165267230Y-98666697D01*
X165171762Y-98739539D01*
X165081368Y-98799075D01*
X165005639Y-98837197D01*
X164989619Y-98842577D01*
X164909912Y-98859707D01*
X164833446Y-98859828D01*
X164739083Y-98842071D01*
X164694026Y-98830426D01*
X164565716Y-98776100D01*
X164746000Y-98776100D01*
X164758700Y-98788800D01*
X164771400Y-98776100D01*
X164758700Y-98763400D01*
X164746000Y-98776100D01*
X164565716Y-98776100D01*
X164557914Y-98772797D01*
X164528991Y-98750700D01*
X164644400Y-98750700D01*
X164657100Y-98763400D01*
X164669800Y-98750700D01*
X164657100Y-98738000D01*
X164644400Y-98750700D01*
X164528991Y-98750700D01*
X164495743Y-98725300D01*
X164593600Y-98725300D01*
X164606300Y-98738000D01*
X164619000Y-98725300D01*
X164606300Y-98712600D01*
X164593600Y-98725300D01*
X164495743Y-98725300D01*
X164441068Y-98683531D01*
X164352051Y-98572439D01*
X164299431Y-98449335D01*
X164288800Y-98366205D01*
X164299098Y-98257921D01*
X164333509Y-98157424D01*
X164397302Y-98055828D01*
X164495746Y-97944246D01*
X164596049Y-97848150D01*
X164692438Y-97758604D01*
X164755244Y-97695666D01*
X164789506Y-97652951D01*
X164800268Y-97624070D01*
X164792569Y-97602636D01*
X164791193Y-97600914D01*
X164741468Y-97561032D01*
X164671994Y-97526343D01*
X164603993Y-97505702D01*
X164563269Y-97505794D01*
X164517157Y-97516140D01*
X164446861Y-97526143D01*
X164434302Y-97527500D01*
X164325187Y-97556765D01*
X164255176Y-97615190D01*
X164227376Y-97697957D01*
X164244897Y-97800246D01*
X164249993Y-97813126D01*
X164276580Y-97902859D01*
X164264791Y-97964264D01*
X164211127Y-98005947D01*
X164164721Y-98022923D01*
X164058596Y-98049311D01*
X163987062Y-98050315D01*
X163939105Y-98022929D01*
X163903710Y-97964147D01*
X163897857Y-97950085D01*
X163863211Y-97829262D01*
X163863862Y-97713832D01*
X163877881Y-97660926D01*
X163945780Y-97660926D01*
X163950834Y-97732030D01*
X163961974Y-97774047D01*
X163997183Y-97863219D01*
X164039919Y-97908171D01*
X164097838Y-97915484D01*
X164121171Y-97910864D01*
X164159343Y-97897793D01*
X164176686Y-97874176D01*
X164178168Y-97825576D01*
X164171823Y-97763721D01*
X164166201Y-97677348D01*
X164177042Y-97619044D01*
X164208443Y-97567602D01*
X164210121Y-97565467D01*
X164305744Y-97481610D01*
X164307711Y-97480700D01*
X164746000Y-97480700D01*
X164758700Y-97493400D01*
X164771400Y-97480700D01*
X164758700Y-97468000D01*
X164746000Y-97480700D01*
X164307711Y-97480700D01*
X164434085Y-97422263D01*
X164580514Y-97393534D01*
X164626135Y-97391800D01*
X164716801Y-97395944D01*
X164779756Y-97413507D01*
X164837768Y-97452181D01*
X164859416Y-97470631D01*
X164912674Y-97526078D01*
X164943779Y-97575354D01*
X164947238Y-97591281D01*
X164928410Y-97622915D01*
X164878223Y-97680164D01*
X164803829Y-97755511D01*
X164712379Y-97841442D01*
X164689924Y-97861700D01*
X164555097Y-97987591D01*
X164459672Y-98091687D01*
X164401130Y-98180882D01*
X164376954Y-98262075D01*
X164384624Y-98342163D01*
X164421623Y-98428043D01*
X164460356Y-98490460D01*
X164568819Y-98609945D01*
X164701023Y-98688429D01*
X164848161Y-98723913D01*
X165001424Y-98714399D01*
X165152003Y-98657889D01*
X165165167Y-98650403D01*
X165257436Y-98584886D01*
X165346326Y-98502443D01*
X165419705Y-98416157D01*
X165447281Y-98369700D01*
X165609600Y-98369700D01*
X165622300Y-98382400D01*
X165635000Y-98369700D01*
X165622300Y-98357000D01*
X165609600Y-98369700D01*
X165447281Y-98369700D01*
X165465438Y-98339113D01*
X165472008Y-98319540D01*
X165472426Y-98318900D01*
X165533400Y-98318900D01*
X165546100Y-98331600D01*
X165558800Y-98318900D01*
X165546100Y-98306200D01*
X165533400Y-98318900D01*
X165472426Y-98318900D01*
X165505140Y-98268872D01*
X165562299Y-98256557D01*
X165632279Y-98284350D01*
X165643882Y-98292609D01*
X165695302Y-98314889D01*
X165751832Y-98300424D01*
X165798209Y-98273862D01*
X165806563Y-98246703D01*
X165775051Y-98209199D01*
X165727378Y-98170875D01*
X165684442Y-98132527D01*
X165614109Y-98063257D01*
X165523003Y-97969873D01*
X165417742Y-97859183D01*
X165304950Y-97737996D01*
X165280466Y-97711348D01*
X165121078Y-97540975D01*
X164987192Y-97407873D01*
X164872982Y-97309322D01*
X164772623Y-97242600D01*
X164680291Y-97204987D01*
X164590161Y-97193764D01*
X164496408Y-97206208D01*
X164393206Y-97239601D01*
X164328459Y-97266726D01*
X164209638Y-97333314D01*
X164099566Y-97419894D01*
X164012216Y-97513995D01*
X163966680Y-97589596D01*
X163945780Y-97660926D01*
X163877881Y-97660926D01*
X163896188Y-97591843D01*
X163967881Y-97459890D01*
X164079815Y-97342198D01*
X164221972Y-97245645D01*
X164384332Y-97177109D01*
X164548206Y-97144211D01*
X164638085Y-97140961D01*
X164720289Y-97151340D01*
G36*
X163521386Y-97745260D02*
G01*
X163555550Y-97808147D01*
X163603213Y-97904718D01*
X163661467Y-98028325D01*
X163727402Y-98172318D01*
X163798107Y-98330048D01*
X163870672Y-98494865D01*
X163942189Y-98660122D01*
X164009748Y-98819168D01*
X164070437Y-98965354D01*
X164121349Y-99092031D01*
X164159573Y-99192550D01*
X164182199Y-99260262D01*
X164187200Y-99284760D01*
X164163152Y-99334423D01*
X164090157Y-99388686D01*
X164073512Y-99398065D01*
X164005600Y-99439920D01*
X163958637Y-99477706D01*
X163947310Y-99492784D01*
X163915643Y-99522807D01*
X163902247Y-99525235D01*
X163873953Y-99512114D01*
X163807745Y-99474842D01*
X163708630Y-99416436D01*
X163615455Y-99360300D01*
X163730000Y-99360300D01*
X163742700Y-99373000D01*
X163755400Y-99360300D01*
X163742700Y-99347600D01*
X163730000Y-99360300D01*
X163615455Y-99360300D01*
X163581618Y-99339914D01*
X163431716Y-99248294D01*
X163407457Y-99233300D01*
X163526800Y-99233300D01*
X163539500Y-99246000D01*
X163552200Y-99233300D01*
X163539500Y-99220600D01*
X163526800Y-99233300D01*
X163407457Y-99233300D01*
X163263934Y-99144593D01*
X163202587Y-99106300D01*
X163323600Y-99106300D01*
X163336300Y-99119000D01*
X163349000Y-99106300D01*
X163336300Y-99093600D01*
X163323600Y-99106300D01*
X163202587Y-99106300D01*
X163083280Y-99031829D01*
X163082300Y-99031214D01*
X162999984Y-98979300D01*
X163120400Y-98979300D01*
X163133100Y-98992000D01*
X163145800Y-98979300D01*
X163133100Y-98966600D01*
X163120400Y-98979300D01*
X162999984Y-98979300D01*
X162919433Y-98928500D01*
X163044200Y-98928500D01*
X163056900Y-98941200D01*
X163069600Y-98928500D01*
X163056900Y-98915800D01*
X163044200Y-98928500D01*
X162919433Y-98928500D01*
X162901475Y-98917175D01*
X162799763Y-98852300D01*
X162917200Y-98852300D01*
X162929900Y-98865000D01*
X162942600Y-98852300D01*
X162929900Y-98839600D01*
X162917200Y-98852300D01*
X162799763Y-98852300D01*
X162733907Y-98810296D01*
X162720289Y-98801500D01*
X162841000Y-98801500D01*
X162853700Y-98814200D01*
X162866400Y-98801500D01*
X162853700Y-98788800D01*
X162841000Y-98801500D01*
X162720289Y-98801500D01*
X162584586Y-98713852D01*
X162524616Y-98674500D01*
X162637800Y-98674500D01*
X162650500Y-98687200D01*
X162663200Y-98674500D01*
X162650500Y-98661800D01*
X162637800Y-98674500D01*
X162524616Y-98674500D01*
X162458503Y-98631117D01*
X162360649Y-98565366D01*
X162335266Y-98547500D01*
X162434600Y-98547500D01*
X162447300Y-98560200D01*
X162460000Y-98547500D01*
X162447300Y-98534800D01*
X162434600Y-98547500D01*
X162335266Y-98547500D01*
X162296014Y-98519873D01*
X162269629Y-98497978D01*
X162258792Y-98447399D01*
X162279515Y-98413891D01*
X162396500Y-98413891D01*
X162416986Y-98429516D01*
X162474533Y-98468541D01*
X162563274Y-98527205D01*
X162677343Y-98601744D01*
X162810874Y-98688396D01*
X162957999Y-98783398D01*
X163112852Y-98882988D01*
X163269566Y-98983402D01*
X163422275Y-99080878D01*
X163565112Y-99171652D01*
X163692211Y-99251964D01*
X163797705Y-99318049D01*
X163875728Y-99366145D01*
X163920412Y-99392490D01*
X163928167Y-99396271D01*
X163952704Y-99386167D01*
X164005935Y-99358155D01*
X164036118Y-99341250D01*
X164093829Y-99302175D01*
X164124598Y-99268987D01*
X164126182Y-99258700D01*
X164087127Y-99164011D01*
X164035495Y-99042364D01*
X163974233Y-98900375D01*
X163906289Y-98744657D01*
X163834611Y-98581828D01*
X163762147Y-98418501D01*
X163691844Y-98261291D01*
X163626650Y-98116815D01*
X163569513Y-97991686D01*
X163523381Y-97892520D01*
X163491202Y-97825933D01*
X163475923Y-97798539D01*
X163475361Y-97798200D01*
X163443510Y-97812670D01*
X163400216Y-97843555D01*
X163344205Y-97888910D01*
X163488607Y-98241353D01*
X163549889Y-98389704D01*
X163614548Y-98544181D01*
X163675492Y-98687960D01*
X163725630Y-98804219D01*
X163732304Y-98819437D01*
X163789491Y-98954140D01*
X163822081Y-99046529D01*
X163828655Y-99099499D01*
X163807794Y-99115940D01*
X163758077Y-99098747D01*
X163678085Y-99050810D01*
X163633356Y-99021012D01*
X163568166Y-98978117D01*
X163468564Y-98914181D01*
X163343392Y-98834803D01*
X163201493Y-98745582D01*
X163051709Y-98652118D01*
X163006600Y-98624113D01*
X162849991Y-98527309D01*
X162730432Y-98454621D01*
X162641942Y-98403168D01*
X162578539Y-98370069D01*
X162534240Y-98352444D01*
X162503063Y-98347411D01*
X162479026Y-98352091D01*
X162460500Y-98361125D01*
X162414438Y-98392157D01*
X162396500Y-98413891D01*
X162279515Y-98413891D01*
X162292053Y-98393618D01*
X162371776Y-98333523D01*
X162412798Y-98309468D01*
X162527593Y-98245378D01*
X163033546Y-98558831D01*
X163180730Y-98650103D01*
X163316531Y-98734479D01*
X163433948Y-98807598D01*
X163525982Y-98865096D01*
X163585633Y-98902611D01*
X163602017Y-98913092D01*
X163640541Y-98933953D01*
X163649300Y-98929264D01*
X163648475Y-98927825D01*
X163625057Y-98881407D01*
X163588607Y-98799173D01*
X163542630Y-98690005D01*
X163490628Y-98562784D01*
X163436107Y-98426392D01*
X163382569Y-98289712D01*
X163333518Y-98161624D01*
X163292458Y-98051010D01*
X163262891Y-97966752D01*
X163248323Y-97917732D01*
X163247400Y-97911081D01*
X163262983Y-97861893D01*
X163315234Y-97813404D01*
X163357581Y-97786570D01*
X163428530Y-97749087D01*
X163485449Y-97726151D01*
X163503631Y-97722708D01*
X163521386Y-97745260D01*
X163521386Y-97745260D01*
G37*
X163521386Y-97745260D02*
X163555550Y-97808147D01*
X163603213Y-97904718D01*
X163661467Y-98028325D01*
X163727402Y-98172318D01*
X163798107Y-98330048D01*
X163870672Y-98494865D01*
X163942189Y-98660122D01*
X164009748Y-98819168D01*
X164070437Y-98965354D01*
X164121349Y-99092031D01*
X164159573Y-99192550D01*
X164182199Y-99260262D01*
X164187200Y-99284760D01*
X164163152Y-99334423D01*
X164090157Y-99388686D01*
X164073512Y-99398065D01*
X164005600Y-99439920D01*
X163958637Y-99477706D01*
X163947310Y-99492784D01*
X163915643Y-99522807D01*
X163902247Y-99525235D01*
X163873953Y-99512114D01*
X163807745Y-99474842D01*
X163708630Y-99416436D01*
X163615455Y-99360300D01*
X163730000Y-99360300D01*
X163742700Y-99373000D01*
X163755400Y-99360300D01*
X163742700Y-99347600D01*
X163730000Y-99360300D01*
X163615455Y-99360300D01*
X163581618Y-99339914D01*
X163431716Y-99248294D01*
X163407457Y-99233300D01*
X163526800Y-99233300D01*
X163539500Y-99246000D01*
X163552200Y-99233300D01*
X163539500Y-99220600D01*
X163526800Y-99233300D01*
X163407457Y-99233300D01*
X163263934Y-99144593D01*
X163202587Y-99106300D01*
X163323600Y-99106300D01*
X163336300Y-99119000D01*
X163349000Y-99106300D01*
X163336300Y-99093600D01*
X163323600Y-99106300D01*
X163202587Y-99106300D01*
X163083280Y-99031829D01*
X163082300Y-99031214D01*
X162999984Y-98979300D01*
X163120400Y-98979300D01*
X163133100Y-98992000D01*
X163145800Y-98979300D01*
X163133100Y-98966600D01*
X163120400Y-98979300D01*
X162999984Y-98979300D01*
X162919433Y-98928500D01*
X163044200Y-98928500D01*
X163056900Y-98941200D01*
X163069600Y-98928500D01*
X163056900Y-98915800D01*
X163044200Y-98928500D01*
X162919433Y-98928500D01*
X162901475Y-98917175D01*
X162799763Y-98852300D01*
X162917200Y-98852300D01*
X162929900Y-98865000D01*
X162942600Y-98852300D01*
X162929900Y-98839600D01*
X162917200Y-98852300D01*
X162799763Y-98852300D01*
X162733907Y-98810296D01*
X162720289Y-98801500D01*
X162841000Y-98801500D01*
X162853700Y-98814200D01*
X162866400Y-98801500D01*
X162853700Y-98788800D01*
X162841000Y-98801500D01*
X162720289Y-98801500D01*
X162584586Y-98713852D01*
X162524616Y-98674500D01*
X162637800Y-98674500D01*
X162650500Y-98687200D01*
X162663200Y-98674500D01*
X162650500Y-98661800D01*
X162637800Y-98674500D01*
X162524616Y-98674500D01*
X162458503Y-98631117D01*
X162360649Y-98565366D01*
X162335266Y-98547500D01*
X162434600Y-98547500D01*
X162447300Y-98560200D01*
X162460000Y-98547500D01*
X162447300Y-98534800D01*
X162434600Y-98547500D01*
X162335266Y-98547500D01*
X162296014Y-98519873D01*
X162269629Y-98497978D01*
X162258792Y-98447399D01*
X162279515Y-98413891D01*
X162396500Y-98413891D01*
X162416986Y-98429516D01*
X162474533Y-98468541D01*
X162563274Y-98527205D01*
X162677343Y-98601744D01*
X162810874Y-98688396D01*
X162957999Y-98783398D01*
X163112852Y-98882988D01*
X163269566Y-98983402D01*
X163422275Y-99080878D01*
X163565112Y-99171652D01*
X163692211Y-99251964D01*
X163797705Y-99318049D01*
X163875728Y-99366145D01*
X163920412Y-99392490D01*
X163928167Y-99396271D01*
X163952704Y-99386167D01*
X164005935Y-99358155D01*
X164036118Y-99341250D01*
X164093829Y-99302175D01*
X164124598Y-99268987D01*
X164126182Y-99258700D01*
X164087127Y-99164011D01*
X164035495Y-99042364D01*
X163974233Y-98900375D01*
X163906289Y-98744657D01*
X163834611Y-98581828D01*
X163762147Y-98418501D01*
X163691844Y-98261291D01*
X163626650Y-98116815D01*
X163569513Y-97991686D01*
X163523381Y-97892520D01*
X163491202Y-97825933D01*
X163475923Y-97798539D01*
X163475361Y-97798200D01*
X163443510Y-97812670D01*
X163400216Y-97843555D01*
X163344205Y-97888910D01*
X163488607Y-98241353D01*
X163549889Y-98389704D01*
X163614548Y-98544181D01*
X163675492Y-98687960D01*
X163725630Y-98804219D01*
X163732304Y-98819437D01*
X163789491Y-98954140D01*
X163822081Y-99046529D01*
X163828655Y-99099499D01*
X163807794Y-99115940D01*
X163758077Y-99098747D01*
X163678085Y-99050810D01*
X163633356Y-99021012D01*
X163568166Y-98978117D01*
X163468564Y-98914181D01*
X163343392Y-98834803D01*
X163201493Y-98745582D01*
X163051709Y-98652118D01*
X163006600Y-98624113D01*
X162849991Y-98527309D01*
X162730432Y-98454621D01*
X162641942Y-98403168D01*
X162578539Y-98370069D01*
X162534240Y-98352444D01*
X162503063Y-98347411D01*
X162479026Y-98352091D01*
X162460500Y-98361125D01*
X162414438Y-98392157D01*
X162396500Y-98413891D01*
X162279515Y-98413891D01*
X162292053Y-98393618D01*
X162371776Y-98333523D01*
X162412798Y-98309468D01*
X162527593Y-98245378D01*
X163033546Y-98558831D01*
X163180730Y-98650103D01*
X163316531Y-98734479D01*
X163433948Y-98807598D01*
X163525982Y-98865096D01*
X163585633Y-98902611D01*
X163602017Y-98913092D01*
X163640541Y-98933953D01*
X163649300Y-98929264D01*
X163648475Y-98927825D01*
X163625057Y-98881407D01*
X163588607Y-98799173D01*
X163542630Y-98690005D01*
X163490628Y-98562784D01*
X163436107Y-98426392D01*
X163382569Y-98289712D01*
X163333518Y-98161624D01*
X163292458Y-98051010D01*
X163262891Y-97966752D01*
X163248323Y-97917732D01*
X163247400Y-97911081D01*
X163262983Y-97861893D01*
X163315234Y-97813404D01*
X163357581Y-97786570D01*
X163428530Y-97749087D01*
X163485449Y-97726151D01*
X163503631Y-97722708D01*
X163521386Y-97745260D01*
G36*
X161661095Y-98096184D02*
G01*
X161707563Y-98142266D01*
X161758144Y-98201337D01*
X161800609Y-98258889D01*
X161822730Y-98300416D01*
X161823655Y-98306200D01*
X161801420Y-98330863D01*
X161736937Y-98375836D01*
X161633574Y-98439070D01*
X161494698Y-98518515D01*
X161323676Y-98612121D01*
X161302103Y-98623700D01*
X161152590Y-98703864D01*
X161017356Y-98776515D01*
X160903072Y-98838055D01*
X160816413Y-98884888D01*
X160764051Y-98913418D01*
X160752084Y-98920126D01*
X160755414Y-98946109D01*
X160791319Y-99004994D01*
X160857228Y-99093010D01*
X160934005Y-99186826D01*
X161014710Y-99281356D01*
X161084490Y-99360741D01*
X161136492Y-99417348D01*
X161163858Y-99443545D01*
X161165316Y-99444344D01*
X161192540Y-99434622D01*
X161257244Y-99403049D01*
X161352862Y-99353090D01*
X161472831Y-99288209D01*
X161610587Y-99211870D01*
X161682658Y-99171294D01*
X161828765Y-99089830D01*
X161962335Y-99017645D01*
X162076321Y-98958366D01*
X162163674Y-98915618D01*
X162217346Y-98893025D01*
X162228773Y-98890400D01*
X162270785Y-98909142D01*
X162326492Y-98955445D01*
X162381680Y-99014419D01*
X162422136Y-99071177D01*
X162434348Y-99105737D01*
X162413171Y-99125250D01*
X162353917Y-99165812D01*
X162262778Y-99223554D01*
X162145943Y-99294607D01*
X162009605Y-99375099D01*
X161926348Y-99423256D01*
X161781810Y-99507133D01*
X161653280Y-99583407D01*
X161546938Y-99648272D01*
X161468961Y-99697922D01*
X161425530Y-99728551D01*
X161418600Y-99736023D01*
X161425897Y-99751544D01*
X161449737Y-99784966D01*
X161493041Y-99839859D01*
X161558731Y-99919790D01*
X161649727Y-100028328D01*
X161768953Y-100169042D01*
X161876253Y-100295025D01*
X161901735Y-100287920D01*
X161964662Y-100257491D01*
X162059169Y-100206956D01*
X162179386Y-100139536D01*
X162319447Y-100058451D01*
X162466406Y-99971175D01*
X162620569Y-99879066D01*
X162760822Y-99796259D01*
X162881187Y-99726205D01*
X162975686Y-99672352D01*
X163038342Y-99638150D01*
X163062859Y-99627000D01*
X163093787Y-99646261D01*
X163139301Y-99694080D01*
X163187761Y-99755508D01*
X163227526Y-99815596D01*
X163246955Y-99859395D01*
X163247400Y-99863981D01*
X163226288Y-99886315D01*
X163166126Y-99931229D01*
X163071670Y-99995584D01*
X162947677Y-100076241D01*
X162798905Y-100170061D01*
X162630111Y-100273905D01*
X162581116Y-100303620D01*
X162413088Y-100405772D01*
X162257671Y-100501306D01*
X162120625Y-100586601D01*
X162007712Y-100658031D01*
X161924692Y-100711973D01*
X161877326Y-100744804D01*
X161869916Y-100750950D01*
X161827199Y-100785157D01*
X161802563Y-100795400D01*
X161782072Y-100776605D01*
X161732213Y-100722775D01*
X161656330Y-100637743D01*
X161557766Y-100525343D01*
X161439864Y-100389407D01*
X161305967Y-100233767D01*
X161159419Y-100062257D01*
X161021513Y-99899909D01*
X160834806Y-99679602D01*
X160678233Y-99494888D01*
X160549219Y-99342489D01*
X160445191Y-99219129D01*
X160363573Y-99121533D01*
X160301790Y-99046423D01*
X160257268Y-98990523D01*
X160227431Y-98950558D01*
X160209705Y-98923251D01*
X160201516Y-98905325D01*
X160200287Y-98893504D01*
X160203445Y-98884512D01*
X160208415Y-98875073D01*
X160210973Y-98868548D01*
X160224649Y-98854704D01*
X160306166Y-98854704D01*
X161071933Y-99760007D01*
X161227319Y-99943231D01*
X161372779Y-100113833D01*
X161505029Y-100268027D01*
X161620786Y-100402027D01*
X161716763Y-100512046D01*
X161789678Y-100594298D01*
X161836245Y-100644996D01*
X161853041Y-100660505D01*
X161877836Y-100646631D01*
X161940591Y-100609696D01*
X162035824Y-100552976D01*
X162158056Y-100479749D01*
X162301807Y-100393293D01*
X162461599Y-100296884D01*
X162519304Y-100262000D01*
X162682624Y-100162802D01*
X162830911Y-100071937D01*
X162958836Y-99992732D01*
X163061072Y-99928517D01*
X163132291Y-99882619D01*
X163167166Y-99858367D01*
X163169799Y-99855600D01*
X163154989Y-99829483D01*
X163119075Y-99781551D01*
X163110979Y-99771541D01*
X163052586Y-99700183D01*
X162476228Y-100046486D01*
X162321669Y-100138531D01*
X162180971Y-100220755D01*
X162060081Y-100289807D01*
X161964948Y-100342338D01*
X161901520Y-100374999D01*
X161875964Y-100384545D01*
X161850188Y-100362348D01*
X161799911Y-100308884D01*
X161731830Y-100232157D01*
X161652643Y-100140171D01*
X161569048Y-100040930D01*
X161487741Y-99942440D01*
X161415422Y-99852704D01*
X161358786Y-99779727D01*
X161324533Y-99731513D01*
X161317439Y-99717048D01*
X161338684Y-99697382D01*
X161398023Y-99656719D01*
X161489255Y-99598934D01*
X161606179Y-99527900D01*
X161742594Y-99447492D01*
X161825439Y-99399669D01*
X161970080Y-99315600D01*
X162098675Y-99238578D01*
X162205027Y-99172504D01*
X162282937Y-99121277D01*
X162326208Y-99088799D01*
X162333000Y-99080246D01*
X162315860Y-99044069D01*
X162275850Y-98998940D01*
X162218700Y-98946224D01*
X161710700Y-99235115D01*
X161563754Y-99317800D01*
X161430145Y-99391313D01*
X161316627Y-99452072D01*
X161229952Y-99496498D01*
X161176875Y-99521008D01*
X161164586Y-99524702D01*
X161137920Y-99506629D01*
X161086290Y-99457426D01*
X161016923Y-99385258D01*
X160937046Y-99298295D01*
X160853885Y-99204704D01*
X160774668Y-99112653D01*
X160706621Y-99030309D01*
X160656971Y-98965840D01*
X160632945Y-98927414D01*
X160631789Y-98922538D01*
X160653394Y-98905688D01*
X160713859Y-98868485D01*
X160807163Y-98814373D01*
X160927284Y-98746794D01*
X161068200Y-98669194D01*
X161192616Y-98601805D01*
X161752853Y-98300510D01*
X161683312Y-98227925D01*
X161613772Y-98155341D01*
X161357436Y-98292747D01*
X161244108Y-98353447D01*
X161100741Y-98430163D01*
X160942112Y-98514993D01*
X160782998Y-98600033D01*
X160703633Y-98642429D01*
X160306166Y-98854704D01*
X160224649Y-98854704D01*
X160239688Y-98839481D01*
X160314209Y-98788728D01*
X160434431Y-98716350D01*
X160600250Y-98622411D01*
X160811562Y-98506970D01*
X160921082Y-98448229D01*
X161093140Y-98356644D01*
X161250666Y-98273290D01*
X161388118Y-98201059D01*
X161499953Y-98142845D01*
X161580630Y-98101542D01*
X161624607Y-98080043D01*
X161630968Y-98077600D01*
X161661095Y-98096184D01*
X161661095Y-98096184D01*
G37*
X161661095Y-98096184D02*
X161707563Y-98142266D01*
X161758144Y-98201337D01*
X161800609Y-98258889D01*
X161822730Y-98300416D01*
X161823655Y-98306200D01*
X161801420Y-98330863D01*
X161736937Y-98375836D01*
X161633574Y-98439070D01*
X161494698Y-98518515D01*
X161323676Y-98612121D01*
X161302103Y-98623700D01*
X161152590Y-98703864D01*
X161017356Y-98776515D01*
X160903072Y-98838055D01*
X160816413Y-98884888D01*
X160764051Y-98913418D01*
X160752084Y-98920126D01*
X160755414Y-98946109D01*
X160791319Y-99004994D01*
X160857228Y-99093010D01*
X160934005Y-99186826D01*
X161014710Y-99281356D01*
X161084490Y-99360741D01*
X161136492Y-99417348D01*
X161163858Y-99443545D01*
X161165316Y-99444344D01*
X161192540Y-99434622D01*
X161257244Y-99403049D01*
X161352862Y-99353090D01*
X161472831Y-99288209D01*
X161610587Y-99211870D01*
X161682658Y-99171294D01*
X161828765Y-99089830D01*
X161962335Y-99017645D01*
X162076321Y-98958366D01*
X162163674Y-98915618D01*
X162217346Y-98893025D01*
X162228773Y-98890400D01*
X162270785Y-98909142D01*
X162326492Y-98955445D01*
X162381680Y-99014419D01*
X162422136Y-99071177D01*
X162434348Y-99105737D01*
X162413171Y-99125250D01*
X162353917Y-99165812D01*
X162262778Y-99223554D01*
X162145943Y-99294607D01*
X162009605Y-99375099D01*
X161926348Y-99423256D01*
X161781810Y-99507133D01*
X161653280Y-99583407D01*
X161546938Y-99648272D01*
X161468961Y-99697922D01*
X161425530Y-99728551D01*
X161418600Y-99736023D01*
X161425897Y-99751544D01*
X161449737Y-99784966D01*
X161493041Y-99839859D01*
X161558731Y-99919790D01*
X161649727Y-100028328D01*
X161768953Y-100169042D01*
X161876253Y-100295025D01*
X161901735Y-100287920D01*
X161964662Y-100257491D01*
X162059169Y-100206956D01*
X162179386Y-100139536D01*
X162319447Y-100058451D01*
X162466406Y-99971175D01*
X162620569Y-99879066D01*
X162760822Y-99796259D01*
X162881187Y-99726205D01*
X162975686Y-99672352D01*
X163038342Y-99638150D01*
X163062859Y-99627000D01*
X163093787Y-99646261D01*
X163139301Y-99694080D01*
X163187761Y-99755508D01*
X163227526Y-99815596D01*
X163246955Y-99859395D01*
X163247400Y-99863981D01*
X163226288Y-99886315D01*
X163166126Y-99931229D01*
X163071670Y-99995584D01*
X162947677Y-100076241D01*
X162798905Y-100170061D01*
X162630111Y-100273905D01*
X162581116Y-100303620D01*
X162413088Y-100405772D01*
X162257671Y-100501306D01*
X162120625Y-100586601D01*
X162007712Y-100658031D01*
X161924692Y-100711973D01*
X161877326Y-100744804D01*
X161869916Y-100750950D01*
X161827199Y-100785157D01*
X161802563Y-100795400D01*
X161782072Y-100776605D01*
X161732213Y-100722775D01*
X161656330Y-100637743D01*
X161557766Y-100525343D01*
X161439864Y-100389407D01*
X161305967Y-100233767D01*
X161159419Y-100062257D01*
X161021513Y-99899909D01*
X160834806Y-99679602D01*
X160678233Y-99494888D01*
X160549219Y-99342489D01*
X160445191Y-99219129D01*
X160363573Y-99121533D01*
X160301790Y-99046423D01*
X160257268Y-98990523D01*
X160227431Y-98950558D01*
X160209705Y-98923251D01*
X160201516Y-98905325D01*
X160200287Y-98893504D01*
X160203445Y-98884512D01*
X160208415Y-98875073D01*
X160210973Y-98868548D01*
X160224649Y-98854704D01*
X160306166Y-98854704D01*
X161071933Y-99760007D01*
X161227319Y-99943231D01*
X161372779Y-100113833D01*
X161505029Y-100268027D01*
X161620786Y-100402027D01*
X161716763Y-100512046D01*
X161789678Y-100594298D01*
X161836245Y-100644996D01*
X161853041Y-100660505D01*
X161877836Y-100646631D01*
X161940591Y-100609696D01*
X162035824Y-100552976D01*
X162158056Y-100479749D01*
X162301807Y-100393293D01*
X162461599Y-100296884D01*
X162519304Y-100262000D01*
X162682624Y-100162802D01*
X162830911Y-100071937D01*
X162958836Y-99992732D01*
X163061072Y-99928517D01*
X163132291Y-99882619D01*
X163167166Y-99858367D01*
X163169799Y-99855600D01*
X163154989Y-99829483D01*
X163119075Y-99781551D01*
X163110979Y-99771541D01*
X163052586Y-99700183D01*
X162476228Y-100046486D01*
X162321669Y-100138531D01*
X162180971Y-100220755D01*
X162060081Y-100289807D01*
X161964948Y-100342338D01*
X161901520Y-100374999D01*
X161875964Y-100384545D01*
X161850188Y-100362348D01*
X161799911Y-100308884D01*
X161731830Y-100232157D01*
X161652643Y-100140171D01*
X161569048Y-100040930D01*
X161487741Y-99942440D01*
X161415422Y-99852704D01*
X161358786Y-99779727D01*
X161324533Y-99731513D01*
X161317439Y-99717048D01*
X161338684Y-99697382D01*
X161398023Y-99656719D01*
X161489255Y-99598934D01*
X161606179Y-99527900D01*
X161742594Y-99447492D01*
X161825439Y-99399669D01*
X161970080Y-99315600D01*
X162098675Y-99238578D01*
X162205027Y-99172504D01*
X162282937Y-99121277D01*
X162326208Y-99088799D01*
X162333000Y-99080246D01*
X162315860Y-99044069D01*
X162275850Y-98998940D01*
X162218700Y-98946224D01*
X161710700Y-99235115D01*
X161563754Y-99317800D01*
X161430145Y-99391313D01*
X161316627Y-99452072D01*
X161229952Y-99496498D01*
X161176875Y-99521008D01*
X161164586Y-99524702D01*
X161137920Y-99506629D01*
X161086290Y-99457426D01*
X161016923Y-99385258D01*
X160937046Y-99298295D01*
X160853885Y-99204704D01*
X160774668Y-99112653D01*
X160706621Y-99030309D01*
X160656971Y-98965840D01*
X160632945Y-98927414D01*
X160631789Y-98922538D01*
X160653394Y-98905688D01*
X160713859Y-98868485D01*
X160807163Y-98814373D01*
X160927284Y-98746794D01*
X161068200Y-98669194D01*
X161192616Y-98601805D01*
X161752853Y-98300510D01*
X161683312Y-98227925D01*
X161613772Y-98155341D01*
X161357436Y-98292747D01*
X161244108Y-98353447D01*
X161100741Y-98430163D01*
X160942112Y-98514993D01*
X160782998Y-98600033D01*
X160703633Y-98642429D01*
X160306166Y-98854704D01*
X160224649Y-98854704D01*
X160239688Y-98839481D01*
X160314209Y-98788728D01*
X160434431Y-98716350D01*
X160600250Y-98622411D01*
X160811562Y-98506970D01*
X160921082Y-98448229D01*
X161093140Y-98356644D01*
X161250666Y-98273290D01*
X161388118Y-98201059D01*
X161499953Y-98142845D01*
X161580630Y-98101542D01*
X161624607Y-98080043D01*
X161630968Y-98077600D01*
X161661095Y-98096184D01*
G36*
X169441760Y-92227921D02*
G01*
X169499995Y-92279146D01*
X169587877Y-92360961D01*
X169702518Y-92470454D01*
X169841033Y-92604715D01*
X170000533Y-92760831D01*
X170178131Y-92935891D01*
X170370941Y-93126983D01*
X170576076Y-93331194D01*
X170790648Y-93545613D01*
X171011770Y-93767329D01*
X171236556Y-93993430D01*
X171462118Y-94221003D01*
X171685569Y-94447137D01*
X171904022Y-94668920D01*
X172114591Y-94883441D01*
X172314387Y-95087787D01*
X172500524Y-95279047D01*
X172670116Y-95454309D01*
X172820274Y-95610661D01*
X172948112Y-95745192D01*
X173050742Y-95854989D01*
X173125279Y-95937142D01*
X173168834Y-95988737D01*
X173179443Y-96005825D01*
X173171112Y-96041716D01*
X173147180Y-96119169D01*
X173109719Y-96232118D01*
X173060802Y-96374499D01*
X173002501Y-96540245D01*
X172936888Y-96723292D01*
X172893804Y-96841827D01*
X172813363Y-97061011D01*
X172747370Y-97237979D01*
X172693355Y-97378416D01*
X172648844Y-97488006D01*
X172611367Y-97572432D01*
X172578452Y-97637378D01*
X172547627Y-97688528D01*
X172516420Y-97731566D01*
X172496173Y-97756227D01*
X172441150Y-97811352D01*
X172350842Y-97890405D01*
X172231609Y-97988226D01*
X172089813Y-98099652D01*
X171931815Y-98219524D01*
X171854712Y-98276620D01*
X171711994Y-98382136D01*
X171583818Y-98478143D01*
X171475597Y-98560487D01*
X171392745Y-98625010D01*
X171340673Y-98667556D01*
X171324600Y-98683637D01*
X171341199Y-98706719D01*
X171387447Y-98760699D01*
X171458020Y-98839633D01*
X171547595Y-98937576D01*
X171650847Y-99048580D01*
X171662728Y-99061245D01*
X171811611Y-99223034D01*
X171927274Y-99357628D01*
X172013958Y-99472143D01*
X172075903Y-99573695D01*
X172117353Y-99669399D01*
X172142548Y-99766370D01*
X172155729Y-99871726D01*
X172157053Y-99890562D01*
X172160757Y-99999782D01*
X172153247Y-100078132D01*
X172131821Y-100144827D01*
X172116881Y-100176232D01*
X172075815Y-100246799D01*
X172035625Y-100300726D01*
X172024581Y-100311570D01*
X171992152Y-100342898D01*
X171934025Y-100403145D01*
X171858551Y-100483527D01*
X171777391Y-100571628D01*
X171570533Y-100798214D01*
X171609243Y-100879357D01*
X171640662Y-100927558D01*
X171699658Y-101002844D01*
X171778459Y-101095813D01*
X171869296Y-101197065D01*
X171892677Y-101222250D01*
X171981132Y-101319836D01*
X172055353Y-101407389D01*
X172108970Y-101476956D01*
X172135612Y-101520584D01*
X172137400Y-101527784D01*
X172118967Y-101563143D01*
X172068018Y-101624276D01*
X171991075Y-101705297D01*
X171894660Y-101800320D01*
X171785297Y-101903458D01*
X171669507Y-102008825D01*
X171553813Y-102110534D01*
X171444738Y-102202699D01*
X171348805Y-102279434D01*
X171272536Y-102334851D01*
X171222453Y-102363065D01*
X171209502Y-102365189D01*
X171181718Y-102344693D01*
X171126427Y-102292980D01*
X171050161Y-102216541D01*
X170959453Y-102121866D01*
X170894991Y-102052700D01*
X170738155Y-101874921D01*
X170618626Y-101720736D01*
X170532644Y-101583831D01*
X170476452Y-101457895D01*
X170446290Y-101336617D01*
X170440835Y-101289987D01*
X170435291Y-101192259D01*
X170439860Y-101112057D01*
X170459040Y-101039664D01*
X170497332Y-100965361D01*
X170559235Y-100879428D01*
X170649249Y-100772148D01*
X170715263Y-100697269D01*
X170831716Y-100562271D01*
X170911921Y-100459812D01*
X170957136Y-100388169D01*
X170969000Y-100350289D01*
X170959795Y-100314107D01*
X170930287Y-100262009D01*
X170877638Y-100190537D01*
X170799009Y-100096229D01*
X170691559Y-99975626D01*
X170552451Y-99825267D01*
X170442899Y-99709084D01*
X170219700Y-99473668D01*
X167882900Y-101188688D01*
X167576926Y-101413404D01*
X167282508Y-101629940D01*
X167002226Y-101836381D01*
X166738661Y-102030813D01*
X166494396Y-102211320D01*
X166272011Y-102375990D01*
X166074087Y-102522906D01*
X165903207Y-102650155D01*
X165761951Y-102755821D01*
X165652901Y-102837991D01*
X165578637Y-102894749D01*
X165541743Y-102924181D01*
X165538024Y-102927881D01*
X165551563Y-102953357D01*
X165593986Y-103011023D01*
X165660567Y-103094974D01*
X165746581Y-103199308D01*
X165847305Y-103318119D01*
X165888578Y-103365977D01*
X166001284Y-103497497D01*
X166108255Y-103624969D01*
X166202887Y-103740323D01*
X166278577Y-103835486D01*
X166328723Y-103902387D01*
X166335654Y-103912486D01*
X166441989Y-104102947D01*
X166514166Y-104299923D01*
X166547603Y-104489941D01*
X166549400Y-104540972D01*
X166548345Y-104616718D01*
X166541224Y-104672832D01*
X166522098Y-104722658D01*
X166485027Y-104779541D01*
X166424075Y-104856823D01*
X166390650Y-104897691D01*
X166289851Y-105020267D01*
X166216788Y-105109614D01*
X166167764Y-105172408D01*
X166139083Y-105215331D01*
X166127049Y-105245060D01*
X166127966Y-105268273D01*
X166138138Y-105291651D01*
X166153870Y-105321871D01*
X166154815Y-105323848D01*
X166184385Y-105370987D01*
X166241108Y-105448402D01*
X166318758Y-105548076D01*
X166411105Y-105661993D01*
X166499693Y-105767785D01*
X166595932Y-105882119D01*
X166679611Y-105983728D01*
X166745539Y-106066129D01*
X166788527Y-106122840D01*
X166803400Y-106147185D01*
X166790239Y-106172220D01*
X166749411Y-106218357D01*
X166678891Y-106287462D01*
X166576658Y-106381401D01*
X166440690Y-106502039D01*
X166268963Y-106651242D01*
X166097045Y-106798777D01*
X165965925Y-106909773D01*
X165846606Y-107008775D01*
X165744767Y-107091234D01*
X165666088Y-107152597D01*
X165616251Y-107188313D01*
X165601745Y-107195629D01*
X165577012Y-107176714D01*
X165525619Y-107124279D01*
X165452920Y-107044247D01*
X165364268Y-106942540D01*
X165265020Y-106825081D01*
X165245514Y-106801601D01*
X165084119Y-106602371D01*
X164955159Y-106432432D01*
X164854731Y-106285577D01*
X164778930Y-106155597D01*
X164723852Y-106036288D01*
X164685594Y-105921440D01*
X164681033Y-105904089D01*
X164658322Y-105795633D01*
X164654013Y-105704433D01*
X164671555Y-105618738D01*
X164714393Y-105526797D01*
X164785976Y-105416860D01*
X164849292Y-105330530D01*
X164919115Y-105234555D01*
X164975648Y-105150975D01*
X165012717Y-105089318D01*
X165024335Y-105060367D01*
X165012148Y-105014879D01*
X164983805Y-104951482D01*
X164979885Y-104944077D01*
X164949190Y-104897912D01*
X164893369Y-104824202D01*
X164817779Y-104729227D01*
X164727775Y-104619266D01*
X164628716Y-104500599D01*
X164525958Y-104379505D01*
X164424857Y-104262263D01*
X164330770Y-104155153D01*
X164249055Y-104064454D01*
X164185067Y-103996446D01*
X164144164Y-103957408D01*
X164132360Y-103950579D01*
X164107863Y-103966716D01*
X164046193Y-104010206D01*
X163951114Y-104078319D01*
X163826391Y-104168331D01*
X163675788Y-104277512D01*
X163503069Y-104403136D01*
X163312000Y-104542476D01*
X163106343Y-104692804D01*
X162960084Y-104799912D01*
X161812300Y-105641081D01*
X161624252Y-105650290D01*
X161436204Y-105659500D01*
X159515289Y-103290044D01*
X157594373Y-100920589D01*
X157220946Y-100253704D01*
X156847519Y-99586820D01*
X156859063Y-99456339D01*
X156924466Y-99456339D01*
X156936113Y-99547355D01*
X156968561Y-99645660D01*
X157021046Y-99757551D01*
X157092803Y-99889326D01*
X157183069Y-100047280D01*
X157280380Y-100218594D01*
X157646243Y-100871141D01*
X159102831Y-102668420D01*
X159328780Y-102947215D01*
X159554741Y-103226016D01*
X159777410Y-103500751D01*
X159993486Y-103767345D01*
X160199667Y-104021724D01*
X160392650Y-104259814D01*
X160569133Y-104477541D01*
X160725814Y-104670831D01*
X160859390Y-104835610D01*
X160966561Y-104967803D01*
X161023322Y-105037810D01*
X161487225Y-105609920D01*
X161629588Y-105596610D01*
X161660511Y-105593199D01*
X161690570Y-105587500D01*
X161723265Y-105577190D01*
X161762097Y-105559948D01*
X161810567Y-105533451D01*
X161872176Y-105495378D01*
X161950425Y-105443406D01*
X162048814Y-105375214D01*
X162170846Y-105288478D01*
X162320021Y-105180878D01*
X162499840Y-105050091D01*
X162713804Y-104893795D01*
X162951709Y-104719700D01*
X163207172Y-104532431D01*
X163424630Y-104372334D01*
X163607294Y-104236886D01*
X163758376Y-104123562D01*
X163881086Y-104029839D01*
X163978637Y-103953194D01*
X164054240Y-103891102D01*
X164066570Y-103880247D01*
X164196743Y-103880247D01*
X164592021Y-104346296D01*
X164705589Y-104481408D01*
X164810108Y-104608035D01*
X164900348Y-104719658D01*
X164971078Y-104809760D01*
X165017069Y-104871823D01*
X165030685Y-104893023D01*
X165065746Y-104972837D01*
X165076644Y-105046641D01*
X165060811Y-105124184D01*
X165015677Y-105215214D01*
X164938672Y-105329480D01*
X164902890Y-105377867D01*
X164831558Y-105476189D01*
X164771538Y-105565111D01*
X164729875Y-105633808D01*
X164714273Y-105667742D01*
X164711941Y-105747182D01*
X164733677Y-105856690D01*
X164775701Y-105983846D01*
X164834235Y-106116231D01*
X164872270Y-106187072D01*
X164921066Y-106262913D01*
X164995434Y-106367378D01*
X165087907Y-106490500D01*
X165191022Y-106622312D01*
X165284106Y-106736937D01*
X165596900Y-107114829D01*
X165658858Y-107054878D01*
X165698609Y-107011276D01*
X165703507Y-106981011D01*
X165681729Y-106949513D01*
X165608582Y-106863337D01*
X165523386Y-106761081D01*
X165432365Y-106650441D01*
X165341747Y-106539114D01*
X165257757Y-106434796D01*
X165186623Y-106345183D01*
X165134569Y-106277972D01*
X165107822Y-106240860D01*
X165106311Y-106238236D01*
X165085967Y-106182753D01*
X165085783Y-106182002D01*
X165153693Y-106182002D01*
X165168708Y-106205192D01*
X165211281Y-106261113D01*
X165276435Y-106343481D01*
X165359196Y-106446010D01*
X165454588Y-106562415D01*
X165460572Y-106569663D01*
X165569277Y-106700348D01*
X165651032Y-106795784D01*
X165710474Y-106860507D01*
X165752246Y-106899050D01*
X165780986Y-106915947D01*
X165801335Y-106915733D01*
X165809641Y-106910761D01*
X165840383Y-106885313D01*
X165903470Y-106832085D01*
X165992681Y-106756361D01*
X166101794Y-106663427D01*
X166224589Y-106558568D01*
X166276169Y-106514447D01*
X166399920Y-106407815D01*
X166509521Y-106311984D01*
X166599433Y-106231913D01*
X166664120Y-106172557D01*
X166698045Y-106138873D01*
X166701800Y-106133436D01*
X166686167Y-106109339D01*
X166642997Y-106053663D01*
X166577875Y-105973346D01*
X166496392Y-105875322D01*
X166440971Y-105809716D01*
X166348654Y-105700396D01*
X166265690Y-105600899D01*
X166198772Y-105519345D01*
X166154590Y-105463853D01*
X166142521Y-105447553D01*
X166124946Y-105424797D01*
X166105820Y-105416109D01*
X166077316Y-105425431D01*
X166031607Y-105456703D01*
X165960866Y-105513866D01*
X165885928Y-105576726D01*
X165772510Y-105671116D01*
X165638141Y-105781260D01*
X165501880Y-105891607D01*
X165410971Y-105964300D01*
X165314891Y-106041557D01*
X165235049Y-106107637D01*
X165178985Y-106156162D01*
X165154240Y-106180751D01*
X165153693Y-106182002D01*
X165085783Y-106182002D01*
X165067620Y-106107952D01*
X165066141Y-106100045D01*
X165061026Y-106058074D01*
X165065878Y-106019765D01*
X165085615Y-105975793D01*
X165110356Y-105938900D01*
X165177800Y-105938900D01*
X165190500Y-105951600D01*
X165203200Y-105938900D01*
X165190500Y-105926200D01*
X165177800Y-105938900D01*
X165110356Y-105938900D01*
X165125155Y-105916833D01*
X165189414Y-105833562D01*
X165204171Y-105815132D01*
X165302824Y-105815132D01*
X165308508Y-105819138D01*
X165338761Y-105800261D01*
X165396971Y-105756278D01*
X165486523Y-105684966D01*
X165610802Y-105584101D01*
X165654223Y-105548678D01*
X165777126Y-105447499D01*
X165885446Y-105356706D01*
X165973389Y-105281290D01*
X166035158Y-105226245D01*
X166064958Y-105196560D01*
X166066800Y-105193302D01*
X166082263Y-105167472D01*
X166124128Y-105111915D01*
X166185607Y-105035361D01*
X166244600Y-104964575D01*
X166316776Y-104878255D01*
X166374865Y-104806864D01*
X166412122Y-104758817D01*
X166422400Y-104742780D01*
X166403627Y-104754637D01*
X166350993Y-104794251D01*
X166270023Y-104857295D01*
X166166244Y-104939443D01*
X166045183Y-105036369D01*
X165974086Y-105093723D01*
X165804201Y-105233567D01*
X165669221Y-105349954D01*
X165570931Y-105441252D01*
X165511115Y-105505833D01*
X165493685Y-105532769D01*
X165461054Y-105592487D01*
X165407699Y-105672570D01*
X165351623Y-105747362D01*
X165318324Y-105790465D01*
X165302824Y-105815132D01*
X165204171Y-105815132D01*
X165240003Y-105770384D01*
X165327781Y-105658096D01*
X165387729Y-105571842D01*
X165426454Y-105500308D01*
X165450563Y-105432179D01*
X165459485Y-105394489D01*
X165482009Y-105311436D01*
X165516354Y-105243413D01*
X165571571Y-105178470D01*
X165656708Y-105104659D01*
X165710820Y-105062600D01*
X165776359Y-105011787D01*
X165831603Y-104967523D01*
X165839446Y-104961000D01*
X165879440Y-104927502D01*
X165922591Y-104891796D01*
X165976638Y-104847567D01*
X166049321Y-104788501D01*
X166148377Y-104708282D01*
X166237722Y-104636025D01*
X166497545Y-104425957D01*
X166435060Y-104259950D01*
X166388187Y-104150807D01*
X166331311Y-104039526D01*
X166289282Y-103969671D01*
X166252846Y-103920316D01*
X166192039Y-103843521D01*
X166112038Y-103745366D01*
X166018017Y-103631934D01*
X165915153Y-103509306D01*
X165808620Y-103383562D01*
X165703595Y-103260784D01*
X165605253Y-103147052D01*
X165518770Y-103048449D01*
X165449321Y-102971056D01*
X165402081Y-102920952D01*
X165382456Y-102904172D01*
X165358748Y-102918650D01*
X165301211Y-102958341D01*
X165216800Y-103018171D01*
X165112471Y-103093065D01*
X164995177Y-103177950D01*
X164871876Y-103267752D01*
X164749522Y-103357397D01*
X164635070Y-103441811D01*
X164535475Y-103515921D01*
X164457693Y-103574652D01*
X164408680Y-103612931D01*
X164396530Y-103623404D01*
X164392241Y-103640564D01*
X164404354Y-103672020D01*
X164435912Y-103721919D01*
X164489960Y-103794410D01*
X164569539Y-103893643D01*
X164677693Y-104023767D01*
X164772562Y-104136079D01*
X164891523Y-104277547D01*
X165004743Y-104414493D01*
X165106286Y-104539561D01*
X165190214Y-104645391D01*
X165250593Y-104724626D01*
X165273513Y-104757040D01*
X165338141Y-104864198D01*
X165394986Y-104976324D01*
X165439380Y-105082049D01*
X165466652Y-105169999D01*
X165472133Y-105228803D01*
X165470213Y-105236041D01*
X165454628Y-105243448D01*
X165428397Y-105207490D01*
X165389777Y-105125652D01*
X165383563Y-105111057D01*
X165330967Y-104999009D01*
X165267554Y-104881369D01*
X165220971Y-104805216D01*
X165178740Y-104746729D01*
X165113210Y-104662299D01*
X165029530Y-104558013D01*
X164932852Y-104439959D01*
X164828326Y-104314226D01*
X164721102Y-104186901D01*
X164616333Y-104064072D01*
X164519168Y-103951827D01*
X164434758Y-103856255D01*
X164368254Y-103783443D01*
X164324807Y-103739480D01*
X164310531Y-103729100D01*
X164283648Y-103748744D01*
X164247324Y-103796823D01*
X164242455Y-103804673D01*
X164196743Y-103880247D01*
X164066570Y-103880247D01*
X164111106Y-103841040D01*
X164152446Y-103800484D01*
X164181473Y-103766911D01*
X164201397Y-103737797D01*
X164201585Y-103737479D01*
X164231224Y-103694393D01*
X164273449Y-103646973D01*
X164333277Y-103591003D01*
X164415728Y-103522265D01*
X164525819Y-103436540D01*
X164668568Y-103329612D01*
X164813541Y-103223129D01*
X164959627Y-103117320D01*
X165093301Y-103022182D01*
X165208816Y-102941671D01*
X165300427Y-102879742D01*
X165362387Y-102840348D01*
X165388510Y-102827400D01*
X165437151Y-102843595D01*
X165445770Y-102850391D01*
X165469736Y-102839074D01*
X165532952Y-102798545D01*
X165633897Y-102729894D01*
X165771047Y-102634210D01*
X165942880Y-102512585D01*
X166147875Y-102366107D01*
X166384508Y-102195868D01*
X166651258Y-102002956D01*
X166946602Y-101788462D01*
X167269018Y-101553477D01*
X167616983Y-101299089D01*
X167819400Y-101150790D01*
X168204288Y-100868373D01*
X168549860Y-100614302D01*
X168857976Y-100387172D01*
X169130496Y-100185576D01*
X169369281Y-100008109D01*
X169576191Y-99853367D01*
X169753086Y-99719943D01*
X169901827Y-99606433D01*
X170024274Y-99511430D01*
X170122288Y-99433530D01*
X170132679Y-99424962D01*
X170278010Y-99424962D01*
X170502855Y-99666068D01*
X170650654Y-99824932D01*
X170767269Y-99951725D01*
X170856383Y-100051321D01*
X170921679Y-100128593D01*
X170966841Y-100188416D01*
X170995551Y-100235663D01*
X171011492Y-100275209D01*
X171018347Y-100311928D01*
X171019800Y-100350181D01*
X171017931Y-100395740D01*
X171008925Y-100436426D01*
X170987681Y-100480235D01*
X170949102Y-100535164D01*
X170888086Y-100609209D01*
X170799534Y-100710368D01*
X170766063Y-100748069D01*
X170655118Y-100875793D01*
X170575919Y-100976242D01*
X170524235Y-101058010D01*
X170495839Y-101129690D01*
X170486499Y-101199874D01*
X170491987Y-101277156D01*
X170495161Y-101298469D01*
X170536987Y-101435221D01*
X170622601Y-101594159D01*
X170752349Y-101775821D01*
X170926576Y-101980746D01*
X170943600Y-101999421D01*
X171210300Y-102290544D01*
X171292544Y-102211385D01*
X171341900Y-102161171D01*
X171358481Y-102129439D01*
X171346903Y-102100284D01*
X171330644Y-102080102D01*
X171295960Y-102040780D01*
X171235709Y-101974061D01*
X171158849Y-101889818D01*
X171087092Y-101811739D01*
X170967271Y-101678931D01*
X170882998Y-101573092D01*
X170836380Y-101489443D01*
X170930900Y-101489443D01*
X170947273Y-101522026D01*
X170992315Y-101583894D01*
X171059904Y-101667311D01*
X171143922Y-101764542D01*
X171182744Y-101807757D01*
X171434588Y-102084907D01*
X171747894Y-101815980D01*
X171853278Y-101724229D01*
X171943556Y-101643164D01*
X172012252Y-101578798D01*
X172052891Y-101537144D01*
X172061200Y-101524965D01*
X172044661Y-101498753D01*
X171999784Y-101444419D01*
X171933675Y-101370232D01*
X171863676Y-101295189D01*
X171777501Y-101203345D01*
X171698953Y-101117420D01*
X171638054Y-101048497D01*
X171609708Y-101014265D01*
X171553264Y-100941031D01*
X171242082Y-101194655D01*
X171135693Y-101283858D01*
X171044956Y-101364693D01*
X170976645Y-101430741D01*
X170937535Y-101475585D01*
X170930900Y-101489443D01*
X170836380Y-101489443D01*
X170833999Y-101485172D01*
X170819998Y-101406123D01*
X170840722Y-101326894D01*
X170895894Y-101238436D01*
X170913326Y-101217610D01*
X170969000Y-101217610D01*
X170981355Y-101225212D01*
X171015121Y-101192584D01*
X171023039Y-101182750D01*
X171045007Y-101152663D01*
X171031853Y-101158971D01*
X171013450Y-101173160D01*
X170978272Y-101204493D01*
X170969000Y-101217610D01*
X170913326Y-101217610D01*
X170985240Y-101131699D01*
X171060816Y-101049024D01*
X171169618Y-101049024D01*
X171183285Y-101042144D01*
X171229940Y-101005457D01*
X171302064Y-100946369D01*
X171382993Y-100874471D01*
X171484948Y-100776110D01*
X171595834Y-100663336D01*
X171703555Y-100548205D01*
X171721164Y-100528730D01*
X171972300Y-100249360D01*
X171708870Y-100464264D01*
X171604215Y-100553189D01*
X171509027Y-100640530D01*
X171433220Y-100716762D01*
X171386708Y-100772357D01*
X171384115Y-100776311D01*
X171329389Y-100854436D01*
X171260683Y-100941559D01*
X171228445Y-100979046D01*
X171185739Y-101027518D01*
X171169618Y-101049024D01*
X171060816Y-101049024D01*
X171063826Y-101045732D01*
X171173776Y-100920341D01*
X171267740Y-100800157D01*
X171341913Y-100691337D01*
X171392491Y-100600036D01*
X171415671Y-100532409D01*
X171407647Y-100494612D01*
X171405424Y-100492984D01*
X171384721Y-100459991D01*
X171365013Y-100398939D01*
X171362761Y-100389000D01*
X171345180Y-100318391D01*
X171321704Y-100251661D01*
X171288587Y-100183770D01*
X171242085Y-100109676D01*
X171178453Y-100024340D01*
X171093945Y-99922719D01*
X170984817Y-99799775D01*
X170847322Y-99650465D01*
X170687501Y-99480121D01*
X170441181Y-99218942D01*
X170359596Y-99321952D01*
X170278010Y-99424962D01*
X170132679Y-99424962D01*
X170197728Y-99371328D01*
X170252455Y-99323417D01*
X170288330Y-99288392D01*
X170295900Y-99279948D01*
X170362766Y-99210492D01*
X170411709Y-99166091D01*
X170517551Y-99166091D01*
X170532113Y-99189695D01*
X170576762Y-99244344D01*
X170646503Y-99324347D01*
X170736340Y-99424011D01*
X170841276Y-99537643D01*
X170879078Y-99577994D01*
X171023287Y-99733856D01*
X171136539Y-99863121D01*
X171224754Y-99974129D01*
X171293852Y-100075220D01*
X171349754Y-100174735D01*
X171398380Y-100281015D01*
X171424620Y-100346545D01*
X171458545Y-100398512D01*
X171498005Y-100400592D01*
X171538482Y-100352694D01*
X171540500Y-100348894D01*
X171576536Y-100309402D01*
X171603249Y-100300100D01*
X171643508Y-100279808D01*
X171666749Y-100249300D01*
X171702542Y-100208749D01*
X171730249Y-100198500D01*
X171770508Y-100178208D01*
X171793749Y-100147700D01*
X171829542Y-100107149D01*
X171857249Y-100096900D01*
X171897508Y-100076608D01*
X171920749Y-100046100D01*
X171956542Y-100005549D01*
X171984249Y-99995300D01*
X172023088Y-99974812D01*
X172050017Y-99938300D01*
X172077709Y-99902225D01*
X172098184Y-99900200D01*
X172110545Y-99898832D01*
X172107085Y-99861288D01*
X172090879Y-99798547D01*
X172065001Y-99721589D01*
X172032525Y-99641392D01*
X172015531Y-99605041D01*
X171965305Y-99524685D01*
X171878119Y-99411788D01*
X171755003Y-99267531D01*
X171596987Y-99093099D01*
X171405101Y-98889673D01*
X171276804Y-98756926D01*
X171183906Y-98661553D01*
X170854203Y-98903824D01*
X170742324Y-98986915D01*
X170645829Y-99060256D01*
X170571790Y-99118336D01*
X170527279Y-99155648D01*
X170517551Y-99166091D01*
X170411709Y-99166091D01*
X170454097Y-99127638D01*
X170562845Y-99036557D01*
X170681959Y-98942422D01*
X170804391Y-98850405D01*
X170923093Y-98765678D01*
X171031015Y-98693414D01*
X171121108Y-98638784D01*
X171186324Y-98606961D01*
X171218948Y-98602647D01*
X171240076Y-98604236D01*
X171278165Y-98589560D01*
X171337323Y-98555982D01*
X171421656Y-98500866D01*
X171535272Y-98421574D01*
X171682277Y-98315468D01*
X171796173Y-98231981D01*
X171959261Y-98109985D01*
X172109630Y-97993763D01*
X172240916Y-97888476D01*
X172346756Y-97799288D01*
X172420785Y-97731360D01*
X172445120Y-97705540D01*
X172477874Y-97664553D01*
X172508769Y-97618825D01*
X172540291Y-97562662D01*
X172574923Y-97490368D01*
X172615151Y-97396249D01*
X172663458Y-97274609D01*
X172722331Y-97119753D01*
X172794252Y-96925986D01*
X172842523Y-96794625D01*
X173128547Y-96014468D01*
X172113931Y-94982284D01*
X171890679Y-94755536D01*
X171648595Y-94510323D01*
X171395528Y-94254554D01*
X171139328Y-93996137D01*
X170887841Y-93742983D01*
X170648917Y-93502999D01*
X170430404Y-93284095D01*
X170253108Y-93107086D01*
X169406900Y-92264072D01*
X165857836Y-93964336D01*
X165457717Y-94155890D01*
X165069742Y-94341372D01*
X164696413Y-94519598D01*
X164340233Y-94689382D01*
X164003705Y-94849541D01*
X163689329Y-94998891D01*
X163399609Y-95136246D01*
X163137046Y-95260423D01*
X162904144Y-95370238D01*
X162703404Y-95464506D01*
X162537328Y-95542043D01*
X162408420Y-95601665D01*
X162319180Y-95642187D01*
X162272111Y-95662425D01*
X162265373Y-95664599D01*
X162214824Y-95680788D01*
X162169537Y-95711929D01*
X162139229Y-95729729D01*
X162066426Y-95767706D01*
X161954502Y-95824210D01*
X161806834Y-95897590D01*
X161626795Y-95986196D01*
X161417763Y-96088377D01*
X161183113Y-96202482D01*
X160926219Y-96326862D01*
X160650458Y-96459866D01*
X160359205Y-96599843D01*
X160085100Y-96731148D01*
X158053100Y-97703038D01*
X157489479Y-98494369D01*
X157334144Y-98710679D01*
X157204955Y-98890199D01*
X157101148Y-99039225D01*
X157021959Y-99164055D01*
X156966625Y-99270986D01*
X156934382Y-99366315D01*
X156924466Y-99456339D01*
X156859063Y-99456339D01*
X156878797Y-99233300D01*
X157440548Y-98442780D01*
X158002300Y-97652261D01*
X159107200Y-97123208D01*
X159349607Y-97007118D01*
X159595855Y-96889154D01*
X159838487Y-96772891D01*
X160070047Y-96661902D01*
X160283076Y-96559762D01*
X160470119Y-96470046D01*
X160623718Y-96396329D01*
X160703148Y-96358177D01*
X161194197Y-96122199D01*
X161036754Y-95945048D01*
X160879312Y-95767896D01*
X160898770Y-95688492D01*
X160966762Y-95688492D01*
X160967836Y-95726472D01*
X160982205Y-95764351D01*
X161015087Y-95811362D01*
X161071701Y-95876737D01*
X161157263Y-95969709D01*
X161162860Y-95975750D01*
X161226389Y-96038428D01*
X161275668Y-96065569D01*
X161327006Y-96062215D01*
X161377805Y-96042205D01*
X161441001Y-96013411D01*
X161233885Y-95775505D01*
X161153535Y-95684761D01*
X161084740Y-95609969D01*
X161034465Y-95558498D01*
X161009675Y-95537716D01*
X161009017Y-95537600D01*
X160994233Y-95560014D01*
X160978516Y-95616172D01*
X160973765Y-95641180D01*
X160966762Y-95688492D01*
X160898770Y-95688492D01*
X160953546Y-95464972D01*
X161068901Y-95464972D01*
X161068951Y-95465220D01*
X161087662Y-95491839D01*
X161131520Y-95545968D01*
X161192652Y-95618560D01*
X161263187Y-95700566D01*
X161335252Y-95782940D01*
X161400977Y-95856632D01*
X161452489Y-95912596D01*
X161481916Y-95941783D01*
X161485503Y-95944000D01*
X161514020Y-95933516D01*
X161566550Y-95908198D01*
X161568414Y-95907236D01*
X161603333Y-95883572D01*
X161615505Y-95867800D01*
X161709997Y-95867800D01*
X161734709Y-95858026D01*
X161794199Y-95832039D01*
X161877086Y-95794837D01*
X161904871Y-95782210D01*
X161997683Y-95736841D01*
X162074674Y-95693610D01*
X162121935Y-95660467D01*
X162127052Y-95655210D01*
X162176504Y-95620817D01*
X162208430Y-95613800D01*
X162253535Y-95604059D01*
X162319537Y-95579708D01*
X162390462Y-95548052D01*
X162450340Y-95516393D01*
X162483197Y-95492038D01*
X162485400Y-95487133D01*
X162468625Y-95463180D01*
X162424548Y-95414415D01*
X162362538Y-95351180D01*
X162359540Y-95348223D01*
X162298871Y-95283964D01*
X162258389Y-95232258D01*
X162247117Y-95205474D01*
X162309358Y-95205474D01*
X162441829Y-95332889D01*
X162506596Y-95394926D01*
X162554613Y-95440429D01*
X162576546Y-95460560D01*
X162576984Y-95460852D01*
X162599573Y-95450565D01*
X162661006Y-95421557D01*
X162754348Y-95377131D01*
X162872664Y-95320586D01*
X163009020Y-95255227D01*
X163033728Y-95243366D01*
X163487788Y-95025332D01*
X163367344Y-94911533D01*
X163295021Y-94847917D01*
X163244028Y-94816965D01*
X163202945Y-94812506D01*
X163190000Y-94815674D01*
X163165957Y-94823974D01*
X163133362Y-94836961D01*
X163086132Y-94857378D01*
X163018183Y-94887972D01*
X162923431Y-94931486D01*
X162795794Y-94990666D01*
X162629187Y-95068256D01*
X162599700Y-95082006D01*
X162508682Y-95123546D01*
X162426200Y-95159654D01*
X162378329Y-95179276D01*
X162309358Y-95205474D01*
X162247117Y-95205474D01*
X162246411Y-95203798D01*
X162246739Y-95203128D01*
X162231325Y-95191632D01*
X162177899Y-95183958D01*
X162120856Y-95182000D01*
X162035772Y-95185375D01*
X161981569Y-95200489D01*
X161938509Y-95234827D01*
X161916825Y-95259354D01*
X161867225Y-95336546D01*
X161828620Y-95427383D01*
X161823963Y-95443504D01*
X161801200Y-95527684D01*
X161771476Y-95633329D01*
X161749563Y-95709050D01*
X161726851Y-95789737D01*
X161712647Y-95846890D01*
X161709997Y-95867800D01*
X161615505Y-95867800D01*
X161631499Y-95847077D01*
X161657935Y-95787495D01*
X161687665Y-95694567D01*
X161708360Y-95621486D01*
X161749417Y-95475874D01*
X161781937Y-95370421D01*
X161809912Y-95296055D01*
X161837332Y-95243705D01*
X161868189Y-95204298D01*
X161906472Y-95168764D01*
X161908143Y-95167354D01*
X161957437Y-95116297D01*
X161962500Y-95081876D01*
X161958263Y-95076503D01*
X161928636Y-95074739D01*
X161862085Y-95093791D01*
X161756407Y-95134478D01*
X161609401Y-95197621D01*
X161497015Y-95248187D01*
X161361268Y-95311149D01*
X161243551Y-95367874D01*
X161150896Y-95414796D01*
X161090336Y-95448351D01*
X161068901Y-95464972D01*
X160953546Y-95464972D01*
X160965224Y-95417322D01*
X161414162Y-95212312D01*
X161584820Y-95134261D01*
X161715175Y-95074975D01*
X161811332Y-95032560D01*
X161879397Y-95005124D01*
X161925476Y-94990774D01*
X161955677Y-94987616D01*
X161976104Y-94993759D01*
X161992864Y-95007308D01*
X162012064Y-95026371D01*
X162012537Y-95026816D01*
X162070489Y-95081259D01*
X162509872Y-94877629D01*
X162688206Y-94797297D01*
X162835615Y-94735720D01*
X162947947Y-94694504D01*
X163021053Y-94675256D01*
X163035643Y-94673999D01*
X163161578Y-94694208D01*
X163288714Y-94756948D01*
X163420946Y-94862979D01*
X163486525Y-94921770D01*
X163538228Y-94963455D01*
X163564335Y-94978799D01*
X163589254Y-94968035D01*
X163657225Y-94936615D01*
X163765494Y-94885850D01*
X163911308Y-94817048D01*
X164091913Y-94731520D01*
X164304554Y-94630575D01*
X164546479Y-94515523D01*
X164814933Y-94387674D01*
X165107163Y-94248336D01*
X165420414Y-94098821D01*
X165751933Y-93940437D01*
X166098967Y-93774494D01*
X166458761Y-93602301D01*
X166475056Y-93594500D01*
X166835927Y-93421898D01*
X167184587Y-93255501D01*
X167518244Y-93096621D01*
X167834110Y-92946571D01*
X168129392Y-92806666D01*
X168401301Y-92678218D01*
X168647047Y-92562540D01*
X168863840Y-92460947D01*
X169048888Y-92374751D01*
X169199401Y-92305266D01*
X169312590Y-92253806D01*
X169385664Y-92221683D01*
X169415832Y-92210211D01*
X169416059Y-92210200D01*
X169441760Y-92227921D01*
X169441760Y-92227921D01*
G37*
X169441760Y-92227921D02*
X169499995Y-92279146D01*
X169587877Y-92360961D01*
X169702518Y-92470454D01*
X169841033Y-92604715D01*
X170000533Y-92760831D01*
X170178131Y-92935891D01*
X170370941Y-93126983D01*
X170576076Y-93331194D01*
X170790648Y-93545613D01*
X171011770Y-93767329D01*
X171236556Y-93993430D01*
X171462118Y-94221003D01*
X171685569Y-94447137D01*
X171904022Y-94668920D01*
X172114591Y-94883441D01*
X172314387Y-95087787D01*
X172500524Y-95279047D01*
X172670116Y-95454309D01*
X172820274Y-95610661D01*
X172948112Y-95745192D01*
X173050742Y-95854989D01*
X173125279Y-95937142D01*
X173168834Y-95988737D01*
X173179443Y-96005825D01*
X173171112Y-96041716D01*
X173147180Y-96119169D01*
X173109719Y-96232118D01*
X173060802Y-96374499D01*
X173002501Y-96540245D01*
X172936888Y-96723292D01*
X172893804Y-96841827D01*
X172813363Y-97061011D01*
X172747370Y-97237979D01*
X172693355Y-97378416D01*
X172648844Y-97488006D01*
X172611367Y-97572432D01*
X172578452Y-97637378D01*
X172547627Y-97688528D01*
X172516420Y-97731566D01*
X172496173Y-97756227D01*
X172441150Y-97811352D01*
X172350842Y-97890405D01*
X172231609Y-97988226D01*
X172089813Y-98099652D01*
X171931815Y-98219524D01*
X171854712Y-98276620D01*
X171711994Y-98382136D01*
X171583818Y-98478143D01*
X171475597Y-98560487D01*
X171392745Y-98625010D01*
X171340673Y-98667556D01*
X171324600Y-98683637D01*
X171341199Y-98706719D01*
X171387447Y-98760699D01*
X171458020Y-98839633D01*
X171547595Y-98937576D01*
X171650847Y-99048580D01*
X171662728Y-99061245D01*
X171811611Y-99223034D01*
X171927274Y-99357628D01*
X172013958Y-99472143D01*
X172075903Y-99573695D01*
X172117353Y-99669399D01*
X172142548Y-99766370D01*
X172155729Y-99871726D01*
X172157053Y-99890562D01*
X172160757Y-99999782D01*
X172153247Y-100078132D01*
X172131821Y-100144827D01*
X172116881Y-100176232D01*
X172075815Y-100246799D01*
X172035625Y-100300726D01*
X172024581Y-100311570D01*
X171992152Y-100342898D01*
X171934025Y-100403145D01*
X171858551Y-100483527D01*
X171777391Y-100571628D01*
X171570533Y-100798214D01*
X171609243Y-100879357D01*
X171640662Y-100927558D01*
X171699658Y-101002844D01*
X171778459Y-101095813D01*
X171869296Y-101197065D01*
X171892677Y-101222250D01*
X171981132Y-101319836D01*
X172055353Y-101407389D01*
X172108970Y-101476956D01*
X172135612Y-101520584D01*
X172137400Y-101527784D01*
X172118967Y-101563143D01*
X172068018Y-101624276D01*
X171991075Y-101705297D01*
X171894660Y-101800320D01*
X171785297Y-101903458D01*
X171669507Y-102008825D01*
X171553813Y-102110534D01*
X171444738Y-102202699D01*
X171348805Y-102279434D01*
X171272536Y-102334851D01*
X171222453Y-102363065D01*
X171209502Y-102365189D01*
X171181718Y-102344693D01*
X171126427Y-102292980D01*
X171050161Y-102216541D01*
X170959453Y-102121866D01*
X170894991Y-102052700D01*
X170738155Y-101874921D01*
X170618626Y-101720736D01*
X170532644Y-101583831D01*
X170476452Y-101457895D01*
X170446290Y-101336617D01*
X170440835Y-101289987D01*
X170435291Y-101192259D01*
X170439860Y-101112057D01*
X170459040Y-101039664D01*
X170497332Y-100965361D01*
X170559235Y-100879428D01*
X170649249Y-100772148D01*
X170715263Y-100697269D01*
X170831716Y-100562271D01*
X170911921Y-100459812D01*
X170957136Y-100388169D01*
X170969000Y-100350289D01*
X170959795Y-100314107D01*
X170930287Y-100262009D01*
X170877638Y-100190537D01*
X170799009Y-100096229D01*
X170691559Y-99975626D01*
X170552451Y-99825267D01*
X170442899Y-99709084D01*
X170219700Y-99473668D01*
X167882900Y-101188688D01*
X167576926Y-101413404D01*
X167282508Y-101629940D01*
X167002226Y-101836381D01*
X166738661Y-102030813D01*
X166494396Y-102211320D01*
X166272011Y-102375990D01*
X166074087Y-102522906D01*
X165903207Y-102650155D01*
X165761951Y-102755821D01*
X165652901Y-102837991D01*
X165578637Y-102894749D01*
X165541743Y-102924181D01*
X165538024Y-102927881D01*
X165551563Y-102953357D01*
X165593986Y-103011023D01*
X165660567Y-103094974D01*
X165746581Y-103199308D01*
X165847305Y-103318119D01*
X165888578Y-103365977D01*
X166001284Y-103497497D01*
X166108255Y-103624969D01*
X166202887Y-103740323D01*
X166278577Y-103835486D01*
X166328723Y-103902387D01*
X166335654Y-103912486D01*
X166441989Y-104102947D01*
X166514166Y-104299923D01*
X166547603Y-104489941D01*
X166549400Y-104540972D01*
X166548345Y-104616718D01*
X166541224Y-104672832D01*
X166522098Y-104722658D01*
X166485027Y-104779541D01*
X166424075Y-104856823D01*
X166390650Y-104897691D01*
X166289851Y-105020267D01*
X166216788Y-105109614D01*
X166167764Y-105172408D01*
X166139083Y-105215331D01*
X166127049Y-105245060D01*
X166127966Y-105268273D01*
X166138138Y-105291651D01*
X166153870Y-105321871D01*
X166154815Y-105323848D01*
X166184385Y-105370987D01*
X166241108Y-105448402D01*
X166318758Y-105548076D01*
X166411105Y-105661993D01*
X166499693Y-105767785D01*
X166595932Y-105882119D01*
X166679611Y-105983728D01*
X166745539Y-106066129D01*
X166788527Y-106122840D01*
X166803400Y-106147185D01*
X166790239Y-106172220D01*
X166749411Y-106218357D01*
X166678891Y-106287462D01*
X166576658Y-106381401D01*
X166440690Y-106502039D01*
X166268963Y-106651242D01*
X166097045Y-106798777D01*
X165965925Y-106909773D01*
X165846606Y-107008775D01*
X165744767Y-107091234D01*
X165666088Y-107152597D01*
X165616251Y-107188313D01*
X165601745Y-107195629D01*
X165577012Y-107176714D01*
X165525619Y-107124279D01*
X165452920Y-107044247D01*
X165364268Y-106942540D01*
X165265020Y-106825081D01*
X165245514Y-106801601D01*
X165084119Y-106602371D01*
X164955159Y-106432432D01*
X164854731Y-106285577D01*
X164778930Y-106155597D01*
X164723852Y-106036288D01*
X164685594Y-105921440D01*
X164681033Y-105904089D01*
X164658322Y-105795633D01*
X164654013Y-105704433D01*
X164671555Y-105618738D01*
X164714393Y-105526797D01*
X164785976Y-105416860D01*
X164849292Y-105330530D01*
X164919115Y-105234555D01*
X164975648Y-105150975D01*
X165012717Y-105089318D01*
X165024335Y-105060367D01*
X165012148Y-105014879D01*
X164983805Y-104951482D01*
X164979885Y-104944077D01*
X164949190Y-104897912D01*
X164893369Y-104824202D01*
X164817779Y-104729227D01*
X164727775Y-104619266D01*
X164628716Y-104500599D01*
X164525958Y-104379505D01*
X164424857Y-104262263D01*
X164330770Y-104155153D01*
X164249055Y-104064454D01*
X164185067Y-103996446D01*
X164144164Y-103957408D01*
X164132360Y-103950579D01*
X164107863Y-103966716D01*
X164046193Y-104010206D01*
X163951114Y-104078319D01*
X163826391Y-104168331D01*
X163675788Y-104277512D01*
X163503069Y-104403136D01*
X163312000Y-104542476D01*
X163106343Y-104692804D01*
X162960084Y-104799912D01*
X161812300Y-105641081D01*
X161624252Y-105650290D01*
X161436204Y-105659500D01*
X159515289Y-103290044D01*
X157594373Y-100920589D01*
X157220946Y-100253704D01*
X156847519Y-99586820D01*
X156859063Y-99456339D01*
X156924466Y-99456339D01*
X156936113Y-99547355D01*
X156968561Y-99645660D01*
X157021046Y-99757551D01*
X157092803Y-99889326D01*
X157183069Y-100047280D01*
X157280380Y-100218594D01*
X157646243Y-100871141D01*
X159102831Y-102668420D01*
X159328780Y-102947215D01*
X159554741Y-103226016D01*
X159777410Y-103500751D01*
X159993486Y-103767345D01*
X160199667Y-104021724D01*
X160392650Y-104259814D01*
X160569133Y-104477541D01*
X160725814Y-104670831D01*
X160859390Y-104835610D01*
X160966561Y-104967803D01*
X161023322Y-105037810D01*
X161487225Y-105609920D01*
X161629588Y-105596610D01*
X161660511Y-105593199D01*
X161690570Y-105587500D01*
X161723265Y-105577190D01*
X161762097Y-105559948D01*
X161810567Y-105533451D01*
X161872176Y-105495378D01*
X161950425Y-105443406D01*
X162048814Y-105375214D01*
X162170846Y-105288478D01*
X162320021Y-105180878D01*
X162499840Y-105050091D01*
X162713804Y-104893795D01*
X162951709Y-104719700D01*
X163207172Y-104532431D01*
X163424630Y-104372334D01*
X163607294Y-104236886D01*
X163758376Y-104123562D01*
X163881086Y-104029839D01*
X163978637Y-103953194D01*
X164054240Y-103891102D01*
X164066570Y-103880247D01*
X164196743Y-103880247D01*
X164592021Y-104346296D01*
X164705589Y-104481408D01*
X164810108Y-104608035D01*
X164900348Y-104719658D01*
X164971078Y-104809760D01*
X165017069Y-104871823D01*
X165030685Y-104893023D01*
X165065746Y-104972837D01*
X165076644Y-105046641D01*
X165060811Y-105124184D01*
X165015677Y-105215214D01*
X164938672Y-105329480D01*
X164902890Y-105377867D01*
X164831558Y-105476189D01*
X164771538Y-105565111D01*
X164729875Y-105633808D01*
X164714273Y-105667742D01*
X164711941Y-105747182D01*
X164733677Y-105856690D01*
X164775701Y-105983846D01*
X164834235Y-106116231D01*
X164872270Y-106187072D01*
X164921066Y-106262913D01*
X164995434Y-106367378D01*
X165087907Y-106490500D01*
X165191022Y-106622312D01*
X165284106Y-106736937D01*
X165596900Y-107114829D01*
X165658858Y-107054878D01*
X165698609Y-107011276D01*
X165703507Y-106981011D01*
X165681729Y-106949513D01*
X165608582Y-106863337D01*
X165523386Y-106761081D01*
X165432365Y-106650441D01*
X165341747Y-106539114D01*
X165257757Y-106434796D01*
X165186623Y-106345183D01*
X165134569Y-106277972D01*
X165107822Y-106240860D01*
X165106311Y-106238236D01*
X165085967Y-106182753D01*
X165085783Y-106182002D01*
X165153693Y-106182002D01*
X165168708Y-106205192D01*
X165211281Y-106261113D01*
X165276435Y-106343481D01*
X165359196Y-106446010D01*
X165454588Y-106562415D01*
X165460572Y-106569663D01*
X165569277Y-106700348D01*
X165651032Y-106795784D01*
X165710474Y-106860507D01*
X165752246Y-106899050D01*
X165780986Y-106915947D01*
X165801335Y-106915733D01*
X165809641Y-106910761D01*
X165840383Y-106885313D01*
X165903470Y-106832085D01*
X165992681Y-106756361D01*
X166101794Y-106663427D01*
X166224589Y-106558568D01*
X166276169Y-106514447D01*
X166399920Y-106407815D01*
X166509521Y-106311984D01*
X166599433Y-106231913D01*
X166664120Y-106172557D01*
X166698045Y-106138873D01*
X166701800Y-106133436D01*
X166686167Y-106109339D01*
X166642997Y-106053663D01*
X166577875Y-105973346D01*
X166496392Y-105875322D01*
X166440971Y-105809716D01*
X166348654Y-105700396D01*
X166265690Y-105600899D01*
X166198772Y-105519345D01*
X166154590Y-105463853D01*
X166142521Y-105447553D01*
X166124946Y-105424797D01*
X166105820Y-105416109D01*
X166077316Y-105425431D01*
X166031607Y-105456703D01*
X165960866Y-105513866D01*
X165885928Y-105576726D01*
X165772510Y-105671116D01*
X165638141Y-105781260D01*
X165501880Y-105891607D01*
X165410971Y-105964300D01*
X165314891Y-106041557D01*
X165235049Y-106107637D01*
X165178985Y-106156162D01*
X165154240Y-106180751D01*
X165153693Y-106182002D01*
X165085783Y-106182002D01*
X165067620Y-106107952D01*
X165066141Y-106100045D01*
X165061026Y-106058074D01*
X165065878Y-106019765D01*
X165085615Y-105975793D01*
X165110356Y-105938900D01*
X165177800Y-105938900D01*
X165190500Y-105951600D01*
X165203200Y-105938900D01*
X165190500Y-105926200D01*
X165177800Y-105938900D01*
X165110356Y-105938900D01*
X165125155Y-105916833D01*
X165189414Y-105833562D01*
X165204171Y-105815132D01*
X165302824Y-105815132D01*
X165308508Y-105819138D01*
X165338761Y-105800261D01*
X165396971Y-105756278D01*
X165486523Y-105684966D01*
X165610802Y-105584101D01*
X165654223Y-105548678D01*
X165777126Y-105447499D01*
X165885446Y-105356706D01*
X165973389Y-105281290D01*
X166035158Y-105226245D01*
X166064958Y-105196560D01*
X166066800Y-105193302D01*
X166082263Y-105167472D01*
X166124128Y-105111915D01*
X166185607Y-105035361D01*
X166244600Y-104964575D01*
X166316776Y-104878255D01*
X166374865Y-104806864D01*
X166412122Y-104758817D01*
X166422400Y-104742780D01*
X166403627Y-104754637D01*
X166350993Y-104794251D01*
X166270023Y-104857295D01*
X166166244Y-104939443D01*
X166045183Y-105036369D01*
X165974086Y-105093723D01*
X165804201Y-105233567D01*
X165669221Y-105349954D01*
X165570931Y-105441252D01*
X165511115Y-105505833D01*
X165493685Y-105532769D01*
X165461054Y-105592487D01*
X165407699Y-105672570D01*
X165351623Y-105747362D01*
X165318324Y-105790465D01*
X165302824Y-105815132D01*
X165204171Y-105815132D01*
X165240003Y-105770384D01*
X165327781Y-105658096D01*
X165387729Y-105571842D01*
X165426454Y-105500308D01*
X165450563Y-105432179D01*
X165459485Y-105394489D01*
X165482009Y-105311436D01*
X165516354Y-105243413D01*
X165571571Y-105178470D01*
X165656708Y-105104659D01*
X165710820Y-105062600D01*
X165776359Y-105011787D01*
X165831603Y-104967523D01*
X165839446Y-104961000D01*
X165879440Y-104927502D01*
X165922591Y-104891796D01*
X165976638Y-104847567D01*
X166049321Y-104788501D01*
X166148377Y-104708282D01*
X166237722Y-104636025D01*
X166497545Y-104425957D01*
X166435060Y-104259950D01*
X166388187Y-104150807D01*
X166331311Y-104039526D01*
X166289282Y-103969671D01*
X166252846Y-103920316D01*
X166192039Y-103843521D01*
X166112038Y-103745366D01*
X166018017Y-103631934D01*
X165915153Y-103509306D01*
X165808620Y-103383562D01*
X165703595Y-103260784D01*
X165605253Y-103147052D01*
X165518770Y-103048449D01*
X165449321Y-102971056D01*
X165402081Y-102920952D01*
X165382456Y-102904172D01*
X165358748Y-102918650D01*
X165301211Y-102958341D01*
X165216800Y-103018171D01*
X165112471Y-103093065D01*
X164995177Y-103177950D01*
X164871876Y-103267752D01*
X164749522Y-103357397D01*
X164635070Y-103441811D01*
X164535475Y-103515921D01*
X164457693Y-103574652D01*
X164408680Y-103612931D01*
X164396530Y-103623404D01*
X164392241Y-103640564D01*
X164404354Y-103672020D01*
X164435912Y-103721919D01*
X164489960Y-103794410D01*
X164569539Y-103893643D01*
X164677693Y-104023767D01*
X164772562Y-104136079D01*
X164891523Y-104277547D01*
X165004743Y-104414493D01*
X165106286Y-104539561D01*
X165190214Y-104645391D01*
X165250593Y-104724626D01*
X165273513Y-104757040D01*
X165338141Y-104864198D01*
X165394986Y-104976324D01*
X165439380Y-105082049D01*
X165466652Y-105169999D01*
X165472133Y-105228803D01*
X165470213Y-105236041D01*
X165454628Y-105243448D01*
X165428397Y-105207490D01*
X165389777Y-105125652D01*
X165383563Y-105111057D01*
X165330967Y-104999009D01*
X165267554Y-104881369D01*
X165220971Y-104805216D01*
X165178740Y-104746729D01*
X165113210Y-104662299D01*
X165029530Y-104558013D01*
X164932852Y-104439959D01*
X164828326Y-104314226D01*
X164721102Y-104186901D01*
X164616333Y-104064072D01*
X164519168Y-103951827D01*
X164434758Y-103856255D01*
X164368254Y-103783443D01*
X164324807Y-103739480D01*
X164310531Y-103729100D01*
X164283648Y-103748744D01*
X164247324Y-103796823D01*
X164242455Y-103804673D01*
X164196743Y-103880247D01*
X164066570Y-103880247D01*
X164111106Y-103841040D01*
X164152446Y-103800484D01*
X164181473Y-103766911D01*
X164201397Y-103737797D01*
X164201585Y-103737479D01*
X164231224Y-103694393D01*
X164273449Y-103646973D01*
X164333277Y-103591003D01*
X164415728Y-103522265D01*
X164525819Y-103436540D01*
X164668568Y-103329612D01*
X164813541Y-103223129D01*
X164959627Y-103117320D01*
X165093301Y-103022182D01*
X165208816Y-102941671D01*
X165300427Y-102879742D01*
X165362387Y-102840348D01*
X165388510Y-102827400D01*
X165437151Y-102843595D01*
X165445770Y-102850391D01*
X165469736Y-102839074D01*
X165532952Y-102798545D01*
X165633897Y-102729894D01*
X165771047Y-102634210D01*
X165942880Y-102512585D01*
X166147875Y-102366107D01*
X166384508Y-102195868D01*
X166651258Y-102002956D01*
X166946602Y-101788462D01*
X167269018Y-101553477D01*
X167616983Y-101299089D01*
X167819400Y-101150790D01*
X168204288Y-100868373D01*
X168549860Y-100614302D01*
X168857976Y-100387172D01*
X169130496Y-100185576D01*
X169369281Y-100008109D01*
X169576191Y-99853367D01*
X169753086Y-99719943D01*
X169901827Y-99606433D01*
X170024274Y-99511430D01*
X170122288Y-99433530D01*
X170132679Y-99424962D01*
X170278010Y-99424962D01*
X170502855Y-99666068D01*
X170650654Y-99824932D01*
X170767269Y-99951725D01*
X170856383Y-100051321D01*
X170921679Y-100128593D01*
X170966841Y-100188416D01*
X170995551Y-100235663D01*
X171011492Y-100275209D01*
X171018347Y-100311928D01*
X171019800Y-100350181D01*
X171017931Y-100395740D01*
X171008925Y-100436426D01*
X170987681Y-100480235D01*
X170949102Y-100535164D01*
X170888086Y-100609209D01*
X170799534Y-100710368D01*
X170766063Y-100748069D01*
X170655118Y-100875793D01*
X170575919Y-100976242D01*
X170524235Y-101058010D01*
X170495839Y-101129690D01*
X170486499Y-101199874D01*
X170491987Y-101277156D01*
X170495161Y-101298469D01*
X170536987Y-101435221D01*
X170622601Y-101594159D01*
X170752349Y-101775821D01*
X170926576Y-101980746D01*
X170943600Y-101999421D01*
X171210300Y-102290544D01*
X171292544Y-102211385D01*
X171341900Y-102161171D01*
X171358481Y-102129439D01*
X171346903Y-102100284D01*
X171330644Y-102080102D01*
X171295960Y-102040780D01*
X171235709Y-101974061D01*
X171158849Y-101889818D01*
X171087092Y-101811739D01*
X170967271Y-101678931D01*
X170882998Y-101573092D01*
X170836380Y-101489443D01*
X170930900Y-101489443D01*
X170947273Y-101522026D01*
X170992315Y-101583894D01*
X171059904Y-101667311D01*
X171143922Y-101764542D01*
X171182744Y-101807757D01*
X171434588Y-102084907D01*
X171747894Y-101815980D01*
X171853278Y-101724229D01*
X171943556Y-101643164D01*
X172012252Y-101578798D01*
X172052891Y-101537144D01*
X172061200Y-101524965D01*
X172044661Y-101498753D01*
X171999784Y-101444419D01*
X171933675Y-101370232D01*
X171863676Y-101295189D01*
X171777501Y-101203345D01*
X171698953Y-101117420D01*
X171638054Y-101048497D01*
X171609708Y-101014265D01*
X171553264Y-100941031D01*
X171242082Y-101194655D01*
X171135693Y-101283858D01*
X171044956Y-101364693D01*
X170976645Y-101430741D01*
X170937535Y-101475585D01*
X170930900Y-101489443D01*
X170836380Y-101489443D01*
X170833999Y-101485172D01*
X170819998Y-101406123D01*
X170840722Y-101326894D01*
X170895894Y-101238436D01*
X170913326Y-101217610D01*
X170969000Y-101217610D01*
X170981355Y-101225212D01*
X171015121Y-101192584D01*
X171023039Y-101182750D01*
X171045007Y-101152663D01*
X171031853Y-101158971D01*
X171013450Y-101173160D01*
X170978272Y-101204493D01*
X170969000Y-101217610D01*
X170913326Y-101217610D01*
X170985240Y-101131699D01*
X171060816Y-101049024D01*
X171169618Y-101049024D01*
X171183285Y-101042144D01*
X171229940Y-101005457D01*
X171302064Y-100946369D01*
X171382993Y-100874471D01*
X171484948Y-100776110D01*
X171595834Y-100663336D01*
X171703555Y-100548205D01*
X171721164Y-100528730D01*
X171972300Y-100249360D01*
X171708870Y-100464264D01*
X171604215Y-100553189D01*
X171509027Y-100640530D01*
X171433220Y-100716762D01*
X171386708Y-100772357D01*
X171384115Y-100776311D01*
X171329389Y-100854436D01*
X171260683Y-100941559D01*
X171228445Y-100979046D01*
X171185739Y-101027518D01*
X171169618Y-101049024D01*
X171060816Y-101049024D01*
X171063826Y-101045732D01*
X171173776Y-100920341D01*
X171267740Y-100800157D01*
X171341913Y-100691337D01*
X171392491Y-100600036D01*
X171415671Y-100532409D01*
X171407647Y-100494612D01*
X171405424Y-100492984D01*
X171384721Y-100459991D01*
X171365013Y-100398939D01*
X171362761Y-100389000D01*
X171345180Y-100318391D01*
X171321704Y-100251661D01*
X171288587Y-100183770D01*
X171242085Y-100109676D01*
X171178453Y-100024340D01*
X171093945Y-99922719D01*
X170984817Y-99799775D01*
X170847322Y-99650465D01*
X170687501Y-99480121D01*
X170441181Y-99218942D01*
X170359596Y-99321952D01*
X170278010Y-99424962D01*
X170132679Y-99424962D01*
X170197728Y-99371328D01*
X170252455Y-99323417D01*
X170288330Y-99288392D01*
X170295900Y-99279948D01*
X170362766Y-99210492D01*
X170411709Y-99166091D01*
X170517551Y-99166091D01*
X170532113Y-99189695D01*
X170576762Y-99244344D01*
X170646503Y-99324347D01*
X170736340Y-99424011D01*
X170841276Y-99537643D01*
X170879078Y-99577994D01*
X171023287Y-99733856D01*
X171136539Y-99863121D01*
X171224754Y-99974129D01*
X171293852Y-100075220D01*
X171349754Y-100174735D01*
X171398380Y-100281015D01*
X171424620Y-100346545D01*
X171458545Y-100398512D01*
X171498005Y-100400592D01*
X171538482Y-100352694D01*
X171540500Y-100348894D01*
X171576536Y-100309402D01*
X171603249Y-100300100D01*
X171643508Y-100279808D01*
X171666749Y-100249300D01*
X171702542Y-100208749D01*
X171730249Y-100198500D01*
X171770508Y-100178208D01*
X171793749Y-100147700D01*
X171829542Y-100107149D01*
X171857249Y-100096900D01*
X171897508Y-100076608D01*
X171920749Y-100046100D01*
X171956542Y-100005549D01*
X171984249Y-99995300D01*
X172023088Y-99974812D01*
X172050017Y-99938300D01*
X172077709Y-99902225D01*
X172098184Y-99900200D01*
X172110545Y-99898832D01*
X172107085Y-99861288D01*
X172090879Y-99798547D01*
X172065001Y-99721589D01*
X172032525Y-99641392D01*
X172015531Y-99605041D01*
X171965305Y-99524685D01*
X171878119Y-99411788D01*
X171755003Y-99267531D01*
X171596987Y-99093099D01*
X171405101Y-98889673D01*
X171276804Y-98756926D01*
X171183906Y-98661553D01*
X170854203Y-98903824D01*
X170742324Y-98986915D01*
X170645829Y-99060256D01*
X170571790Y-99118336D01*
X170527279Y-99155648D01*
X170517551Y-99166091D01*
X170411709Y-99166091D01*
X170454097Y-99127638D01*
X170562845Y-99036557D01*
X170681959Y-98942422D01*
X170804391Y-98850405D01*
X170923093Y-98765678D01*
X171031015Y-98693414D01*
X171121108Y-98638784D01*
X171186324Y-98606961D01*
X171218948Y-98602647D01*
X171240076Y-98604236D01*
X171278165Y-98589560D01*
X171337323Y-98555982D01*
X171421656Y-98500866D01*
X171535272Y-98421574D01*
X171682277Y-98315468D01*
X171796173Y-98231981D01*
X171959261Y-98109985D01*
X172109630Y-97993763D01*
X172240916Y-97888476D01*
X172346756Y-97799288D01*
X172420785Y-97731360D01*
X172445120Y-97705540D01*
X172477874Y-97664553D01*
X172508769Y-97618825D01*
X172540291Y-97562662D01*
X172574923Y-97490368D01*
X172615151Y-97396249D01*
X172663458Y-97274609D01*
X172722331Y-97119753D01*
X172794252Y-96925986D01*
X172842523Y-96794625D01*
X173128547Y-96014468D01*
X172113931Y-94982284D01*
X171890679Y-94755536D01*
X171648595Y-94510323D01*
X171395528Y-94254554D01*
X171139328Y-93996137D01*
X170887841Y-93742983D01*
X170648917Y-93502999D01*
X170430404Y-93284095D01*
X170253108Y-93107086D01*
X169406900Y-92264072D01*
X165857836Y-93964336D01*
X165457717Y-94155890D01*
X165069742Y-94341372D01*
X164696413Y-94519598D01*
X164340233Y-94689382D01*
X164003705Y-94849541D01*
X163689329Y-94998891D01*
X163399609Y-95136246D01*
X163137046Y-95260423D01*
X162904144Y-95370238D01*
X162703404Y-95464506D01*
X162537328Y-95542043D01*
X162408420Y-95601665D01*
X162319180Y-95642187D01*
X162272111Y-95662425D01*
X162265373Y-95664599D01*
X162214824Y-95680788D01*
X162169537Y-95711929D01*
X162139229Y-95729729D01*
X162066426Y-95767706D01*
X161954502Y-95824210D01*
X161806834Y-95897590D01*
X161626795Y-95986196D01*
X161417763Y-96088377D01*
X161183113Y-96202482D01*
X160926219Y-96326862D01*
X160650458Y-96459866D01*
X160359205Y-96599843D01*
X160085100Y-96731148D01*
X158053100Y-97703038D01*
X157489479Y-98494369D01*
X157334144Y-98710679D01*
X157204955Y-98890199D01*
X157101148Y-99039225D01*
X157021959Y-99164055D01*
X156966625Y-99270986D01*
X156934382Y-99366315D01*
X156924466Y-99456339D01*
X156859063Y-99456339D01*
X156878797Y-99233300D01*
X157440548Y-98442780D01*
X158002300Y-97652261D01*
X159107200Y-97123208D01*
X159349607Y-97007118D01*
X159595855Y-96889154D01*
X159838487Y-96772891D01*
X160070047Y-96661902D01*
X160283076Y-96559762D01*
X160470119Y-96470046D01*
X160623718Y-96396329D01*
X160703148Y-96358177D01*
X161194197Y-96122199D01*
X161036754Y-95945048D01*
X160879312Y-95767896D01*
X160898770Y-95688492D01*
X160966762Y-95688492D01*
X160967836Y-95726472D01*
X160982205Y-95764351D01*
X161015087Y-95811362D01*
X161071701Y-95876737D01*
X161157263Y-95969709D01*
X161162860Y-95975750D01*
X161226389Y-96038428D01*
X161275668Y-96065569D01*
X161327006Y-96062215D01*
X161377805Y-96042205D01*
X161441001Y-96013411D01*
X161233885Y-95775505D01*
X161153535Y-95684761D01*
X161084740Y-95609969D01*
X161034465Y-95558498D01*
X161009675Y-95537716D01*
X161009017Y-95537600D01*
X160994233Y-95560014D01*
X160978516Y-95616172D01*
X160973765Y-95641180D01*
X160966762Y-95688492D01*
X160898770Y-95688492D01*
X160953546Y-95464972D01*
X161068901Y-95464972D01*
X161068951Y-95465220D01*
X161087662Y-95491839D01*
X161131520Y-95545968D01*
X161192652Y-95618560D01*
X161263187Y-95700566D01*
X161335252Y-95782940D01*
X161400977Y-95856632D01*
X161452489Y-95912596D01*
X161481916Y-95941783D01*
X161485503Y-95944000D01*
X161514020Y-95933516D01*
X161566550Y-95908198D01*
X161568414Y-95907236D01*
X161603333Y-95883572D01*
X161615505Y-95867800D01*
X161709997Y-95867800D01*
X161734709Y-95858026D01*
X161794199Y-95832039D01*
X161877086Y-95794837D01*
X161904871Y-95782210D01*
X161997683Y-95736841D01*
X162074674Y-95693610D01*
X162121935Y-95660467D01*
X162127052Y-95655210D01*
X162176504Y-95620817D01*
X162208430Y-95613800D01*
X162253535Y-95604059D01*
X162319537Y-95579708D01*
X162390462Y-95548052D01*
X162450340Y-95516393D01*
X162483197Y-95492038D01*
X162485400Y-95487133D01*
X162468625Y-95463180D01*
X162424548Y-95414415D01*
X162362538Y-95351180D01*
X162359540Y-95348223D01*
X162298871Y-95283964D01*
X162258389Y-95232258D01*
X162247117Y-95205474D01*
X162309358Y-95205474D01*
X162441829Y-95332889D01*
X162506596Y-95394926D01*
X162554613Y-95440429D01*
X162576546Y-95460560D01*
X162576984Y-95460852D01*
X162599573Y-95450565D01*
X162661006Y-95421557D01*
X162754348Y-95377131D01*
X162872664Y-95320586D01*
X163009020Y-95255227D01*
X163033728Y-95243366D01*
X163487788Y-95025332D01*
X163367344Y-94911533D01*
X163295021Y-94847917D01*
X163244028Y-94816965D01*
X163202945Y-94812506D01*
X163190000Y-94815674D01*
X163165957Y-94823974D01*
X163133362Y-94836961D01*
X163086132Y-94857378D01*
X163018183Y-94887972D01*
X162923431Y-94931486D01*
X162795794Y-94990666D01*
X162629187Y-95068256D01*
X162599700Y-95082006D01*
X162508682Y-95123546D01*
X162426200Y-95159654D01*
X162378329Y-95179276D01*
X162309358Y-95205474D01*
X162247117Y-95205474D01*
X162246411Y-95203798D01*
X162246739Y-95203128D01*
X162231325Y-95191632D01*
X162177899Y-95183958D01*
X162120856Y-95182000D01*
X162035772Y-95185375D01*
X161981569Y-95200489D01*
X161938509Y-95234827D01*
X161916825Y-95259354D01*
X161867225Y-95336546D01*
X161828620Y-95427383D01*
X161823963Y-95443504D01*
X161801200Y-95527684D01*
X161771476Y-95633329D01*
X161749563Y-95709050D01*
X161726851Y-95789737D01*
X161712647Y-95846890D01*
X161709997Y-95867800D01*
X161615505Y-95867800D01*
X161631499Y-95847077D01*
X161657935Y-95787495D01*
X161687665Y-95694567D01*
X161708360Y-95621486D01*
X161749417Y-95475874D01*
X161781937Y-95370421D01*
X161809912Y-95296055D01*
X161837332Y-95243705D01*
X161868189Y-95204298D01*
X161906472Y-95168764D01*
X161908143Y-95167354D01*
X161957437Y-95116297D01*
X161962500Y-95081876D01*
X161958263Y-95076503D01*
X161928636Y-95074739D01*
X161862085Y-95093791D01*
X161756407Y-95134478D01*
X161609401Y-95197621D01*
X161497015Y-95248187D01*
X161361268Y-95311149D01*
X161243551Y-95367874D01*
X161150896Y-95414796D01*
X161090336Y-95448351D01*
X161068901Y-95464972D01*
X160953546Y-95464972D01*
X160965224Y-95417322D01*
X161414162Y-95212312D01*
X161584820Y-95134261D01*
X161715175Y-95074975D01*
X161811332Y-95032560D01*
X161879397Y-95005124D01*
X161925476Y-94990774D01*
X161955677Y-94987616D01*
X161976104Y-94993759D01*
X161992864Y-95007308D01*
X162012064Y-95026371D01*
X162012537Y-95026816D01*
X162070489Y-95081259D01*
X162509872Y-94877629D01*
X162688206Y-94797297D01*
X162835615Y-94735720D01*
X162947947Y-94694504D01*
X163021053Y-94675256D01*
X163035643Y-94673999D01*
X163161578Y-94694208D01*
X163288714Y-94756948D01*
X163420946Y-94862979D01*
X163486525Y-94921770D01*
X163538228Y-94963455D01*
X163564335Y-94978799D01*
X163589254Y-94968035D01*
X163657225Y-94936615D01*
X163765494Y-94885850D01*
X163911308Y-94817048D01*
X164091913Y-94731520D01*
X164304554Y-94630575D01*
X164546479Y-94515523D01*
X164814933Y-94387674D01*
X165107163Y-94248336D01*
X165420414Y-94098821D01*
X165751933Y-93940437D01*
X166098967Y-93774494D01*
X166458761Y-93602301D01*
X166475056Y-93594500D01*
X166835927Y-93421898D01*
X167184587Y-93255501D01*
X167518244Y-93096621D01*
X167834110Y-92946571D01*
X168129392Y-92806666D01*
X168401301Y-92678218D01*
X168647047Y-92562540D01*
X168863840Y-92460947D01*
X169048888Y-92374751D01*
X169199401Y-92305266D01*
X169312590Y-92253806D01*
X169385664Y-92221683D01*
X169415832Y-92210211D01*
X169416059Y-92210200D01*
X169441760Y-92227921D01*
D13*
X136910000Y-62852064D02*
X136910000Y-61647936D01*
X135090000Y-62852064D02*
X135090000Y-61647936D01*
X143460000Y-67510000D02*
X143460000Y-60750000D01*
X140040000Y-67510000D02*
X143460000Y-67510000D01*
X140040000Y-60750000D02*
X140040000Y-67510000D01*
X139410000Y-62852064D02*
X139410000Y-61647936D01*
X137590000Y-62852064D02*
X137590000Y-61647936D01*
X103160000Y-79660000D02*
X103160000Y-81400000D01*
X96840000Y-79660000D02*
X96840000Y-81400000D01*
X103160000Y-65100000D02*
X103160000Y-66839000D01*
X96840000Y-65100000D02*
X103160000Y-65100000D01*
X96840000Y-65100000D02*
X96840000Y-66049000D01*
X94800000Y-66049000D02*
X96840000Y-66049000D01*
X96840000Y-81400000D02*
X103160000Y-81400000D01*
X86960000Y-78447936D02*
X86960000Y-82552064D01*
X83540000Y-78447936D02*
X83540000Y-82552064D01*
X83620000Y-75510000D02*
X83620000Y-74050000D01*
X86780000Y-75510000D02*
X86780000Y-73350000D01*
X86780000Y-75510000D02*
X85850000Y-75510000D01*
X83620000Y-75510000D02*
X84550000Y-75510000D01*
D14*
X90500000Y-90250000D02*
X90500000Y-91650000D01*
X87900000Y-90250000D02*
X90500000Y-90250000D01*
X87900000Y-91650000D02*
X87900000Y-90250000D01*
X87000000Y-90250000D02*
X87000000Y-91650000D01*
X84500000Y-90250000D02*
X87000000Y-90250000D01*
X84500000Y-91650000D02*
X84500000Y-90250000D01*
X84000000Y-91650000D02*
X91000000Y-91650000D01*
X84000000Y-84850000D02*
X84000000Y-91650000D01*
X91000000Y-84850000D02*
X91000000Y-91650000D01*
X84000000Y-84850000D02*
X91000000Y-84850000D01*
D13*
X162602064Y-79090000D02*
X161397936Y-79090000D01*
X162602064Y-80910000D02*
X161397936Y-80910000D01*
X162602064Y-76590000D02*
X161397936Y-76590000D01*
X162602064Y-78410000D02*
X161397936Y-78410000D01*
D14*
X127000000Y-107000000D02*
X127000000Y-108400000D01*
X124400000Y-107000000D02*
X127000000Y-107000000D01*
X124400000Y-108400000D02*
X124400000Y-107000000D01*
X123500000Y-107000000D02*
X123500000Y-108400000D01*
X121000000Y-107000000D02*
X123500000Y-107000000D01*
X121000000Y-108400000D02*
X121000000Y-107000000D01*
X120500000Y-108400000D02*
X127500000Y-108400000D01*
X120500000Y-101600000D02*
X120500000Y-108400000D01*
X127500000Y-101600000D02*
X127500000Y-108400000D01*
X120500000Y-101600000D02*
X127500000Y-101600000D01*
D13*
X138252064Y-97590000D02*
X137047936Y-97590000D01*
X138252064Y-99410000D02*
X137047936Y-99410000D01*
X154502064Y-58340000D02*
X153297936Y-58340000D01*
X154502064Y-60160000D02*
X153297936Y-60160000D01*
X102002064Y-58340000D02*
X100797936Y-58340000D01*
X102002064Y-60160000D02*
X100797936Y-60160000D01*
X152252064Y-97590000D02*
X151047936Y-97590000D01*
X152252064Y-99410000D02*
X151047936Y-99410000D01*
X145252064Y-97590000D02*
X144047936Y-97590000D01*
X145252064Y-99410000D02*
X144047936Y-99410000D01*
X103252064Y-97590000D02*
X102047936Y-97590000D01*
X103252064Y-99410000D02*
X102047936Y-99410000D01*
X124252064Y-97590000D02*
X123047936Y-97590000D01*
X124252064Y-99410000D02*
X123047936Y-99410000D01*
X117252064Y-97590000D02*
X116047936Y-97590000D01*
X117252064Y-99410000D02*
X116047936Y-99410000D01*
X110252064Y-97590000D02*
X109047936Y-97590000D01*
X110252064Y-99410000D02*
X109047936Y-99410000D01*
X131252064Y-97590000D02*
X130047936Y-97590000D01*
X131252064Y-99410000D02*
X130047936Y-99410000D01*
X98630000Y-57330000D02*
X98630000Y-56000000D01*
X99960000Y-57330000D02*
X98630000Y-57330000D01*
X101230000Y-57330000D02*
X101230000Y-54670000D01*
X101230000Y-54670000D02*
X103830000Y-54670000D01*
X101230000Y-57330000D02*
X103830000Y-57330000D01*
X103830000Y-57330000D02*
X103830000Y-54670000D01*
X151170000Y-57330000D02*
X151170000Y-56000000D01*
X152500000Y-57330000D02*
X151170000Y-57330000D01*
X153770000Y-57330000D02*
X153770000Y-54670000D01*
X153770000Y-54670000D02*
X156370000Y-54670000D01*
X153770000Y-57330000D02*
X156370000Y-57330000D01*
X156370000Y-57330000D02*
X156370000Y-54670000D01*
D14*
X148000000Y-107000000D02*
X148000000Y-108400000D01*
X145400000Y-107000000D02*
X148000000Y-107000000D01*
X145400000Y-108400000D02*
X145400000Y-107000000D01*
X144500000Y-107000000D02*
X144500000Y-108400000D01*
X142000000Y-107000000D02*
X144500000Y-107000000D01*
X142000000Y-108400000D02*
X142000000Y-107000000D01*
X141500000Y-108400000D02*
X148500000Y-108400000D01*
X141500000Y-101600000D02*
X141500000Y-108400000D01*
X148500000Y-101600000D02*
X148500000Y-108400000D01*
X141500000Y-101600000D02*
X148500000Y-101600000D01*
X141000000Y-107000000D02*
X141000000Y-108400000D01*
X138400000Y-107000000D02*
X141000000Y-107000000D01*
X138400000Y-108400000D02*
X138400000Y-107000000D01*
X137500000Y-107000000D02*
X137500000Y-108400000D01*
X135000000Y-107000000D02*
X137500000Y-107000000D01*
X135000000Y-108400000D02*
X135000000Y-107000000D01*
X134500000Y-108400000D02*
X141500000Y-108400000D01*
X134500000Y-101600000D02*
X134500000Y-108400000D01*
X141500000Y-101600000D02*
X141500000Y-108400000D01*
X134500000Y-101600000D02*
X141500000Y-101600000D01*
X134000000Y-107000000D02*
X134000000Y-108400000D01*
X131400000Y-107000000D02*
X134000000Y-107000000D01*
X131400000Y-108400000D02*
X131400000Y-107000000D01*
X130500000Y-107000000D02*
X130500000Y-108400000D01*
X128000000Y-107000000D02*
X130500000Y-107000000D01*
X128000000Y-108400000D02*
X128000000Y-107000000D01*
X127500000Y-108400000D02*
X134500000Y-108400000D01*
X127500000Y-101600000D02*
X127500000Y-108400000D01*
X134500000Y-101600000D02*
X134500000Y-108400000D01*
X127500000Y-101600000D02*
X134500000Y-101600000D01*
X120000000Y-107000000D02*
X120000000Y-108400000D01*
X117400000Y-107000000D02*
X120000000Y-107000000D01*
X117400000Y-108400000D02*
X117400000Y-107000000D01*
X116500000Y-107000000D02*
X116500000Y-108400000D01*
X114000000Y-107000000D02*
X116500000Y-107000000D01*
X114000000Y-108400000D02*
X114000000Y-107000000D01*
X113500000Y-108400000D02*
X120500000Y-108400000D01*
X113500000Y-101600000D02*
X113500000Y-108400000D01*
X120500000Y-101600000D02*
X120500000Y-108400000D01*
X113500000Y-101600000D02*
X120500000Y-101600000D01*
X113000000Y-107000000D02*
X113000000Y-108400000D01*
X110400000Y-107000000D02*
X113000000Y-107000000D01*
X110400000Y-108400000D02*
X110400000Y-107000000D01*
X109500000Y-107000000D02*
X109500000Y-108400000D01*
X107000000Y-107000000D02*
X109500000Y-107000000D01*
X107000000Y-108400000D02*
X107000000Y-107000000D01*
X106500000Y-108400000D02*
X113500000Y-108400000D01*
X106500000Y-101600000D02*
X106500000Y-108400000D01*
X113500000Y-101600000D02*
X113500000Y-108400000D01*
X106500000Y-101600000D02*
X113500000Y-101600000D01*
D13*
X85147936Y-65410000D02*
X86352064Y-65410000D01*
X85147936Y-63590000D02*
X86352064Y-63590000D01*
X85147936Y-72410000D02*
X86352064Y-72410000D01*
X85147936Y-70590000D02*
X86352064Y-70590000D01*
X98630000Y-108080000D02*
X98630000Y-106750000D01*
X99960000Y-108080000D02*
X98630000Y-108080000D01*
X101230000Y-108080000D02*
X101230000Y-105420000D01*
X101230000Y-105420000D02*
X103830000Y-105420000D01*
X101230000Y-108080000D02*
X103830000Y-108080000D01*
X103830000Y-108080000D02*
X103830000Y-105420000D01*
X151170000Y-108080000D02*
X151170000Y-106750000D01*
X152500000Y-108080000D02*
X151170000Y-108080000D01*
X153770000Y-108080000D02*
X153770000Y-105420000D01*
X153770000Y-105420000D02*
X156370000Y-105420000D01*
X153770000Y-108080000D02*
X156370000Y-108080000D01*
X156370000Y-108080000D02*
X156370000Y-105420000D01*
X158380000Y-71580000D02*
X158380000Y-70250000D01*
X159710000Y-71580000D02*
X158380000Y-71580000D01*
X160980000Y-71580000D02*
X160980000Y-68920000D01*
X160980000Y-68920000D02*
X173740000Y-68920000D01*
X160980000Y-71580000D02*
X173740000Y-71580000D01*
X173740000Y-71580000D02*
X173740000Y-68920000D01*
X84640000Y-67100000D02*
X84640000Y-69550000D01*
X87860000Y-68900000D02*
X87860000Y-67100000D01*
D15*
X133455720Y-62000000D02*
G75*
G03X133455720Y-61994920I0J2540D01*
G01*
X123257620Y-61994920D02*
G75*
G03X123257620Y-62000000I0J-2540D01*
G01*
X133458260Y-46998760D02*
G75*
G03X133453180Y-46998760I-2540J0D01*
G01*
X133455720Y-62000000D02*
G75*
G03X133458260Y-61997460I0J2540D01*
G01*
X133453180Y-61997460D02*
G75*
G03X133455720Y-62000000I2540J0D01*
G01*
X123257620Y-46996220D02*
G75*
G03X123257620Y-47001300I0J-2540D01*
G01*
X133458260Y-46998760D02*
G75*
G03X133455720Y-46996220I-2540J0D01*
G01*
X133455720Y-47001300D02*
G75*
G03X133458260Y-46998760I0J2540D01*
G01*
X123257620Y-62000000D02*
G75*
G03X123260160Y-61997460I0J2540D01*
G01*
X123255080Y-61997460D02*
G75*
G03X123257620Y-62000000I2540J0D01*
G01*
X123257620Y-46996220D02*
G75*
G03X123255080Y-46998760I0J-2540D01*
G01*
X123260160Y-46998760D02*
G75*
G03X123257620Y-46996220I-2540J0D01*
G01*
X133455720Y-61997460D02*
X123257620Y-61997460D01*
X133455720Y-61994920D02*
X133455720Y-61997460D01*
X133455720Y-46998760D02*
X133455720Y-61994920D01*
X133453180Y-46998760D02*
X133455720Y-46998760D01*
X123257620Y-46998760D02*
X133453180Y-46998760D01*
X123257620Y-47001300D02*
X123257620Y-46998760D01*
X123257620Y-61994920D02*
X123257620Y-47001300D01*
X123257620Y-61997460D02*
X123257620Y-61994920D01*
D16*
X135833333Y-65607142D02*
X135785714Y-65654761D01*
X135642857Y-65702380D01*
X135547619Y-65702380D01*
X135404761Y-65654761D01*
X135309523Y-65559523D01*
X135261904Y-65464285D01*
X135214285Y-65273809D01*
X135214285Y-65130952D01*
X135261904Y-64940476D01*
X135309523Y-64845238D01*
X135404761Y-64750000D01*
X135547619Y-64702380D01*
X135642857Y-64702380D01*
X135785714Y-64750000D01*
X135833333Y-64797619D01*
X136166666Y-64702380D02*
X136785714Y-64702380D01*
X136452380Y-65083333D01*
X136595238Y-65083333D01*
X136690476Y-65130952D01*
X136738095Y-65178571D01*
X136785714Y-65273809D01*
X136785714Y-65511904D01*
X136738095Y-65607142D01*
X136690476Y-65654761D01*
X136595238Y-65702380D01*
X136309523Y-65702380D01*
X136214285Y-65654761D01*
X136166666Y-65607142D01*
X141583333Y-68607142D02*
X141535714Y-68654761D01*
X141392857Y-68702380D01*
X141297619Y-68702380D01*
X141154761Y-68654761D01*
X141059523Y-68559523D01*
X141011904Y-68464285D01*
X140964285Y-68273809D01*
X140964285Y-68130952D01*
X141011904Y-67940476D01*
X141059523Y-67845238D01*
X141154761Y-67750000D01*
X141297619Y-67702380D01*
X141392857Y-67702380D01*
X141535714Y-67750000D01*
X141583333Y-67797619D01*
X142488095Y-67702380D02*
X142011904Y-67702380D01*
X141964285Y-68178571D01*
X142011904Y-68130952D01*
X142107142Y-68083333D01*
X142345238Y-68083333D01*
X142440476Y-68130952D01*
X142488095Y-68178571D01*
X142535714Y-68273809D01*
X142535714Y-68511904D01*
X142488095Y-68607142D01*
X142440476Y-68654761D01*
X142345238Y-68702380D01*
X142107142Y-68702380D01*
X142011904Y-68654761D01*
X141964285Y-68607142D01*
X138333333Y-65607142D02*
X138285714Y-65654761D01*
X138142857Y-65702380D01*
X138047619Y-65702380D01*
X137904761Y-65654761D01*
X137809523Y-65559523D01*
X137761904Y-65464285D01*
X137714285Y-65273809D01*
X137714285Y-65130952D01*
X137761904Y-64940476D01*
X137809523Y-64845238D01*
X137904761Y-64750000D01*
X138047619Y-64702380D01*
X138142857Y-64702380D01*
X138285714Y-64750000D01*
X138333333Y-64797619D01*
X139190476Y-65035714D02*
X139190476Y-65702380D01*
X138952380Y-64654761D02*
X138714285Y-65369047D01*
X139333333Y-65369047D01*
X98666666Y-82904761D02*
X98809523Y-82952380D01*
X99047619Y-82952380D01*
X99142857Y-82904761D01*
X99190476Y-82857142D01*
X99238095Y-82761904D01*
X99238095Y-82666666D01*
X99190476Y-82571428D01*
X99142857Y-82523809D01*
X99047619Y-82476190D01*
X98857142Y-82428571D01*
X98761904Y-82380952D01*
X98714285Y-82333333D01*
X98666666Y-82238095D01*
X98666666Y-82142857D01*
X98714285Y-82047619D01*
X98761904Y-82000000D01*
X98857142Y-81952380D01*
X99095238Y-81952380D01*
X99238095Y-82000000D01*
X99571428Y-81952380D02*
X99809523Y-82952380D01*
X100000000Y-82238095D01*
X100190476Y-82952380D01*
X100428571Y-81952380D01*
X101333333Y-82952380D02*
X100761904Y-82952380D01*
X101047619Y-82952380D02*
X101047619Y-81952380D01*
X100952380Y-82095238D01*
X100857142Y-82190476D01*
X100761904Y-82238095D01*
X82166666Y-79928571D02*
X81833333Y-79928571D01*
X81833333Y-80452380D02*
X81833333Y-79452380D01*
X82309523Y-79452380D01*
X83214285Y-80452380D02*
X82642857Y-80452380D01*
X82928571Y-80452380D02*
X82928571Y-79452380D01*
X82833333Y-79595238D01*
X82738095Y-79690476D01*
X82642857Y-79738095D01*
X82404761Y-75297619D02*
X82309523Y-75250000D01*
X82214285Y-75154761D01*
X82071428Y-75011904D01*
X81976190Y-74964285D01*
X81880952Y-74964285D01*
X81928571Y-75202380D02*
X81833333Y-75154761D01*
X81738095Y-75059523D01*
X81690476Y-74869047D01*
X81690476Y-74535714D01*
X81738095Y-74345238D01*
X81833333Y-74250000D01*
X81928571Y-74202380D01*
X82119047Y-74202380D01*
X82214285Y-74250000D01*
X82309523Y-74345238D01*
X82357142Y-74535714D01*
X82357142Y-74869047D01*
X82309523Y-75059523D01*
X82214285Y-75154761D01*
X82119047Y-75202380D01*
X81928571Y-75202380D01*
X83309523Y-75202380D02*
X82738095Y-75202380D01*
X83023809Y-75202380D02*
X83023809Y-74202380D01*
X82928571Y-74345238D01*
X82833333Y-74440476D01*
X82738095Y-74488095D01*
X91940476Y-87202380D02*
X91940476Y-87916666D01*
X91892857Y-88059523D01*
X91797619Y-88154761D01*
X91654761Y-88202380D01*
X91559523Y-88202380D01*
X92940476Y-88202380D02*
X92369047Y-88202380D01*
X92654761Y-88202380D02*
X92654761Y-87202380D01*
X92559523Y-87345238D01*
X92464285Y-87440476D01*
X92369047Y-87488095D01*
X93321428Y-87297619D02*
X93369047Y-87250000D01*
X93464285Y-87202380D01*
X93702380Y-87202380D01*
X93797619Y-87250000D01*
X93845238Y-87297619D01*
X93892857Y-87392857D01*
X93892857Y-87488095D01*
X93845238Y-87630952D01*
X93273809Y-88202380D01*
X93892857Y-88202380D01*
X157607142Y-80452380D02*
X157273809Y-79976190D01*
X157035714Y-80452380D02*
X157035714Y-79452380D01*
X157416666Y-79452380D01*
X157511904Y-79500000D01*
X157559523Y-79547619D01*
X157607142Y-79642857D01*
X157607142Y-79785714D01*
X157559523Y-79880952D01*
X157511904Y-79928571D01*
X157416666Y-79976190D01*
X157035714Y-79976190D01*
X158559523Y-80452380D02*
X157988095Y-80452380D01*
X158273809Y-80452380D02*
X158273809Y-79452380D01*
X158178571Y-79595238D01*
X158083333Y-79690476D01*
X157988095Y-79738095D01*
X158940476Y-79547619D02*
X158988095Y-79500000D01*
X159083333Y-79452380D01*
X159321428Y-79452380D01*
X159416666Y-79500000D01*
X159464285Y-79547619D01*
X159511904Y-79642857D01*
X159511904Y-79738095D01*
X159464285Y-79880952D01*
X158892857Y-80452380D01*
X159511904Y-80452380D01*
X157607142Y-77952380D02*
X157273809Y-77476190D01*
X157035714Y-77952380D02*
X157035714Y-76952380D01*
X157416666Y-76952380D01*
X157511904Y-77000000D01*
X157559523Y-77047619D01*
X157607142Y-77142857D01*
X157607142Y-77285714D01*
X157559523Y-77380952D01*
X157511904Y-77428571D01*
X157416666Y-77476190D01*
X157035714Y-77476190D01*
X158559523Y-77952380D02*
X157988095Y-77952380D01*
X158273809Y-77952380D02*
X158273809Y-76952380D01*
X158178571Y-77095238D01*
X158083333Y-77190476D01*
X157988095Y-77238095D01*
X159511904Y-77952380D02*
X158940476Y-77952380D01*
X159226190Y-77952380D02*
X159226190Y-76952380D01*
X159130952Y-77095238D01*
X159035714Y-77190476D01*
X158940476Y-77238095D01*
X125416666Y-100253760D02*
X125416666Y-100968046D01*
X125369047Y-101110903D01*
X125273809Y-101206141D01*
X125130952Y-101253760D01*
X125035714Y-101253760D01*
X126035714Y-100682332D02*
X125940476Y-100634713D01*
X125892857Y-100587094D01*
X125845238Y-100491856D01*
X125845238Y-100444237D01*
X125892857Y-100348999D01*
X125940476Y-100301380D01*
X126035714Y-100253760D01*
X126226190Y-100253760D01*
X126321428Y-100301380D01*
X126369047Y-100348999D01*
X126416666Y-100444237D01*
X126416666Y-100491856D01*
X126369047Y-100587094D01*
X126321428Y-100634713D01*
X126226190Y-100682332D01*
X126035714Y-100682332D01*
X125940476Y-100729951D01*
X125892857Y-100777570D01*
X125845238Y-100872808D01*
X125845238Y-101063284D01*
X125892857Y-101158522D01*
X125940476Y-101206141D01*
X126035714Y-101253760D01*
X126226190Y-101253760D01*
X126321428Y-101206141D01*
X126369047Y-101158522D01*
X126416666Y-101063284D01*
X126416666Y-100872808D01*
X126369047Y-100777570D01*
X126321428Y-100729951D01*
X126226190Y-100682332D01*
X137007142Y-97202380D02*
X136673809Y-96726190D01*
X136435714Y-97202380D02*
X136435714Y-96202380D01*
X136816666Y-96202380D01*
X136911904Y-96250000D01*
X136959523Y-96297619D01*
X137007142Y-96392857D01*
X137007142Y-96535714D01*
X136959523Y-96630952D01*
X136911904Y-96678571D01*
X136816666Y-96726190D01*
X136435714Y-96726190D01*
X137959523Y-97202380D02*
X137388095Y-97202380D01*
X137673809Y-97202380D02*
X137673809Y-96202380D01*
X137578571Y-96345238D01*
X137483333Y-96440476D01*
X137388095Y-96488095D01*
X138578571Y-96202380D02*
X138673809Y-96202380D01*
X138769047Y-96250000D01*
X138816666Y-96297619D01*
X138864285Y-96392857D01*
X138911904Y-96583333D01*
X138911904Y-96821428D01*
X138864285Y-97011904D01*
X138816666Y-97107142D01*
X138769047Y-97154761D01*
X138673809Y-97202380D01*
X138578571Y-97202380D01*
X138483333Y-97154761D01*
X138435714Y-97107142D01*
X138388095Y-97011904D01*
X138340476Y-96821428D01*
X138340476Y-96583333D01*
X138388095Y-96392857D01*
X138435714Y-96297619D01*
X138483333Y-96250000D01*
X138578571Y-96202380D01*
X150333333Y-59702380D02*
X150000000Y-59226190D01*
X149761904Y-59702380D02*
X149761904Y-58702380D01*
X150142857Y-58702380D01*
X150238095Y-58750000D01*
X150285714Y-58797619D01*
X150333333Y-58892857D01*
X150333333Y-59035714D01*
X150285714Y-59130952D01*
X150238095Y-59178571D01*
X150142857Y-59226190D01*
X149761904Y-59226190D01*
X150809523Y-59702380D02*
X151000000Y-59702380D01*
X151095238Y-59654761D01*
X151142857Y-59607142D01*
X151238095Y-59464285D01*
X151285714Y-59273809D01*
X151285714Y-58892857D01*
X151238095Y-58797619D01*
X151190476Y-58750000D01*
X151095238Y-58702380D01*
X150904761Y-58702380D01*
X150809523Y-58750000D01*
X150761904Y-58797619D01*
X150714285Y-58892857D01*
X150714285Y-59130952D01*
X150761904Y-59226190D01*
X150809523Y-59273809D01*
X150904761Y-59321428D01*
X151095238Y-59321428D01*
X151190476Y-59273809D01*
X151238095Y-59226190D01*
X151285714Y-59130952D01*
X104583333Y-59702380D02*
X104250000Y-59226190D01*
X104011904Y-59702380D02*
X104011904Y-58702380D01*
X104392857Y-58702380D01*
X104488095Y-58750000D01*
X104535714Y-58797619D01*
X104583333Y-58892857D01*
X104583333Y-59035714D01*
X104535714Y-59130952D01*
X104488095Y-59178571D01*
X104392857Y-59226190D01*
X104011904Y-59226190D01*
X105154761Y-59130952D02*
X105059523Y-59083333D01*
X105011904Y-59035714D01*
X104964285Y-58940476D01*
X104964285Y-58892857D01*
X105011904Y-58797619D01*
X105059523Y-58750000D01*
X105154761Y-58702380D01*
X105345238Y-58702380D01*
X105440476Y-58750000D01*
X105488095Y-58797619D01*
X105535714Y-58892857D01*
X105535714Y-58940476D01*
X105488095Y-59035714D01*
X105440476Y-59083333D01*
X105345238Y-59130952D01*
X105154761Y-59130952D01*
X105059523Y-59178571D01*
X105011904Y-59226190D01*
X104964285Y-59321428D01*
X104964285Y-59511904D01*
X105011904Y-59607142D01*
X105059523Y-59654761D01*
X105154761Y-59702380D01*
X105345238Y-59702380D01*
X105440476Y-59654761D01*
X105488095Y-59607142D01*
X105535714Y-59511904D01*
X105535714Y-59321428D01*
X105488095Y-59226190D01*
X105440476Y-59178571D01*
X105345238Y-59130952D01*
X151583333Y-97202380D02*
X151250000Y-96726190D01*
X151011904Y-97202380D02*
X151011904Y-96202380D01*
X151392857Y-96202380D01*
X151488095Y-96250000D01*
X151535714Y-96297619D01*
X151583333Y-96392857D01*
X151583333Y-96535714D01*
X151535714Y-96630952D01*
X151488095Y-96678571D01*
X151392857Y-96726190D01*
X151011904Y-96726190D01*
X151916666Y-96202380D02*
X152583333Y-96202380D01*
X152154761Y-97202380D01*
X144483333Y-97202380D02*
X144150000Y-96726190D01*
X143911904Y-97202380D02*
X143911904Y-96202380D01*
X144292857Y-96202380D01*
X144388095Y-96250000D01*
X144435714Y-96297619D01*
X144483333Y-96392857D01*
X144483333Y-96535714D01*
X144435714Y-96630952D01*
X144388095Y-96678571D01*
X144292857Y-96726190D01*
X143911904Y-96726190D01*
X145340476Y-96202380D02*
X145150000Y-96202380D01*
X145054761Y-96250000D01*
X145007142Y-96297619D01*
X144911904Y-96440476D01*
X144864285Y-96630952D01*
X144864285Y-97011904D01*
X144911904Y-97107142D01*
X144959523Y-97154761D01*
X145054761Y-97202380D01*
X145245238Y-97202380D01*
X145340476Y-97154761D01*
X145388095Y-97107142D01*
X145435714Y-97011904D01*
X145435714Y-96773809D01*
X145388095Y-96678571D01*
X145340476Y-96630952D01*
X145245238Y-96583333D01*
X145054761Y-96583333D01*
X144959523Y-96630952D01*
X144911904Y-96678571D01*
X144864285Y-96773809D01*
X102583333Y-97202380D02*
X102250000Y-96726190D01*
X102011904Y-97202380D02*
X102011904Y-96202380D01*
X102392857Y-96202380D01*
X102488095Y-96250000D01*
X102535714Y-96297619D01*
X102583333Y-96392857D01*
X102583333Y-96535714D01*
X102535714Y-96630952D01*
X102488095Y-96678571D01*
X102392857Y-96726190D01*
X102011904Y-96726190D01*
X103488095Y-96202380D02*
X103011904Y-96202380D01*
X102964285Y-96678571D01*
X103011904Y-96630952D01*
X103107142Y-96583333D01*
X103345238Y-96583333D01*
X103440476Y-96630952D01*
X103488095Y-96678571D01*
X103535714Y-96773809D01*
X103535714Y-97011904D01*
X103488095Y-97107142D01*
X103440476Y-97154761D01*
X103345238Y-97202380D01*
X103107142Y-97202380D01*
X103011904Y-97154761D01*
X102964285Y-97107142D01*
X123483333Y-97202380D02*
X123150000Y-96726190D01*
X122911904Y-97202380D02*
X122911904Y-96202380D01*
X123292857Y-96202380D01*
X123388095Y-96250000D01*
X123435714Y-96297619D01*
X123483333Y-96392857D01*
X123483333Y-96535714D01*
X123435714Y-96630952D01*
X123388095Y-96678571D01*
X123292857Y-96726190D01*
X122911904Y-96726190D01*
X124340476Y-96535714D02*
X124340476Y-97202380D01*
X124102380Y-96154761D02*
X123864285Y-96869047D01*
X124483333Y-96869047D01*
X116483333Y-97202380D02*
X116150000Y-96726190D01*
X115911904Y-97202380D02*
X115911904Y-96202380D01*
X116292857Y-96202380D01*
X116388095Y-96250000D01*
X116435714Y-96297619D01*
X116483333Y-96392857D01*
X116483333Y-96535714D01*
X116435714Y-96630952D01*
X116388095Y-96678571D01*
X116292857Y-96726190D01*
X115911904Y-96726190D01*
X116816666Y-96202380D02*
X117435714Y-96202380D01*
X117102380Y-96583333D01*
X117245238Y-96583333D01*
X117340476Y-96630952D01*
X117388095Y-96678571D01*
X117435714Y-96773809D01*
X117435714Y-97011904D01*
X117388095Y-97107142D01*
X117340476Y-97154761D01*
X117245238Y-97202380D01*
X116959523Y-97202380D01*
X116864285Y-97154761D01*
X116816666Y-97107142D01*
X109483333Y-97202380D02*
X109150000Y-96726190D01*
X108911904Y-97202380D02*
X108911904Y-96202380D01*
X109292857Y-96202380D01*
X109388095Y-96250000D01*
X109435714Y-96297619D01*
X109483333Y-96392857D01*
X109483333Y-96535714D01*
X109435714Y-96630952D01*
X109388095Y-96678571D01*
X109292857Y-96726190D01*
X108911904Y-96726190D01*
X109864285Y-96297619D02*
X109911904Y-96250000D01*
X110007142Y-96202380D01*
X110245238Y-96202380D01*
X110340476Y-96250000D01*
X110388095Y-96297619D01*
X110435714Y-96392857D01*
X110435714Y-96488095D01*
X110388095Y-96630952D01*
X109816666Y-97202380D01*
X110435714Y-97202380D01*
X130483333Y-97202380D02*
X130150000Y-96726190D01*
X129911904Y-97202380D02*
X129911904Y-96202380D01*
X130292857Y-96202380D01*
X130388095Y-96250000D01*
X130435714Y-96297619D01*
X130483333Y-96392857D01*
X130483333Y-96535714D01*
X130435714Y-96630952D01*
X130388095Y-96678571D01*
X130292857Y-96726190D01*
X129911904Y-96726190D01*
X131435714Y-97202380D02*
X130864285Y-97202380D01*
X131150000Y-97202380D02*
X131150000Y-96202380D01*
X131054761Y-96345238D01*
X130959523Y-96440476D01*
X130864285Y-96488095D01*
X104876666Y-55702380D02*
X104876666Y-56416666D01*
X104829047Y-56559523D01*
X104733809Y-56654761D01*
X104590952Y-56702380D01*
X104495714Y-56702380D01*
X105781428Y-56035714D02*
X105781428Y-56702380D01*
X105543333Y-55654761D02*
X105305238Y-56369047D01*
X105924285Y-56369047D01*
X149416666Y-55452380D02*
X149416666Y-56166666D01*
X149369047Y-56309523D01*
X149273809Y-56404761D01*
X149130952Y-56452380D01*
X149035714Y-56452380D01*
X150369047Y-55452380D02*
X149892857Y-55452380D01*
X149845238Y-55928571D01*
X149892857Y-55880952D01*
X149988095Y-55833333D01*
X150226190Y-55833333D01*
X150321428Y-55880952D01*
X150369047Y-55928571D01*
X150416666Y-56023809D01*
X150416666Y-56261904D01*
X150369047Y-56357142D01*
X150321428Y-56404761D01*
X150226190Y-56452380D01*
X149988095Y-56452380D01*
X149892857Y-56404761D01*
X149845238Y-56357142D01*
X145440476Y-100253760D02*
X145440476Y-100968046D01*
X145392857Y-101110903D01*
X145297619Y-101206141D01*
X145154761Y-101253760D01*
X145059523Y-101253760D01*
X146440476Y-101253760D02*
X145869047Y-101253760D01*
X146154761Y-101253760D02*
X146154761Y-100253760D01*
X146059523Y-100396618D01*
X145964285Y-100491856D01*
X145869047Y-100539475D01*
X147392857Y-101253760D02*
X146821428Y-101253760D01*
X147107142Y-101253760D02*
X147107142Y-100253760D01*
X147011904Y-100396618D01*
X146916666Y-100491856D01*
X146821428Y-100539475D01*
X138690476Y-100253760D02*
X138690476Y-100968046D01*
X138642857Y-101110903D01*
X138547619Y-101206141D01*
X138404761Y-101253760D01*
X138309523Y-101253760D01*
X139690476Y-101253760D02*
X139119047Y-101253760D01*
X139404761Y-101253760D02*
X139404761Y-100253760D01*
X139309523Y-100396618D01*
X139214285Y-100491856D01*
X139119047Y-100539475D01*
X140309523Y-100253760D02*
X140404761Y-100253760D01*
X140500000Y-100301380D01*
X140547619Y-100348999D01*
X140595238Y-100444237D01*
X140642857Y-100634713D01*
X140642857Y-100872808D01*
X140595238Y-101063284D01*
X140547619Y-101158522D01*
X140500000Y-101206141D01*
X140404761Y-101253760D01*
X140309523Y-101253760D01*
X140214285Y-101206141D01*
X140166666Y-101158522D01*
X140119047Y-101063284D01*
X140071428Y-100872808D01*
X140071428Y-100634713D01*
X140119047Y-100444237D01*
X140166666Y-100348999D01*
X140214285Y-100301380D01*
X140309523Y-100253760D01*
X132166666Y-100253760D02*
X132166666Y-100968046D01*
X132119047Y-101110903D01*
X132023809Y-101206141D01*
X131880952Y-101253760D01*
X131785714Y-101253760D01*
X132690476Y-101253760D02*
X132880952Y-101253760D01*
X132976190Y-101206141D01*
X133023809Y-101158522D01*
X133119047Y-101015665D01*
X133166666Y-100825189D01*
X133166666Y-100444237D01*
X133119047Y-100348999D01*
X133071428Y-100301380D01*
X132976190Y-100253760D01*
X132785714Y-100253760D01*
X132690476Y-100301380D01*
X132642857Y-100348999D01*
X132595238Y-100444237D01*
X132595238Y-100682332D01*
X132642857Y-100777570D01*
X132690476Y-100825189D01*
X132785714Y-100872808D01*
X132976190Y-100872808D01*
X133071428Y-100825189D01*
X133119047Y-100777570D01*
X133166666Y-100682332D01*
X118416666Y-100202380D02*
X118416666Y-100916666D01*
X118369047Y-101059523D01*
X118273809Y-101154761D01*
X118130952Y-101202380D01*
X118035714Y-101202380D01*
X118797619Y-100202380D02*
X119464285Y-100202380D01*
X119035714Y-101202380D01*
X109666666Y-100253760D02*
X109666666Y-100968046D01*
X109619047Y-101110903D01*
X109523809Y-101206141D01*
X109380952Y-101253760D01*
X109285714Y-101253760D01*
X110571428Y-100253760D02*
X110380952Y-100253760D01*
X110285714Y-100301380D01*
X110238095Y-100348999D01*
X110142857Y-100491856D01*
X110095238Y-100682332D01*
X110095238Y-101063284D01*
X110142857Y-101158522D01*
X110190476Y-101206141D01*
X110285714Y-101253760D01*
X110476190Y-101253760D01*
X110571428Y-101206141D01*
X110619047Y-101158522D01*
X110666666Y-101063284D01*
X110666666Y-100825189D01*
X110619047Y-100729951D01*
X110571428Y-100682332D01*
X110476190Y-100634713D01*
X110285714Y-100634713D01*
X110190476Y-100682332D01*
X110142857Y-100729951D01*
X110095238Y-100825189D01*
X82333333Y-64857142D02*
X82285714Y-64904761D01*
X82142857Y-64952380D01*
X82047619Y-64952380D01*
X81904761Y-64904761D01*
X81809523Y-64809523D01*
X81761904Y-64714285D01*
X81714285Y-64523809D01*
X81714285Y-64380952D01*
X81761904Y-64190476D01*
X81809523Y-64095238D01*
X81904761Y-64000000D01*
X82047619Y-63952380D01*
X82142857Y-63952380D01*
X82285714Y-64000000D01*
X82333333Y-64047619D01*
X82714285Y-64047619D02*
X82761904Y-64000000D01*
X82857142Y-63952380D01*
X83095238Y-63952380D01*
X83190476Y-64000000D01*
X83238095Y-64047619D01*
X83285714Y-64142857D01*
X83285714Y-64238095D01*
X83238095Y-64380952D01*
X82666666Y-64952380D01*
X83285714Y-64952380D01*
X82333333Y-71857142D02*
X82285714Y-71904761D01*
X82142857Y-71952380D01*
X82047619Y-71952380D01*
X81904761Y-71904761D01*
X81809523Y-71809523D01*
X81761904Y-71714285D01*
X81714285Y-71523809D01*
X81714285Y-71380952D01*
X81761904Y-71190476D01*
X81809523Y-71095238D01*
X81904761Y-71000000D01*
X82047619Y-70952380D01*
X82142857Y-70952380D01*
X82285714Y-71000000D01*
X82333333Y-71047619D01*
X83285714Y-71952380D02*
X82714285Y-71952380D01*
X83000000Y-71952380D02*
X83000000Y-70952380D01*
X82904761Y-71095238D01*
X82809523Y-71190476D01*
X82714285Y-71238095D01*
X101126666Y-103702380D02*
X101126666Y-104416666D01*
X101079047Y-104559523D01*
X100983809Y-104654761D01*
X100840952Y-104702380D01*
X100745714Y-104702380D01*
X101555238Y-103797619D02*
X101602857Y-103750000D01*
X101698095Y-103702380D01*
X101936190Y-103702380D01*
X102031428Y-103750000D01*
X102079047Y-103797619D01*
X102126666Y-103892857D01*
X102126666Y-103988095D01*
X102079047Y-104130952D01*
X101507619Y-104702380D01*
X102126666Y-104702380D01*
X153416666Y-103702380D02*
X153416666Y-104416666D01*
X153369047Y-104559523D01*
X153273809Y-104654761D01*
X153130952Y-104702380D01*
X153035714Y-104702380D01*
X153797619Y-103702380D02*
X154416666Y-103702380D01*
X154083333Y-104083333D01*
X154226190Y-104083333D01*
X154321428Y-104130952D01*
X154369047Y-104178571D01*
X154416666Y-104273809D01*
X154416666Y-104511904D01*
X154369047Y-104607142D01*
X154321428Y-104654761D01*
X154226190Y-104702380D01*
X153940476Y-104702380D01*
X153845238Y-104654761D01*
X153797619Y-104607142D01*
X156666666Y-70702380D02*
X156666666Y-71416666D01*
X156619047Y-71559523D01*
X156523809Y-71654761D01*
X156380952Y-71702380D01*
X156285714Y-71702380D01*
X157666666Y-71702380D02*
X157095238Y-71702380D01*
X157380952Y-71702380D02*
X157380952Y-70702380D01*
X157285714Y-70845238D01*
X157190476Y-70940476D01*
X157095238Y-70988095D01*
X82588095Y-67702380D02*
X82588095Y-68511904D01*
X82635714Y-68607142D01*
X82683333Y-68654761D01*
X82778571Y-68702380D01*
X82969047Y-68702380D01*
X83064285Y-68654761D01*
X83111904Y-68607142D01*
X83159523Y-68511904D01*
X83159523Y-67702380D01*
X83588095Y-67797619D02*
X83635714Y-67750000D01*
X83730952Y-67702380D01*
X83969047Y-67702380D01*
X84064285Y-67750000D01*
X84111904Y-67797619D01*
X84159523Y-67892857D01*
X84159523Y-67988095D01*
X84111904Y-68130952D01*
X83540476Y-68702380D01*
X84159523Y-68702380D01*
X131338857Y-62165428D02*
X131338857Y-63399142D01*
X131411428Y-63544285D01*
X131484000Y-63616857D01*
X131629142Y-63689428D01*
X131919428Y-63689428D01*
X132064571Y-63616857D01*
X132137142Y-63544285D01*
X132209714Y-63399142D01*
X132209714Y-62165428D01*
X133733714Y-63689428D02*
X132862857Y-63689428D01*
X133298285Y-63689428D02*
X133298285Y-62165428D01*
X133153142Y-62383142D01*
X133008000Y-62528285D01*
X132862857Y-62600857D01*
M02*
