G04 #@! TF.GenerationSoftware,KiCad,Pcbnew,(5.1.0)-1*
G04 #@! TF.CreationDate,2019-04-30T23:12:18+02:00*
G04 #@! TF.ProjectId,ArcJoy,4172634a-6f79-42e6-9b69-6361645f7063,1*
G04 #@! TF.SameCoordinates,Original*
G04 #@! TF.FileFunction,Copper,L2,Bot*
G04 #@! TF.FilePolarity,Positive*
%FSLAX46Y46*%
G04 Gerber Fmt 4.6, Leading zero omitted, Abs format (unit mm)*
G04 Created by KiCad (PCBNEW (5.1.0)-1) date 2019-04-30 23:12:18*
%MOMM*%
%LPD*%
G04 APERTURE LIST*
%ADD10C,2.400000*%
%ADD11C,1.800000*%
%ADD12R,1.800000X1.800000*%
%ADD13O,1.700000X1.700000*%
%ADD14R,1.700000X1.700000*%
%ADD15C,0.800000*%
%ADD16C,0.500000*%
%ADD17C,0.254000*%
G04 APERTURE END LIST*
D10*
X89250000Y-88250000D03*
X85750000Y-88250000D03*
D11*
X172540000Y-80000000D03*
X170000000Y-80000000D03*
D12*
X167460000Y-80000000D03*
D10*
X125750000Y-105000000D03*
X122250000Y-105000000D03*
D13*
X102500000Y-56000000D03*
D14*
X99960000Y-56000000D03*
D13*
X155040000Y-56000000D03*
D14*
X152500000Y-56000000D03*
D10*
X146750000Y-105000000D03*
X143250000Y-105000000D03*
X139750000Y-105000000D03*
X136250000Y-105000000D03*
X132750000Y-105000000D03*
X129250000Y-105000000D03*
X118750000Y-105000000D03*
X115250000Y-105000000D03*
X111750000Y-105000000D03*
X108250000Y-105000000D03*
D13*
X102500000Y-106750000D03*
D14*
X99960000Y-106750000D03*
D13*
X155040000Y-106750000D03*
D14*
X152500000Y-106750000D03*
D13*
X172410000Y-70250000D03*
X169870000Y-70250000D03*
X167330000Y-70250000D03*
X164790000Y-70250000D03*
X162250000Y-70250000D03*
D14*
X159710000Y-70250000D03*
D15*
X159250000Y-66700000D03*
X106250000Y-95950000D03*
X106250000Y-97550000D03*
X107450000Y-100750000D03*
X109050000Y-100750000D03*
X114450000Y-100750000D03*
X116050000Y-100750000D03*
X121450000Y-100750000D03*
X123050000Y-100750000D03*
X128450000Y-100750000D03*
X130050000Y-100750000D03*
X135450000Y-100750000D03*
X137050000Y-100750000D03*
X142450000Y-100750000D03*
X144050000Y-100750000D03*
X149450000Y-100750000D03*
X151050000Y-100750000D03*
X111550000Y-61750000D03*
X115013816Y-65213816D03*
X125249970Y-64499970D03*
X127817200Y-67064176D03*
X133000000Y-67250030D03*
X136750030Y-67000000D03*
X146699950Y-62500000D03*
X151550000Y-62500000D03*
X142500000Y-59750000D03*
X141000000Y-59750000D03*
X139250000Y-59750000D03*
X137750000Y-59750000D03*
X135250000Y-59750000D03*
X88500000Y-70750000D03*
X134250000Y-52561360D03*
X134250000Y-61362460D03*
X126137980Y-62750000D03*
X126170275Y-59420275D03*
X122500000Y-60260100D03*
X122500000Y-59160280D03*
X122500000Y-54761000D03*
X122500000Y-53661180D03*
X122500000Y-52561360D03*
X126000000Y-53110000D03*
X126000000Y-54212360D03*
X88500000Y-65250000D03*
X88500000Y-63750000D03*
X88500000Y-72250000D03*
X87500000Y-73750000D03*
X93500000Y-66900000D03*
X93500000Y-69440000D03*
X93500000Y-71980000D03*
X93500000Y-74520000D03*
X93500000Y-77060000D03*
X93500000Y-79600000D03*
X136750000Y-59750000D03*
D16*
X159250000Y-69790000D02*
X159710000Y-70250000D01*
X159250000Y-66700000D02*
X159250000Y-69790000D01*
X106250000Y-95950000D02*
X106250000Y-97550000D01*
X107450000Y-100750000D02*
X109050000Y-100750000D01*
X114450000Y-100750000D02*
X116050000Y-100750000D01*
X121450000Y-100750000D02*
X123050000Y-100750000D01*
X128450000Y-100750000D02*
X130050000Y-100750000D01*
X135450000Y-100750000D02*
X137050000Y-100750000D01*
X142450000Y-100750000D02*
X144050000Y-100750000D01*
X149450000Y-100750000D02*
X151050000Y-100750000D01*
X111550000Y-61750000D02*
X115000000Y-65200000D01*
X115000000Y-65200000D02*
X115013816Y-65213816D01*
X125249970Y-64499970D02*
X127750000Y-67000000D01*
X127750000Y-67000000D02*
X127753024Y-67000000D01*
X127753024Y-67000000D02*
X127817200Y-67064176D01*
X133000000Y-67250030D02*
X136500000Y-67250030D01*
X136500000Y-67250030D02*
X136750030Y-67000000D01*
X146699950Y-62500000D02*
X151550000Y-62500000D01*
D17*
G36*
X95260388Y-51943769D02*
G01*
X95281052Y-51968948D01*
X95381550Y-52051425D01*
X95496207Y-52112710D01*
X95620617Y-52150450D01*
X95717581Y-52160000D01*
X95717590Y-52160000D01*
X95749999Y-52163192D01*
X95782408Y-52160000D01*
X159123000Y-52160000D01*
X159123000Y-58775817D01*
X159425709Y-60297636D01*
X160019494Y-61731158D01*
X160881535Y-63021295D01*
X161978705Y-64118465D01*
X163268842Y-64980506D01*
X164702364Y-65574291D01*
X166224183Y-65877000D01*
X174340000Y-65877000D01*
X174340001Y-109340000D01*
X95877000Y-109340000D01*
X95877000Y-105900000D01*
X98471928Y-105900000D01*
X98471928Y-107600000D01*
X98484188Y-107724482D01*
X98520498Y-107844180D01*
X98579463Y-107954494D01*
X98658815Y-108051185D01*
X98755506Y-108130537D01*
X98865820Y-108189502D01*
X98985518Y-108225812D01*
X99110000Y-108238072D01*
X100810000Y-108238072D01*
X100934482Y-108225812D01*
X101054180Y-108189502D01*
X101164494Y-108130537D01*
X101261185Y-108051185D01*
X101340537Y-107954494D01*
X101399502Y-107844180D01*
X101423966Y-107763534D01*
X101499731Y-107847588D01*
X101733080Y-108021641D01*
X101995901Y-108146825D01*
X102143110Y-108191476D01*
X102373000Y-108070155D01*
X102373000Y-106877000D01*
X102627000Y-106877000D01*
X102627000Y-108070155D01*
X102856890Y-108191476D01*
X103004099Y-108146825D01*
X103266920Y-108021641D01*
X103500269Y-107847588D01*
X103695178Y-107631355D01*
X103844157Y-107381252D01*
X103941481Y-107106891D01*
X103820814Y-106877000D01*
X102627000Y-106877000D01*
X102373000Y-106877000D01*
X102353000Y-106877000D01*
X102353000Y-106623000D01*
X102373000Y-106623000D01*
X102373000Y-105429845D01*
X102627000Y-105429845D01*
X102627000Y-106623000D01*
X103820814Y-106623000D01*
X103941481Y-106393109D01*
X103844157Y-106118748D01*
X103695178Y-105868645D01*
X103500269Y-105652412D01*
X103266920Y-105478359D01*
X103004099Y-105353175D01*
X102856890Y-105308524D01*
X102627000Y-105429845D01*
X102373000Y-105429845D01*
X102143110Y-105308524D01*
X101995901Y-105353175D01*
X101733080Y-105478359D01*
X101499731Y-105652412D01*
X101423966Y-105736466D01*
X101399502Y-105655820D01*
X101340537Y-105545506D01*
X101261185Y-105448815D01*
X101164494Y-105369463D01*
X101054180Y-105310498D01*
X100934482Y-105274188D01*
X100810000Y-105261928D01*
X99110000Y-105261928D01*
X98985518Y-105274188D01*
X98865820Y-105310498D01*
X98755506Y-105369463D01*
X98658815Y-105448815D01*
X98579463Y-105545506D01*
X98520498Y-105655820D01*
X98484188Y-105775518D01*
X98471928Y-105900000D01*
X95877000Y-105900000D01*
X95877000Y-104819268D01*
X106415000Y-104819268D01*
X106415000Y-105180732D01*
X106485518Y-105535250D01*
X106623844Y-105869199D01*
X106824662Y-106169744D01*
X107080256Y-106425338D01*
X107380801Y-106626156D01*
X107714750Y-106764482D01*
X108069268Y-106835000D01*
X108430732Y-106835000D01*
X108785250Y-106764482D01*
X109119199Y-106626156D01*
X109419744Y-106425338D01*
X109567102Y-106277980D01*
X110651626Y-106277980D01*
X110771514Y-106562836D01*
X111095210Y-106723699D01*
X111444069Y-106818322D01*
X111804684Y-106843067D01*
X112163198Y-106796985D01*
X112505833Y-106681846D01*
X112728486Y-106562836D01*
X112848374Y-106277980D01*
X111750000Y-105179605D01*
X110651626Y-106277980D01*
X109567102Y-106277980D01*
X109675338Y-106169744D01*
X109876156Y-105869199D01*
X110003190Y-105562511D01*
X110068154Y-105755833D01*
X110187164Y-105978486D01*
X110472020Y-106098374D01*
X111570395Y-105000000D01*
X111929605Y-105000000D01*
X113027980Y-106098374D01*
X113312836Y-105978486D01*
X113473699Y-105654790D01*
X113497969Y-105565310D01*
X113623844Y-105869199D01*
X113824662Y-106169744D01*
X114080256Y-106425338D01*
X114380801Y-106626156D01*
X114714750Y-106764482D01*
X115069268Y-106835000D01*
X115430732Y-106835000D01*
X115785250Y-106764482D01*
X116119199Y-106626156D01*
X116419744Y-106425338D01*
X116567102Y-106277980D01*
X117651626Y-106277980D01*
X117771514Y-106562836D01*
X118095210Y-106723699D01*
X118444069Y-106818322D01*
X118804684Y-106843067D01*
X119163198Y-106796985D01*
X119505833Y-106681846D01*
X119728486Y-106562836D01*
X119848374Y-106277980D01*
X118750000Y-105179605D01*
X117651626Y-106277980D01*
X116567102Y-106277980D01*
X116675338Y-106169744D01*
X116876156Y-105869199D01*
X117003190Y-105562511D01*
X117068154Y-105755833D01*
X117187164Y-105978486D01*
X117472020Y-106098374D01*
X118570395Y-105000000D01*
X118929605Y-105000000D01*
X120027980Y-106098374D01*
X120312836Y-105978486D01*
X120473699Y-105654790D01*
X120497969Y-105565310D01*
X120623844Y-105869199D01*
X120824662Y-106169744D01*
X121080256Y-106425338D01*
X121380801Y-106626156D01*
X121714750Y-106764482D01*
X122069268Y-106835000D01*
X122430732Y-106835000D01*
X122785250Y-106764482D01*
X123119199Y-106626156D01*
X123419744Y-106425338D01*
X123567102Y-106277980D01*
X124651626Y-106277980D01*
X124771514Y-106562836D01*
X125095210Y-106723699D01*
X125444069Y-106818322D01*
X125804684Y-106843067D01*
X126163198Y-106796985D01*
X126505833Y-106681846D01*
X126728486Y-106562836D01*
X126848374Y-106277980D01*
X125750000Y-105179605D01*
X124651626Y-106277980D01*
X123567102Y-106277980D01*
X123675338Y-106169744D01*
X123876156Y-105869199D01*
X124003190Y-105562511D01*
X124068154Y-105755833D01*
X124187164Y-105978486D01*
X124472020Y-106098374D01*
X125570395Y-105000000D01*
X125929605Y-105000000D01*
X127027980Y-106098374D01*
X127312836Y-105978486D01*
X127473699Y-105654790D01*
X127497969Y-105565310D01*
X127623844Y-105869199D01*
X127824662Y-106169744D01*
X128080256Y-106425338D01*
X128380801Y-106626156D01*
X128714750Y-106764482D01*
X129069268Y-106835000D01*
X129430732Y-106835000D01*
X129785250Y-106764482D01*
X130119199Y-106626156D01*
X130419744Y-106425338D01*
X130567102Y-106277980D01*
X131651626Y-106277980D01*
X131771514Y-106562836D01*
X132095210Y-106723699D01*
X132444069Y-106818322D01*
X132804684Y-106843067D01*
X133163198Y-106796985D01*
X133505833Y-106681846D01*
X133728486Y-106562836D01*
X133848374Y-106277980D01*
X132750000Y-105179605D01*
X131651626Y-106277980D01*
X130567102Y-106277980D01*
X130675338Y-106169744D01*
X130876156Y-105869199D01*
X131003190Y-105562511D01*
X131068154Y-105755833D01*
X131187164Y-105978486D01*
X131472020Y-106098374D01*
X132570395Y-105000000D01*
X132929605Y-105000000D01*
X134027980Y-106098374D01*
X134312836Y-105978486D01*
X134473699Y-105654790D01*
X134497969Y-105565310D01*
X134623844Y-105869199D01*
X134824662Y-106169744D01*
X135080256Y-106425338D01*
X135380801Y-106626156D01*
X135714750Y-106764482D01*
X136069268Y-106835000D01*
X136430732Y-106835000D01*
X136785250Y-106764482D01*
X137119199Y-106626156D01*
X137419744Y-106425338D01*
X137567102Y-106277980D01*
X138651626Y-106277980D01*
X138771514Y-106562836D01*
X139095210Y-106723699D01*
X139444069Y-106818322D01*
X139804684Y-106843067D01*
X140163198Y-106796985D01*
X140505833Y-106681846D01*
X140728486Y-106562836D01*
X140848374Y-106277980D01*
X139750000Y-105179605D01*
X138651626Y-106277980D01*
X137567102Y-106277980D01*
X137675338Y-106169744D01*
X137876156Y-105869199D01*
X138003190Y-105562511D01*
X138068154Y-105755833D01*
X138187164Y-105978486D01*
X138472020Y-106098374D01*
X139570395Y-105000000D01*
X139929605Y-105000000D01*
X141027980Y-106098374D01*
X141312836Y-105978486D01*
X141473699Y-105654790D01*
X141497969Y-105565310D01*
X141623844Y-105869199D01*
X141824662Y-106169744D01*
X142080256Y-106425338D01*
X142380801Y-106626156D01*
X142714750Y-106764482D01*
X143069268Y-106835000D01*
X143430732Y-106835000D01*
X143785250Y-106764482D01*
X144119199Y-106626156D01*
X144419744Y-106425338D01*
X144567102Y-106277980D01*
X145651626Y-106277980D01*
X145771514Y-106562836D01*
X146095210Y-106723699D01*
X146444069Y-106818322D01*
X146804684Y-106843067D01*
X147163198Y-106796985D01*
X147505833Y-106681846D01*
X147728486Y-106562836D01*
X147848374Y-106277980D01*
X146750000Y-105179605D01*
X145651626Y-106277980D01*
X144567102Y-106277980D01*
X144675338Y-106169744D01*
X144876156Y-105869199D01*
X145003190Y-105562511D01*
X145068154Y-105755833D01*
X145187164Y-105978486D01*
X145472020Y-106098374D01*
X146570395Y-105000000D01*
X146929605Y-105000000D01*
X148027980Y-106098374D01*
X148312836Y-105978486D01*
X148351840Y-105900000D01*
X151011928Y-105900000D01*
X151011928Y-107600000D01*
X151024188Y-107724482D01*
X151060498Y-107844180D01*
X151119463Y-107954494D01*
X151198815Y-108051185D01*
X151295506Y-108130537D01*
X151405820Y-108189502D01*
X151525518Y-108225812D01*
X151650000Y-108238072D01*
X153350000Y-108238072D01*
X153474482Y-108225812D01*
X153594180Y-108189502D01*
X153704494Y-108130537D01*
X153801185Y-108051185D01*
X153880537Y-107954494D01*
X153939502Y-107844180D01*
X153963966Y-107763534D01*
X154039731Y-107847588D01*
X154273080Y-108021641D01*
X154535901Y-108146825D01*
X154683110Y-108191476D01*
X154913000Y-108070155D01*
X154913000Y-106877000D01*
X155167000Y-106877000D01*
X155167000Y-108070155D01*
X155396890Y-108191476D01*
X155544099Y-108146825D01*
X155806920Y-108021641D01*
X156040269Y-107847588D01*
X156235178Y-107631355D01*
X156384157Y-107381252D01*
X156481481Y-107106891D01*
X156360814Y-106877000D01*
X155167000Y-106877000D01*
X154913000Y-106877000D01*
X154893000Y-106877000D01*
X154893000Y-106623000D01*
X154913000Y-106623000D01*
X154913000Y-105429845D01*
X155167000Y-105429845D01*
X155167000Y-106623000D01*
X156360814Y-106623000D01*
X156481481Y-106393109D01*
X156384157Y-106118748D01*
X156235178Y-105868645D01*
X156040269Y-105652412D01*
X155806920Y-105478359D01*
X155544099Y-105353175D01*
X155396890Y-105308524D01*
X155167000Y-105429845D01*
X154913000Y-105429845D01*
X154683110Y-105308524D01*
X154535901Y-105353175D01*
X154273080Y-105478359D01*
X154039731Y-105652412D01*
X153963966Y-105736466D01*
X153939502Y-105655820D01*
X153880537Y-105545506D01*
X153801185Y-105448815D01*
X153704494Y-105369463D01*
X153594180Y-105310498D01*
X153474482Y-105274188D01*
X153350000Y-105261928D01*
X151650000Y-105261928D01*
X151525518Y-105274188D01*
X151405820Y-105310498D01*
X151295506Y-105369463D01*
X151198815Y-105448815D01*
X151119463Y-105545506D01*
X151060498Y-105655820D01*
X151024188Y-105775518D01*
X151011928Y-105900000D01*
X148351840Y-105900000D01*
X148473699Y-105654790D01*
X148568322Y-105305931D01*
X148593067Y-104945316D01*
X148546985Y-104586802D01*
X148431846Y-104244167D01*
X148312836Y-104021514D01*
X148027980Y-103901626D01*
X146929605Y-105000000D01*
X146570395Y-105000000D01*
X145472020Y-103901626D01*
X145187164Y-104021514D01*
X145026301Y-104345210D01*
X145002031Y-104434690D01*
X144876156Y-104130801D01*
X144675338Y-103830256D01*
X144567102Y-103722020D01*
X145651626Y-103722020D01*
X146750000Y-104820395D01*
X147848374Y-103722020D01*
X147728486Y-103437164D01*
X147404790Y-103276301D01*
X147055931Y-103181678D01*
X146695316Y-103156933D01*
X146336802Y-103203015D01*
X145994167Y-103318154D01*
X145771514Y-103437164D01*
X145651626Y-103722020D01*
X144567102Y-103722020D01*
X144419744Y-103574662D01*
X144119199Y-103373844D01*
X143785250Y-103235518D01*
X143430732Y-103165000D01*
X143069268Y-103165000D01*
X142714750Y-103235518D01*
X142380801Y-103373844D01*
X142080256Y-103574662D01*
X141824662Y-103830256D01*
X141623844Y-104130801D01*
X141496810Y-104437489D01*
X141431846Y-104244167D01*
X141312836Y-104021514D01*
X141027980Y-103901626D01*
X139929605Y-105000000D01*
X139570395Y-105000000D01*
X138472020Y-103901626D01*
X138187164Y-104021514D01*
X138026301Y-104345210D01*
X138002031Y-104434690D01*
X137876156Y-104130801D01*
X137675338Y-103830256D01*
X137567102Y-103722020D01*
X138651626Y-103722020D01*
X139750000Y-104820395D01*
X140848374Y-103722020D01*
X140728486Y-103437164D01*
X140404790Y-103276301D01*
X140055931Y-103181678D01*
X139695316Y-103156933D01*
X139336802Y-103203015D01*
X138994167Y-103318154D01*
X138771514Y-103437164D01*
X138651626Y-103722020D01*
X137567102Y-103722020D01*
X137419744Y-103574662D01*
X137119199Y-103373844D01*
X136785250Y-103235518D01*
X136430732Y-103165000D01*
X136069268Y-103165000D01*
X135714750Y-103235518D01*
X135380801Y-103373844D01*
X135080256Y-103574662D01*
X134824662Y-103830256D01*
X134623844Y-104130801D01*
X134496810Y-104437489D01*
X134431846Y-104244167D01*
X134312836Y-104021514D01*
X134027980Y-103901626D01*
X132929605Y-105000000D01*
X132570395Y-105000000D01*
X131472020Y-103901626D01*
X131187164Y-104021514D01*
X131026301Y-104345210D01*
X131002031Y-104434690D01*
X130876156Y-104130801D01*
X130675338Y-103830256D01*
X130567102Y-103722020D01*
X131651626Y-103722020D01*
X132750000Y-104820395D01*
X133848374Y-103722020D01*
X133728486Y-103437164D01*
X133404790Y-103276301D01*
X133055931Y-103181678D01*
X132695316Y-103156933D01*
X132336802Y-103203015D01*
X131994167Y-103318154D01*
X131771514Y-103437164D01*
X131651626Y-103722020D01*
X130567102Y-103722020D01*
X130419744Y-103574662D01*
X130119199Y-103373844D01*
X129785250Y-103235518D01*
X129430732Y-103165000D01*
X129069268Y-103165000D01*
X128714750Y-103235518D01*
X128380801Y-103373844D01*
X128080256Y-103574662D01*
X127824662Y-103830256D01*
X127623844Y-104130801D01*
X127496810Y-104437489D01*
X127431846Y-104244167D01*
X127312836Y-104021514D01*
X127027980Y-103901626D01*
X125929605Y-105000000D01*
X125570395Y-105000000D01*
X124472020Y-103901626D01*
X124187164Y-104021514D01*
X124026301Y-104345210D01*
X124002031Y-104434690D01*
X123876156Y-104130801D01*
X123675338Y-103830256D01*
X123567102Y-103722020D01*
X124651626Y-103722020D01*
X125750000Y-104820395D01*
X126848374Y-103722020D01*
X126728486Y-103437164D01*
X126404790Y-103276301D01*
X126055931Y-103181678D01*
X125695316Y-103156933D01*
X125336802Y-103203015D01*
X124994167Y-103318154D01*
X124771514Y-103437164D01*
X124651626Y-103722020D01*
X123567102Y-103722020D01*
X123419744Y-103574662D01*
X123119199Y-103373844D01*
X122785250Y-103235518D01*
X122430732Y-103165000D01*
X122069268Y-103165000D01*
X121714750Y-103235518D01*
X121380801Y-103373844D01*
X121080256Y-103574662D01*
X120824662Y-103830256D01*
X120623844Y-104130801D01*
X120496810Y-104437489D01*
X120431846Y-104244167D01*
X120312836Y-104021514D01*
X120027980Y-103901626D01*
X118929605Y-105000000D01*
X118570395Y-105000000D01*
X117472020Y-103901626D01*
X117187164Y-104021514D01*
X117026301Y-104345210D01*
X117002031Y-104434690D01*
X116876156Y-104130801D01*
X116675338Y-103830256D01*
X116567102Y-103722020D01*
X117651626Y-103722020D01*
X118750000Y-104820395D01*
X119848374Y-103722020D01*
X119728486Y-103437164D01*
X119404790Y-103276301D01*
X119055931Y-103181678D01*
X118695316Y-103156933D01*
X118336802Y-103203015D01*
X117994167Y-103318154D01*
X117771514Y-103437164D01*
X117651626Y-103722020D01*
X116567102Y-103722020D01*
X116419744Y-103574662D01*
X116119199Y-103373844D01*
X115785250Y-103235518D01*
X115430732Y-103165000D01*
X115069268Y-103165000D01*
X114714750Y-103235518D01*
X114380801Y-103373844D01*
X114080256Y-103574662D01*
X113824662Y-103830256D01*
X113623844Y-104130801D01*
X113496810Y-104437489D01*
X113431846Y-104244167D01*
X113312836Y-104021514D01*
X113027980Y-103901626D01*
X111929605Y-105000000D01*
X111570395Y-105000000D01*
X110472020Y-103901626D01*
X110187164Y-104021514D01*
X110026301Y-104345210D01*
X110002031Y-104434690D01*
X109876156Y-104130801D01*
X109675338Y-103830256D01*
X109567102Y-103722020D01*
X110651626Y-103722020D01*
X111750000Y-104820395D01*
X112848374Y-103722020D01*
X112728486Y-103437164D01*
X112404790Y-103276301D01*
X112055931Y-103181678D01*
X111695316Y-103156933D01*
X111336802Y-103203015D01*
X110994167Y-103318154D01*
X110771514Y-103437164D01*
X110651626Y-103722020D01*
X109567102Y-103722020D01*
X109419744Y-103574662D01*
X109119199Y-103373844D01*
X108785250Y-103235518D01*
X108430732Y-103165000D01*
X108069268Y-103165000D01*
X107714750Y-103235518D01*
X107380801Y-103373844D01*
X107080256Y-103574662D01*
X106824662Y-103830256D01*
X106623844Y-104130801D01*
X106485518Y-104464750D01*
X106415000Y-104819268D01*
X95877000Y-104819268D01*
X95877000Y-101224183D01*
X95762403Y-100648061D01*
X106415000Y-100648061D01*
X106415000Y-100851939D01*
X106454774Y-101051898D01*
X106532795Y-101240256D01*
X106646063Y-101409774D01*
X106790226Y-101553937D01*
X106959744Y-101667205D01*
X107148102Y-101745226D01*
X107348061Y-101785000D01*
X107551939Y-101785000D01*
X107751898Y-101745226D01*
X107940256Y-101667205D01*
X107988454Y-101635000D01*
X108511546Y-101635000D01*
X108559744Y-101667205D01*
X108748102Y-101745226D01*
X108948061Y-101785000D01*
X109151939Y-101785000D01*
X109351898Y-101745226D01*
X109540256Y-101667205D01*
X109709774Y-101553937D01*
X109853937Y-101409774D01*
X109967205Y-101240256D01*
X110045226Y-101051898D01*
X110085000Y-100851939D01*
X110085000Y-100648061D01*
X113415000Y-100648061D01*
X113415000Y-100851939D01*
X113454774Y-101051898D01*
X113532795Y-101240256D01*
X113646063Y-101409774D01*
X113790226Y-101553937D01*
X113959744Y-101667205D01*
X114148102Y-101745226D01*
X114348061Y-101785000D01*
X114551939Y-101785000D01*
X114751898Y-101745226D01*
X114940256Y-101667205D01*
X114988454Y-101635000D01*
X115511546Y-101635000D01*
X115559744Y-101667205D01*
X115748102Y-101745226D01*
X115948061Y-101785000D01*
X116151939Y-101785000D01*
X116351898Y-101745226D01*
X116540256Y-101667205D01*
X116709774Y-101553937D01*
X116853937Y-101409774D01*
X116967205Y-101240256D01*
X117045226Y-101051898D01*
X117085000Y-100851939D01*
X117085000Y-100648061D01*
X120415000Y-100648061D01*
X120415000Y-100851939D01*
X120454774Y-101051898D01*
X120532795Y-101240256D01*
X120646063Y-101409774D01*
X120790226Y-101553937D01*
X120959744Y-101667205D01*
X121148102Y-101745226D01*
X121348061Y-101785000D01*
X121551939Y-101785000D01*
X121751898Y-101745226D01*
X121940256Y-101667205D01*
X121988454Y-101635000D01*
X122511546Y-101635000D01*
X122559744Y-101667205D01*
X122748102Y-101745226D01*
X122948061Y-101785000D01*
X123151939Y-101785000D01*
X123351898Y-101745226D01*
X123540256Y-101667205D01*
X123709774Y-101553937D01*
X123853937Y-101409774D01*
X123967205Y-101240256D01*
X124045226Y-101051898D01*
X124085000Y-100851939D01*
X124085000Y-100648061D01*
X127415000Y-100648061D01*
X127415000Y-100851939D01*
X127454774Y-101051898D01*
X127532795Y-101240256D01*
X127646063Y-101409774D01*
X127790226Y-101553937D01*
X127959744Y-101667205D01*
X128148102Y-101745226D01*
X128348061Y-101785000D01*
X128551939Y-101785000D01*
X128751898Y-101745226D01*
X128940256Y-101667205D01*
X128988454Y-101635000D01*
X129511546Y-101635000D01*
X129559744Y-101667205D01*
X129748102Y-101745226D01*
X129948061Y-101785000D01*
X130151939Y-101785000D01*
X130351898Y-101745226D01*
X130540256Y-101667205D01*
X130709774Y-101553937D01*
X130853937Y-101409774D01*
X130967205Y-101240256D01*
X131045226Y-101051898D01*
X131085000Y-100851939D01*
X131085000Y-100648061D01*
X134415000Y-100648061D01*
X134415000Y-100851939D01*
X134454774Y-101051898D01*
X134532795Y-101240256D01*
X134646063Y-101409774D01*
X134790226Y-101553937D01*
X134959744Y-101667205D01*
X135148102Y-101745226D01*
X135348061Y-101785000D01*
X135551939Y-101785000D01*
X135751898Y-101745226D01*
X135940256Y-101667205D01*
X135988454Y-101635000D01*
X136511546Y-101635000D01*
X136559744Y-101667205D01*
X136748102Y-101745226D01*
X136948061Y-101785000D01*
X137151939Y-101785000D01*
X137351898Y-101745226D01*
X137540256Y-101667205D01*
X137709774Y-101553937D01*
X137853937Y-101409774D01*
X137967205Y-101240256D01*
X138045226Y-101051898D01*
X138085000Y-100851939D01*
X138085000Y-100648061D01*
X141415000Y-100648061D01*
X141415000Y-100851939D01*
X141454774Y-101051898D01*
X141532795Y-101240256D01*
X141646063Y-101409774D01*
X141790226Y-101553937D01*
X141959744Y-101667205D01*
X142148102Y-101745226D01*
X142348061Y-101785000D01*
X142551939Y-101785000D01*
X142751898Y-101745226D01*
X142940256Y-101667205D01*
X142988454Y-101635000D01*
X143511546Y-101635000D01*
X143559744Y-101667205D01*
X143748102Y-101745226D01*
X143948061Y-101785000D01*
X144151939Y-101785000D01*
X144351898Y-101745226D01*
X144540256Y-101667205D01*
X144709774Y-101553937D01*
X144853937Y-101409774D01*
X144967205Y-101240256D01*
X145045226Y-101051898D01*
X145085000Y-100851939D01*
X145085000Y-100648061D01*
X148415000Y-100648061D01*
X148415000Y-100851939D01*
X148454774Y-101051898D01*
X148532795Y-101240256D01*
X148646063Y-101409774D01*
X148790226Y-101553937D01*
X148959744Y-101667205D01*
X149148102Y-101745226D01*
X149348061Y-101785000D01*
X149551939Y-101785000D01*
X149751898Y-101745226D01*
X149940256Y-101667205D01*
X149988454Y-101635000D01*
X150511546Y-101635000D01*
X150559744Y-101667205D01*
X150748102Y-101745226D01*
X150948061Y-101785000D01*
X151151939Y-101785000D01*
X151351898Y-101745226D01*
X151540256Y-101667205D01*
X151709774Y-101553937D01*
X151853937Y-101409774D01*
X151967205Y-101240256D01*
X152045226Y-101051898D01*
X152085000Y-100851939D01*
X152085000Y-100648061D01*
X152045226Y-100448102D01*
X151967205Y-100259744D01*
X151853937Y-100090226D01*
X151709774Y-99946063D01*
X151540256Y-99832795D01*
X151351898Y-99754774D01*
X151151939Y-99715000D01*
X150948061Y-99715000D01*
X150748102Y-99754774D01*
X150559744Y-99832795D01*
X150511546Y-99865000D01*
X149988454Y-99865000D01*
X149940256Y-99832795D01*
X149751898Y-99754774D01*
X149551939Y-99715000D01*
X149348061Y-99715000D01*
X149148102Y-99754774D01*
X148959744Y-99832795D01*
X148790226Y-99946063D01*
X148646063Y-100090226D01*
X148532795Y-100259744D01*
X148454774Y-100448102D01*
X148415000Y-100648061D01*
X145085000Y-100648061D01*
X145045226Y-100448102D01*
X144967205Y-100259744D01*
X144853937Y-100090226D01*
X144709774Y-99946063D01*
X144540256Y-99832795D01*
X144351898Y-99754774D01*
X144151939Y-99715000D01*
X143948061Y-99715000D01*
X143748102Y-99754774D01*
X143559744Y-99832795D01*
X143511546Y-99865000D01*
X142988454Y-99865000D01*
X142940256Y-99832795D01*
X142751898Y-99754774D01*
X142551939Y-99715000D01*
X142348061Y-99715000D01*
X142148102Y-99754774D01*
X141959744Y-99832795D01*
X141790226Y-99946063D01*
X141646063Y-100090226D01*
X141532795Y-100259744D01*
X141454774Y-100448102D01*
X141415000Y-100648061D01*
X138085000Y-100648061D01*
X138045226Y-100448102D01*
X137967205Y-100259744D01*
X137853937Y-100090226D01*
X137709774Y-99946063D01*
X137540256Y-99832795D01*
X137351898Y-99754774D01*
X137151939Y-99715000D01*
X136948061Y-99715000D01*
X136748102Y-99754774D01*
X136559744Y-99832795D01*
X136511546Y-99865000D01*
X135988454Y-99865000D01*
X135940256Y-99832795D01*
X135751898Y-99754774D01*
X135551939Y-99715000D01*
X135348061Y-99715000D01*
X135148102Y-99754774D01*
X134959744Y-99832795D01*
X134790226Y-99946063D01*
X134646063Y-100090226D01*
X134532795Y-100259744D01*
X134454774Y-100448102D01*
X134415000Y-100648061D01*
X131085000Y-100648061D01*
X131045226Y-100448102D01*
X130967205Y-100259744D01*
X130853937Y-100090226D01*
X130709774Y-99946063D01*
X130540256Y-99832795D01*
X130351898Y-99754774D01*
X130151939Y-99715000D01*
X129948061Y-99715000D01*
X129748102Y-99754774D01*
X129559744Y-99832795D01*
X129511546Y-99865000D01*
X128988454Y-99865000D01*
X128940256Y-99832795D01*
X128751898Y-99754774D01*
X128551939Y-99715000D01*
X128348061Y-99715000D01*
X128148102Y-99754774D01*
X127959744Y-99832795D01*
X127790226Y-99946063D01*
X127646063Y-100090226D01*
X127532795Y-100259744D01*
X127454774Y-100448102D01*
X127415000Y-100648061D01*
X124085000Y-100648061D01*
X124045226Y-100448102D01*
X123967205Y-100259744D01*
X123853937Y-100090226D01*
X123709774Y-99946063D01*
X123540256Y-99832795D01*
X123351898Y-99754774D01*
X123151939Y-99715000D01*
X122948061Y-99715000D01*
X122748102Y-99754774D01*
X122559744Y-99832795D01*
X122511546Y-99865000D01*
X121988454Y-99865000D01*
X121940256Y-99832795D01*
X121751898Y-99754774D01*
X121551939Y-99715000D01*
X121348061Y-99715000D01*
X121148102Y-99754774D01*
X120959744Y-99832795D01*
X120790226Y-99946063D01*
X120646063Y-100090226D01*
X120532795Y-100259744D01*
X120454774Y-100448102D01*
X120415000Y-100648061D01*
X117085000Y-100648061D01*
X117045226Y-100448102D01*
X116967205Y-100259744D01*
X116853937Y-100090226D01*
X116709774Y-99946063D01*
X116540256Y-99832795D01*
X116351898Y-99754774D01*
X116151939Y-99715000D01*
X115948061Y-99715000D01*
X115748102Y-99754774D01*
X115559744Y-99832795D01*
X115511546Y-99865000D01*
X114988454Y-99865000D01*
X114940256Y-99832795D01*
X114751898Y-99754774D01*
X114551939Y-99715000D01*
X114348061Y-99715000D01*
X114148102Y-99754774D01*
X113959744Y-99832795D01*
X113790226Y-99946063D01*
X113646063Y-100090226D01*
X113532795Y-100259744D01*
X113454774Y-100448102D01*
X113415000Y-100648061D01*
X110085000Y-100648061D01*
X110045226Y-100448102D01*
X109967205Y-100259744D01*
X109853937Y-100090226D01*
X109709774Y-99946063D01*
X109540256Y-99832795D01*
X109351898Y-99754774D01*
X109151939Y-99715000D01*
X108948061Y-99715000D01*
X108748102Y-99754774D01*
X108559744Y-99832795D01*
X108511546Y-99865000D01*
X107988454Y-99865000D01*
X107940256Y-99832795D01*
X107751898Y-99754774D01*
X107551939Y-99715000D01*
X107348061Y-99715000D01*
X107148102Y-99754774D01*
X106959744Y-99832795D01*
X106790226Y-99946063D01*
X106646063Y-100090226D01*
X106532795Y-100259744D01*
X106454774Y-100448102D01*
X106415000Y-100648061D01*
X95762403Y-100648061D01*
X95574291Y-99702364D01*
X94980506Y-98268842D01*
X94118465Y-96978705D01*
X93021295Y-95881535D01*
X92971198Y-95848061D01*
X105215000Y-95848061D01*
X105215000Y-96051939D01*
X105254774Y-96251898D01*
X105332795Y-96440256D01*
X105365000Y-96488455D01*
X105365001Y-97011545D01*
X105332795Y-97059744D01*
X105254774Y-97248102D01*
X105215000Y-97448061D01*
X105215000Y-97651939D01*
X105254774Y-97851898D01*
X105332795Y-98040256D01*
X105446063Y-98209774D01*
X105590226Y-98353937D01*
X105759744Y-98467205D01*
X105948102Y-98545226D01*
X106148061Y-98585000D01*
X106351939Y-98585000D01*
X106551898Y-98545226D01*
X106740256Y-98467205D01*
X106909774Y-98353937D01*
X107053937Y-98209774D01*
X107167205Y-98040256D01*
X107245226Y-97851898D01*
X107285000Y-97651939D01*
X107285000Y-97448061D01*
X107245226Y-97248102D01*
X107167205Y-97059744D01*
X107135000Y-97011546D01*
X107135000Y-96488454D01*
X107167205Y-96440256D01*
X107245226Y-96251898D01*
X107285000Y-96051939D01*
X107285000Y-95848061D01*
X107245226Y-95648102D01*
X107167205Y-95459744D01*
X107053937Y-95290226D01*
X106909774Y-95146063D01*
X106740256Y-95032795D01*
X106551898Y-94954774D01*
X106351939Y-94915000D01*
X106148061Y-94915000D01*
X105948102Y-94954774D01*
X105759744Y-95032795D01*
X105590226Y-95146063D01*
X105446063Y-95290226D01*
X105332795Y-95459744D01*
X105254774Y-95648102D01*
X105215000Y-95848061D01*
X92971198Y-95848061D01*
X91731158Y-95019494D01*
X90297636Y-94425709D01*
X88775817Y-94123000D01*
X80660000Y-94123000D01*
X80660000Y-88069268D01*
X83915000Y-88069268D01*
X83915000Y-88430732D01*
X83985518Y-88785250D01*
X84123844Y-89119199D01*
X84324662Y-89419744D01*
X84580256Y-89675338D01*
X84880801Y-89876156D01*
X85214750Y-90014482D01*
X85569268Y-90085000D01*
X85930732Y-90085000D01*
X86285250Y-90014482D01*
X86619199Y-89876156D01*
X86919744Y-89675338D01*
X87067102Y-89527980D01*
X88151626Y-89527980D01*
X88271514Y-89812836D01*
X88595210Y-89973699D01*
X88944069Y-90068322D01*
X89304684Y-90093067D01*
X89663198Y-90046985D01*
X90005833Y-89931846D01*
X90228486Y-89812836D01*
X90348374Y-89527980D01*
X89250000Y-88429605D01*
X88151626Y-89527980D01*
X87067102Y-89527980D01*
X87175338Y-89419744D01*
X87376156Y-89119199D01*
X87503190Y-88812511D01*
X87568154Y-89005833D01*
X87687164Y-89228486D01*
X87972020Y-89348374D01*
X89070395Y-88250000D01*
X89429605Y-88250000D01*
X90527980Y-89348374D01*
X90812836Y-89228486D01*
X90973699Y-88904790D01*
X91068322Y-88555931D01*
X91093067Y-88195316D01*
X91046985Y-87836802D01*
X90931846Y-87494167D01*
X90812836Y-87271514D01*
X90527980Y-87151626D01*
X89429605Y-88250000D01*
X89070395Y-88250000D01*
X87972020Y-87151626D01*
X87687164Y-87271514D01*
X87526301Y-87595210D01*
X87502031Y-87684690D01*
X87376156Y-87380801D01*
X87175338Y-87080256D01*
X87067102Y-86972020D01*
X88151626Y-86972020D01*
X89250000Y-88070395D01*
X90348374Y-86972020D01*
X90228486Y-86687164D01*
X89904790Y-86526301D01*
X89555931Y-86431678D01*
X89195316Y-86406933D01*
X88836802Y-86453015D01*
X88494167Y-86568154D01*
X88271514Y-86687164D01*
X88151626Y-86972020D01*
X87067102Y-86972020D01*
X86919744Y-86824662D01*
X86619199Y-86623844D01*
X86285250Y-86485518D01*
X85930732Y-86415000D01*
X85569268Y-86415000D01*
X85214750Y-86485518D01*
X84880801Y-86623844D01*
X84580256Y-86824662D01*
X84324662Y-87080256D01*
X84123844Y-87380801D01*
X83985518Y-87714750D01*
X83915000Y-88069268D01*
X80660000Y-88069268D01*
X80660000Y-80398288D01*
X114826257Y-80398288D01*
X114956027Y-81852333D01*
X115252061Y-83281825D01*
X115710434Y-84667819D01*
X116325072Y-85991944D01*
X117087828Y-87236648D01*
X117988592Y-88385434D01*
X119015424Y-89423076D01*
X120154715Y-90335820D01*
X121391363Y-91111569D01*
X122708979Y-91740039D01*
X124090097Y-92212901D01*
X125516411Y-92523888D01*
X126969017Y-92668877D01*
X128428660Y-92645948D01*
X129875995Y-92455402D01*
X131291837Y-92099767D01*
X132657421Y-91583756D01*
X133954645Y-90914209D01*
X135166317Y-90099999D01*
X136276375Y-89151920D01*
X137270108Y-88082536D01*
X138134343Y-86906023D01*
X138857625Y-85637974D01*
X139430368Y-84295197D01*
X139844980Y-82895489D01*
X140095967Y-81457403D01*
X140180000Y-80000000D01*
X140154979Y-79203816D01*
X140142416Y-79100000D01*
X165921928Y-79100000D01*
X165921928Y-80900000D01*
X165934188Y-81024482D01*
X165970498Y-81144180D01*
X166029463Y-81254494D01*
X166108815Y-81351185D01*
X166205506Y-81430537D01*
X166315820Y-81489502D01*
X166435518Y-81525812D01*
X166560000Y-81538072D01*
X168360000Y-81538072D01*
X168484482Y-81525812D01*
X168604180Y-81489502D01*
X168714494Y-81430537D01*
X168811185Y-81351185D01*
X168890537Y-81254494D01*
X168949502Y-81144180D01*
X168952813Y-81133265D01*
X168999578Y-81180030D01*
X169115526Y-81064082D01*
X169199208Y-81318261D01*
X169471775Y-81449158D01*
X169764642Y-81524365D01*
X170066553Y-81540991D01*
X170365907Y-81498397D01*
X170651199Y-81398222D01*
X170800792Y-81318261D01*
X170884475Y-81064080D01*
X170000000Y-80179605D01*
X169985858Y-80193748D01*
X169806253Y-80014143D01*
X169820395Y-80000000D01*
X170179605Y-80000000D01*
X171064080Y-80884475D01*
X171245049Y-80824895D01*
X171347688Y-80978505D01*
X171561495Y-81192312D01*
X171812905Y-81360299D01*
X172092257Y-81476011D01*
X172388816Y-81535000D01*
X172691184Y-81535000D01*
X172987743Y-81476011D01*
X173267095Y-81360299D01*
X173518505Y-81192312D01*
X173732312Y-80978505D01*
X173900299Y-80727095D01*
X174016011Y-80447743D01*
X174075000Y-80151184D01*
X174075000Y-79848816D01*
X174016011Y-79552257D01*
X173900299Y-79272905D01*
X173732312Y-79021495D01*
X173518505Y-78807688D01*
X173267095Y-78639701D01*
X172987743Y-78523989D01*
X172691184Y-78465000D01*
X172388816Y-78465000D01*
X172092257Y-78523989D01*
X171812905Y-78639701D01*
X171561495Y-78807688D01*
X171347688Y-79021495D01*
X171245049Y-79175105D01*
X171064080Y-79115525D01*
X170179605Y-80000000D01*
X169820395Y-80000000D01*
X169806253Y-79985858D01*
X169985858Y-79806253D01*
X170000000Y-79820395D01*
X170884475Y-78935920D01*
X170800792Y-78681739D01*
X170528225Y-78550842D01*
X170235358Y-78475635D01*
X169933447Y-78459009D01*
X169634093Y-78501603D01*
X169348801Y-78601778D01*
X169199208Y-78681739D01*
X169115526Y-78935918D01*
X168999578Y-78819970D01*
X168952813Y-78866735D01*
X168949502Y-78855820D01*
X168890537Y-78745506D01*
X168811185Y-78648815D01*
X168714494Y-78569463D01*
X168604180Y-78510498D01*
X168484482Y-78474188D01*
X168360000Y-78461928D01*
X166560000Y-78461928D01*
X166435518Y-78474188D01*
X166315820Y-78510498D01*
X166205506Y-78569463D01*
X166108815Y-78648815D01*
X166029463Y-78745506D01*
X165970498Y-78855820D01*
X165934188Y-78975518D01*
X165921928Y-79100000D01*
X140142416Y-79100000D01*
X139979600Y-77754565D01*
X139638811Y-76335077D01*
X139137129Y-74964165D01*
X138481202Y-73660000D01*
X137679726Y-72439869D01*
X136743322Y-71319943D01*
X135684403Y-70315066D01*
X134517005Y-69438559D01*
X133256600Y-68702037D01*
X131919894Y-68115264D01*
X130524604Y-67686017D01*
X129089225Y-67419986D01*
X128798310Y-67400153D01*
X128812426Y-67366074D01*
X128852200Y-67166115D01*
X128852200Y-67148091D01*
X131965000Y-67148091D01*
X131965000Y-67351969D01*
X132004774Y-67551928D01*
X132082795Y-67740286D01*
X132196063Y-67909804D01*
X132340226Y-68053967D01*
X132509744Y-68167235D01*
X132698102Y-68245256D01*
X132898061Y-68285030D01*
X133101939Y-68285030D01*
X133301898Y-68245256D01*
X133490256Y-68167235D01*
X133538454Y-68135030D01*
X136456531Y-68135030D01*
X136500000Y-68139311D01*
X136543469Y-68135030D01*
X136543477Y-68135030D01*
X136673490Y-68122225D01*
X136840313Y-68071619D01*
X136942521Y-68016988D01*
X137051928Y-67995226D01*
X137240286Y-67917205D01*
X137409804Y-67803937D01*
X137553967Y-67659774D01*
X137667235Y-67490256D01*
X137745256Y-67301898D01*
X137785030Y-67101939D01*
X137785030Y-66898061D01*
X137745256Y-66698102D01*
X137703818Y-66598061D01*
X158215000Y-66598061D01*
X158215000Y-66801939D01*
X158254774Y-67001898D01*
X158332795Y-67190256D01*
X158365000Y-67238455D01*
X158365001Y-69002203D01*
X158329463Y-69045506D01*
X158270498Y-69155820D01*
X158234188Y-69275518D01*
X158221928Y-69400000D01*
X158221928Y-71100000D01*
X158234188Y-71224482D01*
X158270498Y-71344180D01*
X158329463Y-71454494D01*
X158408815Y-71551185D01*
X158505506Y-71630537D01*
X158615820Y-71689502D01*
X158735518Y-71725812D01*
X158860000Y-71738072D01*
X160560000Y-71738072D01*
X160684482Y-71725812D01*
X160804180Y-71689502D01*
X160914494Y-71630537D01*
X161011185Y-71551185D01*
X161090537Y-71454494D01*
X161149502Y-71344180D01*
X161170393Y-71275313D01*
X161194866Y-71305134D01*
X161420986Y-71490706D01*
X161678966Y-71628599D01*
X161958889Y-71713513D01*
X162177050Y-71735000D01*
X162322950Y-71735000D01*
X162541111Y-71713513D01*
X162821034Y-71628599D01*
X163079014Y-71490706D01*
X163305134Y-71305134D01*
X163490706Y-71079014D01*
X163525201Y-71014477D01*
X163594822Y-71131355D01*
X163789731Y-71347588D01*
X164023080Y-71521641D01*
X164285901Y-71646825D01*
X164433110Y-71691476D01*
X164663000Y-71570155D01*
X164663000Y-70377000D01*
X164643000Y-70377000D01*
X164643000Y-70123000D01*
X164663000Y-70123000D01*
X164663000Y-68929845D01*
X164917000Y-68929845D01*
X164917000Y-70123000D01*
X164937000Y-70123000D01*
X164937000Y-70377000D01*
X164917000Y-70377000D01*
X164917000Y-71570155D01*
X165146890Y-71691476D01*
X165294099Y-71646825D01*
X165556920Y-71521641D01*
X165790269Y-71347588D01*
X165985178Y-71131355D01*
X166054799Y-71014477D01*
X166089294Y-71079014D01*
X166274866Y-71305134D01*
X166500986Y-71490706D01*
X166758966Y-71628599D01*
X167038889Y-71713513D01*
X167257050Y-71735000D01*
X167402950Y-71735000D01*
X167621111Y-71713513D01*
X167901034Y-71628599D01*
X168159014Y-71490706D01*
X168385134Y-71305134D01*
X168570706Y-71079014D01*
X168600000Y-71024209D01*
X168629294Y-71079014D01*
X168814866Y-71305134D01*
X169040986Y-71490706D01*
X169298966Y-71628599D01*
X169578889Y-71713513D01*
X169797050Y-71735000D01*
X169942950Y-71735000D01*
X170161111Y-71713513D01*
X170441034Y-71628599D01*
X170699014Y-71490706D01*
X170925134Y-71305134D01*
X171110706Y-71079014D01*
X171140000Y-71024209D01*
X171169294Y-71079014D01*
X171354866Y-71305134D01*
X171580986Y-71490706D01*
X171838966Y-71628599D01*
X172118889Y-71713513D01*
X172337050Y-71735000D01*
X172482950Y-71735000D01*
X172701111Y-71713513D01*
X172981034Y-71628599D01*
X173239014Y-71490706D01*
X173465134Y-71305134D01*
X173650706Y-71079014D01*
X173788599Y-70821034D01*
X173873513Y-70541111D01*
X173902185Y-70250000D01*
X173873513Y-69958889D01*
X173788599Y-69678966D01*
X173650706Y-69420986D01*
X173465134Y-69194866D01*
X173239014Y-69009294D01*
X172981034Y-68871401D01*
X172701111Y-68786487D01*
X172482950Y-68765000D01*
X172337050Y-68765000D01*
X172118889Y-68786487D01*
X171838966Y-68871401D01*
X171580986Y-69009294D01*
X171354866Y-69194866D01*
X171169294Y-69420986D01*
X171140000Y-69475791D01*
X171110706Y-69420986D01*
X170925134Y-69194866D01*
X170699014Y-69009294D01*
X170441034Y-68871401D01*
X170161111Y-68786487D01*
X169942950Y-68765000D01*
X169797050Y-68765000D01*
X169578889Y-68786487D01*
X169298966Y-68871401D01*
X169040986Y-69009294D01*
X168814866Y-69194866D01*
X168629294Y-69420986D01*
X168600000Y-69475791D01*
X168570706Y-69420986D01*
X168385134Y-69194866D01*
X168159014Y-69009294D01*
X167901034Y-68871401D01*
X167621111Y-68786487D01*
X167402950Y-68765000D01*
X167257050Y-68765000D01*
X167038889Y-68786487D01*
X166758966Y-68871401D01*
X166500986Y-69009294D01*
X166274866Y-69194866D01*
X166089294Y-69420986D01*
X166054799Y-69485523D01*
X165985178Y-69368645D01*
X165790269Y-69152412D01*
X165556920Y-68978359D01*
X165294099Y-68853175D01*
X165146890Y-68808524D01*
X164917000Y-68929845D01*
X164663000Y-68929845D01*
X164433110Y-68808524D01*
X164285901Y-68853175D01*
X164023080Y-68978359D01*
X163789731Y-69152412D01*
X163594822Y-69368645D01*
X163525201Y-69485523D01*
X163490706Y-69420986D01*
X163305134Y-69194866D01*
X163079014Y-69009294D01*
X162821034Y-68871401D01*
X162541111Y-68786487D01*
X162322950Y-68765000D01*
X162177050Y-68765000D01*
X161958889Y-68786487D01*
X161678966Y-68871401D01*
X161420986Y-69009294D01*
X161194866Y-69194866D01*
X161170393Y-69224687D01*
X161149502Y-69155820D01*
X161090537Y-69045506D01*
X161011185Y-68948815D01*
X160914494Y-68869463D01*
X160804180Y-68810498D01*
X160684482Y-68774188D01*
X160560000Y-68761928D01*
X160135000Y-68761928D01*
X160135000Y-67238454D01*
X160167205Y-67190256D01*
X160245226Y-67001898D01*
X160285000Y-66801939D01*
X160285000Y-66598061D01*
X160245226Y-66398102D01*
X160167205Y-66209744D01*
X160053937Y-66040226D01*
X159909774Y-65896063D01*
X159740256Y-65782795D01*
X159551898Y-65704774D01*
X159351939Y-65665000D01*
X159148061Y-65665000D01*
X158948102Y-65704774D01*
X158759744Y-65782795D01*
X158590226Y-65896063D01*
X158446063Y-66040226D01*
X158332795Y-66209744D01*
X158254774Y-66398102D01*
X158215000Y-66598061D01*
X137703818Y-66598061D01*
X137667235Y-66509744D01*
X137553967Y-66340226D01*
X137409804Y-66196063D01*
X137240286Y-66082795D01*
X137051928Y-66004774D01*
X136851969Y-65965000D01*
X136648091Y-65965000D01*
X136448132Y-66004774D01*
X136259774Y-66082795D01*
X136090256Y-66196063D01*
X135946093Y-66340226D01*
X135929520Y-66365030D01*
X133538454Y-66365030D01*
X133490256Y-66332825D01*
X133301898Y-66254804D01*
X133101939Y-66215030D01*
X132898061Y-66215030D01*
X132698102Y-66254804D01*
X132509744Y-66332825D01*
X132340226Y-66446093D01*
X132196063Y-66590256D01*
X132082795Y-66759774D01*
X132004774Y-66948132D01*
X131965000Y-67148091D01*
X128852200Y-67148091D01*
X128852200Y-66962237D01*
X128812426Y-66762278D01*
X128734405Y-66573920D01*
X128621137Y-66404402D01*
X128476974Y-66260239D01*
X128307456Y-66146971D01*
X128119098Y-66068950D01*
X128058469Y-66056890D01*
X126256505Y-64254927D01*
X126245196Y-64198072D01*
X126167175Y-64009714D01*
X126053907Y-63840196D01*
X125909744Y-63696033D01*
X125740226Y-63582765D01*
X125551868Y-63504744D01*
X125351909Y-63464970D01*
X125148031Y-63464970D01*
X124948072Y-63504744D01*
X124759714Y-63582765D01*
X124590196Y-63696033D01*
X124446033Y-63840196D01*
X124332765Y-64009714D01*
X124254744Y-64198072D01*
X124214970Y-64398031D01*
X124214970Y-64601909D01*
X124254744Y-64801868D01*
X124332765Y-64990226D01*
X124446033Y-65159744D01*
X124590196Y-65303907D01*
X124759714Y-65417175D01*
X124948072Y-65495196D01*
X125004927Y-65506505D01*
X126811416Y-67312995D01*
X126820567Y-67358998D01*
X126174579Y-67389462D01*
X124733944Y-67625375D01*
X123329971Y-68025308D01*
X121981270Y-68583958D01*
X120705716Y-69293922D01*
X119520217Y-70145789D01*
X118440486Y-71128269D01*
X117480834Y-72228339D01*
X116653981Y-73431418D01*
X115970886Y-74721560D01*
X115440603Y-76081665D01*
X115070162Y-77493705D01*
X114864471Y-78938965D01*
X114826257Y-80398288D01*
X80660000Y-80398288D01*
X80660000Y-61648061D01*
X110515000Y-61648061D01*
X110515000Y-61851939D01*
X110554774Y-62051898D01*
X110632795Y-62240256D01*
X110746063Y-62409774D01*
X110890226Y-62553937D01*
X111059744Y-62667205D01*
X111248102Y-62745226D01*
X111304957Y-62756535D01*
X114007281Y-65458860D01*
X114018590Y-65515714D01*
X114096611Y-65704072D01*
X114209879Y-65873590D01*
X114354042Y-66017753D01*
X114523560Y-66131021D01*
X114711918Y-66209042D01*
X114911877Y-66248816D01*
X115115755Y-66248816D01*
X115315714Y-66209042D01*
X115504072Y-66131021D01*
X115673590Y-66017753D01*
X115817753Y-65873590D01*
X115931021Y-65704072D01*
X116009042Y-65515714D01*
X116048816Y-65315755D01*
X116048816Y-65111877D01*
X116009042Y-64911918D01*
X115931021Y-64723560D01*
X115817753Y-64554042D01*
X115673590Y-64409879D01*
X115504072Y-64296611D01*
X115315714Y-64218590D01*
X115258860Y-64207281D01*
X113449640Y-62398061D01*
X145664950Y-62398061D01*
X145664950Y-62601939D01*
X145704724Y-62801898D01*
X145782745Y-62990256D01*
X145896013Y-63159774D01*
X146040176Y-63303937D01*
X146209694Y-63417205D01*
X146398052Y-63495226D01*
X146598011Y-63535000D01*
X146801889Y-63535000D01*
X147001848Y-63495226D01*
X147190206Y-63417205D01*
X147238404Y-63385000D01*
X151011546Y-63385000D01*
X151059744Y-63417205D01*
X151248102Y-63495226D01*
X151448061Y-63535000D01*
X151651939Y-63535000D01*
X151851898Y-63495226D01*
X152040256Y-63417205D01*
X152209774Y-63303937D01*
X152353937Y-63159774D01*
X152467205Y-62990256D01*
X152545226Y-62801898D01*
X152585000Y-62601939D01*
X152585000Y-62398061D01*
X152545226Y-62198102D01*
X152467205Y-62009744D01*
X152353937Y-61840226D01*
X152209774Y-61696063D01*
X152040256Y-61582795D01*
X151851898Y-61504774D01*
X151651939Y-61465000D01*
X151448061Y-61465000D01*
X151248102Y-61504774D01*
X151059744Y-61582795D01*
X151011546Y-61615000D01*
X147238404Y-61615000D01*
X147190206Y-61582795D01*
X147001848Y-61504774D01*
X146801889Y-61465000D01*
X146598011Y-61465000D01*
X146398052Y-61504774D01*
X146209694Y-61582795D01*
X146040176Y-61696063D01*
X145896013Y-61840226D01*
X145782745Y-62009744D01*
X145704724Y-62198102D01*
X145664950Y-62398061D01*
X113449640Y-62398061D01*
X112556535Y-61504957D01*
X112545226Y-61448102D01*
X112467205Y-61259744D01*
X112353937Y-61090226D01*
X112209774Y-60946063D01*
X112040256Y-60832795D01*
X111851898Y-60754774D01*
X111651939Y-60715000D01*
X111448061Y-60715000D01*
X111248102Y-60754774D01*
X111059744Y-60832795D01*
X110890226Y-60946063D01*
X110746063Y-61090226D01*
X110632795Y-61259744D01*
X110554774Y-61448102D01*
X110515000Y-61648061D01*
X80660000Y-61648061D01*
X80660000Y-55150000D01*
X98471928Y-55150000D01*
X98471928Y-56850000D01*
X98484188Y-56974482D01*
X98520498Y-57094180D01*
X98579463Y-57204494D01*
X98658815Y-57301185D01*
X98755506Y-57380537D01*
X98865820Y-57439502D01*
X98985518Y-57475812D01*
X99110000Y-57488072D01*
X100810000Y-57488072D01*
X100934482Y-57475812D01*
X101054180Y-57439502D01*
X101164494Y-57380537D01*
X101261185Y-57301185D01*
X101340537Y-57204494D01*
X101399502Y-57094180D01*
X101423966Y-57013534D01*
X101499731Y-57097588D01*
X101733080Y-57271641D01*
X101995901Y-57396825D01*
X102143110Y-57441476D01*
X102373000Y-57320155D01*
X102373000Y-56127000D01*
X102627000Y-56127000D01*
X102627000Y-57320155D01*
X102856890Y-57441476D01*
X103004099Y-57396825D01*
X103266920Y-57271641D01*
X103500269Y-57097588D01*
X103695178Y-56881355D01*
X103844157Y-56631252D01*
X103941481Y-56356891D01*
X103820814Y-56127000D01*
X102627000Y-56127000D01*
X102373000Y-56127000D01*
X102353000Y-56127000D01*
X102353000Y-55873000D01*
X102373000Y-55873000D01*
X102373000Y-54679845D01*
X102627000Y-54679845D01*
X102627000Y-55873000D01*
X103820814Y-55873000D01*
X103941481Y-55643109D01*
X103844157Y-55368748D01*
X103713856Y-55150000D01*
X151011928Y-55150000D01*
X151011928Y-56850000D01*
X151024188Y-56974482D01*
X151060498Y-57094180D01*
X151119463Y-57204494D01*
X151198815Y-57301185D01*
X151295506Y-57380537D01*
X151405820Y-57439502D01*
X151525518Y-57475812D01*
X151650000Y-57488072D01*
X153350000Y-57488072D01*
X153474482Y-57475812D01*
X153594180Y-57439502D01*
X153704494Y-57380537D01*
X153801185Y-57301185D01*
X153880537Y-57204494D01*
X153939502Y-57094180D01*
X153963966Y-57013534D01*
X154039731Y-57097588D01*
X154273080Y-57271641D01*
X154535901Y-57396825D01*
X154683110Y-57441476D01*
X154913000Y-57320155D01*
X154913000Y-56127000D01*
X155167000Y-56127000D01*
X155167000Y-57320155D01*
X155396890Y-57441476D01*
X155544099Y-57396825D01*
X155806920Y-57271641D01*
X156040269Y-57097588D01*
X156235178Y-56881355D01*
X156384157Y-56631252D01*
X156481481Y-56356891D01*
X156360814Y-56127000D01*
X155167000Y-56127000D01*
X154913000Y-56127000D01*
X154893000Y-56127000D01*
X154893000Y-55873000D01*
X154913000Y-55873000D01*
X154913000Y-54679845D01*
X155167000Y-54679845D01*
X155167000Y-55873000D01*
X156360814Y-55873000D01*
X156481481Y-55643109D01*
X156384157Y-55368748D01*
X156235178Y-55118645D01*
X156040269Y-54902412D01*
X155806920Y-54728359D01*
X155544099Y-54603175D01*
X155396890Y-54558524D01*
X155167000Y-54679845D01*
X154913000Y-54679845D01*
X154683110Y-54558524D01*
X154535901Y-54603175D01*
X154273080Y-54728359D01*
X154039731Y-54902412D01*
X153963966Y-54986466D01*
X153939502Y-54905820D01*
X153880537Y-54795506D01*
X153801185Y-54698815D01*
X153704494Y-54619463D01*
X153594180Y-54560498D01*
X153474482Y-54524188D01*
X153350000Y-54511928D01*
X151650000Y-54511928D01*
X151525518Y-54524188D01*
X151405820Y-54560498D01*
X151295506Y-54619463D01*
X151198815Y-54698815D01*
X151119463Y-54795506D01*
X151060498Y-54905820D01*
X151024188Y-55025518D01*
X151011928Y-55150000D01*
X103713856Y-55150000D01*
X103695178Y-55118645D01*
X103500269Y-54902412D01*
X103266920Y-54728359D01*
X103004099Y-54603175D01*
X102856890Y-54558524D01*
X102627000Y-54679845D01*
X102373000Y-54679845D01*
X102143110Y-54558524D01*
X101995901Y-54603175D01*
X101733080Y-54728359D01*
X101499731Y-54902412D01*
X101423966Y-54986466D01*
X101399502Y-54905820D01*
X101340537Y-54795506D01*
X101261185Y-54698815D01*
X101164494Y-54619463D01*
X101054180Y-54560498D01*
X100934482Y-54524188D01*
X100810000Y-54511928D01*
X99110000Y-54511928D01*
X98985518Y-54524188D01*
X98865820Y-54560498D01*
X98755506Y-54619463D01*
X98658815Y-54698815D01*
X98579463Y-54795506D01*
X98520498Y-54905820D01*
X98484188Y-55025518D01*
X98471928Y-55150000D01*
X80660000Y-55150000D01*
X80660000Y-50660000D01*
X93976620Y-50660000D01*
X95260388Y-51943769D01*
X95260388Y-51943769D01*
G37*
X95260388Y-51943769D02*
X95281052Y-51968948D01*
X95381550Y-52051425D01*
X95496207Y-52112710D01*
X95620617Y-52150450D01*
X95717581Y-52160000D01*
X95717590Y-52160000D01*
X95749999Y-52163192D01*
X95782408Y-52160000D01*
X159123000Y-52160000D01*
X159123000Y-58775817D01*
X159425709Y-60297636D01*
X160019494Y-61731158D01*
X160881535Y-63021295D01*
X161978705Y-64118465D01*
X163268842Y-64980506D01*
X164702364Y-65574291D01*
X166224183Y-65877000D01*
X174340000Y-65877000D01*
X174340001Y-109340000D01*
X95877000Y-109340000D01*
X95877000Y-105900000D01*
X98471928Y-105900000D01*
X98471928Y-107600000D01*
X98484188Y-107724482D01*
X98520498Y-107844180D01*
X98579463Y-107954494D01*
X98658815Y-108051185D01*
X98755506Y-108130537D01*
X98865820Y-108189502D01*
X98985518Y-108225812D01*
X99110000Y-108238072D01*
X100810000Y-108238072D01*
X100934482Y-108225812D01*
X101054180Y-108189502D01*
X101164494Y-108130537D01*
X101261185Y-108051185D01*
X101340537Y-107954494D01*
X101399502Y-107844180D01*
X101423966Y-107763534D01*
X101499731Y-107847588D01*
X101733080Y-108021641D01*
X101995901Y-108146825D01*
X102143110Y-108191476D01*
X102373000Y-108070155D01*
X102373000Y-106877000D01*
X102627000Y-106877000D01*
X102627000Y-108070155D01*
X102856890Y-108191476D01*
X103004099Y-108146825D01*
X103266920Y-108021641D01*
X103500269Y-107847588D01*
X103695178Y-107631355D01*
X103844157Y-107381252D01*
X103941481Y-107106891D01*
X103820814Y-106877000D01*
X102627000Y-106877000D01*
X102373000Y-106877000D01*
X102353000Y-106877000D01*
X102353000Y-106623000D01*
X102373000Y-106623000D01*
X102373000Y-105429845D01*
X102627000Y-105429845D01*
X102627000Y-106623000D01*
X103820814Y-106623000D01*
X103941481Y-106393109D01*
X103844157Y-106118748D01*
X103695178Y-105868645D01*
X103500269Y-105652412D01*
X103266920Y-105478359D01*
X103004099Y-105353175D01*
X102856890Y-105308524D01*
X102627000Y-105429845D01*
X102373000Y-105429845D01*
X102143110Y-105308524D01*
X101995901Y-105353175D01*
X101733080Y-105478359D01*
X101499731Y-105652412D01*
X101423966Y-105736466D01*
X101399502Y-105655820D01*
X101340537Y-105545506D01*
X101261185Y-105448815D01*
X101164494Y-105369463D01*
X101054180Y-105310498D01*
X100934482Y-105274188D01*
X100810000Y-105261928D01*
X99110000Y-105261928D01*
X98985518Y-105274188D01*
X98865820Y-105310498D01*
X98755506Y-105369463D01*
X98658815Y-105448815D01*
X98579463Y-105545506D01*
X98520498Y-105655820D01*
X98484188Y-105775518D01*
X98471928Y-105900000D01*
X95877000Y-105900000D01*
X95877000Y-104819268D01*
X106415000Y-104819268D01*
X106415000Y-105180732D01*
X106485518Y-105535250D01*
X106623844Y-105869199D01*
X106824662Y-106169744D01*
X107080256Y-106425338D01*
X107380801Y-106626156D01*
X107714750Y-106764482D01*
X108069268Y-106835000D01*
X108430732Y-106835000D01*
X108785250Y-106764482D01*
X109119199Y-106626156D01*
X109419744Y-106425338D01*
X109567102Y-106277980D01*
X110651626Y-106277980D01*
X110771514Y-106562836D01*
X111095210Y-106723699D01*
X111444069Y-106818322D01*
X111804684Y-106843067D01*
X112163198Y-106796985D01*
X112505833Y-106681846D01*
X112728486Y-106562836D01*
X112848374Y-106277980D01*
X111750000Y-105179605D01*
X110651626Y-106277980D01*
X109567102Y-106277980D01*
X109675338Y-106169744D01*
X109876156Y-105869199D01*
X110003190Y-105562511D01*
X110068154Y-105755833D01*
X110187164Y-105978486D01*
X110472020Y-106098374D01*
X111570395Y-105000000D01*
X111929605Y-105000000D01*
X113027980Y-106098374D01*
X113312836Y-105978486D01*
X113473699Y-105654790D01*
X113497969Y-105565310D01*
X113623844Y-105869199D01*
X113824662Y-106169744D01*
X114080256Y-106425338D01*
X114380801Y-106626156D01*
X114714750Y-106764482D01*
X115069268Y-106835000D01*
X115430732Y-106835000D01*
X115785250Y-106764482D01*
X116119199Y-106626156D01*
X116419744Y-106425338D01*
X116567102Y-106277980D01*
X117651626Y-106277980D01*
X117771514Y-106562836D01*
X118095210Y-106723699D01*
X118444069Y-106818322D01*
X118804684Y-106843067D01*
X119163198Y-106796985D01*
X119505833Y-106681846D01*
X119728486Y-106562836D01*
X119848374Y-106277980D01*
X118750000Y-105179605D01*
X117651626Y-106277980D01*
X116567102Y-106277980D01*
X116675338Y-106169744D01*
X116876156Y-105869199D01*
X117003190Y-105562511D01*
X117068154Y-105755833D01*
X117187164Y-105978486D01*
X117472020Y-106098374D01*
X118570395Y-105000000D01*
X118929605Y-105000000D01*
X120027980Y-106098374D01*
X120312836Y-105978486D01*
X120473699Y-105654790D01*
X120497969Y-105565310D01*
X120623844Y-105869199D01*
X120824662Y-106169744D01*
X121080256Y-106425338D01*
X121380801Y-106626156D01*
X121714750Y-106764482D01*
X122069268Y-106835000D01*
X122430732Y-106835000D01*
X122785250Y-106764482D01*
X123119199Y-106626156D01*
X123419744Y-106425338D01*
X123567102Y-106277980D01*
X124651626Y-106277980D01*
X124771514Y-106562836D01*
X125095210Y-106723699D01*
X125444069Y-106818322D01*
X125804684Y-106843067D01*
X126163198Y-106796985D01*
X126505833Y-106681846D01*
X126728486Y-106562836D01*
X126848374Y-106277980D01*
X125750000Y-105179605D01*
X124651626Y-106277980D01*
X123567102Y-106277980D01*
X123675338Y-106169744D01*
X123876156Y-105869199D01*
X124003190Y-105562511D01*
X124068154Y-105755833D01*
X124187164Y-105978486D01*
X124472020Y-106098374D01*
X125570395Y-105000000D01*
X125929605Y-105000000D01*
X127027980Y-106098374D01*
X127312836Y-105978486D01*
X127473699Y-105654790D01*
X127497969Y-105565310D01*
X127623844Y-105869199D01*
X127824662Y-106169744D01*
X128080256Y-106425338D01*
X128380801Y-106626156D01*
X128714750Y-106764482D01*
X129069268Y-106835000D01*
X129430732Y-106835000D01*
X129785250Y-106764482D01*
X130119199Y-106626156D01*
X130419744Y-106425338D01*
X130567102Y-106277980D01*
X131651626Y-106277980D01*
X131771514Y-106562836D01*
X132095210Y-106723699D01*
X132444069Y-106818322D01*
X132804684Y-106843067D01*
X133163198Y-106796985D01*
X133505833Y-106681846D01*
X133728486Y-106562836D01*
X133848374Y-106277980D01*
X132750000Y-105179605D01*
X131651626Y-106277980D01*
X130567102Y-106277980D01*
X130675338Y-106169744D01*
X130876156Y-105869199D01*
X131003190Y-105562511D01*
X131068154Y-105755833D01*
X131187164Y-105978486D01*
X131472020Y-106098374D01*
X132570395Y-105000000D01*
X132929605Y-105000000D01*
X134027980Y-106098374D01*
X134312836Y-105978486D01*
X134473699Y-105654790D01*
X134497969Y-105565310D01*
X134623844Y-105869199D01*
X134824662Y-106169744D01*
X135080256Y-106425338D01*
X135380801Y-106626156D01*
X135714750Y-106764482D01*
X136069268Y-106835000D01*
X136430732Y-106835000D01*
X136785250Y-106764482D01*
X137119199Y-106626156D01*
X137419744Y-106425338D01*
X137567102Y-106277980D01*
X138651626Y-106277980D01*
X138771514Y-106562836D01*
X139095210Y-106723699D01*
X139444069Y-106818322D01*
X139804684Y-106843067D01*
X140163198Y-106796985D01*
X140505833Y-106681846D01*
X140728486Y-106562836D01*
X140848374Y-106277980D01*
X139750000Y-105179605D01*
X138651626Y-106277980D01*
X137567102Y-106277980D01*
X137675338Y-106169744D01*
X137876156Y-105869199D01*
X138003190Y-105562511D01*
X138068154Y-105755833D01*
X138187164Y-105978486D01*
X138472020Y-106098374D01*
X139570395Y-105000000D01*
X139929605Y-105000000D01*
X141027980Y-106098374D01*
X141312836Y-105978486D01*
X141473699Y-105654790D01*
X141497969Y-105565310D01*
X141623844Y-105869199D01*
X141824662Y-106169744D01*
X142080256Y-106425338D01*
X142380801Y-106626156D01*
X142714750Y-106764482D01*
X143069268Y-106835000D01*
X143430732Y-106835000D01*
X143785250Y-106764482D01*
X144119199Y-106626156D01*
X144419744Y-106425338D01*
X144567102Y-106277980D01*
X145651626Y-106277980D01*
X145771514Y-106562836D01*
X146095210Y-106723699D01*
X146444069Y-106818322D01*
X146804684Y-106843067D01*
X147163198Y-106796985D01*
X147505833Y-106681846D01*
X147728486Y-106562836D01*
X147848374Y-106277980D01*
X146750000Y-105179605D01*
X145651626Y-106277980D01*
X144567102Y-106277980D01*
X144675338Y-106169744D01*
X144876156Y-105869199D01*
X145003190Y-105562511D01*
X145068154Y-105755833D01*
X145187164Y-105978486D01*
X145472020Y-106098374D01*
X146570395Y-105000000D01*
X146929605Y-105000000D01*
X148027980Y-106098374D01*
X148312836Y-105978486D01*
X148351840Y-105900000D01*
X151011928Y-105900000D01*
X151011928Y-107600000D01*
X151024188Y-107724482D01*
X151060498Y-107844180D01*
X151119463Y-107954494D01*
X151198815Y-108051185D01*
X151295506Y-108130537D01*
X151405820Y-108189502D01*
X151525518Y-108225812D01*
X151650000Y-108238072D01*
X153350000Y-108238072D01*
X153474482Y-108225812D01*
X153594180Y-108189502D01*
X153704494Y-108130537D01*
X153801185Y-108051185D01*
X153880537Y-107954494D01*
X153939502Y-107844180D01*
X153963966Y-107763534D01*
X154039731Y-107847588D01*
X154273080Y-108021641D01*
X154535901Y-108146825D01*
X154683110Y-108191476D01*
X154913000Y-108070155D01*
X154913000Y-106877000D01*
X155167000Y-106877000D01*
X155167000Y-108070155D01*
X155396890Y-108191476D01*
X155544099Y-108146825D01*
X155806920Y-108021641D01*
X156040269Y-107847588D01*
X156235178Y-107631355D01*
X156384157Y-107381252D01*
X156481481Y-107106891D01*
X156360814Y-106877000D01*
X155167000Y-106877000D01*
X154913000Y-106877000D01*
X154893000Y-106877000D01*
X154893000Y-106623000D01*
X154913000Y-106623000D01*
X154913000Y-105429845D01*
X155167000Y-105429845D01*
X155167000Y-106623000D01*
X156360814Y-106623000D01*
X156481481Y-106393109D01*
X156384157Y-106118748D01*
X156235178Y-105868645D01*
X156040269Y-105652412D01*
X155806920Y-105478359D01*
X155544099Y-105353175D01*
X155396890Y-105308524D01*
X155167000Y-105429845D01*
X154913000Y-105429845D01*
X154683110Y-105308524D01*
X154535901Y-105353175D01*
X154273080Y-105478359D01*
X154039731Y-105652412D01*
X153963966Y-105736466D01*
X153939502Y-105655820D01*
X153880537Y-105545506D01*
X153801185Y-105448815D01*
X153704494Y-105369463D01*
X153594180Y-105310498D01*
X153474482Y-105274188D01*
X153350000Y-105261928D01*
X151650000Y-105261928D01*
X151525518Y-105274188D01*
X151405820Y-105310498D01*
X151295506Y-105369463D01*
X151198815Y-105448815D01*
X151119463Y-105545506D01*
X151060498Y-105655820D01*
X151024188Y-105775518D01*
X151011928Y-105900000D01*
X148351840Y-105900000D01*
X148473699Y-105654790D01*
X148568322Y-105305931D01*
X148593067Y-104945316D01*
X148546985Y-104586802D01*
X148431846Y-104244167D01*
X148312836Y-104021514D01*
X148027980Y-103901626D01*
X146929605Y-105000000D01*
X146570395Y-105000000D01*
X145472020Y-103901626D01*
X145187164Y-104021514D01*
X145026301Y-104345210D01*
X145002031Y-104434690D01*
X144876156Y-104130801D01*
X144675338Y-103830256D01*
X144567102Y-103722020D01*
X145651626Y-103722020D01*
X146750000Y-104820395D01*
X147848374Y-103722020D01*
X147728486Y-103437164D01*
X147404790Y-103276301D01*
X147055931Y-103181678D01*
X146695316Y-103156933D01*
X146336802Y-103203015D01*
X145994167Y-103318154D01*
X145771514Y-103437164D01*
X145651626Y-103722020D01*
X144567102Y-103722020D01*
X144419744Y-103574662D01*
X144119199Y-103373844D01*
X143785250Y-103235518D01*
X143430732Y-103165000D01*
X143069268Y-103165000D01*
X142714750Y-103235518D01*
X142380801Y-103373844D01*
X142080256Y-103574662D01*
X141824662Y-103830256D01*
X141623844Y-104130801D01*
X141496810Y-104437489D01*
X141431846Y-104244167D01*
X141312836Y-104021514D01*
X141027980Y-103901626D01*
X139929605Y-105000000D01*
X139570395Y-105000000D01*
X138472020Y-103901626D01*
X138187164Y-104021514D01*
X138026301Y-104345210D01*
X138002031Y-104434690D01*
X137876156Y-104130801D01*
X137675338Y-103830256D01*
X137567102Y-103722020D01*
X138651626Y-103722020D01*
X139750000Y-104820395D01*
X140848374Y-103722020D01*
X140728486Y-103437164D01*
X140404790Y-103276301D01*
X140055931Y-103181678D01*
X139695316Y-103156933D01*
X139336802Y-103203015D01*
X138994167Y-103318154D01*
X138771514Y-103437164D01*
X138651626Y-103722020D01*
X137567102Y-103722020D01*
X137419744Y-103574662D01*
X137119199Y-103373844D01*
X136785250Y-103235518D01*
X136430732Y-103165000D01*
X136069268Y-103165000D01*
X135714750Y-103235518D01*
X135380801Y-103373844D01*
X135080256Y-103574662D01*
X134824662Y-103830256D01*
X134623844Y-104130801D01*
X134496810Y-104437489D01*
X134431846Y-104244167D01*
X134312836Y-104021514D01*
X134027980Y-103901626D01*
X132929605Y-105000000D01*
X132570395Y-105000000D01*
X131472020Y-103901626D01*
X131187164Y-104021514D01*
X131026301Y-104345210D01*
X131002031Y-104434690D01*
X130876156Y-104130801D01*
X130675338Y-103830256D01*
X130567102Y-103722020D01*
X131651626Y-103722020D01*
X132750000Y-104820395D01*
X133848374Y-103722020D01*
X133728486Y-103437164D01*
X133404790Y-103276301D01*
X133055931Y-103181678D01*
X132695316Y-103156933D01*
X132336802Y-103203015D01*
X131994167Y-103318154D01*
X131771514Y-103437164D01*
X131651626Y-103722020D01*
X130567102Y-103722020D01*
X130419744Y-103574662D01*
X130119199Y-103373844D01*
X129785250Y-103235518D01*
X129430732Y-103165000D01*
X129069268Y-103165000D01*
X128714750Y-103235518D01*
X128380801Y-103373844D01*
X128080256Y-103574662D01*
X127824662Y-103830256D01*
X127623844Y-104130801D01*
X127496810Y-104437489D01*
X127431846Y-104244167D01*
X127312836Y-104021514D01*
X127027980Y-103901626D01*
X125929605Y-105000000D01*
X125570395Y-105000000D01*
X124472020Y-103901626D01*
X124187164Y-104021514D01*
X124026301Y-104345210D01*
X124002031Y-104434690D01*
X123876156Y-104130801D01*
X123675338Y-103830256D01*
X123567102Y-103722020D01*
X124651626Y-103722020D01*
X125750000Y-104820395D01*
X126848374Y-103722020D01*
X126728486Y-103437164D01*
X126404790Y-103276301D01*
X126055931Y-103181678D01*
X125695316Y-103156933D01*
X125336802Y-103203015D01*
X124994167Y-103318154D01*
X124771514Y-103437164D01*
X124651626Y-103722020D01*
X123567102Y-103722020D01*
X123419744Y-103574662D01*
X123119199Y-103373844D01*
X122785250Y-103235518D01*
X122430732Y-103165000D01*
X122069268Y-103165000D01*
X121714750Y-103235518D01*
X121380801Y-103373844D01*
X121080256Y-103574662D01*
X120824662Y-103830256D01*
X120623844Y-104130801D01*
X120496810Y-104437489D01*
X120431846Y-104244167D01*
X120312836Y-104021514D01*
X120027980Y-103901626D01*
X118929605Y-105000000D01*
X118570395Y-105000000D01*
X117472020Y-103901626D01*
X117187164Y-104021514D01*
X117026301Y-104345210D01*
X117002031Y-104434690D01*
X116876156Y-104130801D01*
X116675338Y-103830256D01*
X116567102Y-103722020D01*
X117651626Y-103722020D01*
X118750000Y-104820395D01*
X119848374Y-103722020D01*
X119728486Y-103437164D01*
X119404790Y-103276301D01*
X119055931Y-103181678D01*
X118695316Y-103156933D01*
X118336802Y-103203015D01*
X117994167Y-103318154D01*
X117771514Y-103437164D01*
X117651626Y-103722020D01*
X116567102Y-103722020D01*
X116419744Y-103574662D01*
X116119199Y-103373844D01*
X115785250Y-103235518D01*
X115430732Y-103165000D01*
X115069268Y-103165000D01*
X114714750Y-103235518D01*
X114380801Y-103373844D01*
X114080256Y-103574662D01*
X113824662Y-103830256D01*
X113623844Y-104130801D01*
X113496810Y-104437489D01*
X113431846Y-104244167D01*
X113312836Y-104021514D01*
X113027980Y-103901626D01*
X111929605Y-105000000D01*
X111570395Y-105000000D01*
X110472020Y-103901626D01*
X110187164Y-104021514D01*
X110026301Y-104345210D01*
X110002031Y-104434690D01*
X109876156Y-104130801D01*
X109675338Y-103830256D01*
X109567102Y-103722020D01*
X110651626Y-103722020D01*
X111750000Y-104820395D01*
X112848374Y-103722020D01*
X112728486Y-103437164D01*
X112404790Y-103276301D01*
X112055931Y-103181678D01*
X111695316Y-103156933D01*
X111336802Y-103203015D01*
X110994167Y-103318154D01*
X110771514Y-103437164D01*
X110651626Y-103722020D01*
X109567102Y-103722020D01*
X109419744Y-103574662D01*
X109119199Y-103373844D01*
X108785250Y-103235518D01*
X108430732Y-103165000D01*
X108069268Y-103165000D01*
X107714750Y-103235518D01*
X107380801Y-103373844D01*
X107080256Y-103574662D01*
X106824662Y-103830256D01*
X106623844Y-104130801D01*
X106485518Y-104464750D01*
X106415000Y-104819268D01*
X95877000Y-104819268D01*
X95877000Y-101224183D01*
X95762403Y-100648061D01*
X106415000Y-100648061D01*
X106415000Y-100851939D01*
X106454774Y-101051898D01*
X106532795Y-101240256D01*
X106646063Y-101409774D01*
X106790226Y-101553937D01*
X106959744Y-101667205D01*
X107148102Y-101745226D01*
X107348061Y-101785000D01*
X107551939Y-101785000D01*
X107751898Y-101745226D01*
X107940256Y-101667205D01*
X107988454Y-101635000D01*
X108511546Y-101635000D01*
X108559744Y-101667205D01*
X108748102Y-101745226D01*
X108948061Y-101785000D01*
X109151939Y-101785000D01*
X109351898Y-101745226D01*
X109540256Y-101667205D01*
X109709774Y-101553937D01*
X109853937Y-101409774D01*
X109967205Y-101240256D01*
X110045226Y-101051898D01*
X110085000Y-100851939D01*
X110085000Y-100648061D01*
X113415000Y-100648061D01*
X113415000Y-100851939D01*
X113454774Y-101051898D01*
X113532795Y-101240256D01*
X113646063Y-101409774D01*
X113790226Y-101553937D01*
X113959744Y-101667205D01*
X114148102Y-101745226D01*
X114348061Y-101785000D01*
X114551939Y-101785000D01*
X114751898Y-101745226D01*
X114940256Y-101667205D01*
X114988454Y-101635000D01*
X115511546Y-101635000D01*
X115559744Y-101667205D01*
X115748102Y-101745226D01*
X115948061Y-101785000D01*
X116151939Y-101785000D01*
X116351898Y-101745226D01*
X116540256Y-101667205D01*
X116709774Y-101553937D01*
X116853937Y-101409774D01*
X116967205Y-101240256D01*
X117045226Y-101051898D01*
X117085000Y-100851939D01*
X117085000Y-100648061D01*
X120415000Y-100648061D01*
X120415000Y-100851939D01*
X120454774Y-101051898D01*
X120532795Y-101240256D01*
X120646063Y-101409774D01*
X120790226Y-101553937D01*
X120959744Y-101667205D01*
X121148102Y-101745226D01*
X121348061Y-101785000D01*
X121551939Y-101785000D01*
X121751898Y-101745226D01*
X121940256Y-101667205D01*
X121988454Y-101635000D01*
X122511546Y-101635000D01*
X122559744Y-101667205D01*
X122748102Y-101745226D01*
X122948061Y-101785000D01*
X123151939Y-101785000D01*
X123351898Y-101745226D01*
X123540256Y-101667205D01*
X123709774Y-101553937D01*
X123853937Y-101409774D01*
X123967205Y-101240256D01*
X124045226Y-101051898D01*
X124085000Y-100851939D01*
X124085000Y-100648061D01*
X127415000Y-100648061D01*
X127415000Y-100851939D01*
X127454774Y-101051898D01*
X127532795Y-101240256D01*
X127646063Y-101409774D01*
X127790226Y-101553937D01*
X127959744Y-101667205D01*
X128148102Y-101745226D01*
X128348061Y-101785000D01*
X128551939Y-101785000D01*
X128751898Y-101745226D01*
X128940256Y-101667205D01*
X128988454Y-101635000D01*
X129511546Y-101635000D01*
X129559744Y-101667205D01*
X129748102Y-101745226D01*
X129948061Y-101785000D01*
X130151939Y-101785000D01*
X130351898Y-101745226D01*
X130540256Y-101667205D01*
X130709774Y-101553937D01*
X130853937Y-101409774D01*
X130967205Y-101240256D01*
X131045226Y-101051898D01*
X131085000Y-100851939D01*
X131085000Y-100648061D01*
X134415000Y-100648061D01*
X134415000Y-100851939D01*
X134454774Y-101051898D01*
X134532795Y-101240256D01*
X134646063Y-101409774D01*
X134790226Y-101553937D01*
X134959744Y-101667205D01*
X135148102Y-101745226D01*
X135348061Y-101785000D01*
X135551939Y-101785000D01*
X135751898Y-101745226D01*
X135940256Y-101667205D01*
X135988454Y-101635000D01*
X136511546Y-101635000D01*
X136559744Y-101667205D01*
X136748102Y-101745226D01*
X136948061Y-101785000D01*
X137151939Y-101785000D01*
X137351898Y-101745226D01*
X137540256Y-101667205D01*
X137709774Y-101553937D01*
X137853937Y-101409774D01*
X137967205Y-101240256D01*
X138045226Y-101051898D01*
X138085000Y-100851939D01*
X138085000Y-100648061D01*
X141415000Y-100648061D01*
X141415000Y-100851939D01*
X141454774Y-101051898D01*
X141532795Y-101240256D01*
X141646063Y-101409774D01*
X141790226Y-101553937D01*
X141959744Y-101667205D01*
X142148102Y-101745226D01*
X142348061Y-101785000D01*
X142551939Y-101785000D01*
X142751898Y-101745226D01*
X142940256Y-101667205D01*
X142988454Y-101635000D01*
X143511546Y-101635000D01*
X143559744Y-101667205D01*
X143748102Y-101745226D01*
X143948061Y-101785000D01*
X144151939Y-101785000D01*
X144351898Y-101745226D01*
X144540256Y-101667205D01*
X144709774Y-101553937D01*
X144853937Y-101409774D01*
X144967205Y-101240256D01*
X145045226Y-101051898D01*
X145085000Y-100851939D01*
X145085000Y-100648061D01*
X148415000Y-100648061D01*
X148415000Y-100851939D01*
X148454774Y-101051898D01*
X148532795Y-101240256D01*
X148646063Y-101409774D01*
X148790226Y-101553937D01*
X148959744Y-101667205D01*
X149148102Y-101745226D01*
X149348061Y-101785000D01*
X149551939Y-101785000D01*
X149751898Y-101745226D01*
X149940256Y-101667205D01*
X149988454Y-101635000D01*
X150511546Y-101635000D01*
X150559744Y-101667205D01*
X150748102Y-101745226D01*
X150948061Y-101785000D01*
X151151939Y-101785000D01*
X151351898Y-101745226D01*
X151540256Y-101667205D01*
X151709774Y-101553937D01*
X151853937Y-101409774D01*
X151967205Y-101240256D01*
X152045226Y-101051898D01*
X152085000Y-100851939D01*
X152085000Y-100648061D01*
X152045226Y-100448102D01*
X151967205Y-100259744D01*
X151853937Y-100090226D01*
X151709774Y-99946063D01*
X151540256Y-99832795D01*
X151351898Y-99754774D01*
X151151939Y-99715000D01*
X150948061Y-99715000D01*
X150748102Y-99754774D01*
X150559744Y-99832795D01*
X150511546Y-99865000D01*
X149988454Y-99865000D01*
X149940256Y-99832795D01*
X149751898Y-99754774D01*
X149551939Y-99715000D01*
X149348061Y-99715000D01*
X149148102Y-99754774D01*
X148959744Y-99832795D01*
X148790226Y-99946063D01*
X148646063Y-100090226D01*
X148532795Y-100259744D01*
X148454774Y-100448102D01*
X148415000Y-100648061D01*
X145085000Y-100648061D01*
X145045226Y-100448102D01*
X144967205Y-100259744D01*
X144853937Y-100090226D01*
X144709774Y-99946063D01*
X144540256Y-99832795D01*
X144351898Y-99754774D01*
X144151939Y-99715000D01*
X143948061Y-99715000D01*
X143748102Y-99754774D01*
X143559744Y-99832795D01*
X143511546Y-99865000D01*
X142988454Y-99865000D01*
X142940256Y-99832795D01*
X142751898Y-99754774D01*
X142551939Y-99715000D01*
X142348061Y-99715000D01*
X142148102Y-99754774D01*
X141959744Y-99832795D01*
X141790226Y-99946063D01*
X141646063Y-100090226D01*
X141532795Y-100259744D01*
X141454774Y-100448102D01*
X141415000Y-100648061D01*
X138085000Y-100648061D01*
X138045226Y-100448102D01*
X137967205Y-100259744D01*
X137853937Y-100090226D01*
X137709774Y-99946063D01*
X137540256Y-99832795D01*
X137351898Y-99754774D01*
X137151939Y-99715000D01*
X136948061Y-99715000D01*
X136748102Y-99754774D01*
X136559744Y-99832795D01*
X136511546Y-99865000D01*
X135988454Y-99865000D01*
X135940256Y-99832795D01*
X135751898Y-99754774D01*
X135551939Y-99715000D01*
X135348061Y-99715000D01*
X135148102Y-99754774D01*
X134959744Y-99832795D01*
X134790226Y-99946063D01*
X134646063Y-100090226D01*
X134532795Y-100259744D01*
X134454774Y-100448102D01*
X134415000Y-100648061D01*
X131085000Y-100648061D01*
X131045226Y-100448102D01*
X130967205Y-100259744D01*
X130853937Y-100090226D01*
X130709774Y-99946063D01*
X130540256Y-99832795D01*
X130351898Y-99754774D01*
X130151939Y-99715000D01*
X129948061Y-99715000D01*
X129748102Y-99754774D01*
X129559744Y-99832795D01*
X129511546Y-99865000D01*
X128988454Y-99865000D01*
X128940256Y-99832795D01*
X128751898Y-99754774D01*
X128551939Y-99715000D01*
X128348061Y-99715000D01*
X128148102Y-99754774D01*
X127959744Y-99832795D01*
X127790226Y-99946063D01*
X127646063Y-100090226D01*
X127532795Y-100259744D01*
X127454774Y-100448102D01*
X127415000Y-100648061D01*
X124085000Y-100648061D01*
X124045226Y-100448102D01*
X123967205Y-100259744D01*
X123853937Y-100090226D01*
X123709774Y-99946063D01*
X123540256Y-99832795D01*
X123351898Y-99754774D01*
X123151939Y-99715000D01*
X122948061Y-99715000D01*
X122748102Y-99754774D01*
X122559744Y-99832795D01*
X122511546Y-99865000D01*
X121988454Y-99865000D01*
X121940256Y-99832795D01*
X121751898Y-99754774D01*
X121551939Y-99715000D01*
X121348061Y-99715000D01*
X121148102Y-99754774D01*
X120959744Y-99832795D01*
X120790226Y-99946063D01*
X120646063Y-100090226D01*
X120532795Y-100259744D01*
X120454774Y-100448102D01*
X120415000Y-100648061D01*
X117085000Y-100648061D01*
X117045226Y-100448102D01*
X116967205Y-100259744D01*
X116853937Y-100090226D01*
X116709774Y-99946063D01*
X116540256Y-99832795D01*
X116351898Y-99754774D01*
X116151939Y-99715000D01*
X115948061Y-99715000D01*
X115748102Y-99754774D01*
X115559744Y-99832795D01*
X115511546Y-99865000D01*
X114988454Y-99865000D01*
X114940256Y-99832795D01*
X114751898Y-99754774D01*
X114551939Y-99715000D01*
X114348061Y-99715000D01*
X114148102Y-99754774D01*
X113959744Y-99832795D01*
X113790226Y-99946063D01*
X113646063Y-100090226D01*
X113532795Y-100259744D01*
X113454774Y-100448102D01*
X113415000Y-100648061D01*
X110085000Y-100648061D01*
X110045226Y-100448102D01*
X109967205Y-100259744D01*
X109853937Y-100090226D01*
X109709774Y-99946063D01*
X109540256Y-99832795D01*
X109351898Y-99754774D01*
X109151939Y-99715000D01*
X108948061Y-99715000D01*
X108748102Y-99754774D01*
X108559744Y-99832795D01*
X108511546Y-99865000D01*
X107988454Y-99865000D01*
X107940256Y-99832795D01*
X107751898Y-99754774D01*
X107551939Y-99715000D01*
X107348061Y-99715000D01*
X107148102Y-99754774D01*
X106959744Y-99832795D01*
X106790226Y-99946063D01*
X106646063Y-100090226D01*
X106532795Y-100259744D01*
X106454774Y-100448102D01*
X106415000Y-100648061D01*
X95762403Y-100648061D01*
X95574291Y-99702364D01*
X94980506Y-98268842D01*
X94118465Y-96978705D01*
X93021295Y-95881535D01*
X92971198Y-95848061D01*
X105215000Y-95848061D01*
X105215000Y-96051939D01*
X105254774Y-96251898D01*
X105332795Y-96440256D01*
X105365000Y-96488455D01*
X105365001Y-97011545D01*
X105332795Y-97059744D01*
X105254774Y-97248102D01*
X105215000Y-97448061D01*
X105215000Y-97651939D01*
X105254774Y-97851898D01*
X105332795Y-98040256D01*
X105446063Y-98209774D01*
X105590226Y-98353937D01*
X105759744Y-98467205D01*
X105948102Y-98545226D01*
X106148061Y-98585000D01*
X106351939Y-98585000D01*
X106551898Y-98545226D01*
X106740256Y-98467205D01*
X106909774Y-98353937D01*
X107053937Y-98209774D01*
X107167205Y-98040256D01*
X107245226Y-97851898D01*
X107285000Y-97651939D01*
X107285000Y-97448061D01*
X107245226Y-97248102D01*
X107167205Y-97059744D01*
X107135000Y-97011546D01*
X107135000Y-96488454D01*
X107167205Y-96440256D01*
X107245226Y-96251898D01*
X107285000Y-96051939D01*
X107285000Y-95848061D01*
X107245226Y-95648102D01*
X107167205Y-95459744D01*
X107053937Y-95290226D01*
X106909774Y-95146063D01*
X106740256Y-95032795D01*
X106551898Y-94954774D01*
X106351939Y-94915000D01*
X106148061Y-94915000D01*
X105948102Y-94954774D01*
X105759744Y-95032795D01*
X105590226Y-95146063D01*
X105446063Y-95290226D01*
X105332795Y-95459744D01*
X105254774Y-95648102D01*
X105215000Y-95848061D01*
X92971198Y-95848061D01*
X91731158Y-95019494D01*
X90297636Y-94425709D01*
X88775817Y-94123000D01*
X80660000Y-94123000D01*
X80660000Y-88069268D01*
X83915000Y-88069268D01*
X83915000Y-88430732D01*
X83985518Y-88785250D01*
X84123844Y-89119199D01*
X84324662Y-89419744D01*
X84580256Y-89675338D01*
X84880801Y-89876156D01*
X85214750Y-90014482D01*
X85569268Y-90085000D01*
X85930732Y-90085000D01*
X86285250Y-90014482D01*
X86619199Y-89876156D01*
X86919744Y-89675338D01*
X87067102Y-89527980D01*
X88151626Y-89527980D01*
X88271514Y-89812836D01*
X88595210Y-89973699D01*
X88944069Y-90068322D01*
X89304684Y-90093067D01*
X89663198Y-90046985D01*
X90005833Y-89931846D01*
X90228486Y-89812836D01*
X90348374Y-89527980D01*
X89250000Y-88429605D01*
X88151626Y-89527980D01*
X87067102Y-89527980D01*
X87175338Y-89419744D01*
X87376156Y-89119199D01*
X87503190Y-88812511D01*
X87568154Y-89005833D01*
X87687164Y-89228486D01*
X87972020Y-89348374D01*
X89070395Y-88250000D01*
X89429605Y-88250000D01*
X90527980Y-89348374D01*
X90812836Y-89228486D01*
X90973699Y-88904790D01*
X91068322Y-88555931D01*
X91093067Y-88195316D01*
X91046985Y-87836802D01*
X90931846Y-87494167D01*
X90812836Y-87271514D01*
X90527980Y-87151626D01*
X89429605Y-88250000D01*
X89070395Y-88250000D01*
X87972020Y-87151626D01*
X87687164Y-87271514D01*
X87526301Y-87595210D01*
X87502031Y-87684690D01*
X87376156Y-87380801D01*
X87175338Y-87080256D01*
X87067102Y-86972020D01*
X88151626Y-86972020D01*
X89250000Y-88070395D01*
X90348374Y-86972020D01*
X90228486Y-86687164D01*
X89904790Y-86526301D01*
X89555931Y-86431678D01*
X89195316Y-86406933D01*
X88836802Y-86453015D01*
X88494167Y-86568154D01*
X88271514Y-86687164D01*
X88151626Y-86972020D01*
X87067102Y-86972020D01*
X86919744Y-86824662D01*
X86619199Y-86623844D01*
X86285250Y-86485518D01*
X85930732Y-86415000D01*
X85569268Y-86415000D01*
X85214750Y-86485518D01*
X84880801Y-86623844D01*
X84580256Y-86824662D01*
X84324662Y-87080256D01*
X84123844Y-87380801D01*
X83985518Y-87714750D01*
X83915000Y-88069268D01*
X80660000Y-88069268D01*
X80660000Y-80398288D01*
X114826257Y-80398288D01*
X114956027Y-81852333D01*
X115252061Y-83281825D01*
X115710434Y-84667819D01*
X116325072Y-85991944D01*
X117087828Y-87236648D01*
X117988592Y-88385434D01*
X119015424Y-89423076D01*
X120154715Y-90335820D01*
X121391363Y-91111569D01*
X122708979Y-91740039D01*
X124090097Y-92212901D01*
X125516411Y-92523888D01*
X126969017Y-92668877D01*
X128428660Y-92645948D01*
X129875995Y-92455402D01*
X131291837Y-92099767D01*
X132657421Y-91583756D01*
X133954645Y-90914209D01*
X135166317Y-90099999D01*
X136276375Y-89151920D01*
X137270108Y-88082536D01*
X138134343Y-86906023D01*
X138857625Y-85637974D01*
X139430368Y-84295197D01*
X139844980Y-82895489D01*
X140095967Y-81457403D01*
X140180000Y-80000000D01*
X140154979Y-79203816D01*
X140142416Y-79100000D01*
X165921928Y-79100000D01*
X165921928Y-80900000D01*
X165934188Y-81024482D01*
X165970498Y-81144180D01*
X166029463Y-81254494D01*
X166108815Y-81351185D01*
X166205506Y-81430537D01*
X166315820Y-81489502D01*
X166435518Y-81525812D01*
X166560000Y-81538072D01*
X168360000Y-81538072D01*
X168484482Y-81525812D01*
X168604180Y-81489502D01*
X168714494Y-81430537D01*
X168811185Y-81351185D01*
X168890537Y-81254494D01*
X168949502Y-81144180D01*
X168952813Y-81133265D01*
X168999578Y-81180030D01*
X169115526Y-81064082D01*
X169199208Y-81318261D01*
X169471775Y-81449158D01*
X169764642Y-81524365D01*
X170066553Y-81540991D01*
X170365907Y-81498397D01*
X170651199Y-81398222D01*
X170800792Y-81318261D01*
X170884475Y-81064080D01*
X170000000Y-80179605D01*
X169985858Y-80193748D01*
X169806253Y-80014143D01*
X169820395Y-80000000D01*
X170179605Y-80000000D01*
X171064080Y-80884475D01*
X171245049Y-80824895D01*
X171347688Y-80978505D01*
X171561495Y-81192312D01*
X171812905Y-81360299D01*
X172092257Y-81476011D01*
X172388816Y-81535000D01*
X172691184Y-81535000D01*
X172987743Y-81476011D01*
X173267095Y-81360299D01*
X173518505Y-81192312D01*
X173732312Y-80978505D01*
X173900299Y-80727095D01*
X174016011Y-80447743D01*
X174075000Y-80151184D01*
X174075000Y-79848816D01*
X174016011Y-79552257D01*
X173900299Y-79272905D01*
X173732312Y-79021495D01*
X173518505Y-78807688D01*
X173267095Y-78639701D01*
X172987743Y-78523989D01*
X172691184Y-78465000D01*
X172388816Y-78465000D01*
X172092257Y-78523989D01*
X171812905Y-78639701D01*
X171561495Y-78807688D01*
X171347688Y-79021495D01*
X171245049Y-79175105D01*
X171064080Y-79115525D01*
X170179605Y-80000000D01*
X169820395Y-80000000D01*
X169806253Y-79985858D01*
X169985858Y-79806253D01*
X170000000Y-79820395D01*
X170884475Y-78935920D01*
X170800792Y-78681739D01*
X170528225Y-78550842D01*
X170235358Y-78475635D01*
X169933447Y-78459009D01*
X169634093Y-78501603D01*
X169348801Y-78601778D01*
X169199208Y-78681739D01*
X169115526Y-78935918D01*
X168999578Y-78819970D01*
X168952813Y-78866735D01*
X168949502Y-78855820D01*
X168890537Y-78745506D01*
X168811185Y-78648815D01*
X168714494Y-78569463D01*
X168604180Y-78510498D01*
X168484482Y-78474188D01*
X168360000Y-78461928D01*
X166560000Y-78461928D01*
X166435518Y-78474188D01*
X166315820Y-78510498D01*
X166205506Y-78569463D01*
X166108815Y-78648815D01*
X166029463Y-78745506D01*
X165970498Y-78855820D01*
X165934188Y-78975518D01*
X165921928Y-79100000D01*
X140142416Y-79100000D01*
X139979600Y-77754565D01*
X139638811Y-76335077D01*
X139137129Y-74964165D01*
X138481202Y-73660000D01*
X137679726Y-72439869D01*
X136743322Y-71319943D01*
X135684403Y-70315066D01*
X134517005Y-69438559D01*
X133256600Y-68702037D01*
X131919894Y-68115264D01*
X130524604Y-67686017D01*
X129089225Y-67419986D01*
X128798310Y-67400153D01*
X128812426Y-67366074D01*
X128852200Y-67166115D01*
X128852200Y-67148091D01*
X131965000Y-67148091D01*
X131965000Y-67351969D01*
X132004774Y-67551928D01*
X132082795Y-67740286D01*
X132196063Y-67909804D01*
X132340226Y-68053967D01*
X132509744Y-68167235D01*
X132698102Y-68245256D01*
X132898061Y-68285030D01*
X133101939Y-68285030D01*
X133301898Y-68245256D01*
X133490256Y-68167235D01*
X133538454Y-68135030D01*
X136456531Y-68135030D01*
X136500000Y-68139311D01*
X136543469Y-68135030D01*
X136543477Y-68135030D01*
X136673490Y-68122225D01*
X136840313Y-68071619D01*
X136942521Y-68016988D01*
X137051928Y-67995226D01*
X137240286Y-67917205D01*
X137409804Y-67803937D01*
X137553967Y-67659774D01*
X137667235Y-67490256D01*
X137745256Y-67301898D01*
X137785030Y-67101939D01*
X137785030Y-66898061D01*
X137745256Y-66698102D01*
X137703818Y-66598061D01*
X158215000Y-66598061D01*
X158215000Y-66801939D01*
X158254774Y-67001898D01*
X158332795Y-67190256D01*
X158365000Y-67238455D01*
X158365001Y-69002203D01*
X158329463Y-69045506D01*
X158270498Y-69155820D01*
X158234188Y-69275518D01*
X158221928Y-69400000D01*
X158221928Y-71100000D01*
X158234188Y-71224482D01*
X158270498Y-71344180D01*
X158329463Y-71454494D01*
X158408815Y-71551185D01*
X158505506Y-71630537D01*
X158615820Y-71689502D01*
X158735518Y-71725812D01*
X158860000Y-71738072D01*
X160560000Y-71738072D01*
X160684482Y-71725812D01*
X160804180Y-71689502D01*
X160914494Y-71630537D01*
X161011185Y-71551185D01*
X161090537Y-71454494D01*
X161149502Y-71344180D01*
X161170393Y-71275313D01*
X161194866Y-71305134D01*
X161420986Y-71490706D01*
X161678966Y-71628599D01*
X161958889Y-71713513D01*
X162177050Y-71735000D01*
X162322950Y-71735000D01*
X162541111Y-71713513D01*
X162821034Y-71628599D01*
X163079014Y-71490706D01*
X163305134Y-71305134D01*
X163490706Y-71079014D01*
X163525201Y-71014477D01*
X163594822Y-71131355D01*
X163789731Y-71347588D01*
X164023080Y-71521641D01*
X164285901Y-71646825D01*
X164433110Y-71691476D01*
X164663000Y-71570155D01*
X164663000Y-70377000D01*
X164643000Y-70377000D01*
X164643000Y-70123000D01*
X164663000Y-70123000D01*
X164663000Y-68929845D01*
X164917000Y-68929845D01*
X164917000Y-70123000D01*
X164937000Y-70123000D01*
X164937000Y-70377000D01*
X164917000Y-70377000D01*
X164917000Y-71570155D01*
X165146890Y-71691476D01*
X165294099Y-71646825D01*
X165556920Y-71521641D01*
X165790269Y-71347588D01*
X165985178Y-71131355D01*
X166054799Y-71014477D01*
X166089294Y-71079014D01*
X166274866Y-71305134D01*
X166500986Y-71490706D01*
X166758966Y-71628599D01*
X167038889Y-71713513D01*
X167257050Y-71735000D01*
X167402950Y-71735000D01*
X167621111Y-71713513D01*
X167901034Y-71628599D01*
X168159014Y-71490706D01*
X168385134Y-71305134D01*
X168570706Y-71079014D01*
X168600000Y-71024209D01*
X168629294Y-71079014D01*
X168814866Y-71305134D01*
X169040986Y-71490706D01*
X169298966Y-71628599D01*
X169578889Y-71713513D01*
X169797050Y-71735000D01*
X169942950Y-71735000D01*
X170161111Y-71713513D01*
X170441034Y-71628599D01*
X170699014Y-71490706D01*
X170925134Y-71305134D01*
X171110706Y-71079014D01*
X171140000Y-71024209D01*
X171169294Y-71079014D01*
X171354866Y-71305134D01*
X171580986Y-71490706D01*
X171838966Y-71628599D01*
X172118889Y-71713513D01*
X172337050Y-71735000D01*
X172482950Y-71735000D01*
X172701111Y-71713513D01*
X172981034Y-71628599D01*
X173239014Y-71490706D01*
X173465134Y-71305134D01*
X173650706Y-71079014D01*
X173788599Y-70821034D01*
X173873513Y-70541111D01*
X173902185Y-70250000D01*
X173873513Y-69958889D01*
X173788599Y-69678966D01*
X173650706Y-69420986D01*
X173465134Y-69194866D01*
X173239014Y-69009294D01*
X172981034Y-68871401D01*
X172701111Y-68786487D01*
X172482950Y-68765000D01*
X172337050Y-68765000D01*
X172118889Y-68786487D01*
X171838966Y-68871401D01*
X171580986Y-69009294D01*
X171354866Y-69194866D01*
X171169294Y-69420986D01*
X171140000Y-69475791D01*
X171110706Y-69420986D01*
X170925134Y-69194866D01*
X170699014Y-69009294D01*
X170441034Y-68871401D01*
X170161111Y-68786487D01*
X169942950Y-68765000D01*
X169797050Y-68765000D01*
X169578889Y-68786487D01*
X169298966Y-68871401D01*
X169040986Y-69009294D01*
X168814866Y-69194866D01*
X168629294Y-69420986D01*
X168600000Y-69475791D01*
X168570706Y-69420986D01*
X168385134Y-69194866D01*
X168159014Y-69009294D01*
X167901034Y-68871401D01*
X167621111Y-68786487D01*
X167402950Y-68765000D01*
X167257050Y-68765000D01*
X167038889Y-68786487D01*
X166758966Y-68871401D01*
X166500986Y-69009294D01*
X166274866Y-69194866D01*
X166089294Y-69420986D01*
X166054799Y-69485523D01*
X165985178Y-69368645D01*
X165790269Y-69152412D01*
X165556920Y-68978359D01*
X165294099Y-68853175D01*
X165146890Y-68808524D01*
X164917000Y-68929845D01*
X164663000Y-68929845D01*
X164433110Y-68808524D01*
X164285901Y-68853175D01*
X164023080Y-68978359D01*
X163789731Y-69152412D01*
X163594822Y-69368645D01*
X163525201Y-69485523D01*
X163490706Y-69420986D01*
X163305134Y-69194866D01*
X163079014Y-69009294D01*
X162821034Y-68871401D01*
X162541111Y-68786487D01*
X162322950Y-68765000D01*
X162177050Y-68765000D01*
X161958889Y-68786487D01*
X161678966Y-68871401D01*
X161420986Y-69009294D01*
X161194866Y-69194866D01*
X161170393Y-69224687D01*
X161149502Y-69155820D01*
X161090537Y-69045506D01*
X161011185Y-68948815D01*
X160914494Y-68869463D01*
X160804180Y-68810498D01*
X160684482Y-68774188D01*
X160560000Y-68761928D01*
X160135000Y-68761928D01*
X160135000Y-67238454D01*
X160167205Y-67190256D01*
X160245226Y-67001898D01*
X160285000Y-66801939D01*
X160285000Y-66598061D01*
X160245226Y-66398102D01*
X160167205Y-66209744D01*
X160053937Y-66040226D01*
X159909774Y-65896063D01*
X159740256Y-65782795D01*
X159551898Y-65704774D01*
X159351939Y-65665000D01*
X159148061Y-65665000D01*
X158948102Y-65704774D01*
X158759744Y-65782795D01*
X158590226Y-65896063D01*
X158446063Y-66040226D01*
X158332795Y-66209744D01*
X158254774Y-66398102D01*
X158215000Y-66598061D01*
X137703818Y-66598061D01*
X137667235Y-66509744D01*
X137553967Y-66340226D01*
X137409804Y-66196063D01*
X137240286Y-66082795D01*
X137051928Y-66004774D01*
X136851969Y-65965000D01*
X136648091Y-65965000D01*
X136448132Y-66004774D01*
X136259774Y-66082795D01*
X136090256Y-66196063D01*
X135946093Y-66340226D01*
X135929520Y-66365030D01*
X133538454Y-66365030D01*
X133490256Y-66332825D01*
X133301898Y-66254804D01*
X133101939Y-66215030D01*
X132898061Y-66215030D01*
X132698102Y-66254804D01*
X132509744Y-66332825D01*
X132340226Y-66446093D01*
X132196063Y-66590256D01*
X132082795Y-66759774D01*
X132004774Y-66948132D01*
X131965000Y-67148091D01*
X128852200Y-67148091D01*
X128852200Y-66962237D01*
X128812426Y-66762278D01*
X128734405Y-66573920D01*
X128621137Y-66404402D01*
X128476974Y-66260239D01*
X128307456Y-66146971D01*
X128119098Y-66068950D01*
X128058469Y-66056890D01*
X126256505Y-64254927D01*
X126245196Y-64198072D01*
X126167175Y-64009714D01*
X126053907Y-63840196D01*
X125909744Y-63696033D01*
X125740226Y-63582765D01*
X125551868Y-63504744D01*
X125351909Y-63464970D01*
X125148031Y-63464970D01*
X124948072Y-63504744D01*
X124759714Y-63582765D01*
X124590196Y-63696033D01*
X124446033Y-63840196D01*
X124332765Y-64009714D01*
X124254744Y-64198072D01*
X124214970Y-64398031D01*
X124214970Y-64601909D01*
X124254744Y-64801868D01*
X124332765Y-64990226D01*
X124446033Y-65159744D01*
X124590196Y-65303907D01*
X124759714Y-65417175D01*
X124948072Y-65495196D01*
X125004927Y-65506505D01*
X126811416Y-67312995D01*
X126820567Y-67358998D01*
X126174579Y-67389462D01*
X124733944Y-67625375D01*
X123329971Y-68025308D01*
X121981270Y-68583958D01*
X120705716Y-69293922D01*
X119520217Y-70145789D01*
X118440486Y-71128269D01*
X117480834Y-72228339D01*
X116653981Y-73431418D01*
X115970886Y-74721560D01*
X115440603Y-76081665D01*
X115070162Y-77493705D01*
X114864471Y-78938965D01*
X114826257Y-80398288D01*
X80660000Y-80398288D01*
X80660000Y-61648061D01*
X110515000Y-61648061D01*
X110515000Y-61851939D01*
X110554774Y-62051898D01*
X110632795Y-62240256D01*
X110746063Y-62409774D01*
X110890226Y-62553937D01*
X111059744Y-62667205D01*
X111248102Y-62745226D01*
X111304957Y-62756535D01*
X114007281Y-65458860D01*
X114018590Y-65515714D01*
X114096611Y-65704072D01*
X114209879Y-65873590D01*
X114354042Y-66017753D01*
X114523560Y-66131021D01*
X114711918Y-66209042D01*
X114911877Y-66248816D01*
X115115755Y-66248816D01*
X115315714Y-66209042D01*
X115504072Y-66131021D01*
X115673590Y-66017753D01*
X115817753Y-65873590D01*
X115931021Y-65704072D01*
X116009042Y-65515714D01*
X116048816Y-65315755D01*
X116048816Y-65111877D01*
X116009042Y-64911918D01*
X115931021Y-64723560D01*
X115817753Y-64554042D01*
X115673590Y-64409879D01*
X115504072Y-64296611D01*
X115315714Y-64218590D01*
X115258860Y-64207281D01*
X113449640Y-62398061D01*
X145664950Y-62398061D01*
X145664950Y-62601939D01*
X145704724Y-62801898D01*
X145782745Y-62990256D01*
X145896013Y-63159774D01*
X146040176Y-63303937D01*
X146209694Y-63417205D01*
X146398052Y-63495226D01*
X146598011Y-63535000D01*
X146801889Y-63535000D01*
X147001848Y-63495226D01*
X147190206Y-63417205D01*
X147238404Y-63385000D01*
X151011546Y-63385000D01*
X151059744Y-63417205D01*
X151248102Y-63495226D01*
X151448061Y-63535000D01*
X151651939Y-63535000D01*
X151851898Y-63495226D01*
X152040256Y-63417205D01*
X152209774Y-63303937D01*
X152353937Y-63159774D01*
X152467205Y-62990256D01*
X152545226Y-62801898D01*
X152585000Y-62601939D01*
X152585000Y-62398061D01*
X152545226Y-62198102D01*
X152467205Y-62009744D01*
X152353937Y-61840226D01*
X152209774Y-61696063D01*
X152040256Y-61582795D01*
X151851898Y-61504774D01*
X151651939Y-61465000D01*
X151448061Y-61465000D01*
X151248102Y-61504774D01*
X151059744Y-61582795D01*
X151011546Y-61615000D01*
X147238404Y-61615000D01*
X147190206Y-61582795D01*
X147001848Y-61504774D01*
X146801889Y-61465000D01*
X146598011Y-61465000D01*
X146398052Y-61504774D01*
X146209694Y-61582795D01*
X146040176Y-61696063D01*
X145896013Y-61840226D01*
X145782745Y-62009744D01*
X145704724Y-62198102D01*
X145664950Y-62398061D01*
X113449640Y-62398061D01*
X112556535Y-61504957D01*
X112545226Y-61448102D01*
X112467205Y-61259744D01*
X112353937Y-61090226D01*
X112209774Y-60946063D01*
X112040256Y-60832795D01*
X111851898Y-60754774D01*
X111651939Y-60715000D01*
X111448061Y-60715000D01*
X111248102Y-60754774D01*
X111059744Y-60832795D01*
X110890226Y-60946063D01*
X110746063Y-61090226D01*
X110632795Y-61259744D01*
X110554774Y-61448102D01*
X110515000Y-61648061D01*
X80660000Y-61648061D01*
X80660000Y-55150000D01*
X98471928Y-55150000D01*
X98471928Y-56850000D01*
X98484188Y-56974482D01*
X98520498Y-57094180D01*
X98579463Y-57204494D01*
X98658815Y-57301185D01*
X98755506Y-57380537D01*
X98865820Y-57439502D01*
X98985518Y-57475812D01*
X99110000Y-57488072D01*
X100810000Y-57488072D01*
X100934482Y-57475812D01*
X101054180Y-57439502D01*
X101164494Y-57380537D01*
X101261185Y-57301185D01*
X101340537Y-57204494D01*
X101399502Y-57094180D01*
X101423966Y-57013534D01*
X101499731Y-57097588D01*
X101733080Y-57271641D01*
X101995901Y-57396825D01*
X102143110Y-57441476D01*
X102373000Y-57320155D01*
X102373000Y-56127000D01*
X102627000Y-56127000D01*
X102627000Y-57320155D01*
X102856890Y-57441476D01*
X103004099Y-57396825D01*
X103266920Y-57271641D01*
X103500269Y-57097588D01*
X103695178Y-56881355D01*
X103844157Y-56631252D01*
X103941481Y-56356891D01*
X103820814Y-56127000D01*
X102627000Y-56127000D01*
X102373000Y-56127000D01*
X102353000Y-56127000D01*
X102353000Y-55873000D01*
X102373000Y-55873000D01*
X102373000Y-54679845D01*
X102627000Y-54679845D01*
X102627000Y-55873000D01*
X103820814Y-55873000D01*
X103941481Y-55643109D01*
X103844157Y-55368748D01*
X103713856Y-55150000D01*
X151011928Y-55150000D01*
X151011928Y-56850000D01*
X151024188Y-56974482D01*
X151060498Y-57094180D01*
X151119463Y-57204494D01*
X151198815Y-57301185D01*
X151295506Y-57380537D01*
X151405820Y-57439502D01*
X151525518Y-57475812D01*
X151650000Y-57488072D01*
X153350000Y-57488072D01*
X153474482Y-57475812D01*
X153594180Y-57439502D01*
X153704494Y-57380537D01*
X153801185Y-57301185D01*
X153880537Y-57204494D01*
X153939502Y-57094180D01*
X153963966Y-57013534D01*
X154039731Y-57097588D01*
X154273080Y-57271641D01*
X154535901Y-57396825D01*
X154683110Y-57441476D01*
X154913000Y-57320155D01*
X154913000Y-56127000D01*
X155167000Y-56127000D01*
X155167000Y-57320155D01*
X155396890Y-57441476D01*
X155544099Y-57396825D01*
X155806920Y-57271641D01*
X156040269Y-57097588D01*
X156235178Y-56881355D01*
X156384157Y-56631252D01*
X156481481Y-56356891D01*
X156360814Y-56127000D01*
X155167000Y-56127000D01*
X154913000Y-56127000D01*
X154893000Y-56127000D01*
X154893000Y-55873000D01*
X154913000Y-55873000D01*
X154913000Y-54679845D01*
X155167000Y-54679845D01*
X155167000Y-55873000D01*
X156360814Y-55873000D01*
X156481481Y-55643109D01*
X156384157Y-55368748D01*
X156235178Y-55118645D01*
X156040269Y-54902412D01*
X155806920Y-54728359D01*
X155544099Y-54603175D01*
X155396890Y-54558524D01*
X155167000Y-54679845D01*
X154913000Y-54679845D01*
X154683110Y-54558524D01*
X154535901Y-54603175D01*
X154273080Y-54728359D01*
X154039731Y-54902412D01*
X153963966Y-54986466D01*
X153939502Y-54905820D01*
X153880537Y-54795506D01*
X153801185Y-54698815D01*
X153704494Y-54619463D01*
X153594180Y-54560498D01*
X153474482Y-54524188D01*
X153350000Y-54511928D01*
X151650000Y-54511928D01*
X151525518Y-54524188D01*
X151405820Y-54560498D01*
X151295506Y-54619463D01*
X151198815Y-54698815D01*
X151119463Y-54795506D01*
X151060498Y-54905820D01*
X151024188Y-55025518D01*
X151011928Y-55150000D01*
X103713856Y-55150000D01*
X103695178Y-55118645D01*
X103500269Y-54902412D01*
X103266920Y-54728359D01*
X103004099Y-54603175D01*
X102856890Y-54558524D01*
X102627000Y-54679845D01*
X102373000Y-54679845D01*
X102143110Y-54558524D01*
X101995901Y-54603175D01*
X101733080Y-54728359D01*
X101499731Y-54902412D01*
X101423966Y-54986466D01*
X101399502Y-54905820D01*
X101340537Y-54795506D01*
X101261185Y-54698815D01*
X101164494Y-54619463D01*
X101054180Y-54560498D01*
X100934482Y-54524188D01*
X100810000Y-54511928D01*
X99110000Y-54511928D01*
X98985518Y-54524188D01*
X98865820Y-54560498D01*
X98755506Y-54619463D01*
X98658815Y-54698815D01*
X98579463Y-54795506D01*
X98520498Y-54905820D01*
X98484188Y-55025518D01*
X98471928Y-55150000D01*
X80660000Y-55150000D01*
X80660000Y-50660000D01*
X93976620Y-50660000D01*
X95260388Y-51943769D01*
M02*
