G04 #@! TF.GenerationSoftware,KiCad,Pcbnew,(5.1.0)-1*
G04 #@! TF.CreationDate,2019-04-30T23:12:18+02:00*
G04 #@! TF.ProjectId,ArcJoy,4172634a-6f79-42e6-9b69-6361645f7063,1*
G04 #@! TF.SameCoordinates,Original*
G04 #@! TF.FileFunction,Copper,L1,Top*
G04 #@! TF.FilePolarity,Positive*
%FSLAX46Y46*%
G04 Gerber Fmt 4.6, Leading zero omitted, Abs format (unit mm)*
G04 Created by KiCad (PCBNEW (5.1.0)-1) date 2019-04-30 23:12:18*
%MOMM*%
%LPD*%
G04 APERTURE LIST*
%ADD10C,0.100000*%
%ADD11C,1.250000*%
%ADD12C,2.075000*%
%ADD13R,1.500000X1.100000*%
%ADD14C,2.000000*%
%ADD15R,0.800000X0.900000*%
%ADD16C,2.400000*%
%ADD17C,1.800000*%
%ADD18R,1.800000X1.800000*%
%ADD19O,1.700000X1.700000*%
%ADD20R,1.700000X1.700000*%
%ADD21R,0.650000X1.060000*%
%ADD22R,0.398780X0.398780*%
%ADD23C,0.800000*%
%ADD24C,0.250000*%
%ADD25C,0.500000*%
G04 APERTURE END LIST*
D10*
G36*
X136649504Y-60226204D02*
G01*
X136673773Y-60229804D01*
X136697571Y-60235765D01*
X136720671Y-60244030D01*
X136742849Y-60254520D01*
X136763893Y-60267133D01*
X136783598Y-60281747D01*
X136801777Y-60298223D01*
X136818253Y-60316402D01*
X136832867Y-60336107D01*
X136845480Y-60357151D01*
X136855970Y-60379329D01*
X136864235Y-60402429D01*
X136870196Y-60426227D01*
X136873796Y-60450496D01*
X136875000Y-60475000D01*
X136875000Y-61225000D01*
X136873796Y-61249504D01*
X136870196Y-61273773D01*
X136864235Y-61297571D01*
X136855970Y-61320671D01*
X136845480Y-61342849D01*
X136832867Y-61363893D01*
X136818253Y-61383598D01*
X136801777Y-61401777D01*
X136783598Y-61418253D01*
X136763893Y-61432867D01*
X136742849Y-61445480D01*
X136720671Y-61455970D01*
X136697571Y-61464235D01*
X136673773Y-61470196D01*
X136649504Y-61473796D01*
X136625000Y-61475000D01*
X135375000Y-61475000D01*
X135350496Y-61473796D01*
X135326227Y-61470196D01*
X135302429Y-61464235D01*
X135279329Y-61455970D01*
X135257151Y-61445480D01*
X135236107Y-61432867D01*
X135216402Y-61418253D01*
X135198223Y-61401777D01*
X135181747Y-61383598D01*
X135167133Y-61363893D01*
X135154520Y-61342849D01*
X135144030Y-61320671D01*
X135135765Y-61297571D01*
X135129804Y-61273773D01*
X135126204Y-61249504D01*
X135125000Y-61225000D01*
X135125000Y-60475000D01*
X135126204Y-60450496D01*
X135129804Y-60426227D01*
X135135765Y-60402429D01*
X135144030Y-60379329D01*
X135154520Y-60357151D01*
X135167133Y-60336107D01*
X135181747Y-60316402D01*
X135198223Y-60298223D01*
X135216402Y-60281747D01*
X135236107Y-60267133D01*
X135257151Y-60254520D01*
X135279329Y-60244030D01*
X135302429Y-60235765D01*
X135326227Y-60229804D01*
X135350496Y-60226204D01*
X135375000Y-60225000D01*
X136625000Y-60225000D01*
X136649504Y-60226204D01*
X136649504Y-60226204D01*
G37*
D11*
X136000000Y-60850000D03*
D10*
G36*
X136649504Y-63026204D02*
G01*
X136673773Y-63029804D01*
X136697571Y-63035765D01*
X136720671Y-63044030D01*
X136742849Y-63054520D01*
X136763893Y-63067133D01*
X136783598Y-63081747D01*
X136801777Y-63098223D01*
X136818253Y-63116402D01*
X136832867Y-63136107D01*
X136845480Y-63157151D01*
X136855970Y-63179329D01*
X136864235Y-63202429D01*
X136870196Y-63226227D01*
X136873796Y-63250496D01*
X136875000Y-63275000D01*
X136875000Y-64025000D01*
X136873796Y-64049504D01*
X136870196Y-64073773D01*
X136864235Y-64097571D01*
X136855970Y-64120671D01*
X136845480Y-64142849D01*
X136832867Y-64163893D01*
X136818253Y-64183598D01*
X136801777Y-64201777D01*
X136783598Y-64218253D01*
X136763893Y-64232867D01*
X136742849Y-64245480D01*
X136720671Y-64255970D01*
X136697571Y-64264235D01*
X136673773Y-64270196D01*
X136649504Y-64273796D01*
X136625000Y-64275000D01*
X135375000Y-64275000D01*
X135350496Y-64273796D01*
X135326227Y-64270196D01*
X135302429Y-64264235D01*
X135279329Y-64255970D01*
X135257151Y-64245480D01*
X135236107Y-64232867D01*
X135216402Y-64218253D01*
X135198223Y-64201777D01*
X135181747Y-64183598D01*
X135167133Y-64163893D01*
X135154520Y-64142849D01*
X135144030Y-64120671D01*
X135135765Y-64097571D01*
X135129804Y-64073773D01*
X135126204Y-64049504D01*
X135125000Y-64025000D01*
X135125000Y-63275000D01*
X135126204Y-63250496D01*
X135129804Y-63226227D01*
X135135765Y-63202429D01*
X135144030Y-63179329D01*
X135154520Y-63157151D01*
X135167133Y-63136107D01*
X135181747Y-63116402D01*
X135198223Y-63098223D01*
X135216402Y-63081747D01*
X135236107Y-63067133D01*
X135257151Y-63054520D01*
X135279329Y-63044030D01*
X135302429Y-63035765D01*
X135326227Y-63029804D01*
X135350496Y-63026204D01*
X135375000Y-63025000D01*
X136625000Y-63025000D01*
X136649504Y-63026204D01*
X136649504Y-63026204D01*
G37*
D11*
X136000000Y-63650000D03*
D10*
G36*
X142699504Y-60251204D02*
G01*
X142723773Y-60254804D01*
X142747571Y-60260765D01*
X142770671Y-60269030D01*
X142792849Y-60279520D01*
X142813893Y-60292133D01*
X142833598Y-60306747D01*
X142851777Y-60323223D01*
X142868253Y-60341402D01*
X142882867Y-60361107D01*
X142895480Y-60382151D01*
X142905970Y-60404329D01*
X142914235Y-60427429D01*
X142920196Y-60451227D01*
X142923796Y-60475496D01*
X142925000Y-60500000D01*
X142925000Y-62075000D01*
X142923796Y-62099504D01*
X142920196Y-62123773D01*
X142914235Y-62147571D01*
X142905970Y-62170671D01*
X142895480Y-62192849D01*
X142882867Y-62213893D01*
X142868253Y-62233598D01*
X142851777Y-62251777D01*
X142833598Y-62268253D01*
X142813893Y-62282867D01*
X142792849Y-62295480D01*
X142770671Y-62305970D01*
X142747571Y-62314235D01*
X142723773Y-62320196D01*
X142699504Y-62323796D01*
X142675000Y-62325000D01*
X140825000Y-62325000D01*
X140800496Y-62323796D01*
X140776227Y-62320196D01*
X140752429Y-62314235D01*
X140729329Y-62305970D01*
X140707151Y-62295480D01*
X140686107Y-62282867D01*
X140666402Y-62268253D01*
X140648223Y-62251777D01*
X140631747Y-62233598D01*
X140617133Y-62213893D01*
X140604520Y-62192849D01*
X140594030Y-62170671D01*
X140585765Y-62147571D01*
X140579804Y-62123773D01*
X140576204Y-62099504D01*
X140575000Y-62075000D01*
X140575000Y-60500000D01*
X140576204Y-60475496D01*
X140579804Y-60451227D01*
X140585765Y-60427429D01*
X140594030Y-60404329D01*
X140604520Y-60382151D01*
X140617133Y-60361107D01*
X140631747Y-60341402D01*
X140648223Y-60323223D01*
X140666402Y-60306747D01*
X140686107Y-60292133D01*
X140707151Y-60279520D01*
X140729329Y-60269030D01*
X140752429Y-60260765D01*
X140776227Y-60254804D01*
X140800496Y-60251204D01*
X140825000Y-60250000D01*
X142675000Y-60250000D01*
X142699504Y-60251204D01*
X142699504Y-60251204D01*
G37*
D12*
X141750000Y-61287500D03*
D10*
G36*
X142699504Y-65176204D02*
G01*
X142723773Y-65179804D01*
X142747571Y-65185765D01*
X142770671Y-65194030D01*
X142792849Y-65204520D01*
X142813893Y-65217133D01*
X142833598Y-65231747D01*
X142851777Y-65248223D01*
X142868253Y-65266402D01*
X142882867Y-65286107D01*
X142895480Y-65307151D01*
X142905970Y-65329329D01*
X142914235Y-65352429D01*
X142920196Y-65376227D01*
X142923796Y-65400496D01*
X142925000Y-65425000D01*
X142925000Y-67000000D01*
X142923796Y-67024504D01*
X142920196Y-67048773D01*
X142914235Y-67072571D01*
X142905970Y-67095671D01*
X142895480Y-67117849D01*
X142882867Y-67138893D01*
X142868253Y-67158598D01*
X142851777Y-67176777D01*
X142833598Y-67193253D01*
X142813893Y-67207867D01*
X142792849Y-67220480D01*
X142770671Y-67230970D01*
X142747571Y-67239235D01*
X142723773Y-67245196D01*
X142699504Y-67248796D01*
X142675000Y-67250000D01*
X140825000Y-67250000D01*
X140800496Y-67248796D01*
X140776227Y-67245196D01*
X140752429Y-67239235D01*
X140729329Y-67230970D01*
X140707151Y-67220480D01*
X140686107Y-67207867D01*
X140666402Y-67193253D01*
X140648223Y-67176777D01*
X140631747Y-67158598D01*
X140617133Y-67138893D01*
X140604520Y-67117849D01*
X140594030Y-67095671D01*
X140585765Y-67072571D01*
X140579804Y-67048773D01*
X140576204Y-67024504D01*
X140575000Y-67000000D01*
X140575000Y-65425000D01*
X140576204Y-65400496D01*
X140579804Y-65376227D01*
X140585765Y-65352429D01*
X140594030Y-65329329D01*
X140604520Y-65307151D01*
X140617133Y-65286107D01*
X140631747Y-65266402D01*
X140648223Y-65248223D01*
X140666402Y-65231747D01*
X140686107Y-65217133D01*
X140707151Y-65204520D01*
X140729329Y-65194030D01*
X140752429Y-65185765D01*
X140776227Y-65179804D01*
X140800496Y-65176204D01*
X140825000Y-65175000D01*
X142675000Y-65175000D01*
X142699504Y-65176204D01*
X142699504Y-65176204D01*
G37*
D12*
X141750000Y-66212500D03*
D10*
G36*
X139149504Y-60226204D02*
G01*
X139173773Y-60229804D01*
X139197571Y-60235765D01*
X139220671Y-60244030D01*
X139242849Y-60254520D01*
X139263893Y-60267133D01*
X139283598Y-60281747D01*
X139301777Y-60298223D01*
X139318253Y-60316402D01*
X139332867Y-60336107D01*
X139345480Y-60357151D01*
X139355970Y-60379329D01*
X139364235Y-60402429D01*
X139370196Y-60426227D01*
X139373796Y-60450496D01*
X139375000Y-60475000D01*
X139375000Y-61225000D01*
X139373796Y-61249504D01*
X139370196Y-61273773D01*
X139364235Y-61297571D01*
X139355970Y-61320671D01*
X139345480Y-61342849D01*
X139332867Y-61363893D01*
X139318253Y-61383598D01*
X139301777Y-61401777D01*
X139283598Y-61418253D01*
X139263893Y-61432867D01*
X139242849Y-61445480D01*
X139220671Y-61455970D01*
X139197571Y-61464235D01*
X139173773Y-61470196D01*
X139149504Y-61473796D01*
X139125000Y-61475000D01*
X137875000Y-61475000D01*
X137850496Y-61473796D01*
X137826227Y-61470196D01*
X137802429Y-61464235D01*
X137779329Y-61455970D01*
X137757151Y-61445480D01*
X137736107Y-61432867D01*
X137716402Y-61418253D01*
X137698223Y-61401777D01*
X137681747Y-61383598D01*
X137667133Y-61363893D01*
X137654520Y-61342849D01*
X137644030Y-61320671D01*
X137635765Y-61297571D01*
X137629804Y-61273773D01*
X137626204Y-61249504D01*
X137625000Y-61225000D01*
X137625000Y-60475000D01*
X137626204Y-60450496D01*
X137629804Y-60426227D01*
X137635765Y-60402429D01*
X137644030Y-60379329D01*
X137654520Y-60357151D01*
X137667133Y-60336107D01*
X137681747Y-60316402D01*
X137698223Y-60298223D01*
X137716402Y-60281747D01*
X137736107Y-60267133D01*
X137757151Y-60254520D01*
X137779329Y-60244030D01*
X137802429Y-60235765D01*
X137826227Y-60229804D01*
X137850496Y-60226204D01*
X137875000Y-60225000D01*
X139125000Y-60225000D01*
X139149504Y-60226204D01*
X139149504Y-60226204D01*
G37*
D11*
X138500000Y-60850000D03*
D10*
G36*
X139149504Y-63026204D02*
G01*
X139173773Y-63029804D01*
X139197571Y-63035765D01*
X139220671Y-63044030D01*
X139242849Y-63054520D01*
X139263893Y-63067133D01*
X139283598Y-63081747D01*
X139301777Y-63098223D01*
X139318253Y-63116402D01*
X139332867Y-63136107D01*
X139345480Y-63157151D01*
X139355970Y-63179329D01*
X139364235Y-63202429D01*
X139370196Y-63226227D01*
X139373796Y-63250496D01*
X139375000Y-63275000D01*
X139375000Y-64025000D01*
X139373796Y-64049504D01*
X139370196Y-64073773D01*
X139364235Y-64097571D01*
X139355970Y-64120671D01*
X139345480Y-64142849D01*
X139332867Y-64163893D01*
X139318253Y-64183598D01*
X139301777Y-64201777D01*
X139283598Y-64218253D01*
X139263893Y-64232867D01*
X139242849Y-64245480D01*
X139220671Y-64255970D01*
X139197571Y-64264235D01*
X139173773Y-64270196D01*
X139149504Y-64273796D01*
X139125000Y-64275000D01*
X137875000Y-64275000D01*
X137850496Y-64273796D01*
X137826227Y-64270196D01*
X137802429Y-64264235D01*
X137779329Y-64255970D01*
X137757151Y-64245480D01*
X137736107Y-64232867D01*
X137716402Y-64218253D01*
X137698223Y-64201777D01*
X137681747Y-64183598D01*
X137667133Y-64163893D01*
X137654520Y-64142849D01*
X137644030Y-64120671D01*
X137635765Y-64097571D01*
X137629804Y-64073773D01*
X137626204Y-64049504D01*
X137625000Y-64025000D01*
X137625000Y-63275000D01*
X137626204Y-63250496D01*
X137629804Y-63226227D01*
X137635765Y-63202429D01*
X137644030Y-63179329D01*
X137654520Y-63157151D01*
X137667133Y-63136107D01*
X137681747Y-63116402D01*
X137698223Y-63098223D01*
X137716402Y-63081747D01*
X137736107Y-63067133D01*
X137757151Y-63054520D01*
X137779329Y-63044030D01*
X137802429Y-63035765D01*
X137826227Y-63029804D01*
X137850496Y-63026204D01*
X137875000Y-63025000D01*
X139125000Y-63025000D01*
X139149504Y-63026204D01*
X139149504Y-63026204D01*
G37*
D11*
X138500000Y-63650000D03*
D13*
X104450000Y-66900000D03*
X95550000Y-79600000D03*
X104450000Y-69440000D03*
X95550000Y-77060000D03*
X104450000Y-71980000D03*
X95550000Y-74520000D03*
X104450000Y-74520000D03*
X95550000Y-71980000D03*
X104450000Y-77060000D03*
X95550000Y-69440000D03*
X104450000Y-79600000D03*
X95550000Y-66900000D03*
D10*
G36*
X86491266Y-77051782D02*
G01*
X86527183Y-77057109D01*
X86562405Y-77065932D01*
X86596593Y-77078165D01*
X86629417Y-77093689D01*
X86660561Y-77112356D01*
X86689726Y-77133986D01*
X86716630Y-77158370D01*
X86741014Y-77185274D01*
X86762644Y-77214439D01*
X86781311Y-77245583D01*
X86796835Y-77278407D01*
X86809068Y-77312595D01*
X86817891Y-77347817D01*
X86823218Y-77383734D01*
X86825000Y-77420000D01*
X86825000Y-78680000D01*
X86823218Y-78716266D01*
X86817891Y-78752183D01*
X86809068Y-78787405D01*
X86796835Y-78821593D01*
X86781311Y-78854417D01*
X86762644Y-78885561D01*
X86741014Y-78914726D01*
X86716630Y-78941630D01*
X86689726Y-78966014D01*
X86660561Y-78987644D01*
X86629417Y-79006311D01*
X86596593Y-79021835D01*
X86562405Y-79034068D01*
X86527183Y-79042891D01*
X86491266Y-79048218D01*
X86455000Y-79050000D01*
X84045000Y-79050000D01*
X84008734Y-79048218D01*
X83972817Y-79042891D01*
X83937595Y-79034068D01*
X83903407Y-79021835D01*
X83870583Y-79006311D01*
X83839439Y-78987644D01*
X83810274Y-78966014D01*
X83783370Y-78941630D01*
X83758986Y-78914726D01*
X83737356Y-78885561D01*
X83718689Y-78854417D01*
X83703165Y-78821593D01*
X83690932Y-78787405D01*
X83682109Y-78752183D01*
X83676782Y-78716266D01*
X83675000Y-78680000D01*
X83675000Y-77420000D01*
X83676782Y-77383734D01*
X83682109Y-77347817D01*
X83690932Y-77312595D01*
X83703165Y-77278407D01*
X83718689Y-77245583D01*
X83737356Y-77214439D01*
X83758986Y-77185274D01*
X83783370Y-77158370D01*
X83810274Y-77133986D01*
X83839439Y-77112356D01*
X83870583Y-77093689D01*
X83903407Y-77078165D01*
X83937595Y-77065932D01*
X83972817Y-77057109D01*
X84008734Y-77051782D01*
X84045000Y-77050000D01*
X86455000Y-77050000D01*
X86491266Y-77051782D01*
X86491266Y-77051782D01*
G37*
D14*
X85250000Y-78050000D03*
D10*
G36*
X86491266Y-81951782D02*
G01*
X86527183Y-81957109D01*
X86562405Y-81965932D01*
X86596593Y-81978165D01*
X86629417Y-81993689D01*
X86660561Y-82012356D01*
X86689726Y-82033986D01*
X86716630Y-82058370D01*
X86741014Y-82085274D01*
X86762644Y-82114439D01*
X86781311Y-82145583D01*
X86796835Y-82178407D01*
X86809068Y-82212595D01*
X86817891Y-82247817D01*
X86823218Y-82283734D01*
X86825000Y-82320000D01*
X86825000Y-83580000D01*
X86823218Y-83616266D01*
X86817891Y-83652183D01*
X86809068Y-83687405D01*
X86796835Y-83721593D01*
X86781311Y-83754417D01*
X86762644Y-83785561D01*
X86741014Y-83814726D01*
X86716630Y-83841630D01*
X86689726Y-83866014D01*
X86660561Y-83887644D01*
X86629417Y-83906311D01*
X86596593Y-83921835D01*
X86562405Y-83934068D01*
X86527183Y-83942891D01*
X86491266Y-83948218D01*
X86455000Y-83950000D01*
X84045000Y-83950000D01*
X84008734Y-83948218D01*
X83972817Y-83942891D01*
X83937595Y-83934068D01*
X83903407Y-83921835D01*
X83870583Y-83906311D01*
X83839439Y-83887644D01*
X83810274Y-83866014D01*
X83783370Y-83841630D01*
X83758986Y-83814726D01*
X83737356Y-83785561D01*
X83718689Y-83754417D01*
X83703165Y-83721593D01*
X83690932Y-83687405D01*
X83682109Y-83652183D01*
X83676782Y-83616266D01*
X83675000Y-83580000D01*
X83675000Y-82320000D01*
X83676782Y-82283734D01*
X83682109Y-82247817D01*
X83690932Y-82212595D01*
X83703165Y-82178407D01*
X83718689Y-82145583D01*
X83737356Y-82114439D01*
X83758986Y-82085274D01*
X83783370Y-82058370D01*
X83810274Y-82033986D01*
X83839439Y-82012356D01*
X83870583Y-81993689D01*
X83903407Y-81978165D01*
X83937595Y-81965932D01*
X83972817Y-81957109D01*
X84008734Y-81951782D01*
X84045000Y-81950000D01*
X86455000Y-81950000D01*
X86491266Y-81951782D01*
X86491266Y-81951782D01*
G37*
D14*
X85250000Y-82950000D03*
D15*
X85200000Y-75750000D03*
X84250000Y-73750000D03*
X86150000Y-73750000D03*
D16*
X89250000Y-88250000D03*
X85750000Y-88250000D03*
D10*
G36*
X160999504Y-79126204D02*
G01*
X161023773Y-79129804D01*
X161047571Y-79135765D01*
X161070671Y-79144030D01*
X161092849Y-79154520D01*
X161113893Y-79167133D01*
X161133598Y-79181747D01*
X161151777Y-79198223D01*
X161168253Y-79216402D01*
X161182867Y-79236107D01*
X161195480Y-79257151D01*
X161205970Y-79279329D01*
X161214235Y-79302429D01*
X161220196Y-79326227D01*
X161223796Y-79350496D01*
X161225000Y-79375000D01*
X161225000Y-80625000D01*
X161223796Y-80649504D01*
X161220196Y-80673773D01*
X161214235Y-80697571D01*
X161205970Y-80720671D01*
X161195480Y-80742849D01*
X161182867Y-80763893D01*
X161168253Y-80783598D01*
X161151777Y-80801777D01*
X161133598Y-80818253D01*
X161113893Y-80832867D01*
X161092849Y-80845480D01*
X161070671Y-80855970D01*
X161047571Y-80864235D01*
X161023773Y-80870196D01*
X160999504Y-80873796D01*
X160975000Y-80875000D01*
X160225000Y-80875000D01*
X160200496Y-80873796D01*
X160176227Y-80870196D01*
X160152429Y-80864235D01*
X160129329Y-80855970D01*
X160107151Y-80845480D01*
X160086107Y-80832867D01*
X160066402Y-80818253D01*
X160048223Y-80801777D01*
X160031747Y-80783598D01*
X160017133Y-80763893D01*
X160004520Y-80742849D01*
X159994030Y-80720671D01*
X159985765Y-80697571D01*
X159979804Y-80673773D01*
X159976204Y-80649504D01*
X159975000Y-80625000D01*
X159975000Y-79375000D01*
X159976204Y-79350496D01*
X159979804Y-79326227D01*
X159985765Y-79302429D01*
X159994030Y-79279329D01*
X160004520Y-79257151D01*
X160017133Y-79236107D01*
X160031747Y-79216402D01*
X160048223Y-79198223D01*
X160066402Y-79181747D01*
X160086107Y-79167133D01*
X160107151Y-79154520D01*
X160129329Y-79144030D01*
X160152429Y-79135765D01*
X160176227Y-79129804D01*
X160200496Y-79126204D01*
X160225000Y-79125000D01*
X160975000Y-79125000D01*
X160999504Y-79126204D01*
X160999504Y-79126204D01*
G37*
D11*
X160600000Y-80000000D03*
D10*
G36*
X163799504Y-79126204D02*
G01*
X163823773Y-79129804D01*
X163847571Y-79135765D01*
X163870671Y-79144030D01*
X163892849Y-79154520D01*
X163913893Y-79167133D01*
X163933598Y-79181747D01*
X163951777Y-79198223D01*
X163968253Y-79216402D01*
X163982867Y-79236107D01*
X163995480Y-79257151D01*
X164005970Y-79279329D01*
X164014235Y-79302429D01*
X164020196Y-79326227D01*
X164023796Y-79350496D01*
X164025000Y-79375000D01*
X164025000Y-80625000D01*
X164023796Y-80649504D01*
X164020196Y-80673773D01*
X164014235Y-80697571D01*
X164005970Y-80720671D01*
X163995480Y-80742849D01*
X163982867Y-80763893D01*
X163968253Y-80783598D01*
X163951777Y-80801777D01*
X163933598Y-80818253D01*
X163913893Y-80832867D01*
X163892849Y-80845480D01*
X163870671Y-80855970D01*
X163847571Y-80864235D01*
X163823773Y-80870196D01*
X163799504Y-80873796D01*
X163775000Y-80875000D01*
X163025000Y-80875000D01*
X163000496Y-80873796D01*
X162976227Y-80870196D01*
X162952429Y-80864235D01*
X162929329Y-80855970D01*
X162907151Y-80845480D01*
X162886107Y-80832867D01*
X162866402Y-80818253D01*
X162848223Y-80801777D01*
X162831747Y-80783598D01*
X162817133Y-80763893D01*
X162804520Y-80742849D01*
X162794030Y-80720671D01*
X162785765Y-80697571D01*
X162779804Y-80673773D01*
X162776204Y-80649504D01*
X162775000Y-80625000D01*
X162775000Y-79375000D01*
X162776204Y-79350496D01*
X162779804Y-79326227D01*
X162785765Y-79302429D01*
X162794030Y-79279329D01*
X162804520Y-79257151D01*
X162817133Y-79236107D01*
X162831747Y-79216402D01*
X162848223Y-79198223D01*
X162866402Y-79181747D01*
X162886107Y-79167133D01*
X162907151Y-79154520D01*
X162929329Y-79144030D01*
X162952429Y-79135765D01*
X162976227Y-79129804D01*
X163000496Y-79126204D01*
X163025000Y-79125000D01*
X163775000Y-79125000D01*
X163799504Y-79126204D01*
X163799504Y-79126204D01*
G37*
D11*
X163400000Y-80000000D03*
D10*
G36*
X160999504Y-76626204D02*
G01*
X161023773Y-76629804D01*
X161047571Y-76635765D01*
X161070671Y-76644030D01*
X161092849Y-76654520D01*
X161113893Y-76667133D01*
X161133598Y-76681747D01*
X161151777Y-76698223D01*
X161168253Y-76716402D01*
X161182867Y-76736107D01*
X161195480Y-76757151D01*
X161205970Y-76779329D01*
X161214235Y-76802429D01*
X161220196Y-76826227D01*
X161223796Y-76850496D01*
X161225000Y-76875000D01*
X161225000Y-78125000D01*
X161223796Y-78149504D01*
X161220196Y-78173773D01*
X161214235Y-78197571D01*
X161205970Y-78220671D01*
X161195480Y-78242849D01*
X161182867Y-78263893D01*
X161168253Y-78283598D01*
X161151777Y-78301777D01*
X161133598Y-78318253D01*
X161113893Y-78332867D01*
X161092849Y-78345480D01*
X161070671Y-78355970D01*
X161047571Y-78364235D01*
X161023773Y-78370196D01*
X160999504Y-78373796D01*
X160975000Y-78375000D01*
X160225000Y-78375000D01*
X160200496Y-78373796D01*
X160176227Y-78370196D01*
X160152429Y-78364235D01*
X160129329Y-78355970D01*
X160107151Y-78345480D01*
X160086107Y-78332867D01*
X160066402Y-78318253D01*
X160048223Y-78301777D01*
X160031747Y-78283598D01*
X160017133Y-78263893D01*
X160004520Y-78242849D01*
X159994030Y-78220671D01*
X159985765Y-78197571D01*
X159979804Y-78173773D01*
X159976204Y-78149504D01*
X159975000Y-78125000D01*
X159975000Y-76875000D01*
X159976204Y-76850496D01*
X159979804Y-76826227D01*
X159985765Y-76802429D01*
X159994030Y-76779329D01*
X160004520Y-76757151D01*
X160017133Y-76736107D01*
X160031747Y-76716402D01*
X160048223Y-76698223D01*
X160066402Y-76681747D01*
X160086107Y-76667133D01*
X160107151Y-76654520D01*
X160129329Y-76644030D01*
X160152429Y-76635765D01*
X160176227Y-76629804D01*
X160200496Y-76626204D01*
X160225000Y-76625000D01*
X160975000Y-76625000D01*
X160999504Y-76626204D01*
X160999504Y-76626204D01*
G37*
D11*
X160600000Y-77500000D03*
D10*
G36*
X163799504Y-76626204D02*
G01*
X163823773Y-76629804D01*
X163847571Y-76635765D01*
X163870671Y-76644030D01*
X163892849Y-76654520D01*
X163913893Y-76667133D01*
X163933598Y-76681747D01*
X163951777Y-76698223D01*
X163968253Y-76716402D01*
X163982867Y-76736107D01*
X163995480Y-76757151D01*
X164005970Y-76779329D01*
X164014235Y-76802429D01*
X164020196Y-76826227D01*
X164023796Y-76850496D01*
X164025000Y-76875000D01*
X164025000Y-78125000D01*
X164023796Y-78149504D01*
X164020196Y-78173773D01*
X164014235Y-78197571D01*
X164005970Y-78220671D01*
X163995480Y-78242849D01*
X163982867Y-78263893D01*
X163968253Y-78283598D01*
X163951777Y-78301777D01*
X163933598Y-78318253D01*
X163913893Y-78332867D01*
X163892849Y-78345480D01*
X163870671Y-78355970D01*
X163847571Y-78364235D01*
X163823773Y-78370196D01*
X163799504Y-78373796D01*
X163775000Y-78375000D01*
X163025000Y-78375000D01*
X163000496Y-78373796D01*
X162976227Y-78370196D01*
X162952429Y-78364235D01*
X162929329Y-78355970D01*
X162907151Y-78345480D01*
X162886107Y-78332867D01*
X162866402Y-78318253D01*
X162848223Y-78301777D01*
X162831747Y-78283598D01*
X162817133Y-78263893D01*
X162804520Y-78242849D01*
X162794030Y-78220671D01*
X162785765Y-78197571D01*
X162779804Y-78173773D01*
X162776204Y-78149504D01*
X162775000Y-78125000D01*
X162775000Y-76875000D01*
X162776204Y-76850496D01*
X162779804Y-76826227D01*
X162785765Y-76802429D01*
X162794030Y-76779329D01*
X162804520Y-76757151D01*
X162817133Y-76736107D01*
X162831747Y-76716402D01*
X162848223Y-76698223D01*
X162866402Y-76681747D01*
X162886107Y-76667133D01*
X162907151Y-76654520D01*
X162929329Y-76644030D01*
X162952429Y-76635765D01*
X162976227Y-76629804D01*
X163000496Y-76626204D01*
X163025000Y-76625000D01*
X163775000Y-76625000D01*
X163799504Y-76626204D01*
X163799504Y-76626204D01*
G37*
D11*
X163400000Y-77500000D03*
D17*
X172540000Y-80000000D03*
X170000000Y-80000000D03*
D18*
X167460000Y-80000000D03*
D16*
X125750000Y-105000000D03*
X122250000Y-105000000D03*
D10*
G36*
X136649504Y-97626204D02*
G01*
X136673773Y-97629804D01*
X136697571Y-97635765D01*
X136720671Y-97644030D01*
X136742849Y-97654520D01*
X136763893Y-97667133D01*
X136783598Y-97681747D01*
X136801777Y-97698223D01*
X136818253Y-97716402D01*
X136832867Y-97736107D01*
X136845480Y-97757151D01*
X136855970Y-97779329D01*
X136864235Y-97802429D01*
X136870196Y-97826227D01*
X136873796Y-97850496D01*
X136875000Y-97875000D01*
X136875000Y-99125000D01*
X136873796Y-99149504D01*
X136870196Y-99173773D01*
X136864235Y-99197571D01*
X136855970Y-99220671D01*
X136845480Y-99242849D01*
X136832867Y-99263893D01*
X136818253Y-99283598D01*
X136801777Y-99301777D01*
X136783598Y-99318253D01*
X136763893Y-99332867D01*
X136742849Y-99345480D01*
X136720671Y-99355970D01*
X136697571Y-99364235D01*
X136673773Y-99370196D01*
X136649504Y-99373796D01*
X136625000Y-99375000D01*
X135875000Y-99375000D01*
X135850496Y-99373796D01*
X135826227Y-99370196D01*
X135802429Y-99364235D01*
X135779329Y-99355970D01*
X135757151Y-99345480D01*
X135736107Y-99332867D01*
X135716402Y-99318253D01*
X135698223Y-99301777D01*
X135681747Y-99283598D01*
X135667133Y-99263893D01*
X135654520Y-99242849D01*
X135644030Y-99220671D01*
X135635765Y-99197571D01*
X135629804Y-99173773D01*
X135626204Y-99149504D01*
X135625000Y-99125000D01*
X135625000Y-97875000D01*
X135626204Y-97850496D01*
X135629804Y-97826227D01*
X135635765Y-97802429D01*
X135644030Y-97779329D01*
X135654520Y-97757151D01*
X135667133Y-97736107D01*
X135681747Y-97716402D01*
X135698223Y-97698223D01*
X135716402Y-97681747D01*
X135736107Y-97667133D01*
X135757151Y-97654520D01*
X135779329Y-97644030D01*
X135802429Y-97635765D01*
X135826227Y-97629804D01*
X135850496Y-97626204D01*
X135875000Y-97625000D01*
X136625000Y-97625000D01*
X136649504Y-97626204D01*
X136649504Y-97626204D01*
G37*
D11*
X136250000Y-98500000D03*
D10*
G36*
X139449504Y-97626204D02*
G01*
X139473773Y-97629804D01*
X139497571Y-97635765D01*
X139520671Y-97644030D01*
X139542849Y-97654520D01*
X139563893Y-97667133D01*
X139583598Y-97681747D01*
X139601777Y-97698223D01*
X139618253Y-97716402D01*
X139632867Y-97736107D01*
X139645480Y-97757151D01*
X139655970Y-97779329D01*
X139664235Y-97802429D01*
X139670196Y-97826227D01*
X139673796Y-97850496D01*
X139675000Y-97875000D01*
X139675000Y-99125000D01*
X139673796Y-99149504D01*
X139670196Y-99173773D01*
X139664235Y-99197571D01*
X139655970Y-99220671D01*
X139645480Y-99242849D01*
X139632867Y-99263893D01*
X139618253Y-99283598D01*
X139601777Y-99301777D01*
X139583598Y-99318253D01*
X139563893Y-99332867D01*
X139542849Y-99345480D01*
X139520671Y-99355970D01*
X139497571Y-99364235D01*
X139473773Y-99370196D01*
X139449504Y-99373796D01*
X139425000Y-99375000D01*
X138675000Y-99375000D01*
X138650496Y-99373796D01*
X138626227Y-99370196D01*
X138602429Y-99364235D01*
X138579329Y-99355970D01*
X138557151Y-99345480D01*
X138536107Y-99332867D01*
X138516402Y-99318253D01*
X138498223Y-99301777D01*
X138481747Y-99283598D01*
X138467133Y-99263893D01*
X138454520Y-99242849D01*
X138444030Y-99220671D01*
X138435765Y-99197571D01*
X138429804Y-99173773D01*
X138426204Y-99149504D01*
X138425000Y-99125000D01*
X138425000Y-97875000D01*
X138426204Y-97850496D01*
X138429804Y-97826227D01*
X138435765Y-97802429D01*
X138444030Y-97779329D01*
X138454520Y-97757151D01*
X138467133Y-97736107D01*
X138481747Y-97716402D01*
X138498223Y-97698223D01*
X138516402Y-97681747D01*
X138536107Y-97667133D01*
X138557151Y-97654520D01*
X138579329Y-97644030D01*
X138602429Y-97635765D01*
X138626227Y-97629804D01*
X138650496Y-97626204D01*
X138675000Y-97625000D01*
X139425000Y-97625000D01*
X139449504Y-97626204D01*
X139449504Y-97626204D01*
G37*
D11*
X139050000Y-98500000D03*
D10*
G36*
X152899504Y-58376204D02*
G01*
X152923773Y-58379804D01*
X152947571Y-58385765D01*
X152970671Y-58394030D01*
X152992849Y-58404520D01*
X153013893Y-58417133D01*
X153033598Y-58431747D01*
X153051777Y-58448223D01*
X153068253Y-58466402D01*
X153082867Y-58486107D01*
X153095480Y-58507151D01*
X153105970Y-58529329D01*
X153114235Y-58552429D01*
X153120196Y-58576227D01*
X153123796Y-58600496D01*
X153125000Y-58625000D01*
X153125000Y-59875000D01*
X153123796Y-59899504D01*
X153120196Y-59923773D01*
X153114235Y-59947571D01*
X153105970Y-59970671D01*
X153095480Y-59992849D01*
X153082867Y-60013893D01*
X153068253Y-60033598D01*
X153051777Y-60051777D01*
X153033598Y-60068253D01*
X153013893Y-60082867D01*
X152992849Y-60095480D01*
X152970671Y-60105970D01*
X152947571Y-60114235D01*
X152923773Y-60120196D01*
X152899504Y-60123796D01*
X152875000Y-60125000D01*
X152125000Y-60125000D01*
X152100496Y-60123796D01*
X152076227Y-60120196D01*
X152052429Y-60114235D01*
X152029329Y-60105970D01*
X152007151Y-60095480D01*
X151986107Y-60082867D01*
X151966402Y-60068253D01*
X151948223Y-60051777D01*
X151931747Y-60033598D01*
X151917133Y-60013893D01*
X151904520Y-59992849D01*
X151894030Y-59970671D01*
X151885765Y-59947571D01*
X151879804Y-59923773D01*
X151876204Y-59899504D01*
X151875000Y-59875000D01*
X151875000Y-58625000D01*
X151876204Y-58600496D01*
X151879804Y-58576227D01*
X151885765Y-58552429D01*
X151894030Y-58529329D01*
X151904520Y-58507151D01*
X151917133Y-58486107D01*
X151931747Y-58466402D01*
X151948223Y-58448223D01*
X151966402Y-58431747D01*
X151986107Y-58417133D01*
X152007151Y-58404520D01*
X152029329Y-58394030D01*
X152052429Y-58385765D01*
X152076227Y-58379804D01*
X152100496Y-58376204D01*
X152125000Y-58375000D01*
X152875000Y-58375000D01*
X152899504Y-58376204D01*
X152899504Y-58376204D01*
G37*
D11*
X152500000Y-59250000D03*
D10*
G36*
X155699504Y-58376204D02*
G01*
X155723773Y-58379804D01*
X155747571Y-58385765D01*
X155770671Y-58394030D01*
X155792849Y-58404520D01*
X155813893Y-58417133D01*
X155833598Y-58431747D01*
X155851777Y-58448223D01*
X155868253Y-58466402D01*
X155882867Y-58486107D01*
X155895480Y-58507151D01*
X155905970Y-58529329D01*
X155914235Y-58552429D01*
X155920196Y-58576227D01*
X155923796Y-58600496D01*
X155925000Y-58625000D01*
X155925000Y-59875000D01*
X155923796Y-59899504D01*
X155920196Y-59923773D01*
X155914235Y-59947571D01*
X155905970Y-59970671D01*
X155895480Y-59992849D01*
X155882867Y-60013893D01*
X155868253Y-60033598D01*
X155851777Y-60051777D01*
X155833598Y-60068253D01*
X155813893Y-60082867D01*
X155792849Y-60095480D01*
X155770671Y-60105970D01*
X155747571Y-60114235D01*
X155723773Y-60120196D01*
X155699504Y-60123796D01*
X155675000Y-60125000D01*
X154925000Y-60125000D01*
X154900496Y-60123796D01*
X154876227Y-60120196D01*
X154852429Y-60114235D01*
X154829329Y-60105970D01*
X154807151Y-60095480D01*
X154786107Y-60082867D01*
X154766402Y-60068253D01*
X154748223Y-60051777D01*
X154731747Y-60033598D01*
X154717133Y-60013893D01*
X154704520Y-59992849D01*
X154694030Y-59970671D01*
X154685765Y-59947571D01*
X154679804Y-59923773D01*
X154676204Y-59899504D01*
X154675000Y-59875000D01*
X154675000Y-58625000D01*
X154676204Y-58600496D01*
X154679804Y-58576227D01*
X154685765Y-58552429D01*
X154694030Y-58529329D01*
X154704520Y-58507151D01*
X154717133Y-58486107D01*
X154731747Y-58466402D01*
X154748223Y-58448223D01*
X154766402Y-58431747D01*
X154786107Y-58417133D01*
X154807151Y-58404520D01*
X154829329Y-58394030D01*
X154852429Y-58385765D01*
X154876227Y-58379804D01*
X154900496Y-58376204D01*
X154925000Y-58375000D01*
X155675000Y-58375000D01*
X155699504Y-58376204D01*
X155699504Y-58376204D01*
G37*
D11*
X155300000Y-59250000D03*
D10*
G36*
X100399504Y-58376204D02*
G01*
X100423773Y-58379804D01*
X100447571Y-58385765D01*
X100470671Y-58394030D01*
X100492849Y-58404520D01*
X100513893Y-58417133D01*
X100533598Y-58431747D01*
X100551777Y-58448223D01*
X100568253Y-58466402D01*
X100582867Y-58486107D01*
X100595480Y-58507151D01*
X100605970Y-58529329D01*
X100614235Y-58552429D01*
X100620196Y-58576227D01*
X100623796Y-58600496D01*
X100625000Y-58625000D01*
X100625000Y-59875000D01*
X100623796Y-59899504D01*
X100620196Y-59923773D01*
X100614235Y-59947571D01*
X100605970Y-59970671D01*
X100595480Y-59992849D01*
X100582867Y-60013893D01*
X100568253Y-60033598D01*
X100551777Y-60051777D01*
X100533598Y-60068253D01*
X100513893Y-60082867D01*
X100492849Y-60095480D01*
X100470671Y-60105970D01*
X100447571Y-60114235D01*
X100423773Y-60120196D01*
X100399504Y-60123796D01*
X100375000Y-60125000D01*
X99625000Y-60125000D01*
X99600496Y-60123796D01*
X99576227Y-60120196D01*
X99552429Y-60114235D01*
X99529329Y-60105970D01*
X99507151Y-60095480D01*
X99486107Y-60082867D01*
X99466402Y-60068253D01*
X99448223Y-60051777D01*
X99431747Y-60033598D01*
X99417133Y-60013893D01*
X99404520Y-59992849D01*
X99394030Y-59970671D01*
X99385765Y-59947571D01*
X99379804Y-59923773D01*
X99376204Y-59899504D01*
X99375000Y-59875000D01*
X99375000Y-58625000D01*
X99376204Y-58600496D01*
X99379804Y-58576227D01*
X99385765Y-58552429D01*
X99394030Y-58529329D01*
X99404520Y-58507151D01*
X99417133Y-58486107D01*
X99431747Y-58466402D01*
X99448223Y-58448223D01*
X99466402Y-58431747D01*
X99486107Y-58417133D01*
X99507151Y-58404520D01*
X99529329Y-58394030D01*
X99552429Y-58385765D01*
X99576227Y-58379804D01*
X99600496Y-58376204D01*
X99625000Y-58375000D01*
X100375000Y-58375000D01*
X100399504Y-58376204D01*
X100399504Y-58376204D01*
G37*
D11*
X100000000Y-59250000D03*
D10*
G36*
X103199504Y-58376204D02*
G01*
X103223773Y-58379804D01*
X103247571Y-58385765D01*
X103270671Y-58394030D01*
X103292849Y-58404520D01*
X103313893Y-58417133D01*
X103333598Y-58431747D01*
X103351777Y-58448223D01*
X103368253Y-58466402D01*
X103382867Y-58486107D01*
X103395480Y-58507151D01*
X103405970Y-58529329D01*
X103414235Y-58552429D01*
X103420196Y-58576227D01*
X103423796Y-58600496D01*
X103425000Y-58625000D01*
X103425000Y-59875000D01*
X103423796Y-59899504D01*
X103420196Y-59923773D01*
X103414235Y-59947571D01*
X103405970Y-59970671D01*
X103395480Y-59992849D01*
X103382867Y-60013893D01*
X103368253Y-60033598D01*
X103351777Y-60051777D01*
X103333598Y-60068253D01*
X103313893Y-60082867D01*
X103292849Y-60095480D01*
X103270671Y-60105970D01*
X103247571Y-60114235D01*
X103223773Y-60120196D01*
X103199504Y-60123796D01*
X103175000Y-60125000D01*
X102425000Y-60125000D01*
X102400496Y-60123796D01*
X102376227Y-60120196D01*
X102352429Y-60114235D01*
X102329329Y-60105970D01*
X102307151Y-60095480D01*
X102286107Y-60082867D01*
X102266402Y-60068253D01*
X102248223Y-60051777D01*
X102231747Y-60033598D01*
X102217133Y-60013893D01*
X102204520Y-59992849D01*
X102194030Y-59970671D01*
X102185765Y-59947571D01*
X102179804Y-59923773D01*
X102176204Y-59899504D01*
X102175000Y-59875000D01*
X102175000Y-58625000D01*
X102176204Y-58600496D01*
X102179804Y-58576227D01*
X102185765Y-58552429D01*
X102194030Y-58529329D01*
X102204520Y-58507151D01*
X102217133Y-58486107D01*
X102231747Y-58466402D01*
X102248223Y-58448223D01*
X102266402Y-58431747D01*
X102286107Y-58417133D01*
X102307151Y-58404520D01*
X102329329Y-58394030D01*
X102352429Y-58385765D01*
X102376227Y-58379804D01*
X102400496Y-58376204D01*
X102425000Y-58375000D01*
X103175000Y-58375000D01*
X103199504Y-58376204D01*
X103199504Y-58376204D01*
G37*
D11*
X102800000Y-59250000D03*
D10*
G36*
X150649504Y-97626204D02*
G01*
X150673773Y-97629804D01*
X150697571Y-97635765D01*
X150720671Y-97644030D01*
X150742849Y-97654520D01*
X150763893Y-97667133D01*
X150783598Y-97681747D01*
X150801777Y-97698223D01*
X150818253Y-97716402D01*
X150832867Y-97736107D01*
X150845480Y-97757151D01*
X150855970Y-97779329D01*
X150864235Y-97802429D01*
X150870196Y-97826227D01*
X150873796Y-97850496D01*
X150875000Y-97875000D01*
X150875000Y-99125000D01*
X150873796Y-99149504D01*
X150870196Y-99173773D01*
X150864235Y-99197571D01*
X150855970Y-99220671D01*
X150845480Y-99242849D01*
X150832867Y-99263893D01*
X150818253Y-99283598D01*
X150801777Y-99301777D01*
X150783598Y-99318253D01*
X150763893Y-99332867D01*
X150742849Y-99345480D01*
X150720671Y-99355970D01*
X150697571Y-99364235D01*
X150673773Y-99370196D01*
X150649504Y-99373796D01*
X150625000Y-99375000D01*
X149875000Y-99375000D01*
X149850496Y-99373796D01*
X149826227Y-99370196D01*
X149802429Y-99364235D01*
X149779329Y-99355970D01*
X149757151Y-99345480D01*
X149736107Y-99332867D01*
X149716402Y-99318253D01*
X149698223Y-99301777D01*
X149681747Y-99283598D01*
X149667133Y-99263893D01*
X149654520Y-99242849D01*
X149644030Y-99220671D01*
X149635765Y-99197571D01*
X149629804Y-99173773D01*
X149626204Y-99149504D01*
X149625000Y-99125000D01*
X149625000Y-97875000D01*
X149626204Y-97850496D01*
X149629804Y-97826227D01*
X149635765Y-97802429D01*
X149644030Y-97779329D01*
X149654520Y-97757151D01*
X149667133Y-97736107D01*
X149681747Y-97716402D01*
X149698223Y-97698223D01*
X149716402Y-97681747D01*
X149736107Y-97667133D01*
X149757151Y-97654520D01*
X149779329Y-97644030D01*
X149802429Y-97635765D01*
X149826227Y-97629804D01*
X149850496Y-97626204D01*
X149875000Y-97625000D01*
X150625000Y-97625000D01*
X150649504Y-97626204D01*
X150649504Y-97626204D01*
G37*
D11*
X150250000Y-98500000D03*
D10*
G36*
X153449504Y-97626204D02*
G01*
X153473773Y-97629804D01*
X153497571Y-97635765D01*
X153520671Y-97644030D01*
X153542849Y-97654520D01*
X153563893Y-97667133D01*
X153583598Y-97681747D01*
X153601777Y-97698223D01*
X153618253Y-97716402D01*
X153632867Y-97736107D01*
X153645480Y-97757151D01*
X153655970Y-97779329D01*
X153664235Y-97802429D01*
X153670196Y-97826227D01*
X153673796Y-97850496D01*
X153675000Y-97875000D01*
X153675000Y-99125000D01*
X153673796Y-99149504D01*
X153670196Y-99173773D01*
X153664235Y-99197571D01*
X153655970Y-99220671D01*
X153645480Y-99242849D01*
X153632867Y-99263893D01*
X153618253Y-99283598D01*
X153601777Y-99301777D01*
X153583598Y-99318253D01*
X153563893Y-99332867D01*
X153542849Y-99345480D01*
X153520671Y-99355970D01*
X153497571Y-99364235D01*
X153473773Y-99370196D01*
X153449504Y-99373796D01*
X153425000Y-99375000D01*
X152675000Y-99375000D01*
X152650496Y-99373796D01*
X152626227Y-99370196D01*
X152602429Y-99364235D01*
X152579329Y-99355970D01*
X152557151Y-99345480D01*
X152536107Y-99332867D01*
X152516402Y-99318253D01*
X152498223Y-99301777D01*
X152481747Y-99283598D01*
X152467133Y-99263893D01*
X152454520Y-99242849D01*
X152444030Y-99220671D01*
X152435765Y-99197571D01*
X152429804Y-99173773D01*
X152426204Y-99149504D01*
X152425000Y-99125000D01*
X152425000Y-97875000D01*
X152426204Y-97850496D01*
X152429804Y-97826227D01*
X152435765Y-97802429D01*
X152444030Y-97779329D01*
X152454520Y-97757151D01*
X152467133Y-97736107D01*
X152481747Y-97716402D01*
X152498223Y-97698223D01*
X152516402Y-97681747D01*
X152536107Y-97667133D01*
X152557151Y-97654520D01*
X152579329Y-97644030D01*
X152602429Y-97635765D01*
X152626227Y-97629804D01*
X152650496Y-97626204D01*
X152675000Y-97625000D01*
X153425000Y-97625000D01*
X153449504Y-97626204D01*
X153449504Y-97626204D01*
G37*
D11*
X153050000Y-98500000D03*
D10*
G36*
X143649504Y-97626204D02*
G01*
X143673773Y-97629804D01*
X143697571Y-97635765D01*
X143720671Y-97644030D01*
X143742849Y-97654520D01*
X143763893Y-97667133D01*
X143783598Y-97681747D01*
X143801777Y-97698223D01*
X143818253Y-97716402D01*
X143832867Y-97736107D01*
X143845480Y-97757151D01*
X143855970Y-97779329D01*
X143864235Y-97802429D01*
X143870196Y-97826227D01*
X143873796Y-97850496D01*
X143875000Y-97875000D01*
X143875000Y-99125000D01*
X143873796Y-99149504D01*
X143870196Y-99173773D01*
X143864235Y-99197571D01*
X143855970Y-99220671D01*
X143845480Y-99242849D01*
X143832867Y-99263893D01*
X143818253Y-99283598D01*
X143801777Y-99301777D01*
X143783598Y-99318253D01*
X143763893Y-99332867D01*
X143742849Y-99345480D01*
X143720671Y-99355970D01*
X143697571Y-99364235D01*
X143673773Y-99370196D01*
X143649504Y-99373796D01*
X143625000Y-99375000D01*
X142875000Y-99375000D01*
X142850496Y-99373796D01*
X142826227Y-99370196D01*
X142802429Y-99364235D01*
X142779329Y-99355970D01*
X142757151Y-99345480D01*
X142736107Y-99332867D01*
X142716402Y-99318253D01*
X142698223Y-99301777D01*
X142681747Y-99283598D01*
X142667133Y-99263893D01*
X142654520Y-99242849D01*
X142644030Y-99220671D01*
X142635765Y-99197571D01*
X142629804Y-99173773D01*
X142626204Y-99149504D01*
X142625000Y-99125000D01*
X142625000Y-97875000D01*
X142626204Y-97850496D01*
X142629804Y-97826227D01*
X142635765Y-97802429D01*
X142644030Y-97779329D01*
X142654520Y-97757151D01*
X142667133Y-97736107D01*
X142681747Y-97716402D01*
X142698223Y-97698223D01*
X142716402Y-97681747D01*
X142736107Y-97667133D01*
X142757151Y-97654520D01*
X142779329Y-97644030D01*
X142802429Y-97635765D01*
X142826227Y-97629804D01*
X142850496Y-97626204D01*
X142875000Y-97625000D01*
X143625000Y-97625000D01*
X143649504Y-97626204D01*
X143649504Y-97626204D01*
G37*
D11*
X143250000Y-98500000D03*
D10*
G36*
X146449504Y-97626204D02*
G01*
X146473773Y-97629804D01*
X146497571Y-97635765D01*
X146520671Y-97644030D01*
X146542849Y-97654520D01*
X146563893Y-97667133D01*
X146583598Y-97681747D01*
X146601777Y-97698223D01*
X146618253Y-97716402D01*
X146632867Y-97736107D01*
X146645480Y-97757151D01*
X146655970Y-97779329D01*
X146664235Y-97802429D01*
X146670196Y-97826227D01*
X146673796Y-97850496D01*
X146675000Y-97875000D01*
X146675000Y-99125000D01*
X146673796Y-99149504D01*
X146670196Y-99173773D01*
X146664235Y-99197571D01*
X146655970Y-99220671D01*
X146645480Y-99242849D01*
X146632867Y-99263893D01*
X146618253Y-99283598D01*
X146601777Y-99301777D01*
X146583598Y-99318253D01*
X146563893Y-99332867D01*
X146542849Y-99345480D01*
X146520671Y-99355970D01*
X146497571Y-99364235D01*
X146473773Y-99370196D01*
X146449504Y-99373796D01*
X146425000Y-99375000D01*
X145675000Y-99375000D01*
X145650496Y-99373796D01*
X145626227Y-99370196D01*
X145602429Y-99364235D01*
X145579329Y-99355970D01*
X145557151Y-99345480D01*
X145536107Y-99332867D01*
X145516402Y-99318253D01*
X145498223Y-99301777D01*
X145481747Y-99283598D01*
X145467133Y-99263893D01*
X145454520Y-99242849D01*
X145444030Y-99220671D01*
X145435765Y-99197571D01*
X145429804Y-99173773D01*
X145426204Y-99149504D01*
X145425000Y-99125000D01*
X145425000Y-97875000D01*
X145426204Y-97850496D01*
X145429804Y-97826227D01*
X145435765Y-97802429D01*
X145444030Y-97779329D01*
X145454520Y-97757151D01*
X145467133Y-97736107D01*
X145481747Y-97716402D01*
X145498223Y-97698223D01*
X145516402Y-97681747D01*
X145536107Y-97667133D01*
X145557151Y-97654520D01*
X145579329Y-97644030D01*
X145602429Y-97635765D01*
X145626227Y-97629804D01*
X145650496Y-97626204D01*
X145675000Y-97625000D01*
X146425000Y-97625000D01*
X146449504Y-97626204D01*
X146449504Y-97626204D01*
G37*
D11*
X146050000Y-98500000D03*
D10*
G36*
X101649504Y-97626204D02*
G01*
X101673773Y-97629804D01*
X101697571Y-97635765D01*
X101720671Y-97644030D01*
X101742849Y-97654520D01*
X101763893Y-97667133D01*
X101783598Y-97681747D01*
X101801777Y-97698223D01*
X101818253Y-97716402D01*
X101832867Y-97736107D01*
X101845480Y-97757151D01*
X101855970Y-97779329D01*
X101864235Y-97802429D01*
X101870196Y-97826227D01*
X101873796Y-97850496D01*
X101875000Y-97875000D01*
X101875000Y-99125000D01*
X101873796Y-99149504D01*
X101870196Y-99173773D01*
X101864235Y-99197571D01*
X101855970Y-99220671D01*
X101845480Y-99242849D01*
X101832867Y-99263893D01*
X101818253Y-99283598D01*
X101801777Y-99301777D01*
X101783598Y-99318253D01*
X101763893Y-99332867D01*
X101742849Y-99345480D01*
X101720671Y-99355970D01*
X101697571Y-99364235D01*
X101673773Y-99370196D01*
X101649504Y-99373796D01*
X101625000Y-99375000D01*
X100875000Y-99375000D01*
X100850496Y-99373796D01*
X100826227Y-99370196D01*
X100802429Y-99364235D01*
X100779329Y-99355970D01*
X100757151Y-99345480D01*
X100736107Y-99332867D01*
X100716402Y-99318253D01*
X100698223Y-99301777D01*
X100681747Y-99283598D01*
X100667133Y-99263893D01*
X100654520Y-99242849D01*
X100644030Y-99220671D01*
X100635765Y-99197571D01*
X100629804Y-99173773D01*
X100626204Y-99149504D01*
X100625000Y-99125000D01*
X100625000Y-97875000D01*
X100626204Y-97850496D01*
X100629804Y-97826227D01*
X100635765Y-97802429D01*
X100644030Y-97779329D01*
X100654520Y-97757151D01*
X100667133Y-97736107D01*
X100681747Y-97716402D01*
X100698223Y-97698223D01*
X100716402Y-97681747D01*
X100736107Y-97667133D01*
X100757151Y-97654520D01*
X100779329Y-97644030D01*
X100802429Y-97635765D01*
X100826227Y-97629804D01*
X100850496Y-97626204D01*
X100875000Y-97625000D01*
X101625000Y-97625000D01*
X101649504Y-97626204D01*
X101649504Y-97626204D01*
G37*
D11*
X101250000Y-98500000D03*
D10*
G36*
X104449504Y-97626204D02*
G01*
X104473773Y-97629804D01*
X104497571Y-97635765D01*
X104520671Y-97644030D01*
X104542849Y-97654520D01*
X104563893Y-97667133D01*
X104583598Y-97681747D01*
X104601777Y-97698223D01*
X104618253Y-97716402D01*
X104632867Y-97736107D01*
X104645480Y-97757151D01*
X104655970Y-97779329D01*
X104664235Y-97802429D01*
X104670196Y-97826227D01*
X104673796Y-97850496D01*
X104675000Y-97875000D01*
X104675000Y-99125000D01*
X104673796Y-99149504D01*
X104670196Y-99173773D01*
X104664235Y-99197571D01*
X104655970Y-99220671D01*
X104645480Y-99242849D01*
X104632867Y-99263893D01*
X104618253Y-99283598D01*
X104601777Y-99301777D01*
X104583598Y-99318253D01*
X104563893Y-99332867D01*
X104542849Y-99345480D01*
X104520671Y-99355970D01*
X104497571Y-99364235D01*
X104473773Y-99370196D01*
X104449504Y-99373796D01*
X104425000Y-99375000D01*
X103675000Y-99375000D01*
X103650496Y-99373796D01*
X103626227Y-99370196D01*
X103602429Y-99364235D01*
X103579329Y-99355970D01*
X103557151Y-99345480D01*
X103536107Y-99332867D01*
X103516402Y-99318253D01*
X103498223Y-99301777D01*
X103481747Y-99283598D01*
X103467133Y-99263893D01*
X103454520Y-99242849D01*
X103444030Y-99220671D01*
X103435765Y-99197571D01*
X103429804Y-99173773D01*
X103426204Y-99149504D01*
X103425000Y-99125000D01*
X103425000Y-97875000D01*
X103426204Y-97850496D01*
X103429804Y-97826227D01*
X103435765Y-97802429D01*
X103444030Y-97779329D01*
X103454520Y-97757151D01*
X103467133Y-97736107D01*
X103481747Y-97716402D01*
X103498223Y-97698223D01*
X103516402Y-97681747D01*
X103536107Y-97667133D01*
X103557151Y-97654520D01*
X103579329Y-97644030D01*
X103602429Y-97635765D01*
X103626227Y-97629804D01*
X103650496Y-97626204D01*
X103675000Y-97625000D01*
X104425000Y-97625000D01*
X104449504Y-97626204D01*
X104449504Y-97626204D01*
G37*
D11*
X104050000Y-98500000D03*
D10*
G36*
X122649504Y-97626204D02*
G01*
X122673773Y-97629804D01*
X122697571Y-97635765D01*
X122720671Y-97644030D01*
X122742849Y-97654520D01*
X122763893Y-97667133D01*
X122783598Y-97681747D01*
X122801777Y-97698223D01*
X122818253Y-97716402D01*
X122832867Y-97736107D01*
X122845480Y-97757151D01*
X122855970Y-97779329D01*
X122864235Y-97802429D01*
X122870196Y-97826227D01*
X122873796Y-97850496D01*
X122875000Y-97875000D01*
X122875000Y-99125000D01*
X122873796Y-99149504D01*
X122870196Y-99173773D01*
X122864235Y-99197571D01*
X122855970Y-99220671D01*
X122845480Y-99242849D01*
X122832867Y-99263893D01*
X122818253Y-99283598D01*
X122801777Y-99301777D01*
X122783598Y-99318253D01*
X122763893Y-99332867D01*
X122742849Y-99345480D01*
X122720671Y-99355970D01*
X122697571Y-99364235D01*
X122673773Y-99370196D01*
X122649504Y-99373796D01*
X122625000Y-99375000D01*
X121875000Y-99375000D01*
X121850496Y-99373796D01*
X121826227Y-99370196D01*
X121802429Y-99364235D01*
X121779329Y-99355970D01*
X121757151Y-99345480D01*
X121736107Y-99332867D01*
X121716402Y-99318253D01*
X121698223Y-99301777D01*
X121681747Y-99283598D01*
X121667133Y-99263893D01*
X121654520Y-99242849D01*
X121644030Y-99220671D01*
X121635765Y-99197571D01*
X121629804Y-99173773D01*
X121626204Y-99149504D01*
X121625000Y-99125000D01*
X121625000Y-97875000D01*
X121626204Y-97850496D01*
X121629804Y-97826227D01*
X121635765Y-97802429D01*
X121644030Y-97779329D01*
X121654520Y-97757151D01*
X121667133Y-97736107D01*
X121681747Y-97716402D01*
X121698223Y-97698223D01*
X121716402Y-97681747D01*
X121736107Y-97667133D01*
X121757151Y-97654520D01*
X121779329Y-97644030D01*
X121802429Y-97635765D01*
X121826227Y-97629804D01*
X121850496Y-97626204D01*
X121875000Y-97625000D01*
X122625000Y-97625000D01*
X122649504Y-97626204D01*
X122649504Y-97626204D01*
G37*
D11*
X122250000Y-98500000D03*
D10*
G36*
X125449504Y-97626204D02*
G01*
X125473773Y-97629804D01*
X125497571Y-97635765D01*
X125520671Y-97644030D01*
X125542849Y-97654520D01*
X125563893Y-97667133D01*
X125583598Y-97681747D01*
X125601777Y-97698223D01*
X125618253Y-97716402D01*
X125632867Y-97736107D01*
X125645480Y-97757151D01*
X125655970Y-97779329D01*
X125664235Y-97802429D01*
X125670196Y-97826227D01*
X125673796Y-97850496D01*
X125675000Y-97875000D01*
X125675000Y-99125000D01*
X125673796Y-99149504D01*
X125670196Y-99173773D01*
X125664235Y-99197571D01*
X125655970Y-99220671D01*
X125645480Y-99242849D01*
X125632867Y-99263893D01*
X125618253Y-99283598D01*
X125601777Y-99301777D01*
X125583598Y-99318253D01*
X125563893Y-99332867D01*
X125542849Y-99345480D01*
X125520671Y-99355970D01*
X125497571Y-99364235D01*
X125473773Y-99370196D01*
X125449504Y-99373796D01*
X125425000Y-99375000D01*
X124675000Y-99375000D01*
X124650496Y-99373796D01*
X124626227Y-99370196D01*
X124602429Y-99364235D01*
X124579329Y-99355970D01*
X124557151Y-99345480D01*
X124536107Y-99332867D01*
X124516402Y-99318253D01*
X124498223Y-99301777D01*
X124481747Y-99283598D01*
X124467133Y-99263893D01*
X124454520Y-99242849D01*
X124444030Y-99220671D01*
X124435765Y-99197571D01*
X124429804Y-99173773D01*
X124426204Y-99149504D01*
X124425000Y-99125000D01*
X124425000Y-97875000D01*
X124426204Y-97850496D01*
X124429804Y-97826227D01*
X124435765Y-97802429D01*
X124444030Y-97779329D01*
X124454520Y-97757151D01*
X124467133Y-97736107D01*
X124481747Y-97716402D01*
X124498223Y-97698223D01*
X124516402Y-97681747D01*
X124536107Y-97667133D01*
X124557151Y-97654520D01*
X124579329Y-97644030D01*
X124602429Y-97635765D01*
X124626227Y-97629804D01*
X124650496Y-97626204D01*
X124675000Y-97625000D01*
X125425000Y-97625000D01*
X125449504Y-97626204D01*
X125449504Y-97626204D01*
G37*
D11*
X125050000Y-98500000D03*
D10*
G36*
X115649504Y-97626204D02*
G01*
X115673773Y-97629804D01*
X115697571Y-97635765D01*
X115720671Y-97644030D01*
X115742849Y-97654520D01*
X115763893Y-97667133D01*
X115783598Y-97681747D01*
X115801777Y-97698223D01*
X115818253Y-97716402D01*
X115832867Y-97736107D01*
X115845480Y-97757151D01*
X115855970Y-97779329D01*
X115864235Y-97802429D01*
X115870196Y-97826227D01*
X115873796Y-97850496D01*
X115875000Y-97875000D01*
X115875000Y-99125000D01*
X115873796Y-99149504D01*
X115870196Y-99173773D01*
X115864235Y-99197571D01*
X115855970Y-99220671D01*
X115845480Y-99242849D01*
X115832867Y-99263893D01*
X115818253Y-99283598D01*
X115801777Y-99301777D01*
X115783598Y-99318253D01*
X115763893Y-99332867D01*
X115742849Y-99345480D01*
X115720671Y-99355970D01*
X115697571Y-99364235D01*
X115673773Y-99370196D01*
X115649504Y-99373796D01*
X115625000Y-99375000D01*
X114875000Y-99375000D01*
X114850496Y-99373796D01*
X114826227Y-99370196D01*
X114802429Y-99364235D01*
X114779329Y-99355970D01*
X114757151Y-99345480D01*
X114736107Y-99332867D01*
X114716402Y-99318253D01*
X114698223Y-99301777D01*
X114681747Y-99283598D01*
X114667133Y-99263893D01*
X114654520Y-99242849D01*
X114644030Y-99220671D01*
X114635765Y-99197571D01*
X114629804Y-99173773D01*
X114626204Y-99149504D01*
X114625000Y-99125000D01*
X114625000Y-97875000D01*
X114626204Y-97850496D01*
X114629804Y-97826227D01*
X114635765Y-97802429D01*
X114644030Y-97779329D01*
X114654520Y-97757151D01*
X114667133Y-97736107D01*
X114681747Y-97716402D01*
X114698223Y-97698223D01*
X114716402Y-97681747D01*
X114736107Y-97667133D01*
X114757151Y-97654520D01*
X114779329Y-97644030D01*
X114802429Y-97635765D01*
X114826227Y-97629804D01*
X114850496Y-97626204D01*
X114875000Y-97625000D01*
X115625000Y-97625000D01*
X115649504Y-97626204D01*
X115649504Y-97626204D01*
G37*
D11*
X115250000Y-98500000D03*
D10*
G36*
X118449504Y-97626204D02*
G01*
X118473773Y-97629804D01*
X118497571Y-97635765D01*
X118520671Y-97644030D01*
X118542849Y-97654520D01*
X118563893Y-97667133D01*
X118583598Y-97681747D01*
X118601777Y-97698223D01*
X118618253Y-97716402D01*
X118632867Y-97736107D01*
X118645480Y-97757151D01*
X118655970Y-97779329D01*
X118664235Y-97802429D01*
X118670196Y-97826227D01*
X118673796Y-97850496D01*
X118675000Y-97875000D01*
X118675000Y-99125000D01*
X118673796Y-99149504D01*
X118670196Y-99173773D01*
X118664235Y-99197571D01*
X118655970Y-99220671D01*
X118645480Y-99242849D01*
X118632867Y-99263893D01*
X118618253Y-99283598D01*
X118601777Y-99301777D01*
X118583598Y-99318253D01*
X118563893Y-99332867D01*
X118542849Y-99345480D01*
X118520671Y-99355970D01*
X118497571Y-99364235D01*
X118473773Y-99370196D01*
X118449504Y-99373796D01*
X118425000Y-99375000D01*
X117675000Y-99375000D01*
X117650496Y-99373796D01*
X117626227Y-99370196D01*
X117602429Y-99364235D01*
X117579329Y-99355970D01*
X117557151Y-99345480D01*
X117536107Y-99332867D01*
X117516402Y-99318253D01*
X117498223Y-99301777D01*
X117481747Y-99283598D01*
X117467133Y-99263893D01*
X117454520Y-99242849D01*
X117444030Y-99220671D01*
X117435765Y-99197571D01*
X117429804Y-99173773D01*
X117426204Y-99149504D01*
X117425000Y-99125000D01*
X117425000Y-97875000D01*
X117426204Y-97850496D01*
X117429804Y-97826227D01*
X117435765Y-97802429D01*
X117444030Y-97779329D01*
X117454520Y-97757151D01*
X117467133Y-97736107D01*
X117481747Y-97716402D01*
X117498223Y-97698223D01*
X117516402Y-97681747D01*
X117536107Y-97667133D01*
X117557151Y-97654520D01*
X117579329Y-97644030D01*
X117602429Y-97635765D01*
X117626227Y-97629804D01*
X117650496Y-97626204D01*
X117675000Y-97625000D01*
X118425000Y-97625000D01*
X118449504Y-97626204D01*
X118449504Y-97626204D01*
G37*
D11*
X118050000Y-98500000D03*
D10*
G36*
X108649504Y-97626204D02*
G01*
X108673773Y-97629804D01*
X108697571Y-97635765D01*
X108720671Y-97644030D01*
X108742849Y-97654520D01*
X108763893Y-97667133D01*
X108783598Y-97681747D01*
X108801777Y-97698223D01*
X108818253Y-97716402D01*
X108832867Y-97736107D01*
X108845480Y-97757151D01*
X108855970Y-97779329D01*
X108864235Y-97802429D01*
X108870196Y-97826227D01*
X108873796Y-97850496D01*
X108875000Y-97875000D01*
X108875000Y-99125000D01*
X108873796Y-99149504D01*
X108870196Y-99173773D01*
X108864235Y-99197571D01*
X108855970Y-99220671D01*
X108845480Y-99242849D01*
X108832867Y-99263893D01*
X108818253Y-99283598D01*
X108801777Y-99301777D01*
X108783598Y-99318253D01*
X108763893Y-99332867D01*
X108742849Y-99345480D01*
X108720671Y-99355970D01*
X108697571Y-99364235D01*
X108673773Y-99370196D01*
X108649504Y-99373796D01*
X108625000Y-99375000D01*
X107875000Y-99375000D01*
X107850496Y-99373796D01*
X107826227Y-99370196D01*
X107802429Y-99364235D01*
X107779329Y-99355970D01*
X107757151Y-99345480D01*
X107736107Y-99332867D01*
X107716402Y-99318253D01*
X107698223Y-99301777D01*
X107681747Y-99283598D01*
X107667133Y-99263893D01*
X107654520Y-99242849D01*
X107644030Y-99220671D01*
X107635765Y-99197571D01*
X107629804Y-99173773D01*
X107626204Y-99149504D01*
X107625000Y-99125000D01*
X107625000Y-97875000D01*
X107626204Y-97850496D01*
X107629804Y-97826227D01*
X107635765Y-97802429D01*
X107644030Y-97779329D01*
X107654520Y-97757151D01*
X107667133Y-97736107D01*
X107681747Y-97716402D01*
X107698223Y-97698223D01*
X107716402Y-97681747D01*
X107736107Y-97667133D01*
X107757151Y-97654520D01*
X107779329Y-97644030D01*
X107802429Y-97635765D01*
X107826227Y-97629804D01*
X107850496Y-97626204D01*
X107875000Y-97625000D01*
X108625000Y-97625000D01*
X108649504Y-97626204D01*
X108649504Y-97626204D01*
G37*
D11*
X108250000Y-98500000D03*
D10*
G36*
X111449504Y-97626204D02*
G01*
X111473773Y-97629804D01*
X111497571Y-97635765D01*
X111520671Y-97644030D01*
X111542849Y-97654520D01*
X111563893Y-97667133D01*
X111583598Y-97681747D01*
X111601777Y-97698223D01*
X111618253Y-97716402D01*
X111632867Y-97736107D01*
X111645480Y-97757151D01*
X111655970Y-97779329D01*
X111664235Y-97802429D01*
X111670196Y-97826227D01*
X111673796Y-97850496D01*
X111675000Y-97875000D01*
X111675000Y-99125000D01*
X111673796Y-99149504D01*
X111670196Y-99173773D01*
X111664235Y-99197571D01*
X111655970Y-99220671D01*
X111645480Y-99242849D01*
X111632867Y-99263893D01*
X111618253Y-99283598D01*
X111601777Y-99301777D01*
X111583598Y-99318253D01*
X111563893Y-99332867D01*
X111542849Y-99345480D01*
X111520671Y-99355970D01*
X111497571Y-99364235D01*
X111473773Y-99370196D01*
X111449504Y-99373796D01*
X111425000Y-99375000D01*
X110675000Y-99375000D01*
X110650496Y-99373796D01*
X110626227Y-99370196D01*
X110602429Y-99364235D01*
X110579329Y-99355970D01*
X110557151Y-99345480D01*
X110536107Y-99332867D01*
X110516402Y-99318253D01*
X110498223Y-99301777D01*
X110481747Y-99283598D01*
X110467133Y-99263893D01*
X110454520Y-99242849D01*
X110444030Y-99220671D01*
X110435765Y-99197571D01*
X110429804Y-99173773D01*
X110426204Y-99149504D01*
X110425000Y-99125000D01*
X110425000Y-97875000D01*
X110426204Y-97850496D01*
X110429804Y-97826227D01*
X110435765Y-97802429D01*
X110444030Y-97779329D01*
X110454520Y-97757151D01*
X110467133Y-97736107D01*
X110481747Y-97716402D01*
X110498223Y-97698223D01*
X110516402Y-97681747D01*
X110536107Y-97667133D01*
X110557151Y-97654520D01*
X110579329Y-97644030D01*
X110602429Y-97635765D01*
X110626227Y-97629804D01*
X110650496Y-97626204D01*
X110675000Y-97625000D01*
X111425000Y-97625000D01*
X111449504Y-97626204D01*
X111449504Y-97626204D01*
G37*
D11*
X111050000Y-98500000D03*
D10*
G36*
X129649504Y-97626204D02*
G01*
X129673773Y-97629804D01*
X129697571Y-97635765D01*
X129720671Y-97644030D01*
X129742849Y-97654520D01*
X129763893Y-97667133D01*
X129783598Y-97681747D01*
X129801777Y-97698223D01*
X129818253Y-97716402D01*
X129832867Y-97736107D01*
X129845480Y-97757151D01*
X129855970Y-97779329D01*
X129864235Y-97802429D01*
X129870196Y-97826227D01*
X129873796Y-97850496D01*
X129875000Y-97875000D01*
X129875000Y-99125000D01*
X129873796Y-99149504D01*
X129870196Y-99173773D01*
X129864235Y-99197571D01*
X129855970Y-99220671D01*
X129845480Y-99242849D01*
X129832867Y-99263893D01*
X129818253Y-99283598D01*
X129801777Y-99301777D01*
X129783598Y-99318253D01*
X129763893Y-99332867D01*
X129742849Y-99345480D01*
X129720671Y-99355970D01*
X129697571Y-99364235D01*
X129673773Y-99370196D01*
X129649504Y-99373796D01*
X129625000Y-99375000D01*
X128875000Y-99375000D01*
X128850496Y-99373796D01*
X128826227Y-99370196D01*
X128802429Y-99364235D01*
X128779329Y-99355970D01*
X128757151Y-99345480D01*
X128736107Y-99332867D01*
X128716402Y-99318253D01*
X128698223Y-99301777D01*
X128681747Y-99283598D01*
X128667133Y-99263893D01*
X128654520Y-99242849D01*
X128644030Y-99220671D01*
X128635765Y-99197571D01*
X128629804Y-99173773D01*
X128626204Y-99149504D01*
X128625000Y-99125000D01*
X128625000Y-97875000D01*
X128626204Y-97850496D01*
X128629804Y-97826227D01*
X128635765Y-97802429D01*
X128644030Y-97779329D01*
X128654520Y-97757151D01*
X128667133Y-97736107D01*
X128681747Y-97716402D01*
X128698223Y-97698223D01*
X128716402Y-97681747D01*
X128736107Y-97667133D01*
X128757151Y-97654520D01*
X128779329Y-97644030D01*
X128802429Y-97635765D01*
X128826227Y-97629804D01*
X128850496Y-97626204D01*
X128875000Y-97625000D01*
X129625000Y-97625000D01*
X129649504Y-97626204D01*
X129649504Y-97626204D01*
G37*
D11*
X129250000Y-98500000D03*
D10*
G36*
X132449504Y-97626204D02*
G01*
X132473773Y-97629804D01*
X132497571Y-97635765D01*
X132520671Y-97644030D01*
X132542849Y-97654520D01*
X132563893Y-97667133D01*
X132583598Y-97681747D01*
X132601777Y-97698223D01*
X132618253Y-97716402D01*
X132632867Y-97736107D01*
X132645480Y-97757151D01*
X132655970Y-97779329D01*
X132664235Y-97802429D01*
X132670196Y-97826227D01*
X132673796Y-97850496D01*
X132675000Y-97875000D01*
X132675000Y-99125000D01*
X132673796Y-99149504D01*
X132670196Y-99173773D01*
X132664235Y-99197571D01*
X132655970Y-99220671D01*
X132645480Y-99242849D01*
X132632867Y-99263893D01*
X132618253Y-99283598D01*
X132601777Y-99301777D01*
X132583598Y-99318253D01*
X132563893Y-99332867D01*
X132542849Y-99345480D01*
X132520671Y-99355970D01*
X132497571Y-99364235D01*
X132473773Y-99370196D01*
X132449504Y-99373796D01*
X132425000Y-99375000D01*
X131675000Y-99375000D01*
X131650496Y-99373796D01*
X131626227Y-99370196D01*
X131602429Y-99364235D01*
X131579329Y-99355970D01*
X131557151Y-99345480D01*
X131536107Y-99332867D01*
X131516402Y-99318253D01*
X131498223Y-99301777D01*
X131481747Y-99283598D01*
X131467133Y-99263893D01*
X131454520Y-99242849D01*
X131444030Y-99220671D01*
X131435765Y-99197571D01*
X131429804Y-99173773D01*
X131426204Y-99149504D01*
X131425000Y-99125000D01*
X131425000Y-97875000D01*
X131426204Y-97850496D01*
X131429804Y-97826227D01*
X131435765Y-97802429D01*
X131444030Y-97779329D01*
X131454520Y-97757151D01*
X131467133Y-97736107D01*
X131481747Y-97716402D01*
X131498223Y-97698223D01*
X131516402Y-97681747D01*
X131536107Y-97667133D01*
X131557151Y-97654520D01*
X131579329Y-97644030D01*
X131602429Y-97635765D01*
X131626227Y-97629804D01*
X131650496Y-97626204D01*
X131675000Y-97625000D01*
X132425000Y-97625000D01*
X132449504Y-97626204D01*
X132449504Y-97626204D01*
G37*
D11*
X132050000Y-98500000D03*
D19*
X102500000Y-56000000D03*
D20*
X99960000Y-56000000D03*
D19*
X155040000Y-56000000D03*
D20*
X152500000Y-56000000D03*
D16*
X146750000Y-105000000D03*
X143250000Y-105000000D03*
X139750000Y-105000000D03*
X136250000Y-105000000D03*
X132750000Y-105000000D03*
X129250000Y-105000000D03*
X118750000Y-105000000D03*
X115250000Y-105000000D03*
X111750000Y-105000000D03*
X108250000Y-105000000D03*
D10*
G36*
X87549504Y-63626204D02*
G01*
X87573773Y-63629804D01*
X87597571Y-63635765D01*
X87620671Y-63644030D01*
X87642849Y-63654520D01*
X87663893Y-63667133D01*
X87683598Y-63681747D01*
X87701777Y-63698223D01*
X87718253Y-63716402D01*
X87732867Y-63736107D01*
X87745480Y-63757151D01*
X87755970Y-63779329D01*
X87764235Y-63802429D01*
X87770196Y-63826227D01*
X87773796Y-63850496D01*
X87775000Y-63875000D01*
X87775000Y-65125000D01*
X87773796Y-65149504D01*
X87770196Y-65173773D01*
X87764235Y-65197571D01*
X87755970Y-65220671D01*
X87745480Y-65242849D01*
X87732867Y-65263893D01*
X87718253Y-65283598D01*
X87701777Y-65301777D01*
X87683598Y-65318253D01*
X87663893Y-65332867D01*
X87642849Y-65345480D01*
X87620671Y-65355970D01*
X87597571Y-65364235D01*
X87573773Y-65370196D01*
X87549504Y-65373796D01*
X87525000Y-65375000D01*
X86775000Y-65375000D01*
X86750496Y-65373796D01*
X86726227Y-65370196D01*
X86702429Y-65364235D01*
X86679329Y-65355970D01*
X86657151Y-65345480D01*
X86636107Y-65332867D01*
X86616402Y-65318253D01*
X86598223Y-65301777D01*
X86581747Y-65283598D01*
X86567133Y-65263893D01*
X86554520Y-65242849D01*
X86544030Y-65220671D01*
X86535765Y-65197571D01*
X86529804Y-65173773D01*
X86526204Y-65149504D01*
X86525000Y-65125000D01*
X86525000Y-63875000D01*
X86526204Y-63850496D01*
X86529804Y-63826227D01*
X86535765Y-63802429D01*
X86544030Y-63779329D01*
X86554520Y-63757151D01*
X86567133Y-63736107D01*
X86581747Y-63716402D01*
X86598223Y-63698223D01*
X86616402Y-63681747D01*
X86636107Y-63667133D01*
X86657151Y-63654520D01*
X86679329Y-63644030D01*
X86702429Y-63635765D01*
X86726227Y-63629804D01*
X86750496Y-63626204D01*
X86775000Y-63625000D01*
X87525000Y-63625000D01*
X87549504Y-63626204D01*
X87549504Y-63626204D01*
G37*
D11*
X87150000Y-64500000D03*
D10*
G36*
X84749504Y-63626204D02*
G01*
X84773773Y-63629804D01*
X84797571Y-63635765D01*
X84820671Y-63644030D01*
X84842849Y-63654520D01*
X84863893Y-63667133D01*
X84883598Y-63681747D01*
X84901777Y-63698223D01*
X84918253Y-63716402D01*
X84932867Y-63736107D01*
X84945480Y-63757151D01*
X84955970Y-63779329D01*
X84964235Y-63802429D01*
X84970196Y-63826227D01*
X84973796Y-63850496D01*
X84975000Y-63875000D01*
X84975000Y-65125000D01*
X84973796Y-65149504D01*
X84970196Y-65173773D01*
X84964235Y-65197571D01*
X84955970Y-65220671D01*
X84945480Y-65242849D01*
X84932867Y-65263893D01*
X84918253Y-65283598D01*
X84901777Y-65301777D01*
X84883598Y-65318253D01*
X84863893Y-65332867D01*
X84842849Y-65345480D01*
X84820671Y-65355970D01*
X84797571Y-65364235D01*
X84773773Y-65370196D01*
X84749504Y-65373796D01*
X84725000Y-65375000D01*
X83975000Y-65375000D01*
X83950496Y-65373796D01*
X83926227Y-65370196D01*
X83902429Y-65364235D01*
X83879329Y-65355970D01*
X83857151Y-65345480D01*
X83836107Y-65332867D01*
X83816402Y-65318253D01*
X83798223Y-65301777D01*
X83781747Y-65283598D01*
X83767133Y-65263893D01*
X83754520Y-65242849D01*
X83744030Y-65220671D01*
X83735765Y-65197571D01*
X83729804Y-65173773D01*
X83726204Y-65149504D01*
X83725000Y-65125000D01*
X83725000Y-63875000D01*
X83726204Y-63850496D01*
X83729804Y-63826227D01*
X83735765Y-63802429D01*
X83744030Y-63779329D01*
X83754520Y-63757151D01*
X83767133Y-63736107D01*
X83781747Y-63716402D01*
X83798223Y-63698223D01*
X83816402Y-63681747D01*
X83836107Y-63667133D01*
X83857151Y-63654520D01*
X83879329Y-63644030D01*
X83902429Y-63635765D01*
X83926227Y-63629804D01*
X83950496Y-63626204D01*
X83975000Y-63625000D01*
X84725000Y-63625000D01*
X84749504Y-63626204D01*
X84749504Y-63626204D01*
G37*
D11*
X84350000Y-64500000D03*
D10*
G36*
X87549504Y-70626204D02*
G01*
X87573773Y-70629804D01*
X87597571Y-70635765D01*
X87620671Y-70644030D01*
X87642849Y-70654520D01*
X87663893Y-70667133D01*
X87683598Y-70681747D01*
X87701777Y-70698223D01*
X87718253Y-70716402D01*
X87732867Y-70736107D01*
X87745480Y-70757151D01*
X87755970Y-70779329D01*
X87764235Y-70802429D01*
X87770196Y-70826227D01*
X87773796Y-70850496D01*
X87775000Y-70875000D01*
X87775000Y-72125000D01*
X87773796Y-72149504D01*
X87770196Y-72173773D01*
X87764235Y-72197571D01*
X87755970Y-72220671D01*
X87745480Y-72242849D01*
X87732867Y-72263893D01*
X87718253Y-72283598D01*
X87701777Y-72301777D01*
X87683598Y-72318253D01*
X87663893Y-72332867D01*
X87642849Y-72345480D01*
X87620671Y-72355970D01*
X87597571Y-72364235D01*
X87573773Y-72370196D01*
X87549504Y-72373796D01*
X87525000Y-72375000D01*
X86775000Y-72375000D01*
X86750496Y-72373796D01*
X86726227Y-72370196D01*
X86702429Y-72364235D01*
X86679329Y-72355970D01*
X86657151Y-72345480D01*
X86636107Y-72332867D01*
X86616402Y-72318253D01*
X86598223Y-72301777D01*
X86581747Y-72283598D01*
X86567133Y-72263893D01*
X86554520Y-72242849D01*
X86544030Y-72220671D01*
X86535765Y-72197571D01*
X86529804Y-72173773D01*
X86526204Y-72149504D01*
X86525000Y-72125000D01*
X86525000Y-70875000D01*
X86526204Y-70850496D01*
X86529804Y-70826227D01*
X86535765Y-70802429D01*
X86544030Y-70779329D01*
X86554520Y-70757151D01*
X86567133Y-70736107D01*
X86581747Y-70716402D01*
X86598223Y-70698223D01*
X86616402Y-70681747D01*
X86636107Y-70667133D01*
X86657151Y-70654520D01*
X86679329Y-70644030D01*
X86702429Y-70635765D01*
X86726227Y-70629804D01*
X86750496Y-70626204D01*
X86775000Y-70625000D01*
X87525000Y-70625000D01*
X87549504Y-70626204D01*
X87549504Y-70626204D01*
G37*
D11*
X87150000Y-71500000D03*
D10*
G36*
X84749504Y-70626204D02*
G01*
X84773773Y-70629804D01*
X84797571Y-70635765D01*
X84820671Y-70644030D01*
X84842849Y-70654520D01*
X84863893Y-70667133D01*
X84883598Y-70681747D01*
X84901777Y-70698223D01*
X84918253Y-70716402D01*
X84932867Y-70736107D01*
X84945480Y-70757151D01*
X84955970Y-70779329D01*
X84964235Y-70802429D01*
X84970196Y-70826227D01*
X84973796Y-70850496D01*
X84975000Y-70875000D01*
X84975000Y-72125000D01*
X84973796Y-72149504D01*
X84970196Y-72173773D01*
X84964235Y-72197571D01*
X84955970Y-72220671D01*
X84945480Y-72242849D01*
X84932867Y-72263893D01*
X84918253Y-72283598D01*
X84901777Y-72301777D01*
X84883598Y-72318253D01*
X84863893Y-72332867D01*
X84842849Y-72345480D01*
X84820671Y-72355970D01*
X84797571Y-72364235D01*
X84773773Y-72370196D01*
X84749504Y-72373796D01*
X84725000Y-72375000D01*
X83975000Y-72375000D01*
X83950496Y-72373796D01*
X83926227Y-72370196D01*
X83902429Y-72364235D01*
X83879329Y-72355970D01*
X83857151Y-72345480D01*
X83836107Y-72332867D01*
X83816402Y-72318253D01*
X83798223Y-72301777D01*
X83781747Y-72283598D01*
X83767133Y-72263893D01*
X83754520Y-72242849D01*
X83744030Y-72220671D01*
X83735765Y-72197571D01*
X83729804Y-72173773D01*
X83726204Y-72149504D01*
X83725000Y-72125000D01*
X83725000Y-70875000D01*
X83726204Y-70850496D01*
X83729804Y-70826227D01*
X83735765Y-70802429D01*
X83744030Y-70779329D01*
X83754520Y-70757151D01*
X83767133Y-70736107D01*
X83781747Y-70716402D01*
X83798223Y-70698223D01*
X83816402Y-70681747D01*
X83836107Y-70667133D01*
X83857151Y-70654520D01*
X83879329Y-70644030D01*
X83902429Y-70635765D01*
X83926227Y-70629804D01*
X83950496Y-70626204D01*
X83975000Y-70625000D01*
X84725000Y-70625000D01*
X84749504Y-70626204D01*
X84749504Y-70626204D01*
G37*
D11*
X84350000Y-71500000D03*
D19*
X102500000Y-106750000D03*
D20*
X99960000Y-106750000D03*
D19*
X155040000Y-106750000D03*
D20*
X152500000Y-106750000D03*
D19*
X172410000Y-70250000D03*
X169870000Y-70250000D03*
X167330000Y-70250000D03*
X164790000Y-70250000D03*
X162250000Y-70250000D03*
D20*
X159710000Y-70250000D03*
D21*
X85300000Y-66900000D03*
X87200000Y-66900000D03*
X87200000Y-69100000D03*
X86250000Y-69100000D03*
X85300000Y-69100000D03*
D22*
X126988880Y-55312180D03*
X129688900Y-55312180D03*
X132739440Y-52561360D03*
X131837740Y-53110000D03*
X132739440Y-53661180D03*
X131837740Y-54212360D03*
X132739440Y-54761000D03*
X131837740Y-55312180D03*
X132739440Y-55860820D03*
X131837740Y-56412000D03*
X132739440Y-56960640D03*
X131837740Y-57511820D03*
X132739440Y-58060460D03*
X131837740Y-58700540D03*
X132739440Y-59160280D03*
X131837740Y-59711460D03*
X132739440Y-60260100D03*
X132739440Y-61362460D03*
X131639620Y-61362460D03*
X131088440Y-60460760D03*
X130539800Y-61362460D03*
X129988620Y-60460760D03*
X129439980Y-61362460D03*
X128888800Y-60460760D03*
X128337620Y-61362460D03*
X127788980Y-60460760D03*
X127237800Y-61362460D03*
X126689160Y-60460760D03*
X126137980Y-61362460D03*
X125589340Y-60450600D03*
X125038160Y-61362460D03*
X123938340Y-61362460D03*
X123938340Y-60260100D03*
X124837500Y-59711460D03*
X123938340Y-59160280D03*
X124837500Y-58611640D03*
X123938340Y-58060460D03*
X124837500Y-57511820D03*
X123938340Y-56960640D03*
X124837500Y-56412000D03*
X123938340Y-55860820D03*
X124837500Y-55312180D03*
X123938340Y-54761000D03*
X124837500Y-54212360D03*
X123938340Y-53661180D03*
X124837500Y-53110000D03*
X123938340Y-52561360D03*
D23*
X159250000Y-66700000D03*
X106250000Y-95950000D03*
X106250000Y-97550000D03*
X107450000Y-100750000D03*
X109050000Y-100750000D03*
X114450000Y-100750000D03*
X116050000Y-100750000D03*
X121450000Y-100750000D03*
X123050000Y-100750000D03*
X128450000Y-100750000D03*
X130050000Y-100750000D03*
X135450000Y-100750000D03*
X137050000Y-100750000D03*
X142450000Y-100750000D03*
X144050000Y-100750000D03*
X149450000Y-100750000D03*
X151050000Y-100750000D03*
X111550000Y-61750000D03*
X115013816Y-65213816D03*
X125249970Y-64499970D03*
X127817200Y-67064176D03*
X133000000Y-67250030D03*
X136750030Y-67000000D03*
X146699950Y-62500000D03*
X151550000Y-62500000D03*
X142500000Y-59750000D03*
X141000000Y-59750000D03*
X139250000Y-59750000D03*
X137750000Y-59750000D03*
X135250000Y-59750000D03*
X88500000Y-70750000D03*
X134250000Y-52561360D03*
X134250000Y-61362460D03*
X126137980Y-62750000D03*
X126170275Y-59420275D03*
X122500000Y-60260100D03*
X122500000Y-59160280D03*
X122500000Y-54761000D03*
X122500000Y-53661180D03*
X122500000Y-52561360D03*
X126000000Y-53110000D03*
X126000000Y-54212360D03*
X88500000Y-65250000D03*
X88500000Y-63750000D03*
X88500000Y-72250000D03*
X87500000Y-73750000D03*
X93500000Y-66900000D03*
X93500000Y-69440000D03*
X93500000Y-71980000D03*
X93500000Y-74520000D03*
X93500000Y-77060000D03*
X93500000Y-79600000D03*
X136750000Y-59750000D03*
D24*
X131088440Y-60460760D02*
X131088440Y-61250000D01*
X131088440Y-61250000D02*
X131088440Y-61411560D01*
X131088440Y-61411560D02*
X131088440Y-62000000D01*
X131088440Y-62000000D02*
X131088440Y-62088440D01*
D25*
X85300000Y-65450000D02*
X84350000Y-64500000D01*
X85300000Y-66900000D02*
X85300000Y-65450000D01*
X132500000Y-63700000D02*
X138450000Y-63700000D01*
X155300000Y-60950000D02*
X155300000Y-59250000D01*
X132500000Y-63700000D02*
X131625000Y-62825000D01*
D24*
X131088440Y-62288440D02*
X131625000Y-62825000D01*
X131088440Y-62000000D02*
X131088440Y-62288440D01*
D25*
X109050000Y-100750000D02*
X114450000Y-100750000D01*
X116050000Y-100750000D02*
X121450000Y-100750000D01*
X123050000Y-100750000D02*
X128450000Y-100750000D01*
X130050000Y-100750000D02*
X135450000Y-100750000D01*
X137050000Y-100750000D02*
X142450000Y-100750000D01*
X144050000Y-100750000D02*
X149450000Y-100750000D01*
X153050000Y-99950000D02*
X153050000Y-98500000D01*
X151050000Y-100750000D02*
X152250000Y-100750000D01*
X152250000Y-100750000D02*
X153050000Y-99950000D01*
X146050000Y-98500000D02*
X146050000Y-99475000D01*
X146050000Y-99475000D02*
X146050000Y-100750000D01*
X139050000Y-98500000D02*
X139050000Y-100750000D01*
X132050000Y-98500000D02*
X132050000Y-100750000D01*
X125050000Y-98500000D02*
X125050000Y-100750000D01*
X118050000Y-98500000D02*
X118050000Y-100750000D01*
X111050000Y-98500000D02*
X111050000Y-100750000D01*
X104050000Y-98500000D02*
X105200000Y-98500000D01*
X106250000Y-99550000D02*
X107450000Y-100750000D01*
X105200000Y-98500000D02*
X106250000Y-98500000D01*
X106250000Y-97550000D02*
X106250000Y-98500000D01*
X106250000Y-98500000D02*
X106250000Y-99550000D01*
X84350000Y-64500000D02*
X84350000Y-62650000D01*
X84350000Y-62650000D02*
X85250000Y-61750000D01*
X115013816Y-65213816D02*
X117036184Y-65213816D01*
X117036184Y-65213816D02*
X118500000Y-63750000D01*
X118500000Y-63750000D02*
X124500000Y-63750000D01*
X124500000Y-63750000D02*
X125250000Y-64500000D01*
X125250000Y-64500000D02*
X125249970Y-64499970D01*
X127817200Y-67064176D02*
X128814176Y-67064176D01*
X129000030Y-67250030D02*
X128814176Y-67064176D01*
X132500000Y-67250030D02*
X129000030Y-67250030D01*
X91000000Y-79500000D02*
X91000000Y-61750000D01*
X106250000Y-94750000D02*
X91000000Y-79500000D01*
X106250000Y-95950000D02*
X106250000Y-94750000D01*
X85250000Y-61750000D02*
X91000000Y-61750000D01*
X132500000Y-67250030D02*
X133000000Y-67250030D01*
X140962500Y-67000000D02*
X141750000Y-66212500D01*
X136750030Y-67000000D02*
X140962500Y-67000000D01*
X141750000Y-66212500D02*
X141062500Y-66212500D01*
X139187500Y-63650000D02*
X141750000Y-66212500D01*
X138500000Y-63650000D02*
X139187500Y-63650000D01*
X142839759Y-65122741D02*
X142877259Y-65122741D01*
X141750000Y-66212500D02*
X142839759Y-65122741D01*
X142877259Y-65122741D02*
X143250000Y-64750000D01*
X143250000Y-64750000D02*
X144449950Y-64750000D01*
X144449950Y-64750000D02*
X146699950Y-62500000D01*
X159250000Y-66500000D02*
X159250000Y-66700000D01*
X151550000Y-62500000D02*
X155250000Y-62500000D01*
X155250000Y-62500000D02*
X159250000Y-66500000D01*
X155300000Y-60950000D02*
X155300000Y-62500000D01*
X91000000Y-61750000D02*
X111550000Y-61750000D01*
X102800000Y-59250000D02*
X102800000Y-60225000D01*
X102800000Y-60225000D02*
X102800000Y-61750000D01*
X141750000Y-60850000D02*
X142500000Y-60100000D01*
X142500000Y-60100000D02*
X142500000Y-59750000D01*
X141000000Y-60100000D02*
X141750000Y-60850000D01*
X141000000Y-59750000D02*
X141000000Y-60100000D01*
X138500000Y-60850000D02*
X139250000Y-60100000D01*
X139250000Y-60100000D02*
X139250000Y-59750000D01*
X137750000Y-60100000D02*
X138500000Y-60850000D01*
X137750000Y-59750000D02*
X137750000Y-60100000D01*
X87750000Y-70750000D02*
X88500000Y-70750000D01*
X87150000Y-71500000D02*
X87150000Y-71650000D01*
X87150000Y-71500000D02*
X87150000Y-71350000D01*
X87150000Y-71350000D02*
X87750000Y-70750000D01*
X87150000Y-71650000D02*
X87750000Y-72250000D01*
X87750000Y-72250000D02*
X88500000Y-72250000D01*
X87750000Y-65250000D02*
X88500000Y-65250000D01*
X87150000Y-64650000D02*
X87750000Y-65250000D01*
D24*
X132739440Y-52561360D02*
X134250000Y-52561360D01*
X134250000Y-52561360D02*
X134250000Y-52561360D01*
X132739440Y-61362460D02*
X134250000Y-61362460D01*
X134250000Y-61362460D02*
X134250000Y-61362460D01*
X123938340Y-54761000D02*
X122500000Y-54761000D01*
X123938340Y-53661180D02*
X122500000Y-53661180D01*
X123938340Y-52561360D02*
X122500000Y-52561360D01*
X124837500Y-53110000D02*
X126000000Y-53110000D01*
X124837500Y-54212360D02*
X126000000Y-54212360D01*
X125589340Y-60450600D02*
X125589340Y-60001210D01*
X125589340Y-60001210D02*
X126170275Y-59420275D01*
X126137980Y-61362460D02*
X126137980Y-62750000D01*
X126137980Y-62750000D02*
X126137980Y-62750000D01*
X126170275Y-59420275D02*
X126170275Y-59420275D01*
X122500000Y-60260100D02*
X122500000Y-60260100D01*
X122500000Y-59160280D02*
X122500000Y-59160280D01*
X122500000Y-54761000D02*
X122500000Y-54761000D01*
X122500000Y-53661180D02*
X122500000Y-53661180D01*
X122500000Y-52561360D02*
X122500000Y-52561360D01*
X126000000Y-53110000D02*
X126000000Y-53110000D01*
X126000000Y-54212360D02*
X126000000Y-54212360D01*
D25*
X86250000Y-70600000D02*
X86250000Y-69100000D01*
X87150000Y-71500000D02*
X86250000Y-70600000D01*
X87150000Y-64650000D02*
X87500000Y-65000000D01*
X87150000Y-64500000D02*
X87150000Y-64650000D01*
X87150000Y-64500000D02*
X87150000Y-64350000D01*
X87150000Y-64350000D02*
X87750000Y-63750000D01*
X87750000Y-63750000D02*
X88500000Y-63750000D01*
X88500000Y-65250000D02*
X88500000Y-65250000D01*
X88500000Y-63750000D02*
X88500000Y-63750000D01*
X88500000Y-72250000D02*
X88500000Y-72250000D01*
X86250000Y-65400000D02*
X87150000Y-64500000D01*
X86250000Y-69100000D02*
X86250000Y-65400000D01*
D24*
X123938340Y-60260100D02*
X122500000Y-60260100D01*
X123938340Y-59160280D02*
X122500000Y-59160280D01*
D25*
X86150000Y-73750000D02*
X87050000Y-73750000D01*
X87050000Y-73750000D02*
X87500000Y-73750000D01*
X95550000Y-71980000D02*
X93500000Y-71980000D01*
X95550000Y-74520000D02*
X93500000Y-74520000D01*
X95550000Y-69440000D02*
X93500000Y-69440000D01*
X95550000Y-66900000D02*
X93500000Y-66900000D01*
X95550000Y-77060000D02*
X93500000Y-77060000D01*
X95550000Y-79600000D02*
X93500000Y-79600000D01*
X136000000Y-60850000D02*
X136750000Y-60100000D01*
X136750000Y-60100000D02*
X136750000Y-59750000D01*
X135250000Y-60100000D02*
X136000000Y-60850000D01*
X135250000Y-59750000D02*
X135250000Y-60100000D01*
D24*
X172410000Y-70250000D02*
X170410000Y-72250000D01*
X131837740Y-56412000D02*
X133412000Y-56412000D01*
X133832736Y-56832736D02*
X134750000Y-56832736D01*
X133412000Y-56412000D02*
X133832736Y-56832736D01*
D25*
X136905728Y-56832736D02*
X134750000Y-56832736D01*
X145655728Y-56832736D02*
X136905728Y-56832736D01*
X148799970Y-59976978D02*
X145655728Y-56832736D01*
X169910000Y-72750000D02*
X158500000Y-72750000D01*
X172410000Y-70250000D02*
X169910000Y-72750000D01*
X158500000Y-72750000D02*
X157830745Y-72749997D01*
X157830745Y-72749997D02*
X157242241Y-72749997D01*
X157242241Y-72749997D02*
X148799970Y-64307726D01*
X148799970Y-64307726D02*
X148799970Y-59976978D01*
D24*
X131837740Y-55312180D02*
X133312180Y-55312180D01*
X134182726Y-56182726D02*
X134750000Y-56182726D01*
X133312180Y-55312180D02*
X134182726Y-56182726D01*
D25*
X145924970Y-56182726D02*
X134750000Y-56182726D01*
X149449980Y-59707736D02*
X145924970Y-56182726D01*
X149449980Y-64038484D02*
X149449980Y-59707736D01*
X157511485Y-72099989D02*
X149449980Y-64038484D01*
X169870000Y-70250000D02*
X168020011Y-72099989D01*
X168020011Y-72099989D02*
X157511485Y-72099989D01*
D24*
X134410356Y-54882706D02*
X134750000Y-54882706D01*
X132739440Y-53661180D02*
X133188830Y-53661180D01*
X133188830Y-53661180D02*
X134410356Y-54882706D01*
D25*
X166480001Y-69400001D02*
X167330000Y-70250000D01*
X134750000Y-54882706D02*
X146463454Y-54882706D01*
X146463454Y-54882706D02*
X150750000Y-59169252D01*
X150750000Y-63500000D02*
X154750000Y-67500000D01*
X150750000Y-59169252D02*
X150750000Y-63500000D01*
X154750000Y-67500000D02*
X164580000Y-67500000D01*
X164580000Y-67500000D02*
X166480001Y-69400001D01*
D24*
X134404938Y-55532716D02*
X134750000Y-55532716D01*
X133084582Y-54212360D02*
X134404938Y-55532716D01*
X131837740Y-54212360D02*
X133084582Y-54212360D01*
D25*
X160150011Y-68150011D02*
X162250000Y-70250000D01*
X154480759Y-68150011D02*
X160150011Y-68150011D01*
X150099990Y-63769242D02*
X154480759Y-68150011D01*
X150099990Y-59438494D02*
X150099990Y-63769242D01*
X146194212Y-55532716D02*
X150099990Y-59438494D01*
X134750000Y-55532716D02*
X146194212Y-55532716D01*
X84250000Y-71600000D02*
X84350000Y-71500000D01*
X84250000Y-73750000D02*
X84250000Y-71600000D01*
X85300000Y-70550000D02*
X84350000Y-71500000D01*
X85300000Y-69100000D02*
X85300000Y-70550000D01*
X84250000Y-73800000D02*
X85200000Y-74750000D01*
X88600000Y-69100000D02*
X87200000Y-69100000D01*
X84250000Y-73750000D02*
X84250000Y-73800000D01*
X88750000Y-74750000D02*
X89500000Y-74000000D01*
X85200000Y-74750000D02*
X88750000Y-74750000D01*
X89500000Y-74000000D02*
X89500000Y-70000000D01*
X89500000Y-70000000D02*
X88600000Y-69100000D01*
D24*
X126812981Y-62425999D02*
X126812981Y-63074001D01*
X126689160Y-60460760D02*
X126689160Y-62302178D01*
X126689160Y-62302178D02*
X126812981Y-62425999D01*
X126049970Y-63837012D02*
X126049970Y-64250000D01*
X126812981Y-63074001D02*
X126049970Y-63837012D01*
D25*
X126049970Y-64942274D02*
X126049970Y-64250000D01*
X125692274Y-65299970D02*
X126049970Y-64942274D01*
X101250000Y-98500000D02*
X103000000Y-96750000D01*
X103000000Y-96750000D02*
X108830748Y-96750000D01*
X108830748Y-96750000D02*
X111349990Y-94230758D01*
X111349990Y-94230758D02*
X111349990Y-73150010D01*
X111349990Y-73150010D02*
X119200030Y-65299970D01*
X119200030Y-65299970D02*
X125692274Y-65299970D01*
X99960000Y-103790000D02*
X99960000Y-106750000D01*
X101250000Y-98500000D02*
X101250000Y-102500000D01*
X101250000Y-102500000D02*
X99960000Y-103790000D01*
X130600040Y-64342284D02*
X130600040Y-64250000D01*
D24*
X130600040Y-63500000D02*
X130600040Y-64342284D01*
X130539800Y-61362460D02*
X130539800Y-63439760D01*
X130539800Y-63439760D02*
X130600040Y-63500000D01*
D25*
X150250000Y-106290000D02*
X150710000Y-106750000D01*
X148540374Y-96790374D02*
X150250000Y-98500000D01*
X146209626Y-96790374D02*
X148540374Y-96790374D01*
X143196152Y-93776900D02*
X146209626Y-96790374D01*
X150250000Y-98500000D02*
X150250000Y-106290000D01*
X130757756Y-64500000D02*
X134257756Y-64500000D01*
X130600040Y-64342284D02*
X130757756Y-64500000D01*
X134257756Y-64500000D02*
X135950030Y-66192274D01*
X135950030Y-66192274D02*
X135950030Y-67442274D01*
X135950030Y-67442274D02*
X143196152Y-74688396D01*
X143196152Y-74688396D02*
X143196152Y-93776900D01*
X150710000Y-106750000D02*
X152500000Y-106750000D01*
X100000000Y-59250000D02*
X100000000Y-56000000D01*
D24*
X123938340Y-55860820D02*
X122360820Y-55860820D01*
X122160620Y-55660620D02*
X121750000Y-55660620D01*
X122360820Y-55860820D02*
X122160620Y-55660620D01*
D25*
X120089380Y-54000000D02*
X121750000Y-55660620D01*
X100650000Y-54000000D02*
X120089380Y-54000000D01*
X100000000Y-56000000D02*
X100000000Y-54650000D01*
X100000000Y-54650000D02*
X100650000Y-54000000D01*
X152500000Y-56000000D02*
X152500000Y-59250000D01*
X152500000Y-56000000D02*
X148500000Y-56000000D01*
X137982696Y-54232696D02*
X137000000Y-54232696D01*
X137000000Y-54232696D02*
X134750000Y-54232696D01*
D24*
X131837740Y-53110000D02*
X133360000Y-53110000D01*
X134482696Y-54232696D02*
X134750000Y-54232696D01*
X133360000Y-53110000D02*
X134482696Y-54232696D01*
D25*
X146732696Y-54232696D02*
X148500000Y-56000000D01*
X137982696Y-54232696D02*
X146732696Y-54232696D01*
D24*
X126699980Y-63752700D02*
X126699980Y-64250000D01*
X127237800Y-61362460D02*
X127237800Y-63214882D01*
X127237800Y-63214882D02*
X126699980Y-63752700D01*
D25*
X108250000Y-98250000D02*
X108250000Y-98500000D01*
X126699980Y-64250000D02*
X126699980Y-65211516D01*
X126699980Y-65211516D02*
X125961516Y-65949980D01*
X125961516Y-65949980D02*
X119469272Y-65949980D01*
X119469272Y-65949980D02*
X112000000Y-73419252D01*
X112000000Y-73419252D02*
X112000000Y-94500000D01*
X112000000Y-94500000D02*
X108250000Y-98250000D01*
X108250000Y-98500000D02*
X108250000Y-105000000D01*
X115250000Y-98500000D02*
X115250000Y-105000000D01*
X126980758Y-65849990D02*
X127349990Y-65480758D01*
X127349990Y-65480758D02*
X127349990Y-64250000D01*
D24*
X127349990Y-63668390D02*
X127349990Y-64250000D01*
X127788980Y-60460760D02*
X127788980Y-63229400D01*
X127788980Y-63229400D02*
X127349990Y-63668390D01*
D25*
X126969223Y-65861527D02*
X127290374Y-65540374D01*
X126230760Y-66599990D02*
X126969223Y-65861527D01*
X119738514Y-66599990D02*
X126230760Y-66599990D01*
X112650011Y-73688493D02*
X119738514Y-66599990D01*
X115250000Y-98500000D02*
X112650011Y-95900011D01*
X112650011Y-95900011D02*
X112650011Y-73688493D01*
X122250000Y-105000000D02*
X122250000Y-98500000D01*
D24*
X128337620Y-61362460D02*
X128337620Y-62250000D01*
X128337620Y-62250000D02*
X128337620Y-62346681D01*
X128337620Y-63246459D02*
X128000000Y-63584079D01*
X128337620Y-62250000D02*
X128337620Y-63246459D01*
X128000000Y-63584079D02*
X128000000Y-64250000D01*
D25*
X120500000Y-96750000D02*
X121554290Y-97804290D01*
X114419252Y-96750000D02*
X120500000Y-96750000D01*
X128000000Y-64250000D02*
X128000000Y-65750000D01*
X128000000Y-65750000D02*
X127823399Y-65926601D01*
X127823399Y-65926601D02*
X127238468Y-66511536D01*
X127238468Y-66511536D02*
X126500004Y-67250000D01*
X121554290Y-97804290D02*
X122250000Y-98500000D01*
X113300022Y-95630770D02*
X114419252Y-96750000D01*
X113300021Y-73957735D02*
X113300022Y-95630770D01*
X126500004Y-67250000D02*
X120007756Y-67250000D01*
X120007756Y-67250000D02*
X113300021Y-73957735D01*
X129250000Y-98500000D02*
X129250000Y-105000000D01*
X128650010Y-65150010D02*
X128650010Y-64250000D01*
X129950030Y-66450030D02*
X128650010Y-65150010D01*
D24*
X128650010Y-63499768D02*
X128650010Y-64250000D01*
X128888800Y-63260978D02*
X128650010Y-63499768D01*
X128888800Y-60460760D02*
X128888800Y-63260978D01*
D25*
X132884002Y-66450030D02*
X133049970Y-66450030D01*
X132799970Y-66450030D02*
X132884002Y-66450030D01*
X132799970Y-66450030D02*
X129950030Y-66450030D01*
X132550020Y-95199980D02*
X129250000Y-98500000D01*
X139699980Y-95199980D02*
X132550020Y-95199980D01*
X133450030Y-66450030D02*
X134000000Y-67000000D01*
X134000000Y-67000000D02*
X134000000Y-68250000D01*
X134000000Y-68250000D02*
X141246122Y-75496122D01*
X132799970Y-66450030D02*
X133450030Y-66450030D01*
X141246122Y-75496122D02*
X141246122Y-93653838D01*
X141246122Y-93653838D02*
X139699980Y-95199980D01*
D24*
X129950030Y-63331146D02*
X129950030Y-64250000D01*
X129988620Y-63292556D02*
X129950030Y-63331146D01*
X129988620Y-60460760D02*
X129988620Y-63292556D01*
D25*
X142546142Y-94046142D02*
X143250000Y-94750000D01*
X129950030Y-64250000D02*
X129950030Y-64611526D01*
X142546142Y-74957638D02*
X142546142Y-94046142D01*
X129950030Y-64611526D02*
X130488514Y-65150010D01*
X130488514Y-65150010D02*
X133988514Y-65150010D01*
X143250000Y-94750000D02*
X143250000Y-98500000D01*
X133988514Y-65150010D02*
X135300020Y-66461516D01*
X135300020Y-66461516D02*
X135300020Y-67711516D01*
X135300020Y-67711516D02*
X142546142Y-74957638D01*
X143250000Y-98500000D02*
X143250000Y-105000000D01*
X136250000Y-105000000D02*
X136250000Y-98500000D01*
D24*
X129300020Y-63415457D02*
X129300020Y-64250000D01*
X129439980Y-63275497D02*
X129300020Y-63415457D01*
X129439980Y-61362460D02*
X129439980Y-63275497D01*
D25*
X130219272Y-65800020D02*
X129300020Y-64880768D01*
X129300020Y-64880768D02*
X129300020Y-64250000D01*
X136250000Y-98500000D02*
X138900010Y-95849990D01*
X138900010Y-95849990D02*
X139969222Y-95849990D01*
X139969222Y-95849990D02*
X141896132Y-93923080D01*
X141896132Y-93923080D02*
X141896132Y-75226880D01*
X133719272Y-65800020D02*
X130219272Y-65800020D01*
X134650010Y-66730758D02*
X133719272Y-65800020D01*
X141896132Y-75226880D02*
X134650010Y-67980758D01*
X134650010Y-67980758D02*
X134650010Y-66730758D01*
X171040000Y-81500000D02*
X172540000Y-80000000D01*
X166250000Y-81500000D02*
X171040000Y-81500000D01*
X163400000Y-80000000D02*
X164750000Y-80000000D01*
X164750000Y-80000000D02*
X166250000Y-81500000D01*
X164960000Y-77500000D02*
X167460000Y-80000000D01*
X163400000Y-77500000D02*
X164960000Y-77500000D01*
D24*
X134517254Y-57482746D02*
X134750000Y-57482746D01*
X132739440Y-58060460D02*
X133939540Y-58060460D01*
X133939540Y-58060460D02*
X134517254Y-57482746D01*
D25*
X145386486Y-57482746D02*
X134750000Y-57482746D01*
X159822992Y-76250000D02*
X148149960Y-64576968D01*
X148149960Y-64576968D02*
X148149960Y-60246220D01*
X148149960Y-60246220D02*
X145386486Y-57482746D01*
X160600000Y-76525000D02*
X160600000Y-77500000D01*
X160325000Y-76250000D02*
X160600000Y-76525000D01*
X159822992Y-76250000D02*
X160325000Y-76250000D01*
D24*
X133722476Y-59160280D02*
X134750000Y-58132756D01*
X133410280Y-59160280D02*
X133722476Y-59160280D01*
X133410280Y-59160280D02*
X132739440Y-59160280D01*
D25*
X145117244Y-58132756D02*
X134750000Y-58132756D01*
X147499950Y-60515462D02*
X145117244Y-58132756D01*
X147499950Y-64846210D02*
X147499950Y-60515462D01*
X159250000Y-76596260D02*
X147499950Y-64846210D01*
X159250000Y-78650000D02*
X159250000Y-76596260D01*
X160600000Y-80000000D02*
X159250000Y-78650000D01*
X85200000Y-78000000D02*
X85250000Y-78050000D01*
X85200000Y-75750000D02*
X85200000Y-78000000D01*
X85750000Y-83450000D02*
X85250000Y-82950000D01*
X85750000Y-88250000D02*
X85750000Y-83450000D01*
X104450000Y-66900000D02*
X106750000Y-66900000D01*
X106750000Y-66900000D02*
X107600000Y-66900000D01*
X107600000Y-66900000D02*
X117000000Y-57500000D01*
X117000000Y-57500000D02*
X118000000Y-56500000D01*
X118189372Y-56310628D02*
X121480756Y-56310628D01*
X118000000Y-56500000D02*
X118189372Y-56310628D01*
D24*
X124837500Y-56412000D02*
X122412000Y-56412000D01*
X122310628Y-56310628D02*
X121480756Y-56310628D01*
X122412000Y-56412000D02*
X122310628Y-56310628D01*
D25*
X105979252Y-69440000D02*
X107869244Y-67550008D01*
X104450000Y-69440000D02*
X105979252Y-69440000D01*
X107869244Y-67550008D02*
X110834626Y-64584626D01*
X110834626Y-64584626D02*
X118458614Y-56960638D01*
X118458614Y-56960638D02*
X121500000Y-56960638D01*
D24*
X121500002Y-56960640D02*
X121500000Y-56960638D01*
X123938340Y-56960640D02*
X121500002Y-56960640D01*
D25*
X104450000Y-71980000D02*
X104650000Y-71980000D01*
X104450000Y-71980000D02*
X106000000Y-71980000D01*
X106000000Y-71980000D02*
X106020000Y-71980000D01*
X106020000Y-71980000D02*
X106500000Y-71500000D01*
X107000000Y-71000000D02*
X107000000Y-69338504D01*
X106500000Y-71500000D02*
X107000000Y-71000000D01*
X107000000Y-69338504D02*
X110838504Y-65500000D01*
X110838504Y-65500000D02*
X111103870Y-65234634D01*
X111103870Y-65234634D02*
X118727856Y-57610648D01*
X118727856Y-57610648D02*
X121500000Y-57610648D01*
D24*
X121500000Y-57610648D02*
X122639352Y-57610648D01*
X122738180Y-57511820D02*
X124837500Y-57511820D01*
X122639352Y-57610648D02*
X122738180Y-57511820D01*
X123938340Y-58060460D02*
X122689540Y-58060460D01*
X122489342Y-58260658D02*
X121500000Y-58260658D01*
X122689540Y-58060460D02*
X122489342Y-58260658D01*
D25*
X118997098Y-58260658D02*
X121500000Y-58260658D01*
X107650010Y-69607746D02*
X118997098Y-58260658D01*
X107650010Y-72569990D02*
X107650010Y-69607746D01*
X104450000Y-74520000D02*
X105700000Y-74520000D01*
X105700000Y-74520000D02*
X107650010Y-72569990D01*
D24*
X122250000Y-61500000D02*
X122750000Y-61500000D01*
X122887540Y-61362460D02*
X123938340Y-61362460D01*
X122750000Y-61500000D02*
X122887540Y-61362460D01*
D25*
X116677008Y-61500000D02*
X122250000Y-61500000D01*
X108300020Y-69876988D02*
X116677008Y-61500000D01*
X108300020Y-74459980D02*
X108300020Y-69876988D01*
X104450000Y-77060000D02*
X105700000Y-77060000D01*
X105700000Y-77060000D02*
X108300020Y-74459980D01*
X104450000Y-79600000D02*
X105700000Y-79600000D01*
X105700000Y-79600000D02*
X105900000Y-79600000D01*
X105900000Y-79600000D02*
X107000000Y-78500000D01*
X108950030Y-76549970D02*
X108950030Y-71807726D01*
X107000000Y-78500000D02*
X108950030Y-76549970D01*
X108950030Y-71807726D02*
X108950030Y-70250000D01*
X108950030Y-70250000D02*
X108950030Y-70146230D01*
X108950030Y-70146230D02*
X116946250Y-62150010D01*
X116946250Y-62150010D02*
X122250000Y-62150010D01*
D24*
X122250000Y-62150010D02*
X124849990Y-62150010D01*
X125038160Y-61961840D02*
X125038160Y-61362460D01*
X124849990Y-62150010D02*
X125038160Y-61961840D01*
M02*
